M48
; DRILL file {KiCad 7.0.8} date Thu Nov 16 17:46:54 2023
; FORMAT={-:-/ absolute / metric / decimal}
; #@! TF.CreationDate,2023-11-16T17:46:54+01:00
; #@! TF.GenerationSoftware,Kicad,Pcbnew,7.0.8
; #@! TF.FileFunction,Plated,1,2,PTH
FMAT,2
METRIC
; #@! TA.AperFunction,Plated,PTH,ComponentDrill
T1C0.200
; #@! TA.AperFunction,Plated,PTH,ViaDrill
T2C0.400
; #@! TA.AperFunction,Plated,PTH,ComponentDrill
T3C0.400
; #@! TA.AperFunction,Plated,PTH,ComponentDrill
T4C0.500
; #@! TA.AperFunction,Plated,PTH,ComponentDrill
T5C0.600
; #@! TA.AperFunction,Plated,PTH,ComponentDrill
T6C1.100
; #@! TA.AperFunction,Plated,PTH,ComponentDrill
T7C2.200
%
G90
G05
T1
X153.81Y-73.447
X153.81Y-75.282
X154.727Y-72.53
X154.727Y-74.365
X154.727Y-76.2
X155.645Y-73.447
X155.645Y-75.282
X156.562Y-72.53
X156.562Y-74.365
X156.562Y-76.2
X157.48Y-73.447
X157.48Y-75.282
T2
X127.0Y-78.74
X128.5Y-87.0
X129.0Y-85.5
X129.5Y-100.0
X129.512Y-71.012
X130.5Y-71.5
X130.75Y-78.25
X131.5Y-77.5
X133.5Y-100.0
X134.112Y-92.71
X135.0Y-103.0
X135.75Y-76.0
X139.446Y-89.154
X140.0Y-93.0
X146.05Y-90.678
X148.336Y-68.072
X148.59Y-89.408
X162.052Y-87.122
X164.592Y-87.122
X165.1Y-89.408
X166.116Y-85.852
X166.878Y-83.312
X169.418Y-71.882
X169.672Y-68.58
X169.672Y-73.66
X171.45Y-100.35
X173.309Y-76.2
X173.687Y-77.749
X173.941Y-74.447
X175.768Y-76.708
X182.324Y-97.85
T3
X132.08Y-83.38
X132.08Y-84.23
X132.08Y-85.08
X132.08Y-85.93
X132.08Y-86.78
X132.08Y-87.63
X132.08Y-88.48
X132.08Y-89.33
X133.43Y-83.38
X133.43Y-84.23
X133.43Y-85.08
X133.43Y-85.93
X133.43Y-86.78
X133.43Y-87.63
X133.43Y-88.48
X133.43Y-89.33
T4
X140.462Y-72.644
T6
X139.482Y-99.112
X139.482Y-105.612
X143.982Y-99.112
X143.982Y-105.612
X172.824Y-86.106
X172.824Y-90.606
X179.324Y-86.106
X179.324Y-90.606
X183.388Y-68.072
X183.388Y-70.612
X183.388Y-73.152
X183.388Y-75.692
X183.388Y-78.232
X183.388Y-80.772
T7
X127.5Y-68.58
X173.736Y-105.156
T5
X129.47Y-82.03G85X128.67Y-82.03
G05
X129.47Y-90.68G85X128.67Y-90.68
G05
X133.2Y-82.03G85X131.7Y-82.03
G05
X133.2Y-90.68G85X131.7Y-90.68
G05
T0
M30
