G04 #@! TF.GenerationSoftware,KiCad,Pcbnew,7.0.8*
G04 #@! TF.CreationDate,2023-11-16T17:46:21+01:00*
G04 #@! TF.ProjectId,ESP32-aqs,45535033-322d-4617-9173-2e6b69636164,rev?*
G04 #@! TF.SameCoordinates,Original*
G04 #@! TF.FileFunction,Copper,L2,Bot*
G04 #@! TF.FilePolarity,Positive*
%FSLAX46Y46*%
G04 Gerber Fmt 4.6, Leading zero omitted, Abs format (unit mm)*
G04 Created by KiCad (PCBNEW 7.0.8) date 2023-11-16 17:46:21*
%MOMM*%
%LPD*%
G01*
G04 APERTURE LIST*
G04 #@! TA.AperFunction,ComponentPad*
%ADD10C,0.650000*%
G04 #@! TD*
G04 #@! TA.AperFunction,ComponentPad*
%ADD11O,2.216000X1.108000*%
G04 #@! TD*
G04 #@! TA.AperFunction,ComponentPad*
%ADD12C,3.500000*%
G04 #@! TD*
G04 #@! TA.AperFunction,ComponentPad*
%ADD13C,2.000000*%
G04 #@! TD*
G04 #@! TA.AperFunction,ComponentPad*
%ADD14C,0.300000*%
G04 #@! TD*
G04 #@! TA.AperFunction,ComponentPad*
%ADD15R,1.000000X1.000000*%
G04 #@! TD*
G04 #@! TA.AperFunction,ComponentPad*
%ADD16R,2.200000X2.200000*%
G04 #@! TD*
G04 #@! TA.AperFunction,ComponentPad*
%ADD17C,2.200000*%
G04 #@! TD*
G04 #@! TA.AperFunction,ViaPad*
%ADD18C,0.800000*%
G04 #@! TD*
G04 #@! TA.AperFunction,Conductor*
%ADD19C,0.250000*%
G04 #@! TD*
G04 #@! TA.AperFunction,Conductor*
%ADD20C,0.200000*%
G04 #@! TD*
G04 APERTURE END LIST*
D10*
X133430000Y-83380000D03*
X133430000Y-84230000D03*
X133430000Y-85080000D03*
X133430000Y-85930000D03*
X133430000Y-86780000D03*
X133430000Y-87630000D03*
X133430000Y-88480000D03*
X133430000Y-89330000D03*
X132080000Y-89330000D03*
X132080000Y-88480000D03*
X132080000Y-87630000D03*
X132080000Y-86780000D03*
X132080000Y-85930000D03*
X132080000Y-85080000D03*
X132080000Y-84230000D03*
X132080000Y-83380000D03*
D11*
X132450000Y-82030000D03*
X132450000Y-90680000D03*
X129070000Y-90680000D03*
X129070000Y-82030000D03*
D12*
X173736000Y-105156000D03*
D13*
X139482000Y-105612000D03*
X139482000Y-99112000D03*
X143982000Y-105612000D03*
X143982000Y-99112000D03*
D14*
X154727500Y-72530000D03*
X156562500Y-72530000D03*
X153810000Y-73447500D03*
X155645000Y-73447500D03*
X157480000Y-73447500D03*
X154727500Y-74365000D03*
X156562500Y-74365000D03*
X153810000Y-75282500D03*
X155645000Y-75282500D03*
X157480000Y-75282500D03*
X154727500Y-76200000D03*
X156562500Y-76200000D03*
D12*
X127500000Y-68580000D03*
D15*
X140462000Y-72644000D03*
D16*
X183388000Y-80772000D03*
D17*
X183388000Y-78232000D03*
X183388000Y-75692000D03*
X183388000Y-73152000D03*
X183388000Y-70612000D03*
X183388000Y-68072000D03*
D13*
X172824000Y-86106000D03*
X179324000Y-86106000D03*
X172824000Y-90606000D03*
X179324000Y-90606000D03*
D18*
X135750000Y-76000000D03*
X130750000Y-78250000D03*
X131500000Y-77500000D03*
X133500000Y-100000000D03*
X129500000Y-100000000D03*
X135000000Y-103000000D03*
X140000000Y-93000000D03*
X130500000Y-71500000D03*
X129512299Y-71012299D03*
X128500000Y-87000000D03*
X129000000Y-85500000D03*
X127000000Y-78740000D03*
X134112000Y-92710000D03*
X139446000Y-89154000D03*
X165100000Y-89408000D03*
X182324000Y-97850000D03*
X173687000Y-77749000D03*
X169672000Y-73660000D03*
X148336000Y-68072000D03*
X169672000Y-68580000D03*
X175768000Y-76708000D03*
X146050000Y-90678000D03*
X173309075Y-76199500D03*
X169418000Y-71882000D03*
X171450000Y-100350000D03*
X166116000Y-85852000D03*
X148590000Y-89408000D03*
X173941000Y-74447000D03*
X162052000Y-87122000D03*
X164592000Y-87122000D03*
X166878000Y-83312000D03*
D19*
X130750000Y-90250000D02*
X130750000Y-97250000D01*
X127500000Y-87025305D02*
X128199695Y-87725000D01*
X130750000Y-78250000D02*
X130500000Y-78250000D01*
X127500000Y-81250000D02*
X127500000Y-87025305D01*
X130500000Y-78250000D02*
X127500000Y-81250000D01*
X128199695Y-87725000D02*
X128225000Y-87725000D01*
X128225000Y-87725000D02*
X130750000Y-90250000D01*
X130750000Y-97250000D02*
X133500000Y-100000000D01*
X126250000Y-81250000D02*
X126250000Y-96750000D01*
X126250000Y-96750000D02*
X129500000Y-100000000D01*
X130000000Y-77500000D02*
X126250000Y-81250000D01*
X131500000Y-77500000D02*
X130000000Y-77500000D01*
D20*
X133213932Y-86780000D02*
X133430000Y-86780000D01*
X132363932Y-85930000D02*
X133213932Y-86780000D01*
X132080000Y-85930000D02*
X132363932Y-85930000D01*
D19*
X135000000Y-98000000D02*
X135000000Y-103000000D01*
X140000000Y-93000000D02*
X135000000Y-98000000D01*
X160334000Y-71353305D02*
X130834000Y-71353305D01*
X173470397Y-73353305D02*
X171212897Y-75610805D01*
X164591500Y-75610805D02*
X160334000Y-71353305D01*
X175000000Y-74000000D02*
X174353305Y-73353305D01*
X174353305Y-73353305D02*
X173470397Y-73353305D01*
X171212897Y-75610805D02*
X164591500Y-75610805D01*
X175000000Y-74508575D02*
X175000000Y-74000000D01*
X173309075Y-76199500D02*
X175000000Y-74508575D01*
X164500000Y-70500000D02*
X169000000Y-75000000D01*
X169000000Y-75000000D02*
X171000000Y-75000000D01*
X130024598Y-70500000D02*
X164500000Y-70500000D01*
X129512299Y-71012299D02*
X130024598Y-70500000D01*
X171000000Y-75000000D02*
X174054001Y-71946000D01*
X174054001Y-71946000D02*
X173990000Y-71882000D01*
D20*
X128720000Y-86780000D02*
X132080000Y-86780000D01*
X128500000Y-87000000D02*
X128720000Y-86780000D01*
X129430000Y-85930000D02*
X132080000Y-85930000D01*
X129000000Y-85500000D02*
X129430000Y-85930000D01*
D19*
X127000000Y-78740000D02*
X133096000Y-72644000D01*
X133096000Y-72644000D02*
X140462000Y-72644000D01*
X135890000Y-92710000D02*
X139446000Y-89154000D01*
X134112000Y-92710000D02*
X135890000Y-92710000D01*
X162315305Y-90424000D02*
X165317000Y-87422305D01*
X139446000Y-89154000D02*
X145551305Y-89154000D01*
X165317000Y-83468091D02*
X166235091Y-82550000D01*
X146812000Y-90414695D02*
X147056695Y-90414695D01*
X184912000Y-82550000D02*
X185928000Y-81534000D01*
X166235091Y-82550000D02*
X184912000Y-82550000D01*
X165317000Y-87422305D02*
X165317000Y-83468091D01*
X145551305Y-89154000D02*
X146812000Y-90414695D01*
X147056695Y-90414695D02*
X147066000Y-90424000D01*
X185928000Y-75692000D02*
X183388000Y-73152000D01*
X185928000Y-81534000D02*
X185928000Y-75692000D01*
X147066000Y-90424000D02*
X162315305Y-90424000D01*
X173687000Y-77011000D02*
X173990000Y-76708000D01*
X173687000Y-77749000D02*
X173687000Y-77011000D01*
X173990000Y-76708000D02*
X175768000Y-76708000D01*
X149098000Y-67310000D02*
X148336000Y-68072000D01*
X169672000Y-68580000D02*
X168402000Y-67310000D01*
X168148000Y-70104000D02*
X168148000Y-72136000D01*
X168148000Y-72136000D02*
X169672000Y-73660000D01*
X168402000Y-67310000D02*
X149098000Y-67310000D01*
X169672000Y-68580000D02*
X168148000Y-70104000D01*
X146050000Y-97044000D02*
X143982000Y-99112000D01*
X146050000Y-90678000D02*
X146050000Y-97044000D01*
X173309075Y-76199500D02*
X173562575Y-75946000D01*
X173562575Y-75946000D02*
X181102000Y-75946000D01*
X181102000Y-75946000D02*
X183388000Y-78232000D01*
X183388000Y-75692000D02*
X181356000Y-73660000D01*
X173990000Y-71882000D02*
X169418000Y-71882000D01*
X175768000Y-73660000D02*
X173990000Y-71882000D01*
X181356000Y-73660000D02*
X175768000Y-73660000D01*
X171450000Y-100350000D02*
X169692000Y-100350000D01*
X167894000Y-87630000D02*
X166116000Y-85852000D01*
X167894000Y-98552000D02*
X167894000Y-87630000D01*
X169692000Y-100350000D02*
X167894000Y-98552000D01*
X173941000Y-74447000D02*
X173701695Y-74447000D01*
X173701695Y-74447000D02*
X160772695Y-87376000D01*
X160772695Y-87376000D02*
X150622000Y-87376000D01*
X150622000Y-87376000D02*
X148590000Y-89408000D01*
X162052000Y-87122000D02*
X164592000Y-87122000D01*
X166878000Y-83312000D02*
X170030000Y-83312000D01*
X170030000Y-83312000D02*
X172824000Y-86106000D01*
G04 #@! TA.AperFunction,Conductor*
G36*
X132377137Y-89289086D02*
G01*
X132420932Y-89317379D01*
X132780742Y-89677189D01*
X132814227Y-89738512D01*
X132809243Y-89808204D01*
X132780742Y-89852551D01*
X132700000Y-89933293D01*
X132700000Y-90380000D01*
X132200000Y-90380000D01*
X132200000Y-89803553D01*
X131921628Y-89525181D01*
X131888143Y-89463858D01*
X131892582Y-89401776D01*
X131919613Y-89457905D01*
X131990992Y-89514827D01*
X132057468Y-89530000D01*
X132102532Y-89530000D01*
X132169008Y-89514827D01*
X132240387Y-89457905D01*
X132280000Y-89375649D01*
X132280000Y-89289609D01*
X132307471Y-89283770D01*
X132377137Y-89289086D01*
G37*
G04 #@! TD.AperFunction*
G04 #@! TA.AperFunction,Conductor*
G36*
X130812516Y-82230866D02*
G01*
X130864910Y-82277090D01*
X130878661Y-82307201D01*
X130917520Y-82435302D01*
X131015393Y-82618406D01*
X131147102Y-82778897D01*
X131288255Y-82894737D01*
X131327590Y-82952483D01*
X131329461Y-83022328D01*
X131322879Y-83041008D01*
X131322176Y-83042587D01*
X131268585Y-83207523D01*
X131268584Y-83207526D01*
X131250456Y-83380000D01*
X131268584Y-83552473D01*
X131268585Y-83552476D01*
X131322174Y-83717407D01*
X131322175Y-83717409D01*
X131332042Y-83734499D01*
X131348515Y-83802399D01*
X131332044Y-83858495D01*
X131314367Y-83889113D01*
X131314365Y-83889119D01*
X131260224Y-84055747D01*
X131260223Y-84055751D01*
X131241909Y-84230000D01*
X131260223Y-84404249D01*
X131260224Y-84404252D01*
X131314366Y-84570883D01*
X131327135Y-84593000D01*
X131343608Y-84660901D01*
X131327135Y-84717000D01*
X131314366Y-84739116D01*
X131267998Y-84881821D01*
X131260223Y-84905751D01*
X131241909Y-85080000D01*
X131252896Y-85184540D01*
X131240328Y-85253268D01*
X131192596Y-85304292D01*
X131129576Y-85321500D01*
X129987346Y-85321500D01*
X129920307Y-85301815D01*
X129874552Y-85249011D01*
X129869415Y-85235818D01*
X129834529Y-85128449D01*
X129834526Y-85128443D01*
X129739040Y-84963056D01*
X129611253Y-84821134D01*
X129456752Y-84708882D01*
X129282288Y-84631206D01*
X129282286Y-84631205D01*
X129095487Y-84591500D01*
X128904513Y-84591500D01*
X128717714Y-84631205D01*
X128543246Y-84708883D01*
X128388745Y-84821135D01*
X128349649Y-84864556D01*
X128290163Y-84901204D01*
X128220306Y-84899873D01*
X128162258Y-84860986D01*
X128134448Y-84796889D01*
X128133500Y-84781583D01*
X128133500Y-83182592D01*
X128153185Y-83115553D01*
X128205989Y-83069798D01*
X128275147Y-83059854D01*
X128293496Y-83063932D01*
X128309377Y-83068749D01*
X128464221Y-83084000D01*
X128820000Y-83084000D01*
X128820000Y-82330000D01*
X129320000Y-82330000D01*
X129320000Y-83084000D01*
X129675779Y-83084000D01*
X129830618Y-83068750D01*
X130029302Y-83008479D01*
X130212406Y-82910606D01*
X130372897Y-82778897D01*
X130504606Y-82618406D01*
X130602479Y-82435302D01*
X130641339Y-82307201D01*
X130679637Y-82248762D01*
X130743449Y-82220306D01*
X130812516Y-82230866D01*
G37*
G04 #@! TD.AperFunction*
G04 #@! TA.AperFunction,Conductor*
G36*
X132700000Y-82776705D02*
G01*
X132780743Y-82857448D01*
X132814228Y-82918771D01*
X132809244Y-82988463D01*
X132780743Y-83032810D01*
X132706994Y-83106559D01*
X132420931Y-83392621D01*
X132359608Y-83426105D01*
X132307469Y-83426229D01*
X132280000Y-83420390D01*
X132280000Y-83334351D01*
X132240387Y-83252095D01*
X132169008Y-83195173D01*
X132102532Y-83180000D01*
X132057468Y-83180000D01*
X131990992Y-83195173D01*
X131919613Y-83252095D01*
X131893862Y-83305565D01*
X131886571Y-83254853D01*
X131915596Y-83191297D01*
X131921628Y-83184819D01*
X132199999Y-82906447D01*
X132200000Y-82906446D01*
X132200000Y-82330000D01*
X132700000Y-82330000D01*
X132700000Y-82776705D01*
G37*
G04 #@! TD.AperFunction*
G04 #@! TA.AperFunction,Conductor*
G36*
X187394539Y-66060185D02*
G01*
X187440294Y-66112989D01*
X187451500Y-66164500D01*
X187451500Y-107825500D01*
X187431815Y-107892539D01*
X187379011Y-107938294D01*
X187327500Y-107949500D01*
X124800500Y-107949500D01*
X124733461Y-107929815D01*
X124687706Y-107877011D01*
X124676500Y-107825500D01*
X124676500Y-105612005D01*
X137976859Y-105612005D01*
X137997385Y-105859729D01*
X137997387Y-105859738D01*
X138058412Y-106100717D01*
X138158266Y-106328364D01*
X138258564Y-106481882D01*
X138956070Y-105784376D01*
X138958884Y-105797915D01*
X139028442Y-105932156D01*
X139131638Y-106042652D01*
X139260819Y-106121209D01*
X139312002Y-106135549D01*
X138611942Y-106835609D01*
X138658768Y-106872055D01*
X138658770Y-106872056D01*
X138877385Y-106990364D01*
X138877396Y-106990369D01*
X139112506Y-107071083D01*
X139357707Y-107112000D01*
X139606293Y-107112000D01*
X139851493Y-107071083D01*
X140086603Y-106990369D01*
X140086614Y-106990364D01*
X140305228Y-106872057D01*
X140305231Y-106872055D01*
X140352056Y-106835609D01*
X139653568Y-106137121D01*
X139770458Y-106086349D01*
X139887739Y-105990934D01*
X139974928Y-105867415D01*
X140005354Y-105781802D01*
X140705434Y-106481882D01*
X140805731Y-106328369D01*
X140905587Y-106100717D01*
X140966612Y-105859738D01*
X140966614Y-105859729D01*
X140987141Y-105612005D01*
X140987141Y-105612000D01*
X142468835Y-105612000D01*
X142487465Y-105848714D01*
X142542895Y-106079595D01*
X142542895Y-106079597D01*
X142633757Y-106298959D01*
X142633759Y-106298962D01*
X142757820Y-106501410D01*
X142757821Y-106501413D01*
X142757824Y-106501416D01*
X142912031Y-106681969D01*
X142999210Y-106756427D01*
X143092586Y-106836178D01*
X143092589Y-106836179D01*
X143295037Y-106960240D01*
X143295040Y-106960242D01*
X143514403Y-107051104D01*
X143514404Y-107051104D01*
X143514406Y-107051105D01*
X143745289Y-107106535D01*
X143982000Y-107125165D01*
X144218711Y-107106535D01*
X144449594Y-107051105D01*
X144449596Y-107051104D01*
X144449597Y-107051104D01*
X144668959Y-106960242D01*
X144668960Y-106960241D01*
X144668963Y-106960240D01*
X144871416Y-106836176D01*
X145051969Y-106681969D01*
X145206176Y-106501416D01*
X145330240Y-106298963D01*
X145334915Y-106287678D01*
X145421104Y-106079597D01*
X145421104Y-106079596D01*
X145421105Y-106079594D01*
X145476535Y-105848711D01*
X145495165Y-105612000D01*
X145476535Y-105375289D01*
X145423888Y-105156000D01*
X171472654Y-105156000D01*
X171492017Y-105451424D01*
X171492018Y-105451436D01*
X171549774Y-105741789D01*
X171549779Y-105741809D01*
X171644937Y-106022137D01*
X171644941Y-106022147D01*
X171775879Y-106287663D01*
X171775888Y-106287678D01*
X171803074Y-106328364D01*
X171918703Y-106501416D01*
X171940368Y-106533839D01*
X172135572Y-106756427D01*
X172225862Y-106835609D01*
X172358162Y-106951633D01*
X172604327Y-107116115D01*
X172604330Y-107116116D01*
X172604336Y-107116120D01*
X172869852Y-107247058D01*
X172869862Y-107247062D01*
X173150190Y-107342220D01*
X173150194Y-107342221D01*
X173150203Y-107342224D01*
X173346493Y-107381269D01*
X173440563Y-107399981D01*
X173440564Y-107399981D01*
X173440574Y-107399983D01*
X173736000Y-107419346D01*
X174031426Y-107399983D01*
X174321797Y-107342224D01*
X174321809Y-107342220D01*
X174602137Y-107247062D01*
X174602147Y-107247058D01*
X174867663Y-107116120D01*
X174867663Y-107116119D01*
X174867673Y-107116115D01*
X175113838Y-106951633D01*
X175336427Y-106756427D01*
X175531633Y-106533838D01*
X175696115Y-106287673D01*
X175827059Y-106022145D01*
X175846270Y-105965553D01*
X175922220Y-105741809D01*
X175922220Y-105741808D01*
X175922224Y-105741797D01*
X175979983Y-105451426D01*
X175999346Y-105156000D01*
X175979983Y-104860574D01*
X175922224Y-104570203D01*
X175912661Y-104542031D01*
X175827062Y-104289862D01*
X175827058Y-104289852D01*
X175696120Y-104024336D01*
X175696111Y-104024321D01*
X175592191Y-103868794D01*
X175531633Y-103778162D01*
X175488864Y-103729393D01*
X175336427Y-103555572D01*
X175138222Y-103381751D01*
X175113838Y-103360367D01*
X174992417Y-103279236D01*
X174867678Y-103195888D01*
X174867663Y-103195879D01*
X174602147Y-103064941D01*
X174602137Y-103064937D01*
X174321809Y-102969779D01*
X174321789Y-102969774D01*
X174031436Y-102912018D01*
X174031427Y-102912017D01*
X174031426Y-102912017D01*
X173736000Y-102892654D01*
X173440574Y-102912017D01*
X173440573Y-102912017D01*
X173440563Y-102912018D01*
X173150210Y-102969774D01*
X173150190Y-102969779D01*
X172869862Y-103064937D01*
X172869852Y-103064941D01*
X172604336Y-103195879D01*
X172604321Y-103195888D01*
X172358160Y-103360368D01*
X172135572Y-103555572D01*
X171940368Y-103778160D01*
X171775888Y-104024321D01*
X171775879Y-104024336D01*
X171644941Y-104289852D01*
X171644937Y-104289862D01*
X171549779Y-104570190D01*
X171549774Y-104570210D01*
X171492018Y-104860563D01*
X171492017Y-104860575D01*
X171472654Y-105156000D01*
X145423888Y-105156000D01*
X145421105Y-105144406D01*
X145421104Y-105144403D01*
X145421104Y-105144402D01*
X145330242Y-104925040D01*
X145330240Y-104925037D01*
X145206179Y-104722589D01*
X145206178Y-104722586D01*
X145171340Y-104681797D01*
X145051969Y-104542031D01*
X144872078Y-104388389D01*
X144871413Y-104387821D01*
X144871410Y-104387820D01*
X144668962Y-104263759D01*
X144668959Y-104263757D01*
X144449596Y-104172895D01*
X144218714Y-104117465D01*
X143982000Y-104098835D01*
X143745285Y-104117465D01*
X143514404Y-104172895D01*
X143514402Y-104172895D01*
X143295040Y-104263757D01*
X143295037Y-104263759D01*
X143092589Y-104387820D01*
X143092586Y-104387821D01*
X142912031Y-104542031D01*
X142757821Y-104722586D01*
X142757820Y-104722589D01*
X142633759Y-104925037D01*
X142633757Y-104925040D01*
X142542895Y-105144402D01*
X142542895Y-105144404D01*
X142487465Y-105375285D01*
X142468835Y-105612000D01*
X140987141Y-105612000D01*
X140987141Y-105611994D01*
X140966614Y-105364270D01*
X140966612Y-105364261D01*
X140905587Y-105123282D01*
X140805731Y-104895630D01*
X140705434Y-104742116D01*
X140007929Y-105439622D01*
X140005116Y-105426085D01*
X139935558Y-105291844D01*
X139832362Y-105181348D01*
X139703181Y-105102791D01*
X139651997Y-105088450D01*
X140352057Y-104388390D01*
X140352056Y-104388389D01*
X140305229Y-104351943D01*
X140086614Y-104233635D01*
X140086603Y-104233630D01*
X139851493Y-104152916D01*
X139606293Y-104112000D01*
X139357707Y-104112000D01*
X139112506Y-104152916D01*
X138877396Y-104233630D01*
X138877390Y-104233632D01*
X138658761Y-104351949D01*
X138611942Y-104388388D01*
X138611942Y-104388390D01*
X139310431Y-105086878D01*
X139193542Y-105137651D01*
X139076261Y-105233066D01*
X138989072Y-105356585D01*
X138958645Y-105442197D01*
X138258564Y-104742116D01*
X138158267Y-104895632D01*
X138058412Y-105123282D01*
X137997387Y-105364261D01*
X137997385Y-105364270D01*
X137976859Y-105611994D01*
X137976859Y-105612005D01*
X124676500Y-105612005D01*
X124676500Y-68580000D01*
X125236654Y-68580000D01*
X125256017Y-68875424D01*
X125256018Y-68875436D01*
X125313774Y-69165789D01*
X125313779Y-69165809D01*
X125408937Y-69446137D01*
X125408941Y-69446147D01*
X125539879Y-69711663D01*
X125539888Y-69711678D01*
X125551248Y-69728679D01*
X125699386Y-69950384D01*
X125704368Y-69957839D01*
X125899572Y-70180427D01*
X126070225Y-70330085D01*
X126122162Y-70375633D01*
X126368327Y-70540115D01*
X126368330Y-70540116D01*
X126368336Y-70540120D01*
X126633852Y-70671058D01*
X126633862Y-70671062D01*
X126914190Y-70766220D01*
X126914194Y-70766221D01*
X126914203Y-70766224D01*
X127110493Y-70805269D01*
X127204563Y-70823981D01*
X127204564Y-70823981D01*
X127204574Y-70823983D01*
X127500000Y-70843346D01*
X127795426Y-70823983D01*
X128085797Y-70766224D01*
X128290942Y-70696587D01*
X128366137Y-70671062D01*
X128366140Y-70671061D01*
X128366141Y-70671060D01*
X128366145Y-70671059D01*
X128461907Y-70623834D01*
X128530735Y-70611838D01*
X128595126Y-70638959D01*
X128634633Y-70696587D01*
X128636712Y-70766426D01*
X128634680Y-70773363D01*
X128619247Y-70820861D01*
X128618757Y-70822371D01*
X128598795Y-71012299D01*
X128618757Y-71202227D01*
X128618758Y-71202230D01*
X128677769Y-71383848D01*
X128677772Y-71383855D01*
X128773259Y-71549243D01*
X128901046Y-71691165D01*
X129055547Y-71803417D01*
X129230011Y-71881093D01*
X129416812Y-71920799D01*
X129607777Y-71920799D01*
X129607786Y-71920799D01*
X129607794Y-71920797D01*
X129608880Y-71920683D01*
X129609515Y-71920799D01*
X129614285Y-71920799D01*
X129614285Y-71921671D01*
X129677610Y-71933247D01*
X129728638Y-71980974D01*
X129729239Y-71982002D01*
X129760960Y-72036944D01*
X129888442Y-72178528D01*
X129888747Y-72178866D01*
X130043248Y-72291118D01*
X130217712Y-72368794D01*
X130404513Y-72408500D01*
X130595487Y-72408500D01*
X130782288Y-72368794D01*
X130956752Y-72291118D01*
X131111253Y-72178866D01*
X131239040Y-72036944D01*
X131239040Y-72036943D01*
X131243388Y-72032115D01*
X131244527Y-72033140D01*
X131293660Y-71995254D01*
X131338649Y-71986805D01*
X132553986Y-71986805D01*
X132621025Y-72006490D01*
X132666780Y-72059294D01*
X132676724Y-72128452D01*
X132649527Y-72189849D01*
X132628781Y-72214925D01*
X132624849Y-72219246D01*
X127048914Y-77795181D01*
X126987591Y-77828666D01*
X126961233Y-77831500D01*
X126904513Y-77831500D01*
X126717714Y-77871205D01*
X126716926Y-77871556D01*
X126565599Y-77938931D01*
X126543246Y-77948883D01*
X126388745Y-78061135D01*
X126260959Y-78203057D01*
X126165473Y-78368443D01*
X126165470Y-78368450D01*
X126127795Y-78484403D01*
X126106458Y-78550072D01*
X126086496Y-78740000D01*
X126106458Y-78929928D01*
X126106459Y-78929931D01*
X126165470Y-79111549D01*
X126165473Y-79111556D01*
X126260960Y-79276944D01*
X126388747Y-79418866D01*
X126543248Y-79531118D01*
X126717712Y-79608794D01*
X126723246Y-79609970D01*
X126784728Y-79643158D01*
X126818509Y-79704319D01*
X126813860Y-79774034D01*
X126785152Y-79818942D01*
X125861179Y-80742914D01*
X125848820Y-80752818D01*
X125848993Y-80753027D01*
X125842983Y-80757999D01*
X125795016Y-80809078D01*
X125773872Y-80830222D01*
X125773857Y-80830239D01*
X125769531Y-80835814D01*
X125765747Y-80840244D01*
X125733419Y-80874671D01*
X125733412Y-80874681D01*
X125723579Y-80892567D01*
X125712903Y-80908820D01*
X125700386Y-80924957D01*
X125700385Y-80924959D01*
X125681625Y-80968310D01*
X125679055Y-80973556D01*
X125656303Y-81014941D01*
X125656303Y-81014942D01*
X125651225Y-81034720D01*
X125644925Y-81053122D01*
X125636818Y-81071857D01*
X125629431Y-81118495D01*
X125628246Y-81124216D01*
X125616500Y-81169965D01*
X125616500Y-81190384D01*
X125614973Y-81209783D01*
X125611780Y-81229941D01*
X125611780Y-81229942D01*
X125616225Y-81276966D01*
X125616500Y-81282804D01*
X125616500Y-96666366D01*
X125614761Y-96682113D01*
X125615032Y-96682139D01*
X125614298Y-96689905D01*
X125616500Y-96759957D01*
X125616500Y-96789859D01*
X125617384Y-96796856D01*
X125617842Y-96802679D01*
X125619326Y-96849889D01*
X125619327Y-96849891D01*
X125625022Y-96869495D01*
X125628967Y-96888542D01*
X125631526Y-96908797D01*
X125631527Y-96908800D01*
X125631528Y-96908803D01*
X125648914Y-96952716D01*
X125650806Y-96958244D01*
X125663981Y-97003592D01*
X125674372Y-97021162D01*
X125682932Y-97038635D01*
X125690447Y-97057617D01*
X125718209Y-97095827D01*
X125721416Y-97100710D01*
X125745458Y-97141362D01*
X125745462Y-97141366D01*
X125759889Y-97155793D01*
X125772526Y-97170588D01*
X125784528Y-97187107D01*
X125820931Y-97217222D01*
X125825231Y-97221135D01*
X127885678Y-99281583D01*
X128553379Y-99949284D01*
X128586864Y-100010607D01*
X128589018Y-100023999D01*
X128606458Y-100189928D01*
X128606459Y-100189931D01*
X128665470Y-100371549D01*
X128665473Y-100371556D01*
X128760960Y-100536944D01*
X128888747Y-100678866D01*
X129043248Y-100791118D01*
X129217712Y-100868794D01*
X129404513Y-100908500D01*
X129595487Y-100908500D01*
X129782288Y-100868794D01*
X129956752Y-100791118D01*
X130111253Y-100678866D01*
X130239040Y-100536944D01*
X130334527Y-100371556D01*
X130393542Y-100189928D01*
X130413504Y-100000000D01*
X130393542Y-99810072D01*
X130334527Y-99628444D01*
X130239040Y-99463056D01*
X130111253Y-99321134D01*
X129956752Y-99208882D01*
X129782288Y-99131206D01*
X129782286Y-99131205D01*
X129595487Y-99091500D01*
X129538766Y-99091500D01*
X129471727Y-99071815D01*
X129451085Y-99055181D01*
X126919819Y-96523914D01*
X126886334Y-96462591D01*
X126883500Y-96436233D01*
X126883500Y-87604071D01*
X126903185Y-87537032D01*
X126955989Y-87491277D01*
X127025147Y-87481333D01*
X127088703Y-87510358D01*
X127095181Y-87516390D01*
X127692605Y-88113814D01*
X127702511Y-88126178D01*
X127702721Y-88126005D01*
X127707696Y-88132019D01*
X127758789Y-88179999D01*
X127779920Y-88201129D01*
X127779925Y-88201134D01*
X127785497Y-88205456D01*
X127789937Y-88209249D01*
X127824373Y-88241586D01*
X127842262Y-88251420D01*
X127858528Y-88262104D01*
X127880819Y-88279395D01*
X127880500Y-88279805D01*
X127895655Y-88291559D01*
X129018415Y-89414319D01*
X129051900Y-89475642D01*
X129046916Y-89545334D01*
X129005044Y-89601267D01*
X128939580Y-89625684D01*
X128930734Y-89626000D01*
X128464221Y-89626000D01*
X128309381Y-89641249D01*
X128110697Y-89701520D01*
X127927593Y-89799393D01*
X127767102Y-89931102D01*
X127635393Y-90091593D01*
X127537520Y-90274696D01*
X127490409Y-90429999D01*
X127490410Y-90430000D01*
X128503889Y-90430000D01*
X128464390Y-90454457D01*
X128396799Y-90543962D01*
X128366105Y-90651840D01*
X128376454Y-90763521D01*
X128426448Y-90863922D01*
X128498931Y-90930000D01*
X127490410Y-90930000D01*
X127537520Y-91085303D01*
X127635393Y-91268406D01*
X127767102Y-91428897D01*
X127927593Y-91560606D01*
X128110697Y-91658479D01*
X128309381Y-91718750D01*
X128464221Y-91734000D01*
X128820000Y-91734000D01*
X128820000Y-90980000D01*
X129320000Y-90980000D01*
X129320000Y-91734000D01*
X129675779Y-91734000D01*
X129830622Y-91718749D01*
X129956504Y-91680563D01*
X130026371Y-91679939D01*
X130085484Y-91717186D01*
X130115075Y-91780480D01*
X130116500Y-91799223D01*
X130116500Y-97166366D01*
X130114761Y-97182113D01*
X130115032Y-97182139D01*
X130114298Y-97189905D01*
X130116500Y-97259957D01*
X130116500Y-97289859D01*
X130117384Y-97296856D01*
X130117842Y-97302679D01*
X130119326Y-97349889D01*
X130119327Y-97349891D01*
X130125022Y-97369495D01*
X130128967Y-97388542D01*
X130131526Y-97408797D01*
X130131527Y-97408800D01*
X130131528Y-97408803D01*
X130148914Y-97452716D01*
X130150806Y-97458244D01*
X130163981Y-97503592D01*
X130174372Y-97521162D01*
X130182932Y-97538635D01*
X130190447Y-97557617D01*
X130218209Y-97595827D01*
X130221416Y-97600710D01*
X130245458Y-97641362D01*
X130245462Y-97641366D01*
X130259889Y-97655793D01*
X130272526Y-97670588D01*
X130284528Y-97687107D01*
X130320931Y-97717222D01*
X130325231Y-97721135D01*
X131444731Y-98840635D01*
X132553378Y-99949282D01*
X132586863Y-100010605D01*
X132589018Y-100024001D01*
X132596992Y-100099868D01*
X132606458Y-100189928D01*
X132606459Y-100189931D01*
X132665470Y-100371549D01*
X132665473Y-100371556D01*
X132760960Y-100536944D01*
X132888747Y-100678866D01*
X133043248Y-100791118D01*
X133217712Y-100868794D01*
X133404513Y-100908500D01*
X133595487Y-100908500D01*
X133782288Y-100868794D01*
X133956752Y-100791118D01*
X134111253Y-100678866D01*
X134150350Y-100635443D01*
X134209836Y-100598795D01*
X134279693Y-100600125D01*
X134337742Y-100639012D01*
X134365552Y-100703108D01*
X134366500Y-100718416D01*
X134366500Y-102298241D01*
X134346815Y-102365280D01*
X134334650Y-102381213D01*
X134260963Y-102463050D01*
X134260958Y-102463057D01*
X134165473Y-102628443D01*
X134165470Y-102628450D01*
X134106459Y-102810068D01*
X134106458Y-102810072D01*
X134086496Y-103000000D01*
X134106458Y-103189928D01*
X134106459Y-103189931D01*
X134165470Y-103371549D01*
X134165473Y-103371556D01*
X134260960Y-103536944D01*
X134388747Y-103678866D01*
X134543248Y-103791118D01*
X134717712Y-103868794D01*
X134904513Y-103908500D01*
X135095487Y-103908500D01*
X135282288Y-103868794D01*
X135456752Y-103791118D01*
X135611253Y-103678866D01*
X135739040Y-103536944D01*
X135834527Y-103371556D01*
X135893542Y-103189928D01*
X135913504Y-103000000D01*
X135893542Y-102810072D01*
X135834527Y-102628444D01*
X135739040Y-102463056D01*
X135739036Y-102463050D01*
X135665350Y-102381213D01*
X135635120Y-102318221D01*
X135633500Y-102298241D01*
X135633500Y-99112005D01*
X137976859Y-99112005D01*
X137997385Y-99359729D01*
X137997387Y-99359738D01*
X138058412Y-99600717D01*
X138158266Y-99828364D01*
X138258564Y-99981882D01*
X138956070Y-99284376D01*
X138958884Y-99297915D01*
X139028442Y-99432156D01*
X139131638Y-99542652D01*
X139260819Y-99621209D01*
X139312002Y-99635549D01*
X138611942Y-100335609D01*
X138658768Y-100372055D01*
X138658770Y-100372056D01*
X138877385Y-100490364D01*
X138877396Y-100490369D01*
X139112506Y-100571083D01*
X139357707Y-100612000D01*
X139606293Y-100612000D01*
X139851493Y-100571083D01*
X140086603Y-100490369D01*
X140086614Y-100490364D01*
X140305228Y-100372057D01*
X140305231Y-100372055D01*
X140352056Y-100335609D01*
X139653568Y-99637121D01*
X139770458Y-99586349D01*
X139887739Y-99490934D01*
X139974928Y-99367415D01*
X140005354Y-99281802D01*
X140705434Y-99981882D01*
X140805731Y-99828369D01*
X140905587Y-99600717D01*
X140966612Y-99359738D01*
X140966614Y-99359729D01*
X140987141Y-99112005D01*
X140987141Y-99111994D01*
X140966614Y-98864270D01*
X140966612Y-98864261D01*
X140905587Y-98623282D01*
X140805731Y-98395630D01*
X140705434Y-98242116D01*
X140007929Y-98939622D01*
X140005116Y-98926085D01*
X139935558Y-98791844D01*
X139832362Y-98681348D01*
X139703181Y-98602791D01*
X139651997Y-98588450D01*
X140352057Y-97888390D01*
X140352056Y-97888389D01*
X140305229Y-97851943D01*
X140086614Y-97733635D01*
X140086603Y-97733630D01*
X139851493Y-97652916D01*
X139606293Y-97612000D01*
X139357707Y-97612000D01*
X139112506Y-97652916D01*
X138877396Y-97733630D01*
X138877390Y-97733632D01*
X138658761Y-97851949D01*
X138611942Y-97888388D01*
X138611942Y-97888390D01*
X139310431Y-98586878D01*
X139193542Y-98637651D01*
X139076261Y-98733066D01*
X138989072Y-98856585D01*
X138958645Y-98942197D01*
X138258564Y-98242116D01*
X138158267Y-98395632D01*
X138058412Y-98623282D01*
X137997387Y-98864261D01*
X137997385Y-98864270D01*
X137976859Y-99111994D01*
X137976859Y-99112005D01*
X135633500Y-99112005D01*
X135633500Y-98313766D01*
X135653185Y-98246727D01*
X135669819Y-98226085D01*
X139951086Y-93944819D01*
X140012409Y-93911334D01*
X140038767Y-93908500D01*
X140095487Y-93908500D01*
X140282288Y-93868794D01*
X140456752Y-93791118D01*
X140611253Y-93678866D01*
X140739040Y-93536944D01*
X140834527Y-93371556D01*
X140893542Y-93189928D01*
X140913504Y-93000000D01*
X140893542Y-92810072D01*
X140834527Y-92628444D01*
X140739040Y-92463056D01*
X140611253Y-92321134D01*
X140456752Y-92208882D01*
X140282288Y-92131206D01*
X140282286Y-92131205D01*
X140095487Y-92091500D01*
X139904513Y-92091500D01*
X139717714Y-92131205D01*
X139543246Y-92208883D01*
X139388745Y-92321135D01*
X139260959Y-92463057D01*
X139165473Y-92628443D01*
X139165470Y-92628450D01*
X139106459Y-92810068D01*
X139106458Y-92810072D01*
X139097014Y-92899928D01*
X139089019Y-92975996D01*
X139062434Y-93040610D01*
X139053379Y-93050715D01*
X134611179Y-97492914D01*
X134598820Y-97502818D01*
X134598993Y-97503027D01*
X134592983Y-97507999D01*
X134592982Y-97507999D01*
X134592982Y-97508000D01*
X134562018Y-97540973D01*
X134545016Y-97559078D01*
X134523872Y-97580222D01*
X134523857Y-97580239D01*
X134519531Y-97585814D01*
X134515747Y-97590244D01*
X134483419Y-97624671D01*
X134483412Y-97624681D01*
X134473579Y-97642567D01*
X134462903Y-97658820D01*
X134450386Y-97674957D01*
X134450385Y-97674959D01*
X134431625Y-97718310D01*
X134429055Y-97723556D01*
X134406303Y-97764941D01*
X134406303Y-97764942D01*
X134401225Y-97784720D01*
X134394925Y-97803122D01*
X134386818Y-97821857D01*
X134379431Y-97868495D01*
X134378246Y-97874216D01*
X134366500Y-97919965D01*
X134366500Y-97940384D01*
X134364973Y-97959783D01*
X134361780Y-97979941D01*
X134361780Y-97979942D01*
X134366225Y-98026966D01*
X134366500Y-98032804D01*
X134366500Y-99281583D01*
X134346815Y-99348622D01*
X134294011Y-99394377D01*
X134224853Y-99404321D01*
X134161297Y-99375296D01*
X134150351Y-99364556D01*
X134111254Y-99321135D01*
X133978872Y-99224953D01*
X133956752Y-99208882D01*
X133782288Y-99131206D01*
X133782286Y-99131205D01*
X133595487Y-99091500D01*
X133538767Y-99091500D01*
X133471728Y-99071815D01*
X133451086Y-99055181D01*
X131419819Y-97023914D01*
X131386334Y-96962591D01*
X131383500Y-96936233D01*
X131383500Y-91793156D01*
X131403185Y-91726117D01*
X131455989Y-91680362D01*
X131525147Y-91670418D01*
X131543496Y-91674496D01*
X131689377Y-91718749D01*
X131844221Y-91734000D01*
X132200000Y-91734000D01*
X132200000Y-90980000D01*
X132700000Y-90980000D01*
X132700000Y-91734000D01*
X133055779Y-91734000D01*
X133210618Y-91718750D01*
X133409302Y-91658479D01*
X133592406Y-91560606D01*
X133752897Y-91428897D01*
X133884606Y-91268406D01*
X133982479Y-91085303D01*
X134029590Y-90930000D01*
X133366111Y-90930000D01*
X133405610Y-90905543D01*
X133473201Y-90816038D01*
X133503895Y-90708160D01*
X133493546Y-90596479D01*
X133443552Y-90496078D01*
X133371069Y-90430000D01*
X134029590Y-90430000D01*
X134029590Y-90429999D01*
X133982479Y-90274696D01*
X133887077Y-90096215D01*
X133875447Y-90094490D01*
X133812022Y-90065182D01*
X133805960Y-90059513D01*
X133271628Y-89525181D01*
X133238143Y-89463858D01*
X133242582Y-89401776D01*
X133269613Y-89457905D01*
X133340992Y-89514827D01*
X133407468Y-89530000D01*
X133452532Y-89530000D01*
X133519008Y-89514827D01*
X133590387Y-89457905D01*
X133630000Y-89375649D01*
X133630000Y-89289609D01*
X133657471Y-89283770D01*
X133727137Y-89289086D01*
X133770932Y-89317379D01*
X134163350Y-89709797D01*
X134187827Y-89667402D01*
X134241414Y-89502476D01*
X134241415Y-89502473D01*
X134259543Y-89330000D01*
X134241415Y-89157526D01*
X134241414Y-89157523D01*
X134187826Y-88992595D01*
X134177956Y-88975499D01*
X134161483Y-88907598D01*
X134177955Y-88851502D01*
X134195634Y-88820882D01*
X134249777Y-88654249D01*
X134268091Y-88480000D01*
X134249777Y-88305751D01*
X134195634Y-88139118D01*
X134195634Y-88139117D01*
X134182865Y-88117001D01*
X134166391Y-88049101D01*
X134182865Y-87992999D01*
X134195634Y-87970882D01*
X134201889Y-87951630D01*
X134249777Y-87804249D01*
X134268091Y-87630000D01*
X134249777Y-87455751D01*
X134195634Y-87289118D01*
X134195634Y-87289117D01*
X134182865Y-87267001D01*
X134166391Y-87199101D01*
X134182865Y-87142999D01*
X134195634Y-87120882D01*
X134249777Y-86954249D01*
X134268091Y-86780000D01*
X134249777Y-86605751D01*
X134198349Y-86447473D01*
X134195634Y-86439117D01*
X134182865Y-86417001D01*
X134166391Y-86349101D01*
X134182865Y-86292999D01*
X134195634Y-86270882D01*
X134201378Y-86253205D01*
X134249777Y-86104249D01*
X134268091Y-85930000D01*
X134249777Y-85755751D01*
X134211648Y-85638402D01*
X134195634Y-85589117D01*
X134182865Y-85567001D01*
X134166391Y-85499101D01*
X134182865Y-85442999D01*
X134195634Y-85420882D01*
X134249777Y-85254249D01*
X134268091Y-85080000D01*
X134249777Y-84905751D01*
X134195634Y-84739118D01*
X134195634Y-84739117D01*
X134182865Y-84717001D01*
X134166391Y-84649101D01*
X134182865Y-84592999D01*
X134195634Y-84570882D01*
X134204278Y-84544278D01*
X134249777Y-84404249D01*
X134268091Y-84230000D01*
X134249777Y-84055751D01*
X134195634Y-83889118D01*
X134195631Y-83889113D01*
X134177957Y-83858499D01*
X134161484Y-83790598D01*
X134177958Y-83734497D01*
X134187826Y-83717404D01*
X134241414Y-83552476D01*
X134241415Y-83552473D01*
X134259543Y-83380000D01*
X134241415Y-83207526D01*
X134241414Y-83207523D01*
X134187826Y-83042595D01*
X134163349Y-83000202D01*
X133770931Y-83392620D01*
X133709608Y-83426105D01*
X133657469Y-83426229D01*
X133630000Y-83420390D01*
X133630000Y-83334351D01*
X133590387Y-83252095D01*
X133519008Y-83195173D01*
X133452532Y-83180000D01*
X133407468Y-83180000D01*
X133340992Y-83195173D01*
X133269613Y-83252095D01*
X133243862Y-83305565D01*
X133236571Y-83254853D01*
X133265596Y-83191297D01*
X133271628Y-83184819D01*
X133805961Y-82650485D01*
X133867284Y-82617000D01*
X133875448Y-82615508D01*
X133887078Y-82613782D01*
X133982479Y-82435303D01*
X134029590Y-82280000D01*
X133366111Y-82280000D01*
X133405610Y-82255543D01*
X133473201Y-82166038D01*
X133503895Y-82058160D01*
X133493546Y-81946479D01*
X133443552Y-81846078D01*
X133371069Y-81780000D01*
X134029590Y-81780000D01*
X134029590Y-81779999D01*
X133982479Y-81624696D01*
X133884606Y-81441593D01*
X133752897Y-81281102D01*
X133592406Y-81149393D01*
X133409302Y-81051520D01*
X133210618Y-80991249D01*
X133055779Y-80976000D01*
X132700000Y-80976000D01*
X132700000Y-81730000D01*
X132200000Y-81730000D01*
X132200000Y-80976000D01*
X131844221Y-80976000D01*
X131689381Y-80991249D01*
X131490697Y-81051520D01*
X131307593Y-81149393D01*
X131147102Y-81281102D01*
X131015393Y-81441593D01*
X130917520Y-81624696D01*
X130878661Y-81752799D01*
X130840363Y-81811237D01*
X130776551Y-81839694D01*
X130707484Y-81829133D01*
X130655090Y-81782909D01*
X130641339Y-81752799D01*
X130602479Y-81624696D01*
X130504606Y-81441593D01*
X130372897Y-81281102D01*
X130212406Y-81149393D01*
X130029302Y-81051520D01*
X129830618Y-80991249D01*
X129675779Y-80976000D01*
X129320000Y-80976000D01*
X129320000Y-81730000D01*
X128820000Y-81730000D01*
X128820000Y-80965498D01*
X128799147Y-80927309D01*
X128804131Y-80857617D01*
X128832628Y-80813274D01*
X130469091Y-79176811D01*
X130530412Y-79143328D01*
X130582551Y-79143204D01*
X130654513Y-79158500D01*
X130845487Y-79158500D01*
X131032288Y-79118794D01*
X131206752Y-79041118D01*
X131361253Y-78928866D01*
X131489040Y-78786944D01*
X131584527Y-78621556D01*
X131635954Y-78463279D01*
X131675390Y-78405607D01*
X131728100Y-78380311D01*
X131782288Y-78368794D01*
X131956752Y-78291118D01*
X132111253Y-78178866D01*
X132239040Y-78036944D01*
X132334527Y-77871556D01*
X132393542Y-77689928D01*
X132413504Y-77500000D01*
X132393542Y-77310072D01*
X132334527Y-77128444D01*
X132239040Y-76963056D01*
X132111253Y-76821134D01*
X132019445Y-76754431D01*
X154385199Y-76754431D01*
X154495312Y-76812223D01*
X154648575Y-76850000D01*
X154806425Y-76850000D01*
X154959685Y-76812224D01*
X155069797Y-76754431D01*
X156220199Y-76754431D01*
X156330312Y-76812223D01*
X156483575Y-76850000D01*
X156641425Y-76850000D01*
X156794685Y-76812224D01*
X156904799Y-76754430D01*
X156562501Y-76412132D01*
X156562500Y-76412132D01*
X156220199Y-76754430D01*
X156220199Y-76754431D01*
X155069797Y-76754431D01*
X155069799Y-76754430D01*
X154727501Y-76412132D01*
X154727500Y-76412132D01*
X154385199Y-76754430D01*
X154385199Y-76754431D01*
X132019445Y-76754431D01*
X131956752Y-76708882D01*
X131782288Y-76631206D01*
X131782286Y-76631205D01*
X131595487Y-76591500D01*
X131404513Y-76591500D01*
X131217714Y-76631205D01*
X131217712Y-76631206D01*
X131067562Y-76698057D01*
X131043246Y-76708883D01*
X130888745Y-76821135D01*
X130884840Y-76825473D01*
X130825354Y-76862121D01*
X130792691Y-76866500D01*
X130083631Y-76866500D01*
X130067875Y-76864760D01*
X130067850Y-76865032D01*
X130058854Y-76864181D01*
X130057412Y-76863605D01*
X130056585Y-76863514D01*
X130052482Y-76862597D01*
X130052679Y-76861715D01*
X129993966Y-76838270D01*
X129953388Y-76781392D01*
X129950002Y-76711604D01*
X129982849Y-76653053D01*
X130798972Y-75836931D01*
X153467699Y-75836931D01*
X153577812Y-75894723D01*
X153731075Y-75932500D01*
X153888926Y-75932500D01*
X153888928Y-75932499D01*
X153937453Y-75920539D01*
X154007255Y-75923607D01*
X154064318Y-75963926D01*
X154090523Y-76028695D01*
X154090225Y-76055881D01*
X154072726Y-76199999D01*
X154091753Y-76356699D01*
X154147722Y-76504283D01*
X154147725Y-76504288D01*
X154173596Y-76541770D01*
X154173597Y-76541770D01*
X154482876Y-76232492D01*
X154627500Y-76232492D01*
X154665697Y-76285065D01*
X154711662Y-76300000D01*
X154743338Y-76300000D01*
X154789303Y-76285065D01*
X154827500Y-76232492D01*
X154827500Y-76200000D01*
X154939632Y-76200000D01*
X155281401Y-76541770D01*
X155307273Y-76504290D01*
X155363247Y-76356697D01*
X155382273Y-76200000D01*
X155364774Y-76055882D01*
X155376234Y-75986959D01*
X155423138Y-75935172D01*
X155490593Y-75916965D01*
X155517546Y-75920538D01*
X155566077Y-75932500D01*
X155723926Y-75932500D01*
X155723928Y-75932499D01*
X155772453Y-75920539D01*
X155842255Y-75923607D01*
X155899318Y-75963926D01*
X155925523Y-76028695D01*
X155925225Y-76055881D01*
X155907726Y-76199999D01*
X155926753Y-76356699D01*
X155982722Y-76504283D01*
X155982725Y-76504288D01*
X156008596Y-76541770D01*
X156008597Y-76541770D01*
X156317876Y-76232492D01*
X156462500Y-76232492D01*
X156500697Y-76285065D01*
X156546662Y-76300000D01*
X156578338Y-76300000D01*
X156624303Y-76285065D01*
X156662500Y-76232492D01*
X156662500Y-76200000D01*
X156774632Y-76200000D01*
X157116401Y-76541770D01*
X157142273Y-76504290D01*
X157198247Y-76356697D01*
X157217273Y-76200000D01*
X157199774Y-76055882D01*
X157211234Y-75986959D01*
X157258138Y-75935172D01*
X157325593Y-75916965D01*
X157352546Y-75920538D01*
X157401077Y-75932500D01*
X157558925Y-75932500D01*
X157712185Y-75894724D01*
X157822299Y-75836930D01*
X157480001Y-75494632D01*
X157480000Y-75494632D01*
X157157466Y-75817164D01*
X157157463Y-75817165D01*
X157146958Y-75827672D01*
X157093361Y-75881268D01*
X157093357Y-75881274D01*
X156774632Y-76199999D01*
X156774632Y-76200000D01*
X156662500Y-76200000D01*
X156662500Y-76167508D01*
X156624303Y-76114935D01*
X156578338Y-76100000D01*
X156546662Y-76100000D01*
X156500697Y-76114935D01*
X156462500Y-76167508D01*
X156462500Y-76232492D01*
X156317876Y-76232492D01*
X156350368Y-76200000D01*
X156031641Y-75881273D01*
X156031639Y-75881270D01*
X155645001Y-75494632D01*
X155645000Y-75494632D01*
X155322466Y-75817164D01*
X155322463Y-75817165D01*
X155311958Y-75827672D01*
X155258361Y-75881268D01*
X155258357Y-75881274D01*
X154939632Y-76199999D01*
X154939632Y-76200000D01*
X154827500Y-76200000D01*
X154827500Y-76167508D01*
X154789303Y-76114935D01*
X154743338Y-76100000D01*
X154711662Y-76100000D01*
X154665697Y-76114935D01*
X154627500Y-76167508D01*
X154627500Y-76232492D01*
X154482876Y-76232492D01*
X154515368Y-76200000D01*
X154196641Y-75881273D01*
X154196639Y-75881270D01*
X153810001Y-75494632D01*
X153810000Y-75494632D01*
X153467699Y-75836930D01*
X153467699Y-75836931D01*
X130798972Y-75836931D01*
X131353403Y-75282500D01*
X153155226Y-75282500D01*
X153174253Y-75439199D01*
X153230222Y-75586783D01*
X153230225Y-75586788D01*
X153256096Y-75624270D01*
X153256097Y-75624270D01*
X153565376Y-75314992D01*
X153710000Y-75314992D01*
X153748197Y-75367565D01*
X153794162Y-75382500D01*
X153825838Y-75382500D01*
X153871803Y-75367565D01*
X153910000Y-75314992D01*
X153910000Y-75282499D01*
X154022132Y-75282499D01*
X154345663Y-75606030D01*
X154404967Y-75665335D01*
X154727499Y-75987867D01*
X155083921Y-75631444D01*
X155109338Y-75606029D01*
X155400374Y-75314992D01*
X155545000Y-75314992D01*
X155583197Y-75367565D01*
X155629162Y-75382500D01*
X155660838Y-75382500D01*
X155706803Y-75367565D01*
X155745000Y-75314992D01*
X155745000Y-75282499D01*
X155857131Y-75282499D01*
X156180663Y-75606030D01*
X156239967Y-75665335D01*
X156562499Y-75987867D01*
X156918921Y-75631444D01*
X156944338Y-75606029D01*
X157235374Y-75314992D01*
X157380000Y-75314992D01*
X157418197Y-75367565D01*
X157464162Y-75382500D01*
X157495838Y-75382500D01*
X157541803Y-75367565D01*
X157580000Y-75314992D01*
X157580000Y-75282501D01*
X157692132Y-75282501D01*
X158033901Y-75624270D01*
X158059773Y-75586790D01*
X158115747Y-75439197D01*
X158134773Y-75282500D01*
X158115747Y-75125802D01*
X158059773Y-74978209D01*
X158033901Y-74940729D01*
X158033901Y-74940728D01*
X157692132Y-75282499D01*
X157692132Y-75282501D01*
X157580000Y-75282501D01*
X157580000Y-75250008D01*
X157541803Y-75197435D01*
X157495838Y-75182500D01*
X157464162Y-75182500D01*
X157418197Y-75197435D01*
X157380000Y-75250008D01*
X157380000Y-75314992D01*
X157235374Y-75314992D01*
X157267867Y-75282499D01*
X156949141Y-74963773D01*
X156949139Y-74963770D01*
X156562501Y-74577132D01*
X156562500Y-74577132D01*
X156239966Y-74899664D01*
X156239963Y-74899665D01*
X156229458Y-74910172D01*
X156175861Y-74963768D01*
X156175857Y-74963774D01*
X155857131Y-75282499D01*
X155745000Y-75282499D01*
X155745000Y-75250008D01*
X155706803Y-75197435D01*
X155660838Y-75182500D01*
X155629162Y-75182500D01*
X155583197Y-75197435D01*
X155545000Y-75250008D01*
X155545000Y-75314992D01*
X155400374Y-75314992D01*
X155432867Y-75282499D01*
X155114141Y-74963773D01*
X155114139Y-74963770D01*
X154727501Y-74577132D01*
X154727500Y-74577132D01*
X154404966Y-74899664D01*
X154404963Y-74899665D01*
X154394458Y-74910172D01*
X154340861Y-74963768D01*
X154340857Y-74963774D01*
X154022132Y-75282499D01*
X153910000Y-75282499D01*
X153910000Y-75250008D01*
X153871803Y-75197435D01*
X153825838Y-75182500D01*
X153794162Y-75182500D01*
X153748197Y-75197435D01*
X153710000Y-75250008D01*
X153710000Y-75314992D01*
X153565376Y-75314992D01*
X153597868Y-75282500D01*
X153256096Y-74940728D01*
X153230227Y-74978207D01*
X153230224Y-74978213D01*
X153174253Y-75125801D01*
X153155226Y-75282500D01*
X131353403Y-75282500D01*
X132633973Y-74001931D01*
X153467699Y-74001931D01*
X153577812Y-74059723D01*
X153731075Y-74097500D01*
X153888926Y-74097500D01*
X153888928Y-74097499D01*
X153937453Y-74085539D01*
X154007255Y-74088607D01*
X154064318Y-74128926D01*
X154090523Y-74193695D01*
X154090225Y-74220881D01*
X154072726Y-74364999D01*
X154072726Y-74365000D01*
X154090225Y-74509118D01*
X154078765Y-74578041D01*
X154031861Y-74629827D01*
X153964405Y-74648034D01*
X153937455Y-74644461D01*
X153888926Y-74632500D01*
X153731075Y-74632500D01*
X153577815Y-74670275D01*
X153467700Y-74728068D01*
X153810000Y-75070368D01*
X153810001Y-75070368D01*
X154171512Y-74708855D01*
X154191838Y-74688530D01*
X154482876Y-74397492D01*
X154627500Y-74397492D01*
X154665697Y-74450065D01*
X154711662Y-74465000D01*
X154743338Y-74465000D01*
X154789303Y-74450065D01*
X154827500Y-74397492D01*
X154827500Y-74364999D01*
X154939632Y-74364999D01*
X155263163Y-74688530D01*
X155322467Y-74747835D01*
X155645000Y-75070368D01*
X155645001Y-75070368D01*
X156006512Y-74708855D01*
X156026838Y-74688530D01*
X156317876Y-74397492D01*
X156462500Y-74397492D01*
X156500697Y-74450065D01*
X156546662Y-74465000D01*
X156578338Y-74465000D01*
X156624303Y-74450065D01*
X156662500Y-74397492D01*
X156662500Y-74364999D01*
X156774632Y-74364999D01*
X157098163Y-74688530D01*
X157157467Y-74747835D01*
X157480000Y-75070368D01*
X157480001Y-75070368D01*
X157822299Y-74728067D01*
X157712183Y-74670275D01*
X157558925Y-74632500D01*
X157401074Y-74632500D01*
X157352544Y-74644461D01*
X157282742Y-74641391D01*
X157225680Y-74601071D01*
X157199475Y-74536301D01*
X157199774Y-74509117D01*
X157217273Y-74364999D01*
X157199774Y-74220882D01*
X157211234Y-74151959D01*
X157258138Y-74100172D01*
X157325593Y-74081965D01*
X157352546Y-74085538D01*
X157401077Y-74097500D01*
X157558925Y-74097500D01*
X157712185Y-74059724D01*
X157822299Y-74001930D01*
X157480001Y-73659632D01*
X157480000Y-73659632D01*
X157157466Y-73982164D01*
X157157463Y-73982165D01*
X157146958Y-73992672D01*
X157093361Y-74046268D01*
X157093357Y-74046274D01*
X156774632Y-74364999D01*
X156662500Y-74364999D01*
X156662500Y-74332508D01*
X156624303Y-74279935D01*
X156578338Y-74265000D01*
X156546662Y-74265000D01*
X156500697Y-74279935D01*
X156462500Y-74332508D01*
X156462500Y-74397492D01*
X156317876Y-74397492D01*
X156350368Y-74365000D01*
X156031641Y-74046273D01*
X156031639Y-74046270D01*
X155645001Y-73659632D01*
X155645000Y-73659632D01*
X155322466Y-73982164D01*
X155322463Y-73982165D01*
X155311958Y-73992672D01*
X155258361Y-74046268D01*
X155258357Y-74046274D01*
X154939632Y-74364999D01*
X154827500Y-74364999D01*
X154827500Y-74332508D01*
X154789303Y-74279935D01*
X154743338Y-74265000D01*
X154711662Y-74265000D01*
X154665697Y-74279935D01*
X154627500Y-74332508D01*
X154627500Y-74397492D01*
X154482876Y-74397492D01*
X154515368Y-74365000D01*
X154196641Y-74046273D01*
X154196639Y-74046270D01*
X153810001Y-73659632D01*
X153810000Y-73659632D01*
X153467699Y-74001930D01*
X153467699Y-74001931D01*
X132633973Y-74001931D01*
X133322086Y-73313819D01*
X133383409Y-73280334D01*
X133409767Y-73277500D01*
X139382980Y-73277500D01*
X139450019Y-73297185D01*
X139495774Y-73349989D01*
X139499161Y-73358166D01*
X139511110Y-73390203D01*
X139529679Y-73415008D01*
X139598739Y-73507261D01*
X139715796Y-73594889D01*
X139852799Y-73645989D01*
X139880050Y-73648918D01*
X139913345Y-73652499D01*
X139913362Y-73652500D01*
X141010638Y-73652500D01*
X141010654Y-73652499D01*
X141037692Y-73649591D01*
X141071201Y-73645989D01*
X141208204Y-73594889D01*
X141325261Y-73507261D01*
X141369998Y-73447500D01*
X153155226Y-73447500D01*
X153174253Y-73604199D01*
X153230222Y-73751783D01*
X153230225Y-73751788D01*
X153256096Y-73789270D01*
X153256097Y-73789270D01*
X153565376Y-73479992D01*
X153710000Y-73479992D01*
X153748197Y-73532565D01*
X153794162Y-73547500D01*
X153825838Y-73547500D01*
X153871803Y-73532565D01*
X153910000Y-73479992D01*
X153910000Y-73447499D01*
X154022132Y-73447499D01*
X154345663Y-73771030D01*
X154404967Y-73830335D01*
X154727500Y-74152868D01*
X154727501Y-74152868D01*
X155085984Y-73794383D01*
X155109338Y-73771030D01*
X155400376Y-73479992D01*
X155545000Y-73479992D01*
X155583197Y-73532565D01*
X155629162Y-73547500D01*
X155660838Y-73547500D01*
X155706803Y-73532565D01*
X155745000Y-73479992D01*
X155745000Y-73447499D01*
X155857131Y-73447499D01*
X156180663Y-73771030D01*
X156239967Y-73830335D01*
X156562500Y-74152868D01*
X156562501Y-74152868D01*
X156920984Y-73794383D01*
X156944338Y-73771030D01*
X157235376Y-73479992D01*
X157380000Y-73479992D01*
X157418197Y-73532565D01*
X157464162Y-73547500D01*
X157495838Y-73547500D01*
X157541803Y-73532565D01*
X157580000Y-73479992D01*
X157580000Y-73447501D01*
X157692132Y-73447501D01*
X158033901Y-73789270D01*
X158059773Y-73751790D01*
X158115747Y-73604197D01*
X158134773Y-73447500D01*
X158115747Y-73290802D01*
X158059773Y-73143209D01*
X158033901Y-73105729D01*
X158033901Y-73105728D01*
X157692132Y-73447499D01*
X157692132Y-73447501D01*
X157580000Y-73447501D01*
X157580000Y-73415008D01*
X157541803Y-73362435D01*
X157495838Y-73347500D01*
X157464162Y-73347500D01*
X157418197Y-73362435D01*
X157380000Y-73415008D01*
X157380000Y-73479992D01*
X157235376Y-73479992D01*
X157267868Y-73447500D01*
X156949141Y-73128773D01*
X156949139Y-73128770D01*
X156562501Y-72742132D01*
X156562500Y-72742132D01*
X156239966Y-73064664D01*
X156239963Y-73064665D01*
X156229458Y-73075172D01*
X156175861Y-73128768D01*
X156175857Y-73128774D01*
X155857131Y-73447499D01*
X155745000Y-73447499D01*
X155745000Y-73415008D01*
X155706803Y-73362435D01*
X155660838Y-73347500D01*
X155629162Y-73347500D01*
X155583197Y-73362435D01*
X155545000Y-73415008D01*
X155545000Y-73479992D01*
X155400376Y-73479992D01*
X155432868Y-73447500D01*
X155114141Y-73128773D01*
X155114139Y-73128770D01*
X154727501Y-72742132D01*
X154727500Y-72742132D01*
X154404966Y-73064664D01*
X154404963Y-73064665D01*
X154394458Y-73075172D01*
X154340861Y-73128768D01*
X154340857Y-73128774D01*
X154022132Y-73447499D01*
X153910000Y-73447499D01*
X153910000Y-73415008D01*
X153871803Y-73362435D01*
X153825838Y-73347500D01*
X153794162Y-73347500D01*
X153748197Y-73362435D01*
X153710000Y-73415008D01*
X153710000Y-73479992D01*
X153565376Y-73479992D01*
X153597868Y-73447500D01*
X153256096Y-73105728D01*
X153230227Y-73143207D01*
X153230224Y-73143213D01*
X153174253Y-73290801D01*
X153155226Y-73447500D01*
X141369998Y-73447500D01*
X141412889Y-73390204D01*
X141463989Y-73253201D01*
X141468480Y-73211426D01*
X141470499Y-73192654D01*
X141470500Y-73192637D01*
X141470500Y-72110805D01*
X141490185Y-72043766D01*
X141542989Y-71998011D01*
X141594500Y-71986805D01*
X154076369Y-71986805D01*
X154143408Y-72006490D01*
X154189163Y-72059294D01*
X154199107Y-72128452D01*
X154178418Y-72181247D01*
X154147727Y-72225709D01*
X154091752Y-72373302D01*
X154072726Y-72530000D01*
X154090225Y-72674118D01*
X154078765Y-72743041D01*
X154031861Y-72794827D01*
X153964405Y-72813034D01*
X153937455Y-72809461D01*
X153888926Y-72797500D01*
X153731075Y-72797500D01*
X153577815Y-72835275D01*
X153467700Y-72893068D01*
X153809999Y-73235367D01*
X154166421Y-72878944D01*
X154191838Y-72853529D01*
X154482876Y-72562492D01*
X154627500Y-72562492D01*
X154665697Y-72615065D01*
X154711662Y-72630000D01*
X154743338Y-72630000D01*
X154789303Y-72615065D01*
X154827500Y-72562492D01*
X154827500Y-72497508D01*
X154789303Y-72444935D01*
X154743338Y-72430000D01*
X154711662Y-72430000D01*
X154665697Y-72444935D01*
X154627500Y-72497508D01*
X154627500Y-72562492D01*
X154482876Y-72562492D01*
X154639819Y-72405549D01*
X154701142Y-72372064D01*
X154770834Y-72377048D01*
X154815181Y-72405549D01*
X155263163Y-72853530D01*
X155322467Y-72912835D01*
X155644999Y-73235367D01*
X156001421Y-72878944D01*
X156026838Y-72853529D01*
X156317876Y-72562492D01*
X156462500Y-72562492D01*
X156500697Y-72615065D01*
X156546662Y-72630000D01*
X156578338Y-72630000D01*
X156624303Y-72615065D01*
X156662500Y-72562492D01*
X156662500Y-72497508D01*
X156624303Y-72444935D01*
X156578338Y-72430000D01*
X156546662Y-72430000D01*
X156500697Y-72444935D01*
X156462500Y-72497508D01*
X156462500Y-72562492D01*
X156317876Y-72562492D01*
X156474819Y-72405549D01*
X156536142Y-72372064D01*
X156605834Y-72377048D01*
X156650181Y-72405549D01*
X157098163Y-72853530D01*
X157157467Y-72912835D01*
X157480000Y-73235368D01*
X157480001Y-73235368D01*
X157822299Y-72893067D01*
X157712183Y-72835275D01*
X157558925Y-72797500D01*
X157401074Y-72797500D01*
X157352544Y-72809461D01*
X157282742Y-72806391D01*
X157225680Y-72766071D01*
X157199475Y-72701301D01*
X157199774Y-72674117D01*
X157217273Y-72529999D01*
X157198247Y-72373302D01*
X157142272Y-72225709D01*
X157111582Y-72181247D01*
X157089698Y-72114892D01*
X157107162Y-72047240D01*
X157158430Y-71999770D01*
X157213631Y-71986805D01*
X160020234Y-71986805D01*
X160087273Y-72006490D01*
X160107915Y-72023124D01*
X164084410Y-75999619D01*
X164094316Y-76011983D01*
X164094526Y-76011810D01*
X164099501Y-76017824D01*
X164150594Y-76065804D01*
X164171725Y-76086934D01*
X164171730Y-76086939D01*
X164177302Y-76091261D01*
X164181742Y-76095054D01*
X164216178Y-76127391D01*
X164234067Y-76137225D01*
X164250333Y-76147909D01*
X164266459Y-76160418D01*
X164309798Y-76179172D01*
X164315045Y-76181742D01*
X164356440Y-76204500D01*
X164376218Y-76209578D01*
X164394619Y-76215878D01*
X164413355Y-76223986D01*
X164457862Y-76231034D01*
X164460003Y-76231374D01*
X164465712Y-76232556D01*
X164511470Y-76244305D01*
X164531884Y-76244305D01*
X164551283Y-76245832D01*
X164571443Y-76249025D01*
X164618466Y-76244580D01*
X164624304Y-76244305D01*
X170709124Y-76244305D01*
X170776163Y-76263990D01*
X170821918Y-76316794D01*
X170831862Y-76385952D01*
X170802837Y-76449508D01*
X170796805Y-76455985D01*
X165668933Y-81583857D01*
X160546609Y-86706181D01*
X160485286Y-86739666D01*
X160458928Y-86742500D01*
X150705631Y-86742500D01*
X150689879Y-86740760D01*
X150689854Y-86741032D01*
X150682092Y-86740298D01*
X150682091Y-86740298D01*
X150612028Y-86742500D01*
X150582144Y-86742500D01*
X150582141Y-86742500D01*
X150582129Y-86742501D01*
X150575137Y-86743384D01*
X150569320Y-86743841D01*
X150522114Y-86745325D01*
X150522107Y-86745326D01*
X150502500Y-86751022D01*
X150483461Y-86754965D01*
X150463211Y-86757524D01*
X150463201Y-86757526D01*
X150419291Y-86774911D01*
X150413765Y-86776803D01*
X150368412Y-86789979D01*
X150368407Y-86789981D01*
X150350833Y-86800374D01*
X150333372Y-86808928D01*
X150314386Y-86816446D01*
X150314384Y-86816447D01*
X150276172Y-86844208D01*
X150271290Y-86847415D01*
X150230637Y-86871457D01*
X150216201Y-86885894D01*
X150201415Y-86898523D01*
X150184893Y-86910528D01*
X150184891Y-86910529D01*
X150184891Y-86910530D01*
X150184888Y-86910532D01*
X150154780Y-86946925D01*
X150150849Y-86951246D01*
X148638914Y-88463181D01*
X148577591Y-88496666D01*
X148551233Y-88499500D01*
X148494513Y-88499500D01*
X148307714Y-88539205D01*
X148133246Y-88616883D01*
X147978745Y-88729135D01*
X147850959Y-88871057D01*
X147755473Y-89036443D01*
X147755470Y-89036450D01*
X147696459Y-89218068D01*
X147696458Y-89218072D01*
X147676496Y-89408000D01*
X147696458Y-89597928D01*
X147696459Y-89597931D01*
X147706288Y-89628182D01*
X147708283Y-89698023D01*
X147672202Y-89757856D01*
X147609501Y-89788684D01*
X147588357Y-89790500D01*
X147188629Y-89790500D01*
X147157792Y-89786604D01*
X147136728Y-89781195D01*
X147136725Y-89781195D01*
X147125766Y-89781195D01*
X147058727Y-89761510D01*
X147038085Y-89744876D01*
X146058393Y-88765183D01*
X146048492Y-88752823D01*
X146048282Y-88752998D01*
X146043307Y-88746986D01*
X146043305Y-88746982D01*
X146016962Y-88722245D01*
X145992226Y-88699015D01*
X145971073Y-88677863D01*
X145969097Y-88676331D01*
X145965488Y-88673531D01*
X145961055Y-88669744D01*
X145926626Y-88637414D01*
X145926624Y-88637412D01*
X145908736Y-88627578D01*
X145892475Y-88616897D01*
X145876344Y-88604384D01*
X145832998Y-88585627D01*
X145827750Y-88583056D01*
X145800556Y-88568106D01*
X145786365Y-88560305D01*
X145782965Y-88559432D01*
X145766592Y-88555228D01*
X145748186Y-88548926D01*
X145729449Y-88540818D01*
X145729451Y-88540818D01*
X145682801Y-88533430D01*
X145677086Y-88532246D01*
X145656917Y-88527068D01*
X145631337Y-88520500D01*
X145631335Y-88520500D01*
X145610921Y-88520500D01*
X145591522Y-88518973D01*
X145571363Y-88515780D01*
X145571362Y-88515780D01*
X145524339Y-88520225D01*
X145518501Y-88520500D01*
X140153309Y-88520500D01*
X140086270Y-88500815D01*
X140061160Y-88479473D01*
X140057254Y-88475135D01*
X139902753Y-88362883D01*
X139902752Y-88362882D01*
X139728288Y-88285206D01*
X139728286Y-88285205D01*
X139541487Y-88245500D01*
X139350513Y-88245500D01*
X139163714Y-88285205D01*
X138989246Y-88362883D01*
X138834745Y-88475135D01*
X138706959Y-88617057D01*
X138611473Y-88782443D01*
X138611470Y-88782450D01*
X138552459Y-88964068D01*
X138552458Y-88964072D01*
X138544851Y-89036450D01*
X138535019Y-89129995D01*
X138508434Y-89194609D01*
X138499379Y-89204714D01*
X135663914Y-92040181D01*
X135602591Y-92073666D01*
X135576233Y-92076500D01*
X134819309Y-92076500D01*
X134752270Y-92056815D01*
X134727160Y-92035473D01*
X134723254Y-92031135D01*
X134658887Y-91984369D01*
X134568752Y-91918882D01*
X134394288Y-91841206D01*
X134394286Y-91841205D01*
X134207487Y-91801500D01*
X134016513Y-91801500D01*
X133829714Y-91841205D01*
X133655246Y-91918883D01*
X133500745Y-92031135D01*
X133372959Y-92173057D01*
X133277473Y-92338443D01*
X133277470Y-92338450D01*
X133236983Y-92463057D01*
X133218458Y-92520072D01*
X133198496Y-92710000D01*
X133218458Y-92899928D01*
X133218459Y-92899931D01*
X133277470Y-93081549D01*
X133277473Y-93081556D01*
X133372960Y-93246944D01*
X133500747Y-93388866D01*
X133655248Y-93501118D01*
X133829712Y-93578794D01*
X134016513Y-93618500D01*
X134207487Y-93618500D01*
X134394288Y-93578794D01*
X134568752Y-93501118D01*
X134723253Y-93388866D01*
X134727160Y-93384527D01*
X134786646Y-93347879D01*
X134819309Y-93343500D01*
X135806366Y-93343500D01*
X135822113Y-93345238D01*
X135822139Y-93344968D01*
X135829905Y-93345701D01*
X135829909Y-93345702D01*
X135899958Y-93343500D01*
X135929856Y-93343500D01*
X135929857Y-93343500D01*
X135931222Y-93343327D01*
X135936862Y-93342614D01*
X135942685Y-93342156D01*
X135968708Y-93341338D01*
X135989890Y-93340673D01*
X135999681Y-93337827D01*
X136009481Y-93334980D01*
X136028538Y-93331032D01*
X136048797Y-93328474D01*
X136092721Y-93311082D01*
X136098221Y-93309199D01*
X136143593Y-93296018D01*
X136161165Y-93285625D01*
X136178632Y-93277068D01*
X136197617Y-93269552D01*
X136235826Y-93241790D01*
X136240704Y-93238585D01*
X136281362Y-93214542D01*
X136295802Y-93200100D01*
X136310592Y-93187470D01*
X136327107Y-93175472D01*
X136357222Y-93139067D01*
X136361126Y-93134776D01*
X139397085Y-90098819D01*
X139458408Y-90065334D01*
X139484766Y-90062500D01*
X139541487Y-90062500D01*
X139728288Y-90022794D01*
X139902752Y-89945118D01*
X140057253Y-89832866D01*
X140061160Y-89828527D01*
X140120646Y-89791879D01*
X140153309Y-89787500D01*
X145237539Y-89787500D01*
X145304578Y-89807185D01*
X145325218Y-89823818D01*
X145384815Y-89883415D01*
X145418300Y-89944737D01*
X145413316Y-90014429D01*
X145389285Y-90054066D01*
X145310958Y-90141057D01*
X145215473Y-90306443D01*
X145215470Y-90306450D01*
X145167380Y-90454457D01*
X145156458Y-90488072D01*
X145136496Y-90678000D01*
X145156458Y-90867928D01*
X145156459Y-90867931D01*
X145215470Y-91049549D01*
X145215473Y-91049556D01*
X145276928Y-91156000D01*
X145310960Y-91214944D01*
X145384649Y-91296784D01*
X145414880Y-91359775D01*
X145416500Y-91379756D01*
X145416500Y-96730232D01*
X145396815Y-96797271D01*
X145380181Y-96817913D01*
X144559666Y-97638427D01*
X144498343Y-97671912D01*
X144443038Y-97671320D01*
X144218714Y-97617465D01*
X143982000Y-97598835D01*
X143745285Y-97617465D01*
X143514404Y-97672895D01*
X143514402Y-97672895D01*
X143295040Y-97763757D01*
X143295037Y-97763759D01*
X143092589Y-97887820D01*
X143092586Y-97887821D01*
X142912031Y-98042031D01*
X142757821Y-98222586D01*
X142757820Y-98222589D01*
X142633759Y-98425037D01*
X142633757Y-98425040D01*
X142542897Y-98644400D01*
X142542895Y-98644404D01*
X142487465Y-98875285D01*
X142468835Y-99112000D01*
X142487465Y-99348714D01*
X142542895Y-99579595D01*
X142542895Y-99579597D01*
X142633757Y-99798959D01*
X142633759Y-99798962D01*
X142757820Y-100001410D01*
X142757821Y-100001413D01*
X142777113Y-100024001D01*
X142912031Y-100181969D01*
X143018795Y-100273154D01*
X143092586Y-100336178D01*
X143092589Y-100336179D01*
X143295037Y-100460240D01*
X143295040Y-100460242D01*
X143514403Y-100551104D01*
X143514404Y-100551104D01*
X143514406Y-100551105D01*
X143745289Y-100606535D01*
X143982000Y-100625165D01*
X144218711Y-100606535D01*
X144449594Y-100551105D01*
X144449596Y-100551104D01*
X144449597Y-100551104D01*
X144668959Y-100460242D01*
X144668960Y-100460241D01*
X144668963Y-100460240D01*
X144871416Y-100336176D01*
X145051969Y-100181969D01*
X145206176Y-100001416D01*
X145330240Y-99798963D01*
X145400869Y-99628450D01*
X145421104Y-99579597D01*
X145421104Y-99579596D01*
X145421105Y-99579594D01*
X145476535Y-99348711D01*
X145495165Y-99112000D01*
X145476535Y-98875289D01*
X145422678Y-98650958D01*
X145426169Y-98581177D01*
X145455569Y-98534333D01*
X146438815Y-97551087D01*
X146451180Y-97541183D01*
X146451006Y-97540973D01*
X146457012Y-97536003D01*
X146457018Y-97536000D01*
X146504999Y-97484904D01*
X146526135Y-97463769D01*
X146530458Y-97458195D01*
X146534257Y-97453747D01*
X146566585Y-97419322D01*
X146576420Y-97401432D01*
X146587098Y-97385174D01*
X146599614Y-97369040D01*
X146618374Y-97325686D01*
X146620935Y-97320458D01*
X146643695Y-97279060D01*
X146648774Y-97259274D01*
X146655072Y-97240882D01*
X146663181Y-97222145D01*
X146669521Y-97182113D01*
X146670569Y-97175497D01*
X146671751Y-97169786D01*
X146683500Y-97124030D01*
X146683500Y-97103615D01*
X146685027Y-97084214D01*
X146688220Y-97064057D01*
X146683775Y-97017033D01*
X146683500Y-97011195D01*
X146683500Y-91379756D01*
X146703185Y-91312717D01*
X146715346Y-91296788D01*
X146789040Y-91214944D01*
X146846570Y-91115298D01*
X146897134Y-91067086D01*
X146965741Y-91053862D01*
X146984782Y-91057195D01*
X146985970Y-91057500D01*
X147006384Y-91057500D01*
X147025783Y-91059027D01*
X147045943Y-91062220D01*
X147092966Y-91057775D01*
X147098804Y-91057500D01*
X162231671Y-91057500D01*
X162247418Y-91059238D01*
X162247444Y-91058968D01*
X162255210Y-91059701D01*
X162255214Y-91059702D01*
X162325263Y-91057500D01*
X162355161Y-91057500D01*
X162355162Y-91057500D01*
X162356527Y-91057327D01*
X162362167Y-91056614D01*
X162367990Y-91056156D01*
X162394013Y-91055338D01*
X162415195Y-91054673D01*
X162424986Y-91051827D01*
X162434786Y-91048980D01*
X162453843Y-91045032D01*
X162474102Y-91042474D01*
X162518026Y-91025082D01*
X162523526Y-91023199D01*
X162568898Y-91010018D01*
X162586470Y-90999625D01*
X162603937Y-90991068D01*
X162622922Y-90983552D01*
X162661131Y-90955790D01*
X162666009Y-90952585D01*
X162706667Y-90928542D01*
X162721107Y-90914100D01*
X162735897Y-90901470D01*
X162752412Y-90889472D01*
X162782527Y-90853067D01*
X162786431Y-90848776D01*
X165705817Y-87929391D01*
X165718178Y-87919490D01*
X165718004Y-87919280D01*
X165724013Y-87914307D01*
X165724018Y-87914305D01*
X165771983Y-87863226D01*
X165793135Y-87842075D01*
X165797461Y-87836497D01*
X165801250Y-87832060D01*
X165833586Y-87797626D01*
X165843419Y-87779737D01*
X165854102Y-87763474D01*
X165866614Y-87747346D01*
X165885371Y-87703996D01*
X165887941Y-87698752D01*
X165888421Y-87697880D01*
X165910695Y-87657365D01*
X165915774Y-87637578D01*
X165922070Y-87619190D01*
X165930181Y-87600450D01*
X165937569Y-87553802D01*
X165938751Y-87548091D01*
X165950500Y-87502335D01*
X165950500Y-87481920D01*
X165952027Y-87462519D01*
X165952044Y-87462412D01*
X165955220Y-87442362D01*
X165950775Y-87395338D01*
X165950500Y-87389500D01*
X165950500Y-86884500D01*
X165970185Y-86817461D01*
X166022989Y-86771706D01*
X166074500Y-86760500D01*
X166077234Y-86760500D01*
X166144273Y-86780185D01*
X166164915Y-86796819D01*
X167224181Y-87856085D01*
X167257666Y-87917408D01*
X167260500Y-87943766D01*
X167260500Y-98468366D01*
X167258761Y-98484113D01*
X167259032Y-98484139D01*
X167258298Y-98491905D01*
X167260500Y-98561957D01*
X167260500Y-98591859D01*
X167261384Y-98598856D01*
X167261842Y-98604679D01*
X167263326Y-98651889D01*
X167263327Y-98651891D01*
X167269022Y-98671495D01*
X167272967Y-98690542D01*
X167275526Y-98710797D01*
X167275527Y-98710800D01*
X167275528Y-98710803D01*
X167292914Y-98754716D01*
X167294806Y-98760244D01*
X167307981Y-98805592D01*
X167318372Y-98823162D01*
X167326932Y-98840635D01*
X167334447Y-98859617D01*
X167362209Y-98897827D01*
X167365418Y-98902712D01*
X167379240Y-98926085D01*
X167389458Y-98943362D01*
X167389462Y-98943366D01*
X167403889Y-98957793D01*
X167416526Y-98972588D01*
X167428528Y-98989107D01*
X167464931Y-99019222D01*
X167469231Y-99023135D01*
X168781704Y-100335609D01*
X169184912Y-100738817D01*
X169194819Y-100751183D01*
X169195029Y-100751010D01*
X169199996Y-100757015D01*
X169251079Y-100804984D01*
X169272224Y-100826130D01*
X169277813Y-100830466D01*
X169282245Y-100834252D01*
X169314159Y-100864220D01*
X169316680Y-100866587D01*
X169334562Y-100876417D01*
X169350829Y-100887102D01*
X169366960Y-100899615D01*
X169387494Y-100908500D01*
X169410307Y-100918371D01*
X169415533Y-100920931D01*
X169456940Y-100943695D01*
X169476716Y-100948772D01*
X169495124Y-100955075D01*
X169513850Y-100963179D01*
X169513852Y-100963180D01*
X169513853Y-100963180D01*
X169513855Y-100963181D01*
X169554784Y-100969663D01*
X169560503Y-100970569D01*
X169566212Y-100971751D01*
X169611970Y-100983500D01*
X169632384Y-100983500D01*
X169651783Y-100985027D01*
X169671943Y-100988220D01*
X169718966Y-100983775D01*
X169724804Y-100983500D01*
X170742691Y-100983500D01*
X170809730Y-101003185D01*
X170834840Y-101024527D01*
X170838747Y-101028866D01*
X170993248Y-101141118D01*
X171167712Y-101218794D01*
X171354513Y-101258500D01*
X171545487Y-101258500D01*
X171732288Y-101218794D01*
X171906752Y-101141118D01*
X172061253Y-101028866D01*
X172189040Y-100886944D01*
X172284527Y-100721556D01*
X172343542Y-100539928D01*
X172363504Y-100350000D01*
X172343542Y-100160072D01*
X172284527Y-99978444D01*
X172189040Y-99813056D01*
X172061253Y-99671134D01*
X171906752Y-99558882D01*
X171732288Y-99481206D01*
X171732286Y-99481205D01*
X171545487Y-99441500D01*
X171354513Y-99441500D01*
X171167714Y-99481205D01*
X170993246Y-99558883D01*
X170838745Y-99671135D01*
X170834840Y-99675473D01*
X170775354Y-99712121D01*
X170742691Y-99716500D01*
X170005766Y-99716500D01*
X169938727Y-99696815D01*
X169918085Y-99680181D01*
X168563819Y-98325914D01*
X168530334Y-98264591D01*
X168527500Y-98238233D01*
X168527500Y-90606005D01*
X171318859Y-90606005D01*
X171339385Y-90853729D01*
X171339387Y-90853738D01*
X171400412Y-91094717D01*
X171500266Y-91322364D01*
X171600564Y-91475882D01*
X172298070Y-90778376D01*
X172300884Y-90791915D01*
X172370442Y-90926156D01*
X172473638Y-91036652D01*
X172602819Y-91115209D01*
X172654002Y-91129549D01*
X171953942Y-91829609D01*
X172000768Y-91866055D01*
X172000770Y-91866056D01*
X172219385Y-91984364D01*
X172219396Y-91984369D01*
X172454506Y-92065083D01*
X172699707Y-92106000D01*
X172948293Y-92106000D01*
X173193493Y-92065083D01*
X173428603Y-91984369D01*
X173428614Y-91984364D01*
X173647228Y-91866057D01*
X173647231Y-91866055D01*
X173694056Y-91829609D01*
X172995568Y-91131121D01*
X173112458Y-91080349D01*
X173229739Y-90984934D01*
X173316928Y-90861415D01*
X173347354Y-90775802D01*
X174047434Y-91475882D01*
X174147731Y-91322369D01*
X174247587Y-91094717D01*
X174308612Y-90853738D01*
X174308614Y-90853729D01*
X174329141Y-90606005D01*
X177818859Y-90606005D01*
X177839385Y-90853729D01*
X177839387Y-90853738D01*
X177900412Y-91094717D01*
X178000266Y-91322364D01*
X178100564Y-91475882D01*
X178798070Y-90778376D01*
X178800884Y-90791915D01*
X178870442Y-90926156D01*
X178973638Y-91036652D01*
X179102819Y-91115209D01*
X179154002Y-91129549D01*
X178453942Y-91829609D01*
X178500768Y-91866055D01*
X178500770Y-91866056D01*
X178719385Y-91984364D01*
X178719396Y-91984369D01*
X178954506Y-92065083D01*
X179199707Y-92106000D01*
X179448293Y-92106000D01*
X179693493Y-92065083D01*
X179928603Y-91984369D01*
X179928614Y-91984364D01*
X180147228Y-91866057D01*
X180147231Y-91866055D01*
X180194056Y-91829609D01*
X179495568Y-91131121D01*
X179612458Y-91080349D01*
X179729739Y-90984934D01*
X179816928Y-90861415D01*
X179847354Y-90775802D01*
X180547434Y-91475882D01*
X180647731Y-91322369D01*
X180747587Y-91094717D01*
X180808612Y-90853738D01*
X180808614Y-90853729D01*
X180829141Y-90606005D01*
X180829141Y-90605994D01*
X180808614Y-90358270D01*
X180808612Y-90358261D01*
X180747587Y-90117282D01*
X180647731Y-89889630D01*
X180547434Y-89736116D01*
X179849929Y-90433622D01*
X179847116Y-90420085D01*
X179777558Y-90285844D01*
X179674362Y-90175348D01*
X179545181Y-90096791D01*
X179493997Y-90082450D01*
X180194057Y-89382390D01*
X180194056Y-89382389D01*
X180147229Y-89345943D01*
X179928614Y-89227635D01*
X179928603Y-89227630D01*
X179693493Y-89146916D01*
X179448293Y-89106000D01*
X179199707Y-89106000D01*
X178954506Y-89146916D01*
X178719396Y-89227630D01*
X178719390Y-89227632D01*
X178500761Y-89345949D01*
X178453942Y-89382388D01*
X178453942Y-89382390D01*
X179152431Y-90080878D01*
X179035542Y-90131651D01*
X178918261Y-90227066D01*
X178831072Y-90350585D01*
X178800645Y-90436197D01*
X178100564Y-89736116D01*
X178000267Y-89889632D01*
X177900412Y-90117282D01*
X177839387Y-90358261D01*
X177839385Y-90358270D01*
X177818859Y-90605994D01*
X177818859Y-90606005D01*
X174329141Y-90606005D01*
X174329141Y-90605994D01*
X174308614Y-90358270D01*
X174308612Y-90358261D01*
X174247587Y-90117282D01*
X174147731Y-89889630D01*
X174047434Y-89736116D01*
X173349929Y-90433622D01*
X173347116Y-90420085D01*
X173277558Y-90285844D01*
X173174362Y-90175348D01*
X173045181Y-90096791D01*
X172993997Y-90082450D01*
X173694057Y-89382390D01*
X173694056Y-89382389D01*
X173647229Y-89345943D01*
X173428614Y-89227635D01*
X173428603Y-89227630D01*
X173193493Y-89146916D01*
X172948293Y-89106000D01*
X172699707Y-89106000D01*
X172454506Y-89146916D01*
X172219396Y-89227630D01*
X172219390Y-89227632D01*
X172000761Y-89345949D01*
X171953942Y-89382388D01*
X171953942Y-89382390D01*
X172652431Y-90080878D01*
X172535542Y-90131651D01*
X172418261Y-90227066D01*
X172331072Y-90350585D01*
X172300645Y-90436197D01*
X171600564Y-89736116D01*
X171500267Y-89889632D01*
X171400412Y-90117282D01*
X171339387Y-90358261D01*
X171339385Y-90358270D01*
X171318859Y-90605994D01*
X171318859Y-90606005D01*
X168527500Y-90606005D01*
X168527500Y-87713632D01*
X168529239Y-87697880D01*
X168528968Y-87697855D01*
X168529700Y-87690099D01*
X168529702Y-87690092D01*
X168527500Y-87620028D01*
X168527500Y-87590144D01*
X168526614Y-87583141D01*
X168526157Y-87577322D01*
X168525418Y-87553802D01*
X168524674Y-87530111D01*
X168518976Y-87510499D01*
X168515033Y-87491466D01*
X168512474Y-87471203D01*
X168495085Y-87427286D01*
X168493196Y-87421766D01*
X168480018Y-87376407D01*
X168469626Y-87358835D01*
X168461066Y-87341362D01*
X168453552Y-87322383D01*
X168425794Y-87284179D01*
X168422587Y-87279296D01*
X168412873Y-87262871D01*
X168398542Y-87238638D01*
X168384108Y-87224204D01*
X168371471Y-87209409D01*
X168359472Y-87192893D01*
X168359470Y-87192890D01*
X168323073Y-87162781D01*
X168318751Y-87158847D01*
X167062620Y-85902715D01*
X167029135Y-85841392D01*
X167026982Y-85828012D01*
X167009542Y-85662072D01*
X166950527Y-85480444D01*
X166855040Y-85315056D01*
X166727253Y-85173134D01*
X166572752Y-85060882D01*
X166398288Y-84983206D01*
X166398286Y-84983205D01*
X166211487Y-84943500D01*
X166074500Y-84943500D01*
X166007461Y-84923815D01*
X165961706Y-84871011D01*
X165950500Y-84819500D01*
X165950500Y-83962668D01*
X165970185Y-83895629D01*
X166022989Y-83849874D01*
X166092147Y-83839930D01*
X166155703Y-83868955D01*
X166166643Y-83879689D01*
X166266747Y-83990866D01*
X166421248Y-84103118D01*
X166595712Y-84180794D01*
X166782513Y-84220500D01*
X166973487Y-84220500D01*
X167160288Y-84180794D01*
X167334752Y-84103118D01*
X167489253Y-83990866D01*
X167493160Y-83986527D01*
X167552646Y-83949879D01*
X167585309Y-83945500D01*
X169716234Y-83945500D01*
X169783273Y-83965185D01*
X169803915Y-83981819D01*
X171350428Y-85528332D01*
X171383913Y-85589655D01*
X171383321Y-85644960D01*
X171329465Y-85869285D01*
X171310835Y-86106000D01*
X171329465Y-86342714D01*
X171384895Y-86573595D01*
X171384895Y-86573597D01*
X171475757Y-86792959D01*
X171475759Y-86792962D01*
X171599820Y-86995410D01*
X171599821Y-86995413D01*
X171599824Y-86995416D01*
X171754031Y-87175969D01*
X171880731Y-87284181D01*
X171934586Y-87330178D01*
X171934588Y-87330178D01*
X172036171Y-87392429D01*
X172137037Y-87454240D01*
X172137040Y-87454242D01*
X172356403Y-87545104D01*
X172356404Y-87545104D01*
X172356406Y-87545105D01*
X172587289Y-87600535D01*
X172824000Y-87619165D01*
X173060711Y-87600535D01*
X173291594Y-87545105D01*
X173291596Y-87545104D01*
X173291597Y-87545104D01*
X173510959Y-87454242D01*
X173510960Y-87454241D01*
X173510963Y-87454240D01*
X173713416Y-87330176D01*
X173893969Y-87175969D01*
X174048176Y-86995416D01*
X174172240Y-86792963D01*
X174173476Y-86789981D01*
X174263104Y-86573597D01*
X174263104Y-86573596D01*
X174263105Y-86573594D01*
X174318535Y-86342711D01*
X174337165Y-86106000D01*
X177810835Y-86106000D01*
X177829465Y-86342714D01*
X177884895Y-86573595D01*
X177884895Y-86573597D01*
X177975757Y-86792959D01*
X177975759Y-86792962D01*
X178099820Y-86995410D01*
X178099821Y-86995413D01*
X178099824Y-86995416D01*
X178254031Y-87175969D01*
X178380731Y-87284181D01*
X178434586Y-87330178D01*
X178434588Y-87330178D01*
X178536171Y-87392429D01*
X178637037Y-87454240D01*
X178637040Y-87454242D01*
X178856403Y-87545104D01*
X178856404Y-87545104D01*
X178856406Y-87545105D01*
X179087289Y-87600535D01*
X179324000Y-87619165D01*
X179560711Y-87600535D01*
X179791594Y-87545105D01*
X179791596Y-87545104D01*
X179791597Y-87545104D01*
X180010959Y-87454242D01*
X180010960Y-87454241D01*
X180010963Y-87454240D01*
X180213416Y-87330176D01*
X180393969Y-87175969D01*
X180548176Y-86995416D01*
X180672240Y-86792963D01*
X180673476Y-86789981D01*
X180763104Y-86573597D01*
X180763104Y-86573596D01*
X180763105Y-86573594D01*
X180818535Y-86342711D01*
X180837165Y-86106000D01*
X180818535Y-85869289D01*
X180763105Y-85638406D01*
X180763104Y-85638403D01*
X180763104Y-85638402D01*
X180672242Y-85419040D01*
X180672240Y-85419037D01*
X180548179Y-85216589D01*
X180548178Y-85216586D01*
X180511066Y-85173134D01*
X180393969Y-85036031D01*
X180234549Y-84899873D01*
X180213413Y-84881821D01*
X180213410Y-84881820D01*
X180010962Y-84757759D01*
X180010959Y-84757757D01*
X179791596Y-84666895D01*
X179560714Y-84611465D01*
X179324000Y-84592835D01*
X179087285Y-84611465D01*
X178856404Y-84666895D01*
X178856402Y-84666895D01*
X178637040Y-84757757D01*
X178637037Y-84757759D01*
X178434589Y-84881820D01*
X178434586Y-84881821D01*
X178254031Y-85036031D01*
X178099821Y-85216586D01*
X178099820Y-85216589D01*
X177975759Y-85419037D01*
X177975757Y-85419040D01*
X177884895Y-85638402D01*
X177884895Y-85638404D01*
X177829465Y-85869285D01*
X177810835Y-86106000D01*
X174337165Y-86106000D01*
X174318535Y-85869289D01*
X174263105Y-85638406D01*
X174263104Y-85638403D01*
X174263104Y-85638402D01*
X174172242Y-85419040D01*
X174172240Y-85419037D01*
X174048179Y-85216589D01*
X174048178Y-85216586D01*
X174011066Y-85173134D01*
X173893969Y-85036031D01*
X173734549Y-84899873D01*
X173713413Y-84881821D01*
X173713410Y-84881820D01*
X173510962Y-84757759D01*
X173510959Y-84757757D01*
X173291596Y-84666895D01*
X173060714Y-84611465D01*
X172824000Y-84592835D01*
X172587285Y-84611465D01*
X172362960Y-84665321D01*
X172293177Y-84661830D01*
X172246332Y-84632428D01*
X171009086Y-83395181D01*
X170975601Y-83333858D01*
X170980585Y-83264166D01*
X171022457Y-83208233D01*
X171087921Y-83183816D01*
X171096767Y-83183500D01*
X184828366Y-83183500D01*
X184844113Y-83185238D01*
X184844139Y-83184968D01*
X184851905Y-83185701D01*
X184851909Y-83185702D01*
X184921958Y-83183500D01*
X184951856Y-83183500D01*
X184951857Y-83183500D01*
X184953222Y-83183327D01*
X184958862Y-83182614D01*
X184964685Y-83182156D01*
X184990708Y-83181338D01*
X185011890Y-83180673D01*
X185021681Y-83177827D01*
X185031481Y-83174980D01*
X185050538Y-83171032D01*
X185070797Y-83168474D01*
X185114721Y-83151082D01*
X185120221Y-83149199D01*
X185165593Y-83136018D01*
X185183165Y-83125625D01*
X185200632Y-83117068D01*
X185219617Y-83109552D01*
X185257826Y-83081790D01*
X185262704Y-83078585D01*
X185303362Y-83054542D01*
X185317802Y-83040100D01*
X185332592Y-83027470D01*
X185349107Y-83015472D01*
X185379222Y-82979067D01*
X185383126Y-82974776D01*
X186316813Y-82041089D01*
X186329177Y-82031186D01*
X186329003Y-82030976D01*
X186335015Y-82026002D01*
X186335015Y-82026001D01*
X186335018Y-82026000D01*
X186382984Y-81974920D01*
X186404135Y-81953770D01*
X186408461Y-81948192D01*
X186412250Y-81943755D01*
X186444586Y-81909321D01*
X186454419Y-81891432D01*
X186465102Y-81875169D01*
X186477614Y-81859041D01*
X186496371Y-81815691D01*
X186498941Y-81810447D01*
X186521693Y-81769064D01*
X186521693Y-81769063D01*
X186521695Y-81769060D01*
X186526774Y-81749273D01*
X186533070Y-81730885D01*
X186541181Y-81712145D01*
X186548569Y-81665497D01*
X186549751Y-81659786D01*
X186561500Y-81614030D01*
X186561500Y-81593615D01*
X186563027Y-81574214D01*
X186566220Y-81554057D01*
X186561775Y-81507033D01*
X186561500Y-81501195D01*
X186561500Y-75775626D01*
X186563238Y-75759881D01*
X186562967Y-75759856D01*
X186563701Y-75752093D01*
X186561500Y-75682059D01*
X186561500Y-75652150D01*
X186561500Y-75652144D01*
X186560615Y-75645140D01*
X186560156Y-75639311D01*
X186558673Y-75592109D01*
X186552979Y-75572514D01*
X186549032Y-75553457D01*
X186546474Y-75533203D01*
X186529088Y-75489291D01*
X186527196Y-75483764D01*
X186520798Y-75461744D01*
X186514018Y-75438406D01*
X186503625Y-75420833D01*
X186495063Y-75403355D01*
X186492303Y-75396384D01*
X186487552Y-75384383D01*
X186487550Y-75384380D01*
X186487549Y-75384378D01*
X186459794Y-75346177D01*
X186456586Y-75341293D01*
X186441031Y-75314992D01*
X186432542Y-75300637D01*
X186418108Y-75286203D01*
X186405469Y-75271406D01*
X186393471Y-75254892D01*
X186357084Y-75224790D01*
X186352762Y-75220857D01*
X184940083Y-73808178D01*
X184906598Y-73746855D01*
X184911582Y-73677163D01*
X184913181Y-73673099D01*
X184922505Y-73650591D01*
X184981609Y-73404403D01*
X185001474Y-73152000D01*
X184981609Y-72899597D01*
X184922505Y-72653409D01*
X184912809Y-72630000D01*
X184825616Y-72419497D01*
X184693331Y-72203629D01*
X184693330Y-72203627D01*
X184693329Y-72203626D01*
X184693328Y-72203624D01*
X184528898Y-72011102D01*
X184488136Y-71976287D01*
X184449945Y-71917785D01*
X184449445Y-71847917D01*
X184486798Y-71788870D01*
X184488029Y-71787802D01*
X184528898Y-71752898D01*
X184693328Y-71560376D01*
X184825616Y-71344502D01*
X184922505Y-71110591D01*
X184981609Y-70864403D01*
X185001474Y-70612000D01*
X184981609Y-70359597D01*
X184922505Y-70113409D01*
X184921583Y-70111183D01*
X184825616Y-69879497D01*
X184693331Y-69663629D01*
X184693330Y-69663627D01*
X184693329Y-69663626D01*
X184693328Y-69663624D01*
X184528898Y-69471102D01*
X184336376Y-69306672D01*
X184336374Y-69306670D01*
X184336372Y-69306669D01*
X184336370Y-69306668D01*
X184175185Y-69207893D01*
X184152294Y-69189847D01*
X183559568Y-68597121D01*
X183676458Y-68546349D01*
X183793739Y-68450934D01*
X183880928Y-68327415D01*
X183911354Y-68241801D01*
X184685732Y-69016179D01*
X184686424Y-69015371D01*
X184686432Y-69015360D01*
X184818019Y-68800631D01*
X184914396Y-68567956D01*
X184973187Y-68323072D01*
X184992947Y-68072000D01*
X184973187Y-67820927D01*
X184914396Y-67576043D01*
X184818019Y-67343368D01*
X184686432Y-67128638D01*
X184686430Y-67128636D01*
X184685732Y-67127819D01*
X183913929Y-67899622D01*
X183911116Y-67886085D01*
X183841558Y-67751844D01*
X183738362Y-67641348D01*
X183609181Y-67562791D01*
X183557996Y-67548449D01*
X184332178Y-66774266D01*
X184332178Y-66774264D01*
X184331374Y-66773577D01*
X184331358Y-66773566D01*
X184116631Y-66641980D01*
X183883956Y-66545603D01*
X183639072Y-66486812D01*
X183388000Y-66467052D01*
X183136927Y-66486812D01*
X182892043Y-66545603D01*
X182659368Y-66641980D01*
X182444637Y-66773568D01*
X182443820Y-66774266D01*
X183216432Y-67546878D01*
X183099542Y-67597651D01*
X182982261Y-67693066D01*
X182895072Y-67816585D01*
X182864644Y-67902198D01*
X182090266Y-67127820D01*
X182089568Y-67128637D01*
X181957980Y-67343368D01*
X181861603Y-67576043D01*
X181802812Y-67820927D01*
X181783052Y-68072000D01*
X181802812Y-68323072D01*
X181861603Y-68567956D01*
X181957980Y-68800631D01*
X182089566Y-69015358D01*
X182089577Y-69015374D01*
X182090264Y-69016178D01*
X182090266Y-69016178D01*
X182862070Y-68244373D01*
X182864884Y-68257915D01*
X182934442Y-68392156D01*
X183037638Y-68502652D01*
X183166819Y-68581209D01*
X183218002Y-68595549D01*
X182623706Y-69189845D01*
X182600816Y-69207890D01*
X182439630Y-69306668D01*
X182439621Y-69306674D01*
X182247102Y-69471102D01*
X182082669Y-69663627D01*
X182082668Y-69663629D01*
X181950383Y-69879497D01*
X181853495Y-70113406D01*
X181794391Y-70359593D01*
X181774526Y-70612000D01*
X181794391Y-70864406D01*
X181853495Y-71110593D01*
X181950383Y-71344502D01*
X182082668Y-71560370D01*
X182082669Y-71560372D01*
X182247102Y-71752898D01*
X182287862Y-71787711D01*
X182326054Y-71846218D01*
X182326552Y-71916086D01*
X182289198Y-71975132D01*
X182287862Y-71976289D01*
X182247102Y-72011101D01*
X182082669Y-72203627D01*
X182082668Y-72203629D01*
X181950383Y-72419497D01*
X181853495Y-72653406D01*
X181815484Y-72811737D01*
X181794391Y-72899597D01*
X181788450Y-72975088D01*
X181763565Y-73040376D01*
X181707334Y-73081846D01*
X181637609Y-73086333D01*
X181605098Y-73074022D01*
X181591062Y-73066306D01*
X181591061Y-73066305D01*
X181591060Y-73066305D01*
X181584669Y-73064664D01*
X181571287Y-73061228D01*
X181552881Y-73054926D01*
X181534144Y-73046818D01*
X181534146Y-73046818D01*
X181487496Y-73039430D01*
X181481781Y-73038246D01*
X181461612Y-73033068D01*
X181436032Y-73026500D01*
X181436030Y-73026500D01*
X181415616Y-73026500D01*
X181396217Y-73024973D01*
X181376058Y-73021780D01*
X181376057Y-73021780D01*
X181329034Y-73026225D01*
X181323196Y-73026500D01*
X176081766Y-73026500D01*
X176014727Y-73006815D01*
X175994085Y-72990181D01*
X175278446Y-72274542D01*
X174561081Y-71557176D01*
X174561061Y-71557153D01*
X174552585Y-71548678D01*
X174537701Y-71530687D01*
X174532973Y-71523729D01*
X174532971Y-71523727D01*
X174532968Y-71523723D01*
X174500725Y-71495297D01*
X174487865Y-71480256D01*
X174486973Y-71480994D01*
X174481998Y-71474979D01*
X174430921Y-71427016D01*
X174409768Y-71405863D01*
X174407792Y-71404331D01*
X174404183Y-71401531D01*
X174399750Y-71397744D01*
X174365321Y-71365414D01*
X174365319Y-71365412D01*
X174347431Y-71355578D01*
X174331170Y-71344897D01*
X174315039Y-71332384D01*
X174271693Y-71313627D01*
X174266445Y-71311056D01*
X174239251Y-71296106D01*
X174225060Y-71288305D01*
X174225057Y-71288304D01*
X174225055Y-71288303D01*
X174205287Y-71283228D01*
X174186880Y-71276926D01*
X174168148Y-71268820D01*
X174168145Y-71268819D01*
X174168140Y-71268818D01*
X174134727Y-71263526D01*
X174129719Y-71262732D01*
X174121492Y-71261429D01*
X174115772Y-71260244D01*
X174070033Y-71248500D01*
X174070030Y-71248500D01*
X174049616Y-71248500D01*
X174030218Y-71246973D01*
X174020471Y-71245429D01*
X174010059Y-71243780D01*
X174010057Y-71243780D01*
X174010053Y-71243780D01*
X174010052Y-71243780D01*
X174010048Y-71243780D01*
X173963032Y-71248225D01*
X173957193Y-71248500D01*
X170125309Y-71248500D01*
X170058270Y-71228815D01*
X170033160Y-71207473D01*
X170029254Y-71203135D01*
X170028009Y-71202230D01*
X169874752Y-71090882D01*
X169700288Y-71013206D01*
X169700286Y-71013205D01*
X169513487Y-70973500D01*
X169322513Y-70973500D01*
X169135714Y-71013205D01*
X169135712Y-71013206D01*
X168961248Y-71090882D01*
X168961246Y-71090883D01*
X168955935Y-71093248D01*
X168886685Y-71102532D01*
X168823409Y-71072904D01*
X168786196Y-71013769D01*
X168781500Y-70979968D01*
X168781500Y-70417766D01*
X168801185Y-70350727D01*
X168817819Y-70330085D01*
X169623085Y-69524819D01*
X169684408Y-69491334D01*
X169710766Y-69488500D01*
X169767487Y-69488500D01*
X169954288Y-69448794D01*
X170128752Y-69371118D01*
X170283253Y-69258866D01*
X170411040Y-69116944D01*
X170506527Y-68951556D01*
X170565542Y-68769928D01*
X170585504Y-68580000D01*
X170565542Y-68390072D01*
X170506527Y-68208444D01*
X170411040Y-68043056D01*
X170283253Y-67901134D01*
X170128752Y-67788882D01*
X169954288Y-67711206D01*
X169954286Y-67711205D01*
X169767487Y-67671500D01*
X169710767Y-67671500D01*
X169643728Y-67651815D01*
X169623086Y-67635181D01*
X168909088Y-66921183D01*
X168899187Y-66908823D01*
X168898977Y-66908998D01*
X168894002Y-66902986D01*
X168894000Y-66902982D01*
X168867658Y-66878245D01*
X168842922Y-66855016D01*
X168821768Y-66833863D01*
X168819792Y-66832331D01*
X168816183Y-66829531D01*
X168811750Y-66825744D01*
X168777321Y-66793414D01*
X168777319Y-66793412D01*
X168759431Y-66783578D01*
X168743170Y-66772897D01*
X168727039Y-66760384D01*
X168683693Y-66741627D01*
X168678445Y-66739056D01*
X168651019Y-66723979D01*
X168637060Y-66716305D01*
X168633660Y-66715432D01*
X168617287Y-66711228D01*
X168598881Y-66704926D01*
X168580144Y-66696818D01*
X168580146Y-66696818D01*
X168533496Y-66689430D01*
X168527781Y-66688246D01*
X168507612Y-66683068D01*
X168482032Y-66676500D01*
X168482030Y-66676500D01*
X168461616Y-66676500D01*
X168442217Y-66674973D01*
X168422058Y-66671780D01*
X168422057Y-66671780D01*
X168375034Y-66676225D01*
X168369196Y-66676500D01*
X149181632Y-66676500D01*
X149165880Y-66674760D01*
X149165855Y-66675032D01*
X149158093Y-66674298D01*
X149158092Y-66674298D01*
X149088029Y-66676500D01*
X149058144Y-66676500D01*
X149058141Y-66676500D01*
X149058129Y-66676501D01*
X149051137Y-66677384D01*
X149045320Y-66677841D01*
X148998114Y-66679325D01*
X148998107Y-66679326D01*
X148978500Y-66685022D01*
X148959461Y-66688965D01*
X148939211Y-66691524D01*
X148939201Y-66691526D01*
X148895291Y-66708911D01*
X148889765Y-66710803D01*
X148844412Y-66723979D01*
X148844407Y-66723981D01*
X148826833Y-66734374D01*
X148809372Y-66742928D01*
X148790386Y-66750446D01*
X148790384Y-66750447D01*
X148752172Y-66778208D01*
X148747290Y-66781415D01*
X148706637Y-66805457D01*
X148692201Y-66819894D01*
X148677415Y-66832523D01*
X148660893Y-66844528D01*
X148660891Y-66844529D01*
X148660891Y-66844530D01*
X148660889Y-66844532D01*
X148630781Y-66880925D01*
X148626848Y-66885246D01*
X148384913Y-67127182D01*
X148323593Y-67160666D01*
X148297234Y-67163500D01*
X148240513Y-67163500D01*
X148053714Y-67203205D01*
X147879246Y-67280883D01*
X147724745Y-67393135D01*
X147596959Y-67535057D01*
X147501473Y-67700443D01*
X147501470Y-67700450D01*
X147472737Y-67788883D01*
X147442458Y-67882072D01*
X147422496Y-68072000D01*
X147442458Y-68261928D01*
X147442459Y-68261931D01*
X147501470Y-68443549D01*
X147501473Y-68443556D01*
X147596960Y-68608944D01*
X147724747Y-68750866D01*
X147879248Y-68863118D01*
X148053712Y-68940794D01*
X148240513Y-68980500D01*
X148431487Y-68980500D01*
X148618288Y-68940794D01*
X148792752Y-68863118D01*
X148947253Y-68750866D01*
X149075040Y-68608944D01*
X149170527Y-68443556D01*
X149229542Y-68261928D01*
X149246981Y-68096000D01*
X149273564Y-68031389D01*
X149282622Y-68021282D01*
X149324089Y-67979817D01*
X149385413Y-67946333D01*
X149411768Y-67943500D01*
X168088234Y-67943500D01*
X168155273Y-67963185D01*
X168175915Y-67979819D01*
X168688414Y-68492318D01*
X168721899Y-68553641D01*
X168716915Y-68623333D01*
X168688414Y-68667680D01*
X167759179Y-69596914D01*
X167746820Y-69606818D01*
X167746993Y-69607027D01*
X167740983Y-69611999D01*
X167693016Y-69663078D01*
X167671872Y-69684222D01*
X167671857Y-69684239D01*
X167667531Y-69689814D01*
X167663747Y-69694244D01*
X167631419Y-69728671D01*
X167631412Y-69728681D01*
X167621579Y-69746567D01*
X167610903Y-69762820D01*
X167598386Y-69778957D01*
X167598385Y-69778959D01*
X167579625Y-69822310D01*
X167577055Y-69827556D01*
X167554303Y-69868941D01*
X167554303Y-69868942D01*
X167549225Y-69888720D01*
X167542925Y-69907122D01*
X167534818Y-69925857D01*
X167527431Y-69972495D01*
X167526246Y-69978216D01*
X167514500Y-70023965D01*
X167514500Y-70044384D01*
X167512972Y-70063783D01*
X167509780Y-70083943D01*
X167510635Y-70092983D01*
X167514225Y-70130966D01*
X167514500Y-70136804D01*
X167514500Y-72052366D01*
X167512761Y-72068113D01*
X167513032Y-72068139D01*
X167512298Y-72075905D01*
X167512298Y-72075908D01*
X167512298Y-72075909D01*
X167513950Y-72128452D01*
X167514500Y-72145957D01*
X167514500Y-72175859D01*
X167515384Y-72182856D01*
X167515842Y-72188679D01*
X167517326Y-72235889D01*
X167517327Y-72235891D01*
X167523022Y-72255495D01*
X167526967Y-72274542D01*
X167529526Y-72294797D01*
X167529527Y-72294799D01*
X167529528Y-72294805D01*
X167531179Y-72298973D01*
X167537556Y-72368551D01*
X167505303Y-72430531D01*
X167444661Y-72465235D01*
X167374884Y-72461645D01*
X167328206Y-72432301D01*
X165007088Y-70111183D01*
X164997187Y-70098823D01*
X164996977Y-70098998D01*
X164992002Y-70092986D01*
X164992000Y-70092982D01*
X164960906Y-70063783D01*
X164940922Y-70045016D01*
X164919768Y-70023863D01*
X164917792Y-70022331D01*
X164914183Y-70019531D01*
X164909750Y-70015744D01*
X164903524Y-70009898D01*
X164875321Y-69983414D01*
X164875319Y-69983412D01*
X164857431Y-69973578D01*
X164841170Y-69962897D01*
X164825039Y-69950384D01*
X164781693Y-69931627D01*
X164776445Y-69929056D01*
X164749024Y-69913982D01*
X164735060Y-69906305D01*
X164731660Y-69905432D01*
X164715287Y-69901228D01*
X164696881Y-69894926D01*
X164678144Y-69886818D01*
X164678146Y-69886818D01*
X164631496Y-69879430D01*
X164625781Y-69878246D01*
X164605612Y-69873068D01*
X164580032Y-69866500D01*
X164580030Y-69866500D01*
X164559616Y-69866500D01*
X164540217Y-69864973D01*
X164520058Y-69861780D01*
X164520057Y-69861780D01*
X164473034Y-69866225D01*
X164467196Y-69866500D01*
X130108232Y-69866500D01*
X130092484Y-69864761D01*
X130092459Y-69865032D01*
X130084692Y-69864298D01*
X130084689Y-69864298D01*
X130014640Y-69866500D01*
X129984735Y-69866500D01*
X129977741Y-69867384D01*
X129971918Y-69867842D01*
X129924709Y-69869326D01*
X129924706Y-69869327D01*
X129905103Y-69875022D01*
X129886057Y-69878966D01*
X129865801Y-69881526D01*
X129865799Y-69881526D01*
X129865797Y-69881527D01*
X129821880Y-69898914D01*
X129816354Y-69900806D01*
X129771004Y-69913982D01*
X129753431Y-69924374D01*
X129735968Y-69932929D01*
X129716983Y-69940446D01*
X129716981Y-69940447D01*
X129678777Y-69968204D01*
X129673894Y-69971412D01*
X129633235Y-69995458D01*
X129618794Y-70009898D01*
X129604006Y-70022527D01*
X129587495Y-70034523D01*
X129587491Y-70034528D01*
X129567375Y-70058842D01*
X129509477Y-70097947D01*
X129471835Y-70103799D01*
X129430093Y-70103799D01*
X129363054Y-70084114D01*
X129317299Y-70031310D01*
X129307355Y-69962152D01*
X129326991Y-69910908D01*
X129415157Y-69778957D01*
X129460115Y-69711673D01*
X129591059Y-69446145D01*
X129654632Y-69258866D01*
X129686220Y-69165809D01*
X129686220Y-69165808D01*
X129686224Y-69165797D01*
X129743983Y-68875426D01*
X129763346Y-68580000D01*
X129743983Y-68284574D01*
X129739478Y-68261928D01*
X129698531Y-68056074D01*
X129686224Y-67994203D01*
X129686220Y-67994190D01*
X129591062Y-67713862D01*
X129591058Y-67713852D01*
X129460120Y-67448336D01*
X129460111Y-67448321D01*
X129423236Y-67393134D01*
X129295633Y-67202162D01*
X129229876Y-67127181D01*
X129100427Y-66979572D01*
X128877839Y-66784368D01*
X128869624Y-66778879D01*
X128746812Y-66696818D01*
X128631678Y-66619888D01*
X128631663Y-66619879D01*
X128366147Y-66488941D01*
X128366137Y-66488937D01*
X128085809Y-66393779D01*
X128085789Y-66393774D01*
X127795436Y-66336018D01*
X127795427Y-66336017D01*
X127795426Y-66336017D01*
X127500000Y-66316654D01*
X127204574Y-66336017D01*
X127204573Y-66336017D01*
X127204563Y-66336018D01*
X126914210Y-66393774D01*
X126914190Y-66393779D01*
X126633862Y-66488937D01*
X126633852Y-66488941D01*
X126368336Y-66619879D01*
X126368321Y-66619888D01*
X126122160Y-66784368D01*
X125899572Y-66979572D01*
X125704368Y-67202160D01*
X125539888Y-67448321D01*
X125539879Y-67448336D01*
X125408941Y-67713852D01*
X125408937Y-67713862D01*
X125313779Y-67994190D01*
X125313774Y-67994210D01*
X125256018Y-68284563D01*
X125256017Y-68284575D01*
X125236654Y-68580000D01*
X124676500Y-68580000D01*
X124676500Y-66164500D01*
X124696185Y-66097461D01*
X124748989Y-66051706D01*
X124800500Y-66040500D01*
X187327500Y-66040500D01*
X187394539Y-66060185D01*
G37*
G04 #@! TD.AperFunction*
M02*
