G04 #@! TF.GenerationSoftware,KiCad,Pcbnew,7.0.8*
G04 #@! TF.CreationDate,2023-11-16T17:46:21+01:00*
G04 #@! TF.ProjectId,ESP32-aqs,45535033-322d-4617-9173-2e6b69636164,rev?*
G04 #@! TF.SameCoordinates,Original*
G04 #@! TF.FileFunction,Soldermask,Top*
G04 #@! TF.FilePolarity,Negative*
%FSLAX46Y46*%
G04 Gerber Fmt 4.6, Leading zero omitted, Abs format (unit mm)*
G04 Created by KiCad (PCBNEW 7.0.8) date 2023-11-16 17:46:21*
%MOMM*%
%LPD*%
G01*
G04 APERTURE LIST*
G04 Aperture macros list*
%AMRoundRect*
0 Rectangle with rounded corners*
0 $1 Rounding radius*
0 $2 $3 $4 $5 $6 $7 $8 $9 X,Y pos of 4 corners*
0 Add a 4 corners polygon primitive as box body*
4,1,4,$2,$3,$4,$5,$6,$7,$8,$9,$2,$3,0*
0 Add four circle primitives for the rounded corners*
1,1,$1+$1,$2,$3*
1,1,$1+$1,$4,$5*
1,1,$1+$1,$6,$7*
1,1,$1+$1,$8,$9*
0 Add four rect primitives between the rounded corners*
20,1,$1+$1,$2,$3,$4,$5,0*
20,1,$1+$1,$4,$5,$6,$7,0*
20,1,$1+$1,$6,$7,$8,$9,0*
20,1,$1+$1,$8,$9,$2,$3,0*%
G04 Aperture macros list end*
%ADD10C,0.010000*%
%ADD11R,0.400000X0.550000*%
%ADD12RoundRect,0.250000X0.450000X-0.350000X0.450000X0.350000X-0.450000X0.350000X-0.450000X-0.350000X0*%
%ADD13RoundRect,0.250000X-0.450000X0.350000X-0.450000X-0.350000X0.450000X-0.350000X0.450000X0.350000X0*%
%ADD14C,0.650000*%
%ADD15O,2.216000X1.108000*%
%ADD16RoundRect,0.102000X-0.425000X-0.150000X0.425000X-0.150000X0.425000X0.150000X-0.425000X0.150000X0*%
%ADD17RoundRect,0.102000X0.150000X-0.425000X0.150000X0.425000X-0.150000X0.425000X-0.150000X-0.425000X0*%
%ADD18RoundRect,0.102000X1.275000X-1.275000X1.275000X1.275000X-1.275000X1.275000X-1.275000X-1.275000X0*%
%ADD19R,0.914400X1.219200*%
%ADD20RoundRect,0.250000X0.450000X-0.325000X0.450000X0.325000X-0.450000X0.325000X-0.450000X-0.325000X0*%
%ADD21RoundRect,0.250000X0.475000X-0.337500X0.475000X0.337500X-0.475000X0.337500X-0.475000X-0.337500X0*%
%ADD22C,3.500000*%
%ADD23RoundRect,0.250000X0.350000X0.450000X-0.350000X0.450000X-0.350000X-0.450000X0.350000X-0.450000X0*%
%ADD24RoundRect,0.250000X-0.337500X-0.475000X0.337500X-0.475000X0.337500X0.475000X-0.337500X0.475000X0*%
%ADD25RoundRect,0.250000X-0.450000X0.325000X-0.450000X-0.325000X0.450000X-0.325000X0.450000X0.325000X0*%
%ADD26R,1.000000X1.000000*%
%ADD27R,1.050000X2.200000*%
%ADD28RoundRect,0.250000X-0.475000X0.337500X-0.475000X-0.337500X0.475000X-0.337500X0.475000X0.337500X0*%
%ADD29RoundRect,0.250000X0.337500X0.475000X-0.337500X0.475000X-0.337500X-0.475000X0.337500X-0.475000X0*%
%ADD30C,2.000000*%
%ADD31RoundRect,0.102000X-1.000000X-0.450000X1.000000X-0.450000X1.000000X0.450000X-1.000000X0.450000X0*%
%ADD32RoundRect,0.102000X-0.450000X-1.000000X0.450000X-1.000000X0.450000X1.000000X-0.450000X1.000000X0*%
%ADD33RoundRect,0.102000X-0.665000X-0.665000X0.665000X-0.665000X0.665000X0.665000X-0.665000X0.665000X0*%
%ADD34C,0.504000*%
%ADD35R,2.540000X1.524000*%
%ADD36RoundRect,0.102000X-0.850000X-0.300000X0.850000X-0.300000X0.850000X0.300000X-0.850000X0.300000X0*%
%ADD37RoundRect,0.102000X-1.400000X-0.500000X1.400000X-0.500000X1.400000X0.500000X-1.400000X0.500000X0*%
%ADD38R,2.200000X2.200000*%
%ADD39C,2.200000*%
%ADD40R,1.500000X2.000000*%
%ADD41R,3.800000X2.000000*%
G04 APERTURE END LIST*
D10*
X178143000Y-80202000D02*
X176663000Y-80202000D01*
X176343000Y-79882000D01*
X176343000Y-78852000D01*
X178143000Y-78852000D01*
X178143000Y-80202000D01*
G36*
X178143000Y-80202000D02*
G01*
X176663000Y-80202000D01*
X176343000Y-79882000D01*
X176343000Y-78852000D01*
X178143000Y-78852000D01*
X178143000Y-80202000D01*
G37*
D11*
X176443000Y-80677000D03*
X177243000Y-80677000D03*
X178043000Y-80677000D03*
X178043000Y-78377000D03*
X177243000Y-78377000D03*
X176443000Y-78377000D03*
D12*
X129540000Y-103235000D03*
X129540000Y-101235000D03*
X132080000Y-103235000D03*
X132080000Y-101235000D03*
X135890000Y-79232000D03*
X135890000Y-77232000D03*
D13*
X133096000Y-77232000D03*
X133096000Y-79232000D03*
D14*
X133430000Y-83380000D03*
X133430000Y-84230000D03*
X133430000Y-85080000D03*
X133430000Y-85930000D03*
X133430000Y-86780000D03*
X133430000Y-87630000D03*
X133430000Y-88480000D03*
X133430000Y-89330000D03*
X132080000Y-89330000D03*
X132080000Y-88480000D03*
X132080000Y-87630000D03*
X132080000Y-86780000D03*
X132080000Y-85930000D03*
X132080000Y-85080000D03*
X132080000Y-84230000D03*
X132080000Y-83380000D03*
D15*
X132450000Y-82030000D03*
X132450000Y-90680000D03*
X129070000Y-90680000D03*
X129070000Y-82030000D03*
D16*
X126808000Y-74016000D03*
X126808000Y-74516000D03*
X126808000Y-75016000D03*
X126808000Y-75516000D03*
X126808000Y-76016000D03*
X126808000Y-76516000D03*
D17*
X127508000Y-77216000D03*
X128008000Y-77216000D03*
X128508000Y-77216000D03*
X129008000Y-77216000D03*
X129508000Y-77216000D03*
X130008000Y-77216000D03*
D16*
X130708000Y-76516000D03*
X130708000Y-76016000D03*
X130708000Y-75516000D03*
X130708000Y-75016000D03*
X130708000Y-74516000D03*
X130708000Y-74016000D03*
D17*
X130008000Y-73316000D03*
X129508000Y-73316000D03*
X129008000Y-73316000D03*
X128508000Y-73316000D03*
X128008000Y-73316000D03*
X127508000Y-73316000D03*
D18*
X128758000Y-75266000D03*
D19*
X129171700Y-93980000D03*
X132448300Y-93980000D03*
D20*
X132080000Y-98815000D03*
X132080000Y-96765000D03*
X129540000Y-98815000D03*
X129540000Y-96765000D03*
D21*
X133096000Y-74697500D03*
X133096000Y-72622500D03*
X135890000Y-74697500D03*
X135890000Y-72622500D03*
X133096000Y-70252500D03*
X133096000Y-68177500D03*
X135890000Y-70252500D03*
X135890000Y-68177500D03*
D22*
X173736000Y-105156000D03*
D23*
X169640000Y-68580000D03*
X167640000Y-68580000D03*
D24*
X148590000Y-106426000D03*
X150665000Y-106426000D03*
D25*
X140462000Y-81196000D03*
X140462000Y-79146000D03*
D26*
X173941000Y-70105000D03*
D27*
X172466000Y-68605000D03*
D26*
X173941000Y-67105000D03*
D27*
X175416000Y-68605000D03*
D28*
X143903500Y-77702500D03*
X143903500Y-79777500D03*
D29*
X173730000Y-80035000D03*
X171655000Y-80035000D03*
D13*
X144018000Y-83566000D03*
X144018000Y-85566000D03*
D30*
X139482000Y-105612000D03*
X139482000Y-99112000D03*
X143982000Y-105612000D03*
X143982000Y-99112000D03*
D31*
X148145000Y-66865000D03*
X148145000Y-68135000D03*
X148145000Y-69405000D03*
X148145000Y-70675000D03*
X148145000Y-71945000D03*
X148145000Y-73215000D03*
X148145000Y-74485000D03*
X148145000Y-75755000D03*
X148145000Y-77025000D03*
X148145000Y-78295000D03*
X148145000Y-79565000D03*
X148145000Y-80835000D03*
X148145000Y-82105000D03*
X148145000Y-83375000D03*
D32*
X150930000Y-84375000D03*
X152200000Y-84375000D03*
X153470000Y-84375000D03*
X154740000Y-84375000D03*
X156010000Y-84375000D03*
X157280000Y-84375000D03*
X158550000Y-84375000D03*
X159820000Y-84375000D03*
X161090000Y-84375000D03*
X162360000Y-84375000D03*
D31*
X165145000Y-83375000D03*
X165145000Y-82105000D03*
X165145000Y-80835000D03*
X165145000Y-79565000D03*
X165145000Y-78295000D03*
X165145000Y-77025000D03*
X165145000Y-75755000D03*
X165145000Y-74485000D03*
X165145000Y-73215000D03*
X165145000Y-71945000D03*
X165145000Y-70675000D03*
X165145000Y-69405000D03*
X165145000Y-68135000D03*
X165145000Y-66865000D03*
D33*
X153810000Y-72530000D03*
X155645000Y-72530000D03*
X157480000Y-72530000D03*
X153810000Y-74365000D03*
X155645000Y-74365000D03*
X157480000Y-74365000D03*
X153810000Y-76200000D03*
X155645000Y-76200000D03*
X157480000Y-76200000D03*
D34*
X154727500Y-72530000D03*
X156562500Y-72530000D03*
X153810000Y-73447500D03*
X155645000Y-73447500D03*
X157480000Y-73447500D03*
X154727500Y-74365000D03*
X156562500Y-74365000D03*
X153810000Y-75282500D03*
X155645000Y-75282500D03*
X157480000Y-75282500D03*
X154727500Y-76200000D03*
X156562500Y-76200000D03*
D21*
X177448000Y-76522000D03*
X177448000Y-74447000D03*
D28*
X143903500Y-68029000D03*
X143903500Y-70104000D03*
D22*
X127500000Y-68580000D03*
D35*
X165100000Y-103600000D03*
X165100000Y-101600000D03*
X165100000Y-99600000D03*
X165100000Y-97600000D03*
X165100000Y-95600000D03*
X165100000Y-93600000D03*
X165100000Y-91600000D03*
X165100000Y-89520000D03*
X148560000Y-89520000D03*
X148560000Y-91600000D03*
X148560000Y-93600000D03*
X148560000Y-95600000D03*
X148560000Y-97600000D03*
X148560000Y-99600000D03*
X148560000Y-101600000D03*
X148560000Y-103600000D03*
D26*
X140462000Y-72644000D03*
D36*
X182324000Y-96600000D03*
X182324000Y-97850000D03*
X182324000Y-99100000D03*
X182324000Y-100350000D03*
X182324000Y-101600000D03*
X182324000Y-102850000D03*
D37*
X185674000Y-104700000D03*
X185674000Y-94750000D03*
D29*
X173730000Y-77749000D03*
X171655000Y-77749000D03*
D12*
X173892000Y-74415000D03*
X173892000Y-72415000D03*
D38*
X183388000Y-80772000D03*
D39*
X183388000Y-78232000D03*
X183388000Y-75692000D03*
X183388000Y-73152000D03*
X183388000Y-70612000D03*
X183388000Y-68072000D03*
D21*
X140462000Y-85873500D03*
X140462000Y-83798500D03*
D28*
X140347500Y-68029000D03*
X140347500Y-70104000D03*
X177702000Y-70383000D03*
X177702000Y-72458000D03*
X140462000Y-74930000D03*
X140462000Y-77005000D03*
D13*
X143903500Y-72654500D03*
X143903500Y-74654500D03*
D23*
X169640000Y-73660000D03*
X167640000Y-73660000D03*
D40*
X144032000Y-89154000D03*
X141732000Y-89154000D03*
D41*
X141732000Y-95454000D03*
D40*
X139432000Y-89154000D03*
D30*
X172824000Y-86106000D03*
X179324000Y-86106000D03*
X172824000Y-90606000D03*
X179324000Y-90606000D03*
M02*
