G04 #@! TF.GenerationSoftware,KiCad,Pcbnew,7.0.8*
G04 #@! TF.CreationDate,2023-11-16T17:46:21+01:00*
G04 #@! TF.ProjectId,ESP32-aqs,45535033-322d-4617-9173-2e6b69636164,rev?*
G04 #@! TF.SameCoordinates,Original*
G04 #@! TF.FileFunction,Paste,Top*
G04 #@! TF.FilePolarity,Positive*
%FSLAX46Y46*%
G04 Gerber Fmt 4.6, Leading zero omitted, Abs format (unit mm)*
G04 Created by KiCad (PCBNEW 7.0.8) date 2023-11-16 17:46:21*
%MOMM*%
%LPD*%
G01*
G04 APERTURE LIST*
G04 Aperture macros list*
%AMRoundRect*
0 Rectangle with rounded corners*
0 $1 Rounding radius*
0 $2 $3 $4 $5 $6 $7 $8 $9 X,Y pos of 4 corners*
0 Add a 4 corners polygon primitive as box body*
4,1,4,$2,$3,$4,$5,$6,$7,$8,$9,$2,$3,0*
0 Add four circle primitives for the rounded corners*
1,1,$1+$1,$2,$3*
1,1,$1+$1,$4,$5*
1,1,$1+$1,$6,$7*
1,1,$1+$1,$8,$9*
0 Add four rect primitives between the rounded corners*
20,1,$1+$1,$2,$3,$4,$5,0*
20,1,$1+$1,$4,$5,$6,$7,0*
20,1,$1+$1,$6,$7,$8,$9,0*
20,1,$1+$1,$8,$9,$2,$3,0*%
G04 Aperture macros list end*
%ADD10C,0.010000*%
%ADD11R,0.400000X0.550000*%
%ADD12RoundRect,0.250000X0.450000X-0.350000X0.450000X0.350000X-0.450000X0.350000X-0.450000X-0.350000X0*%
%ADD13RoundRect,0.250000X-0.450000X0.350000X-0.450000X-0.350000X0.450000X-0.350000X0.450000X0.350000X0*%
%ADD14R,0.850000X0.300000*%
%ADD15R,0.300000X0.850000*%
%ADD16R,2.550000X2.550000*%
%ADD17R,0.914400X1.219200*%
%ADD18RoundRect,0.250000X0.450000X-0.325000X0.450000X0.325000X-0.450000X0.325000X-0.450000X-0.325000X0*%
%ADD19RoundRect,0.250000X0.475000X-0.337500X0.475000X0.337500X-0.475000X0.337500X-0.475000X-0.337500X0*%
%ADD20RoundRect,0.250000X0.350000X0.450000X-0.350000X0.450000X-0.350000X-0.450000X0.350000X-0.450000X0*%
%ADD21RoundRect,0.250000X-0.337500X-0.475000X0.337500X-0.475000X0.337500X0.475000X-0.337500X0.475000X0*%
%ADD22RoundRect,0.250000X-0.450000X0.325000X-0.450000X-0.325000X0.450000X-0.325000X0.450000X0.325000X0*%
%ADD23R,1.000000X1.000000*%
%ADD24R,1.050000X2.200000*%
%ADD25RoundRect,0.250000X-0.475000X0.337500X-0.475000X-0.337500X0.475000X-0.337500X0.475000X0.337500X0*%
%ADD26RoundRect,0.250000X0.337500X0.475000X-0.337500X0.475000X-0.337500X-0.475000X0.337500X-0.475000X0*%
%ADD27R,2.000000X0.900000*%
%ADD28R,0.900000X2.000000*%
%ADD29R,1.330000X1.330000*%
%ADD30R,2.540000X1.524000*%
%ADD31R,1.700000X0.600000*%
%ADD32R,2.800000X1.000000*%
%ADD33R,1.500000X2.000000*%
%ADD34R,3.800000X2.000000*%
G04 APERTURE END LIST*
D10*
X177993000Y-80052000D02*
X176793000Y-80052000D01*
X176493000Y-79752000D01*
X176493000Y-79002000D01*
X177993000Y-79002000D01*
X177993000Y-80052000D01*
G36*
X177993000Y-80052000D02*
G01*
X176793000Y-80052000D01*
X176493000Y-79752000D01*
X176493000Y-79002000D01*
X177993000Y-79002000D01*
X177993000Y-80052000D01*
G37*
D11*
X176443000Y-80677000D03*
X177243000Y-80677000D03*
X178043000Y-80677000D03*
X178043000Y-78377000D03*
X177243000Y-78377000D03*
X176443000Y-78377000D03*
D12*
X129540000Y-103235000D03*
X129540000Y-101235000D03*
X132080000Y-103235000D03*
X132080000Y-101235000D03*
X135890000Y-79232000D03*
X135890000Y-77232000D03*
D13*
X133096000Y-77232000D03*
X133096000Y-79232000D03*
D14*
X126808000Y-74016000D03*
X126808000Y-74516000D03*
X126808000Y-75016000D03*
X126808000Y-75516000D03*
X126808000Y-76016000D03*
X126808000Y-76516000D03*
D15*
X127508000Y-77216000D03*
X128008000Y-77216000D03*
X128508000Y-77216000D03*
X129008000Y-77216000D03*
X129508000Y-77216000D03*
X130008000Y-77216000D03*
D14*
X130708000Y-76516000D03*
X130708000Y-76016000D03*
X130708000Y-75516000D03*
X130708000Y-75016000D03*
X130708000Y-74516000D03*
X130708000Y-74016000D03*
D15*
X130008000Y-73316000D03*
X129508000Y-73316000D03*
X129008000Y-73316000D03*
X128508000Y-73316000D03*
X128008000Y-73316000D03*
X127508000Y-73316000D03*
D16*
X128758000Y-75266000D03*
D17*
X129171700Y-93980000D03*
X132448300Y-93980000D03*
D18*
X132080000Y-98815000D03*
X132080000Y-96765000D03*
X129540000Y-98815000D03*
X129540000Y-96765000D03*
D19*
X133096000Y-74697500D03*
X133096000Y-72622500D03*
X135890000Y-74697500D03*
X135890000Y-72622500D03*
X133096000Y-70252500D03*
X133096000Y-68177500D03*
X135890000Y-70252500D03*
X135890000Y-68177500D03*
D20*
X169640000Y-68580000D03*
X167640000Y-68580000D03*
D21*
X148590000Y-106426000D03*
X150665000Y-106426000D03*
D22*
X140462000Y-81196000D03*
X140462000Y-79146000D03*
D23*
X173941000Y-70105000D03*
D24*
X172466000Y-68605000D03*
D23*
X173941000Y-67105000D03*
D24*
X175416000Y-68605000D03*
D25*
X143903500Y-77702500D03*
X143903500Y-79777500D03*
D26*
X173730000Y-80035000D03*
X171655000Y-80035000D03*
D13*
X144018000Y-83566000D03*
X144018000Y-85566000D03*
D27*
X148145000Y-66865000D03*
X148145000Y-68135000D03*
X148145000Y-69405000D03*
X148145000Y-70675000D03*
X148145000Y-71945000D03*
X148145000Y-73215000D03*
X148145000Y-74485000D03*
X148145000Y-75755000D03*
X148145000Y-77025000D03*
X148145000Y-78295000D03*
X148145000Y-79565000D03*
X148145000Y-80835000D03*
X148145000Y-82105000D03*
X148145000Y-83375000D03*
D28*
X150930000Y-84375000D03*
X152200000Y-84375000D03*
X153470000Y-84375000D03*
X154740000Y-84375000D03*
X156010000Y-84375000D03*
X157280000Y-84375000D03*
X158550000Y-84375000D03*
X159820000Y-84375000D03*
X161090000Y-84375000D03*
X162360000Y-84375000D03*
D27*
X165145000Y-83375000D03*
X165145000Y-82105000D03*
X165145000Y-80835000D03*
X165145000Y-79565000D03*
X165145000Y-78295000D03*
X165145000Y-77025000D03*
X165145000Y-75755000D03*
X165145000Y-74485000D03*
X165145000Y-73215000D03*
X165145000Y-71945000D03*
X165145000Y-70675000D03*
X165145000Y-69405000D03*
X165145000Y-68135000D03*
X165145000Y-66865000D03*
D29*
X153810000Y-72530000D03*
X155645000Y-72530000D03*
X157480000Y-72530000D03*
X153810000Y-74365000D03*
X155645000Y-74365000D03*
X157480000Y-74365000D03*
X153810000Y-76200000D03*
X155645000Y-76200000D03*
X157480000Y-76200000D03*
D19*
X177448000Y-76522000D03*
X177448000Y-74447000D03*
D25*
X143903500Y-68029000D03*
X143903500Y-70104000D03*
D30*
X165100000Y-103600000D03*
X165100000Y-101600000D03*
X165100000Y-99600000D03*
X165100000Y-97600000D03*
X165100000Y-95600000D03*
X165100000Y-93600000D03*
X165100000Y-91600000D03*
X165100000Y-89520000D03*
X148560000Y-89520000D03*
X148560000Y-91600000D03*
X148560000Y-93600000D03*
X148560000Y-95600000D03*
X148560000Y-97600000D03*
X148560000Y-99600000D03*
X148560000Y-101600000D03*
X148560000Y-103600000D03*
D31*
X182324000Y-96600000D03*
X182324000Y-97850000D03*
X182324000Y-99100000D03*
X182324000Y-100350000D03*
X182324000Y-101600000D03*
X182324000Y-102850000D03*
D32*
X185674000Y-104700000D03*
X185674000Y-94750000D03*
D26*
X173730000Y-77749000D03*
X171655000Y-77749000D03*
D12*
X173892000Y-74415000D03*
X173892000Y-72415000D03*
D19*
X140462000Y-85873500D03*
X140462000Y-83798500D03*
D25*
X140347500Y-68029000D03*
X140347500Y-70104000D03*
X177702000Y-70383000D03*
X177702000Y-72458000D03*
X140462000Y-74930000D03*
X140462000Y-77005000D03*
D13*
X143903500Y-72654500D03*
X143903500Y-74654500D03*
D20*
X169640000Y-73660000D03*
X167640000Y-73660000D03*
D33*
X144032000Y-89154000D03*
X141732000Y-89154000D03*
D34*
X141732000Y-95454000D03*
D33*
X139432000Y-89154000D03*
M02*
