G04 #@! TF.GenerationSoftware,KiCad,Pcbnew,7.0.8*
G04 #@! TF.CreationDate,2023-11-16T17:46:21+01:00*
G04 #@! TF.ProjectId,ESP32-aqs,45535033-322d-4617-9173-2e6b69636164,rev?*
G04 #@! TF.SameCoordinates,Original*
G04 #@! TF.FileFunction,Legend,Top*
G04 #@! TF.FilePolarity,Positive*
%FSLAX46Y46*%
G04 Gerber Fmt 4.6, Leading zero omitted, Abs format (unit mm)*
G04 Created by KiCad (PCBNEW 7.0.8) date 2023-11-16 17:46:21*
%MOMM*%
%LPD*%
G01*
G04 APERTURE LIST*
G04 Aperture macros list*
%AMRoundRect*
0 Rectangle with rounded corners*
0 $1 Rounding radius*
0 $2 $3 $4 $5 $6 $7 $8 $9 X,Y pos of 4 corners*
0 Add a 4 corners polygon primitive as box body*
4,1,4,$2,$3,$4,$5,$6,$7,$8,$9,$2,$3,0*
0 Add four circle primitives for the rounded corners*
1,1,$1+$1,$2,$3*
1,1,$1+$1,$4,$5*
1,1,$1+$1,$6,$7*
1,1,$1+$1,$8,$9*
0 Add four rect primitives between the rounded corners*
20,1,$1+$1,$2,$3,$4,$5,0*
20,1,$1+$1,$4,$5,$6,$7,0*
20,1,$1+$1,$6,$7,$8,$9,0*
20,1,$1+$1,$8,$9,$2,$3,0*%
G04 Aperture macros list end*
%ADD10C,0.150000*%
%ADD11C,0.127000*%
%ADD12C,0.200000*%
%ADD13C,0.120000*%
%ADD14C,0.010000*%
%ADD15R,0.400000X0.550000*%
%ADD16RoundRect,0.250000X0.450000X-0.350000X0.450000X0.350000X-0.450000X0.350000X-0.450000X-0.350000X0*%
%ADD17RoundRect,0.250000X-0.450000X0.350000X-0.450000X-0.350000X0.450000X-0.350000X0.450000X0.350000X0*%
%ADD18C,0.650000*%
%ADD19O,2.216000X1.108000*%
%ADD20RoundRect,0.102000X-0.425000X-0.150000X0.425000X-0.150000X0.425000X0.150000X-0.425000X0.150000X0*%
%ADD21RoundRect,0.102000X0.150000X-0.425000X0.150000X0.425000X-0.150000X0.425000X-0.150000X-0.425000X0*%
%ADD22RoundRect,0.102000X1.275000X-1.275000X1.275000X1.275000X-1.275000X1.275000X-1.275000X-1.275000X0*%
%ADD23R,0.914400X1.219200*%
%ADD24RoundRect,0.250000X0.450000X-0.325000X0.450000X0.325000X-0.450000X0.325000X-0.450000X-0.325000X0*%
%ADD25RoundRect,0.250000X0.475000X-0.337500X0.475000X0.337500X-0.475000X0.337500X-0.475000X-0.337500X0*%
%ADD26C,3.500000*%
%ADD27RoundRect,0.250000X0.350000X0.450000X-0.350000X0.450000X-0.350000X-0.450000X0.350000X-0.450000X0*%
%ADD28RoundRect,0.250000X-0.337500X-0.475000X0.337500X-0.475000X0.337500X0.475000X-0.337500X0.475000X0*%
%ADD29RoundRect,0.250000X-0.450000X0.325000X-0.450000X-0.325000X0.450000X-0.325000X0.450000X0.325000X0*%
%ADD30R,1.000000X1.000000*%
%ADD31R,1.050000X2.200000*%
%ADD32RoundRect,0.250000X-0.475000X0.337500X-0.475000X-0.337500X0.475000X-0.337500X0.475000X0.337500X0*%
%ADD33RoundRect,0.250000X0.337500X0.475000X-0.337500X0.475000X-0.337500X-0.475000X0.337500X-0.475000X0*%
%ADD34C,2.000000*%
%ADD35RoundRect,0.102000X-1.000000X-0.450000X1.000000X-0.450000X1.000000X0.450000X-1.000000X0.450000X0*%
%ADD36RoundRect,0.102000X-0.450000X-1.000000X0.450000X-1.000000X0.450000X1.000000X-0.450000X1.000000X0*%
%ADD37RoundRect,0.102000X-0.665000X-0.665000X0.665000X-0.665000X0.665000X0.665000X-0.665000X0.665000X0*%
%ADD38C,0.504000*%
%ADD39R,2.540000X1.524000*%
%ADD40RoundRect,0.102000X-0.850000X-0.300000X0.850000X-0.300000X0.850000X0.300000X-0.850000X0.300000X0*%
%ADD41RoundRect,0.102000X-1.400000X-0.500000X1.400000X-0.500000X1.400000X0.500000X-1.400000X0.500000X0*%
%ADD42R,2.200000X2.200000*%
%ADD43C,2.200000*%
%ADD44R,1.500000X2.000000*%
%ADD45R,3.800000X2.000000*%
G04 APERTURE END LIST*
D10*
X174814876Y-79657619D02*
X175332971Y-79657619D01*
X175332971Y-79657619D02*
X175393923Y-79627142D01*
X175393923Y-79627142D02*
X175424400Y-79596666D01*
X175424400Y-79596666D02*
X175454876Y-79535714D01*
X175454876Y-79535714D02*
X175454876Y-79413809D01*
X175454876Y-79413809D02*
X175424400Y-79352857D01*
X175424400Y-79352857D02*
X175393923Y-79322380D01*
X175393923Y-79322380D02*
X175332971Y-79291904D01*
X175332971Y-79291904D02*
X174814876Y-79291904D01*
X174814876Y-79048095D02*
X174814876Y-78651904D01*
X174814876Y-78651904D02*
X175058685Y-78865238D01*
X175058685Y-78865238D02*
X175058685Y-78773809D01*
X175058685Y-78773809D02*
X175089161Y-78712857D01*
X175089161Y-78712857D02*
X175119638Y-78682381D01*
X175119638Y-78682381D02*
X175180590Y-78651904D01*
X175180590Y-78651904D02*
X175332971Y-78651904D01*
X175332971Y-78651904D02*
X175393923Y-78682381D01*
X175393923Y-78682381D02*
X175424400Y-78712857D01*
X175424400Y-78712857D02*
X175454876Y-78773809D01*
X175454876Y-78773809D02*
X175454876Y-78956666D01*
X175454876Y-78956666D02*
X175424400Y-79017619D01*
X175424400Y-79017619D02*
X175393923Y-79048095D01*
X128344819Y-102401666D02*
X127868628Y-102734999D01*
X128344819Y-102973094D02*
X127344819Y-102973094D01*
X127344819Y-102973094D02*
X127344819Y-102592142D01*
X127344819Y-102592142D02*
X127392438Y-102496904D01*
X127392438Y-102496904D02*
X127440057Y-102449285D01*
X127440057Y-102449285D02*
X127535295Y-102401666D01*
X127535295Y-102401666D02*
X127678152Y-102401666D01*
X127678152Y-102401666D02*
X127773390Y-102449285D01*
X127773390Y-102449285D02*
X127821009Y-102496904D01*
X127821009Y-102496904D02*
X127868628Y-102592142D01*
X127868628Y-102592142D02*
X127868628Y-102973094D01*
X128344819Y-101925475D02*
X128344819Y-101734999D01*
X128344819Y-101734999D02*
X128297200Y-101639761D01*
X128297200Y-101639761D02*
X128249580Y-101592142D01*
X128249580Y-101592142D02*
X128106723Y-101496904D01*
X128106723Y-101496904D02*
X127916247Y-101449285D01*
X127916247Y-101449285D02*
X127535295Y-101449285D01*
X127535295Y-101449285D02*
X127440057Y-101496904D01*
X127440057Y-101496904D02*
X127392438Y-101544523D01*
X127392438Y-101544523D02*
X127344819Y-101639761D01*
X127344819Y-101639761D02*
X127344819Y-101830237D01*
X127344819Y-101830237D02*
X127392438Y-101925475D01*
X127392438Y-101925475D02*
X127440057Y-101973094D01*
X127440057Y-101973094D02*
X127535295Y-102020713D01*
X127535295Y-102020713D02*
X127773390Y-102020713D01*
X127773390Y-102020713D02*
X127868628Y-101973094D01*
X127868628Y-101973094D02*
X127916247Y-101925475D01*
X127916247Y-101925475D02*
X127963866Y-101830237D01*
X127963866Y-101830237D02*
X127963866Y-101639761D01*
X127963866Y-101639761D02*
X127916247Y-101544523D01*
X127916247Y-101544523D02*
X127868628Y-101496904D01*
X127868628Y-101496904D02*
X127773390Y-101449285D01*
X134439819Y-103671666D02*
X133963628Y-104004999D01*
X134439819Y-104243094D02*
X133439819Y-104243094D01*
X133439819Y-104243094D02*
X133439819Y-103862142D01*
X133439819Y-103862142D02*
X133487438Y-103766904D01*
X133487438Y-103766904D02*
X133535057Y-103719285D01*
X133535057Y-103719285D02*
X133630295Y-103671666D01*
X133630295Y-103671666D02*
X133773152Y-103671666D01*
X133773152Y-103671666D02*
X133868390Y-103719285D01*
X133868390Y-103719285D02*
X133916009Y-103766904D01*
X133916009Y-103766904D02*
X133963628Y-103862142D01*
X133963628Y-103862142D02*
X133963628Y-104243094D01*
X133868390Y-103100237D02*
X133820771Y-103195475D01*
X133820771Y-103195475D02*
X133773152Y-103243094D01*
X133773152Y-103243094D02*
X133677914Y-103290713D01*
X133677914Y-103290713D02*
X133630295Y-103290713D01*
X133630295Y-103290713D02*
X133535057Y-103243094D01*
X133535057Y-103243094D02*
X133487438Y-103195475D01*
X133487438Y-103195475D02*
X133439819Y-103100237D01*
X133439819Y-103100237D02*
X133439819Y-102909761D01*
X133439819Y-102909761D02*
X133487438Y-102814523D01*
X133487438Y-102814523D02*
X133535057Y-102766904D01*
X133535057Y-102766904D02*
X133630295Y-102719285D01*
X133630295Y-102719285D02*
X133677914Y-102719285D01*
X133677914Y-102719285D02*
X133773152Y-102766904D01*
X133773152Y-102766904D02*
X133820771Y-102814523D01*
X133820771Y-102814523D02*
X133868390Y-102909761D01*
X133868390Y-102909761D02*
X133868390Y-103100237D01*
X133868390Y-103100237D02*
X133916009Y-103195475D01*
X133916009Y-103195475D02*
X133963628Y-103243094D01*
X133963628Y-103243094D02*
X134058866Y-103290713D01*
X134058866Y-103290713D02*
X134249342Y-103290713D01*
X134249342Y-103290713D02*
X134344580Y-103243094D01*
X134344580Y-103243094D02*
X134392200Y-103195475D01*
X134392200Y-103195475D02*
X134439819Y-103100237D01*
X134439819Y-103100237D02*
X134439819Y-102909761D01*
X134439819Y-102909761D02*
X134392200Y-102814523D01*
X134392200Y-102814523D02*
X134344580Y-102766904D01*
X134344580Y-102766904D02*
X134249342Y-102719285D01*
X134249342Y-102719285D02*
X134058866Y-102719285D01*
X134058866Y-102719285D02*
X133963628Y-102766904D01*
X133963628Y-102766904D02*
X133916009Y-102814523D01*
X133916009Y-102814523D02*
X133868390Y-102909761D01*
X134694819Y-78398666D02*
X134218628Y-78731999D01*
X134694819Y-78970094D02*
X133694819Y-78970094D01*
X133694819Y-78970094D02*
X133694819Y-78589142D01*
X133694819Y-78589142D02*
X133742438Y-78493904D01*
X133742438Y-78493904D02*
X133790057Y-78446285D01*
X133790057Y-78446285D02*
X133885295Y-78398666D01*
X133885295Y-78398666D02*
X134028152Y-78398666D01*
X134028152Y-78398666D02*
X134123390Y-78446285D01*
X134123390Y-78446285D02*
X134171009Y-78493904D01*
X134171009Y-78493904D02*
X134218628Y-78589142D01*
X134218628Y-78589142D02*
X134218628Y-78970094D01*
X133694819Y-78065332D02*
X133694819Y-77398666D01*
X133694819Y-77398666D02*
X134694819Y-77827237D01*
X135200819Y-78398666D02*
X134724628Y-78731999D01*
X135200819Y-78970094D02*
X134200819Y-78970094D01*
X134200819Y-78970094D02*
X134200819Y-78589142D01*
X134200819Y-78589142D02*
X134248438Y-78493904D01*
X134248438Y-78493904D02*
X134296057Y-78446285D01*
X134296057Y-78446285D02*
X134391295Y-78398666D01*
X134391295Y-78398666D02*
X134534152Y-78398666D01*
X134534152Y-78398666D02*
X134629390Y-78446285D01*
X134629390Y-78446285D02*
X134677009Y-78493904D01*
X134677009Y-78493904D02*
X134724628Y-78589142D01*
X134724628Y-78589142D02*
X134724628Y-78970094D01*
X134200819Y-77541523D02*
X134200819Y-77731999D01*
X134200819Y-77731999D02*
X134248438Y-77827237D01*
X134248438Y-77827237D02*
X134296057Y-77874856D01*
X134296057Y-77874856D02*
X134438914Y-77970094D01*
X134438914Y-77970094D02*
X134629390Y-78017713D01*
X134629390Y-78017713D02*
X135010342Y-78017713D01*
X135010342Y-78017713D02*
X135105580Y-77970094D01*
X135105580Y-77970094D02*
X135153200Y-77922475D01*
X135153200Y-77922475D02*
X135200819Y-77827237D01*
X135200819Y-77827237D02*
X135200819Y-77636761D01*
X135200819Y-77636761D02*
X135153200Y-77541523D01*
X135153200Y-77541523D02*
X135105580Y-77493904D01*
X135105580Y-77493904D02*
X135010342Y-77446285D01*
X135010342Y-77446285D02*
X134772247Y-77446285D01*
X134772247Y-77446285D02*
X134677009Y-77493904D01*
X134677009Y-77493904D02*
X134629390Y-77541523D01*
X134629390Y-77541523D02*
X134581771Y-77636761D01*
X134581771Y-77636761D02*
X134581771Y-77827237D01*
X134581771Y-77827237D02*
X134629390Y-77922475D01*
X134629390Y-77922475D02*
X134677009Y-77970094D01*
X134677009Y-77970094D02*
X134772247Y-78017713D01*
X135375154Y-85590957D02*
X136089547Y-85590957D01*
X136089547Y-85590957D02*
X136232425Y-85638584D01*
X136232425Y-85638584D02*
X136327678Y-85733836D01*
X136327678Y-85733836D02*
X136375304Y-85876715D01*
X136375304Y-85876715D02*
X136375304Y-85971967D01*
X136375304Y-84590807D02*
X136375304Y-85162322D01*
X136375304Y-84876565D02*
X135375154Y-84876565D01*
X135375154Y-84876565D02*
X135518032Y-84971817D01*
X135518032Y-84971817D02*
X135613285Y-85067069D01*
X135613285Y-85067069D02*
X135660911Y-85162322D01*
X127781810Y-75720819D02*
X127781810Y-74720819D01*
X128829428Y-75625580D02*
X128781809Y-75673200D01*
X128781809Y-75673200D02*
X128638952Y-75720819D01*
X128638952Y-75720819D02*
X128543714Y-75720819D01*
X128543714Y-75720819D02*
X128400857Y-75673200D01*
X128400857Y-75673200D02*
X128305619Y-75577961D01*
X128305619Y-75577961D02*
X128258000Y-75482723D01*
X128258000Y-75482723D02*
X128210381Y-75292247D01*
X128210381Y-75292247D02*
X128210381Y-75149390D01*
X128210381Y-75149390D02*
X128258000Y-74958914D01*
X128258000Y-74958914D02*
X128305619Y-74863676D01*
X128305619Y-74863676D02*
X128400857Y-74768438D01*
X128400857Y-74768438D02*
X128543714Y-74720819D01*
X128543714Y-74720819D02*
X128638952Y-74720819D01*
X128638952Y-74720819D02*
X128781809Y-74768438D01*
X128781809Y-74768438D02*
X128829428Y-74816057D01*
X129781809Y-75720819D02*
X129210381Y-75720819D01*
X129496095Y-75720819D02*
X129496095Y-74720819D01*
X129496095Y-74720819D02*
X129400857Y-74863676D01*
X129400857Y-74863676D02*
X129305619Y-74958914D01*
X129305619Y-74958914D02*
X129210381Y-75006533D01*
X133881905Y-95069819D02*
X133881905Y-94069819D01*
X133881905Y-94069819D02*
X134120000Y-94069819D01*
X134120000Y-94069819D02*
X134262857Y-94117438D01*
X134262857Y-94117438D02*
X134358095Y-94212676D01*
X134358095Y-94212676D02*
X134405714Y-94307914D01*
X134405714Y-94307914D02*
X134453333Y-94498390D01*
X134453333Y-94498390D02*
X134453333Y-94641247D01*
X134453333Y-94641247D02*
X134405714Y-94831723D01*
X134405714Y-94831723D02*
X134358095Y-94926961D01*
X134358095Y-94926961D02*
X134262857Y-95022200D01*
X134262857Y-95022200D02*
X134120000Y-95069819D01*
X134120000Y-95069819D02*
X133881905Y-95069819D01*
X135310476Y-94403152D02*
X135310476Y-95069819D01*
X135072381Y-94022200D02*
X134834286Y-94736485D01*
X134834286Y-94736485D02*
X135453333Y-94736485D01*
X134439819Y-98528094D02*
X133439819Y-98528094D01*
X133439819Y-98528094D02*
X133439819Y-98289999D01*
X133439819Y-98289999D02*
X133487438Y-98147142D01*
X133487438Y-98147142D02*
X133582676Y-98051904D01*
X133582676Y-98051904D02*
X133677914Y-98004285D01*
X133677914Y-98004285D02*
X133868390Y-97956666D01*
X133868390Y-97956666D02*
X134011247Y-97956666D01*
X134011247Y-97956666D02*
X134201723Y-98004285D01*
X134201723Y-98004285D02*
X134296961Y-98051904D01*
X134296961Y-98051904D02*
X134392200Y-98147142D01*
X134392200Y-98147142D02*
X134439819Y-98289999D01*
X134439819Y-98289999D02*
X134439819Y-98528094D01*
X133439819Y-97623332D02*
X133439819Y-97004285D01*
X133439819Y-97004285D02*
X133820771Y-97337618D01*
X133820771Y-97337618D02*
X133820771Y-97194761D01*
X133820771Y-97194761D02*
X133868390Y-97099523D01*
X133868390Y-97099523D02*
X133916009Y-97051904D01*
X133916009Y-97051904D02*
X134011247Y-97004285D01*
X134011247Y-97004285D02*
X134249342Y-97004285D01*
X134249342Y-97004285D02*
X134344580Y-97051904D01*
X134344580Y-97051904D02*
X134392200Y-97099523D01*
X134392200Y-97099523D02*
X134439819Y-97194761D01*
X134439819Y-97194761D02*
X134439819Y-97480475D01*
X134439819Y-97480475D02*
X134392200Y-97575713D01*
X134392200Y-97575713D02*
X134344580Y-97623332D01*
X128344819Y-98528094D02*
X127344819Y-98528094D01*
X127344819Y-98528094D02*
X127344819Y-98289999D01*
X127344819Y-98289999D02*
X127392438Y-98147142D01*
X127392438Y-98147142D02*
X127487676Y-98051904D01*
X127487676Y-98051904D02*
X127582914Y-98004285D01*
X127582914Y-98004285D02*
X127773390Y-97956666D01*
X127773390Y-97956666D02*
X127916247Y-97956666D01*
X127916247Y-97956666D02*
X128106723Y-98004285D01*
X128106723Y-98004285D02*
X128201961Y-98051904D01*
X128201961Y-98051904D02*
X128297200Y-98147142D01*
X128297200Y-98147142D02*
X128344819Y-98289999D01*
X128344819Y-98289999D02*
X128344819Y-98528094D01*
X127440057Y-97575713D02*
X127392438Y-97528094D01*
X127392438Y-97528094D02*
X127344819Y-97432856D01*
X127344819Y-97432856D02*
X127344819Y-97194761D01*
X127344819Y-97194761D02*
X127392438Y-97099523D01*
X127392438Y-97099523D02*
X127440057Y-97051904D01*
X127440057Y-97051904D02*
X127535295Y-97004285D01*
X127535295Y-97004285D02*
X127630533Y-97004285D01*
X127630533Y-97004285D02*
X127773390Y-97051904D01*
X127773390Y-97051904D02*
X128344819Y-97623332D01*
X128344819Y-97623332D02*
X128344819Y-97004285D01*
X135360580Y-73032857D02*
X135408200Y-73080476D01*
X135408200Y-73080476D02*
X135455819Y-73223333D01*
X135455819Y-73223333D02*
X135455819Y-73318571D01*
X135455819Y-73318571D02*
X135408200Y-73461428D01*
X135408200Y-73461428D02*
X135312961Y-73556666D01*
X135312961Y-73556666D02*
X135217723Y-73604285D01*
X135217723Y-73604285D02*
X135027247Y-73651904D01*
X135027247Y-73651904D02*
X134884390Y-73651904D01*
X134884390Y-73651904D02*
X134693914Y-73604285D01*
X134693914Y-73604285D02*
X134598676Y-73556666D01*
X134598676Y-73556666D02*
X134503438Y-73461428D01*
X134503438Y-73461428D02*
X134455819Y-73318571D01*
X134455819Y-73318571D02*
X134455819Y-73223333D01*
X134455819Y-73223333D02*
X134503438Y-73080476D01*
X134503438Y-73080476D02*
X134551057Y-73032857D01*
X135455819Y-72080476D02*
X135455819Y-72651904D01*
X135455819Y-72366190D02*
X134455819Y-72366190D01*
X134455819Y-72366190D02*
X134598676Y-72461428D01*
X134598676Y-72461428D02*
X134693914Y-72556666D01*
X134693914Y-72556666D02*
X134741533Y-72651904D01*
X134789152Y-71223333D02*
X135455819Y-71223333D01*
X134408200Y-71461428D02*
X135122485Y-71699523D01*
X135122485Y-71699523D02*
X135122485Y-71080476D01*
X134569580Y-74302857D02*
X134617200Y-74350476D01*
X134617200Y-74350476D02*
X134664819Y-74493333D01*
X134664819Y-74493333D02*
X134664819Y-74588571D01*
X134664819Y-74588571D02*
X134617200Y-74731428D01*
X134617200Y-74731428D02*
X134521961Y-74826666D01*
X134521961Y-74826666D02*
X134426723Y-74874285D01*
X134426723Y-74874285D02*
X134236247Y-74921904D01*
X134236247Y-74921904D02*
X134093390Y-74921904D01*
X134093390Y-74921904D02*
X133902914Y-74874285D01*
X133902914Y-74874285D02*
X133807676Y-74826666D01*
X133807676Y-74826666D02*
X133712438Y-74731428D01*
X133712438Y-74731428D02*
X133664819Y-74588571D01*
X133664819Y-74588571D02*
X133664819Y-74493333D01*
X133664819Y-74493333D02*
X133712438Y-74350476D01*
X133712438Y-74350476D02*
X133760057Y-74302857D01*
X134664819Y-73350476D02*
X134664819Y-73921904D01*
X134664819Y-73636190D02*
X133664819Y-73636190D01*
X133664819Y-73636190D02*
X133807676Y-73731428D01*
X133807676Y-73731428D02*
X133902914Y-73826666D01*
X133902914Y-73826666D02*
X133950533Y-73921904D01*
X133664819Y-73017142D02*
X133664819Y-72398095D01*
X133664819Y-72398095D02*
X134045771Y-72731428D01*
X134045771Y-72731428D02*
X134045771Y-72588571D01*
X134045771Y-72588571D02*
X134093390Y-72493333D01*
X134093390Y-72493333D02*
X134141009Y-72445714D01*
X134141009Y-72445714D02*
X134236247Y-72398095D01*
X134236247Y-72398095D02*
X134474342Y-72398095D01*
X134474342Y-72398095D02*
X134569580Y-72445714D01*
X134569580Y-72445714D02*
X134617200Y-72493333D01*
X134617200Y-72493333D02*
X134664819Y-72588571D01*
X134664819Y-72588571D02*
X134664819Y-72874285D01*
X134664819Y-72874285D02*
X134617200Y-72969523D01*
X134617200Y-72969523D02*
X134569580Y-73017142D01*
X131775580Y-69857857D02*
X131823200Y-69905476D01*
X131823200Y-69905476D02*
X131870819Y-70048333D01*
X131870819Y-70048333D02*
X131870819Y-70143571D01*
X131870819Y-70143571D02*
X131823200Y-70286428D01*
X131823200Y-70286428D02*
X131727961Y-70381666D01*
X131727961Y-70381666D02*
X131632723Y-70429285D01*
X131632723Y-70429285D02*
X131442247Y-70476904D01*
X131442247Y-70476904D02*
X131299390Y-70476904D01*
X131299390Y-70476904D02*
X131108914Y-70429285D01*
X131108914Y-70429285D02*
X131013676Y-70381666D01*
X131013676Y-70381666D02*
X130918438Y-70286428D01*
X130918438Y-70286428D02*
X130870819Y-70143571D01*
X130870819Y-70143571D02*
X130870819Y-70048333D01*
X130870819Y-70048333D02*
X130918438Y-69905476D01*
X130918438Y-69905476D02*
X130966057Y-69857857D01*
X131870819Y-68905476D02*
X131870819Y-69476904D01*
X131870819Y-69191190D02*
X130870819Y-69191190D01*
X130870819Y-69191190D02*
X131013676Y-69286428D01*
X131013676Y-69286428D02*
X131108914Y-69381666D01*
X131108914Y-69381666D02*
X131156533Y-69476904D01*
X130966057Y-68524523D02*
X130918438Y-68476904D01*
X130918438Y-68476904D02*
X130870819Y-68381666D01*
X130870819Y-68381666D02*
X130870819Y-68143571D01*
X130870819Y-68143571D02*
X130918438Y-68048333D01*
X130918438Y-68048333D02*
X130966057Y-68000714D01*
X130966057Y-68000714D02*
X131061295Y-67953095D01*
X131061295Y-67953095D02*
X131156533Y-67953095D01*
X131156533Y-67953095D02*
X131299390Y-68000714D01*
X131299390Y-68000714D02*
X131870819Y-68572142D01*
X131870819Y-68572142D02*
X131870819Y-67953095D01*
X134569580Y-69857857D02*
X134617200Y-69905476D01*
X134617200Y-69905476D02*
X134664819Y-70048333D01*
X134664819Y-70048333D02*
X134664819Y-70143571D01*
X134664819Y-70143571D02*
X134617200Y-70286428D01*
X134617200Y-70286428D02*
X134521961Y-70381666D01*
X134521961Y-70381666D02*
X134426723Y-70429285D01*
X134426723Y-70429285D02*
X134236247Y-70476904D01*
X134236247Y-70476904D02*
X134093390Y-70476904D01*
X134093390Y-70476904D02*
X133902914Y-70429285D01*
X133902914Y-70429285D02*
X133807676Y-70381666D01*
X133807676Y-70381666D02*
X133712438Y-70286428D01*
X133712438Y-70286428D02*
X133664819Y-70143571D01*
X133664819Y-70143571D02*
X133664819Y-70048333D01*
X133664819Y-70048333D02*
X133712438Y-69905476D01*
X133712438Y-69905476D02*
X133760057Y-69857857D01*
X134664819Y-68905476D02*
X134664819Y-69476904D01*
X134664819Y-69191190D02*
X133664819Y-69191190D01*
X133664819Y-69191190D02*
X133807676Y-69286428D01*
X133807676Y-69286428D02*
X133902914Y-69381666D01*
X133902914Y-69381666D02*
X133950533Y-69476904D01*
X134664819Y-67953095D02*
X134664819Y-68524523D01*
X134664819Y-68238809D02*
X133664819Y-68238809D01*
X133664819Y-68238809D02*
X133807676Y-68334047D01*
X133807676Y-68334047D02*
X133902914Y-68429285D01*
X133902914Y-68429285D02*
X133950533Y-68524523D01*
X169505333Y-67510819D02*
X169172000Y-67034628D01*
X168933905Y-67510819D02*
X168933905Y-66510819D01*
X168933905Y-66510819D02*
X169314857Y-66510819D01*
X169314857Y-66510819D02*
X169410095Y-66558438D01*
X169410095Y-66558438D02*
X169457714Y-66606057D01*
X169457714Y-66606057D02*
X169505333Y-66701295D01*
X169505333Y-66701295D02*
X169505333Y-66844152D01*
X169505333Y-66844152D02*
X169457714Y-66939390D01*
X169457714Y-66939390D02*
X169410095Y-66987009D01*
X169410095Y-66987009D02*
X169314857Y-67034628D01*
X169314857Y-67034628D02*
X168933905Y-67034628D01*
X170410095Y-66510819D02*
X169933905Y-66510819D01*
X169933905Y-66510819D02*
X169886286Y-66987009D01*
X169886286Y-66987009D02*
X169933905Y-66939390D01*
X169933905Y-66939390D02*
X170029143Y-66891771D01*
X170029143Y-66891771D02*
X170267238Y-66891771D01*
X170267238Y-66891771D02*
X170362476Y-66939390D01*
X170362476Y-66939390D02*
X170410095Y-66987009D01*
X170410095Y-66987009D02*
X170457714Y-67082247D01*
X170457714Y-67082247D02*
X170457714Y-67320342D01*
X170457714Y-67320342D02*
X170410095Y-67415580D01*
X170410095Y-67415580D02*
X170362476Y-67463200D01*
X170362476Y-67463200D02*
X170267238Y-67510819D01*
X170267238Y-67510819D02*
X170029143Y-67510819D01*
X170029143Y-67510819D02*
X169933905Y-67463200D01*
X169933905Y-67463200D02*
X169886286Y-67415580D01*
X152487333Y-106023580D02*
X152439714Y-106071200D01*
X152439714Y-106071200D02*
X152296857Y-106118819D01*
X152296857Y-106118819D02*
X152201619Y-106118819D01*
X152201619Y-106118819D02*
X152058762Y-106071200D01*
X152058762Y-106071200D02*
X151963524Y-105975961D01*
X151963524Y-105975961D02*
X151915905Y-105880723D01*
X151915905Y-105880723D02*
X151868286Y-105690247D01*
X151868286Y-105690247D02*
X151868286Y-105547390D01*
X151868286Y-105547390D02*
X151915905Y-105356914D01*
X151915905Y-105356914D02*
X151963524Y-105261676D01*
X151963524Y-105261676D02*
X152058762Y-105166438D01*
X152058762Y-105166438D02*
X152201619Y-105118819D01*
X152201619Y-105118819D02*
X152296857Y-105118819D01*
X152296857Y-105118819D02*
X152439714Y-105166438D01*
X152439714Y-105166438D02*
X152487333Y-105214057D01*
X153058762Y-105547390D02*
X152963524Y-105499771D01*
X152963524Y-105499771D02*
X152915905Y-105452152D01*
X152915905Y-105452152D02*
X152868286Y-105356914D01*
X152868286Y-105356914D02*
X152868286Y-105309295D01*
X152868286Y-105309295D02*
X152915905Y-105214057D01*
X152915905Y-105214057D02*
X152963524Y-105166438D01*
X152963524Y-105166438D02*
X153058762Y-105118819D01*
X153058762Y-105118819D02*
X153249238Y-105118819D01*
X153249238Y-105118819D02*
X153344476Y-105166438D01*
X153344476Y-105166438D02*
X153392095Y-105214057D01*
X153392095Y-105214057D02*
X153439714Y-105309295D01*
X153439714Y-105309295D02*
X153439714Y-105356914D01*
X153439714Y-105356914D02*
X153392095Y-105452152D01*
X153392095Y-105452152D02*
X153344476Y-105499771D01*
X153344476Y-105499771D02*
X153249238Y-105547390D01*
X153249238Y-105547390D02*
X153058762Y-105547390D01*
X153058762Y-105547390D02*
X152963524Y-105595009D01*
X152963524Y-105595009D02*
X152915905Y-105642628D01*
X152915905Y-105642628D02*
X152868286Y-105737866D01*
X152868286Y-105737866D02*
X152868286Y-105928342D01*
X152868286Y-105928342D02*
X152915905Y-106023580D01*
X152915905Y-106023580D02*
X152963524Y-106071200D01*
X152963524Y-106071200D02*
X153058762Y-106118819D01*
X153058762Y-106118819D02*
X153249238Y-106118819D01*
X153249238Y-106118819D02*
X153344476Y-106071200D01*
X153344476Y-106071200D02*
X153392095Y-106023580D01*
X153392095Y-106023580D02*
X153439714Y-105928342D01*
X153439714Y-105928342D02*
X153439714Y-105737866D01*
X153439714Y-105737866D02*
X153392095Y-105642628D01*
X153392095Y-105642628D02*
X153344476Y-105595009D01*
X153344476Y-105595009D02*
X153249238Y-105547390D01*
X139138819Y-80748094D02*
X138138819Y-80748094D01*
X138138819Y-80748094D02*
X138138819Y-80509999D01*
X138138819Y-80509999D02*
X138186438Y-80367142D01*
X138186438Y-80367142D02*
X138281676Y-80271904D01*
X138281676Y-80271904D02*
X138376914Y-80224285D01*
X138376914Y-80224285D02*
X138567390Y-80176666D01*
X138567390Y-80176666D02*
X138710247Y-80176666D01*
X138710247Y-80176666D02*
X138900723Y-80224285D01*
X138900723Y-80224285D02*
X138995961Y-80271904D01*
X138995961Y-80271904D02*
X139091200Y-80367142D01*
X139091200Y-80367142D02*
X139138819Y-80509999D01*
X139138819Y-80509999D02*
X139138819Y-80748094D01*
X139138819Y-79224285D02*
X139138819Y-79795713D01*
X139138819Y-79509999D02*
X138138819Y-79509999D01*
X138138819Y-79509999D02*
X138281676Y-79605237D01*
X138281676Y-79605237D02*
X138376914Y-79700475D01*
X138376914Y-79700475D02*
X138424533Y-79795713D01*
X177163666Y-67551819D02*
X177163666Y-68266104D01*
X177163666Y-68266104D02*
X177116047Y-68408961D01*
X177116047Y-68408961D02*
X177020809Y-68504200D01*
X177020809Y-68504200D02*
X176877952Y-68551819D01*
X176877952Y-68551819D02*
X176782714Y-68551819D01*
X177544619Y-67551819D02*
X178163666Y-67551819D01*
X178163666Y-67551819D02*
X177830333Y-67932771D01*
X177830333Y-67932771D02*
X177973190Y-67932771D01*
X177973190Y-67932771D02*
X178068428Y-67980390D01*
X178068428Y-67980390D02*
X178116047Y-68028009D01*
X178116047Y-68028009D02*
X178163666Y-68123247D01*
X178163666Y-68123247D02*
X178163666Y-68361342D01*
X178163666Y-68361342D02*
X178116047Y-68456580D01*
X178116047Y-68456580D02*
X178068428Y-68504200D01*
X178068428Y-68504200D02*
X177973190Y-68551819D01*
X177973190Y-68551819D02*
X177687476Y-68551819D01*
X177687476Y-68551819D02*
X177592238Y-68504200D01*
X177592238Y-68504200D02*
X177544619Y-68456580D01*
X142599580Y-78906666D02*
X142647200Y-78954285D01*
X142647200Y-78954285D02*
X142694819Y-79097142D01*
X142694819Y-79097142D02*
X142694819Y-79192380D01*
X142694819Y-79192380D02*
X142647200Y-79335237D01*
X142647200Y-79335237D02*
X142551961Y-79430475D01*
X142551961Y-79430475D02*
X142456723Y-79478094D01*
X142456723Y-79478094D02*
X142266247Y-79525713D01*
X142266247Y-79525713D02*
X142123390Y-79525713D01*
X142123390Y-79525713D02*
X141932914Y-79478094D01*
X141932914Y-79478094D02*
X141837676Y-79430475D01*
X141837676Y-79430475D02*
X141742438Y-79335237D01*
X141742438Y-79335237D02*
X141694819Y-79192380D01*
X141694819Y-79192380D02*
X141694819Y-79097142D01*
X141694819Y-79097142D02*
X141742438Y-78954285D01*
X141742438Y-78954285D02*
X141790057Y-78906666D01*
X141694819Y-78001904D02*
X141694819Y-78478094D01*
X141694819Y-78478094D02*
X142171009Y-78525713D01*
X142171009Y-78525713D02*
X142123390Y-78478094D01*
X142123390Y-78478094D02*
X142075771Y-78382856D01*
X142075771Y-78382856D02*
X142075771Y-78144761D01*
X142075771Y-78144761D02*
X142123390Y-78049523D01*
X142123390Y-78049523D02*
X142171009Y-78001904D01*
X142171009Y-78001904D02*
X142266247Y-77954285D01*
X142266247Y-77954285D02*
X142504342Y-77954285D01*
X142504342Y-77954285D02*
X142599580Y-78001904D01*
X142599580Y-78001904D02*
X142647200Y-78049523D01*
X142647200Y-78049523D02*
X142694819Y-78144761D01*
X142694819Y-78144761D02*
X142694819Y-78382856D01*
X142694819Y-78382856D02*
X142647200Y-78478094D01*
X142647200Y-78478094D02*
X142599580Y-78525713D01*
X172525833Y-82074580D02*
X172478214Y-82122200D01*
X172478214Y-82122200D02*
X172335357Y-82169819D01*
X172335357Y-82169819D02*
X172240119Y-82169819D01*
X172240119Y-82169819D02*
X172097262Y-82122200D01*
X172097262Y-82122200D02*
X172002024Y-82026961D01*
X172002024Y-82026961D02*
X171954405Y-81931723D01*
X171954405Y-81931723D02*
X171906786Y-81741247D01*
X171906786Y-81741247D02*
X171906786Y-81598390D01*
X171906786Y-81598390D02*
X171954405Y-81407914D01*
X171954405Y-81407914D02*
X172002024Y-81312676D01*
X172002024Y-81312676D02*
X172097262Y-81217438D01*
X172097262Y-81217438D02*
X172240119Y-81169819D01*
X172240119Y-81169819D02*
X172335357Y-81169819D01*
X172335357Y-81169819D02*
X172478214Y-81217438D01*
X172478214Y-81217438D02*
X172525833Y-81265057D01*
X173382976Y-81503152D02*
X173382976Y-82169819D01*
X173144881Y-81122200D02*
X172906786Y-81836485D01*
X172906786Y-81836485D02*
X173525833Y-81836485D01*
X142694819Y-84716666D02*
X142218628Y-85049999D01*
X142694819Y-85288094D02*
X141694819Y-85288094D01*
X141694819Y-85288094D02*
X141694819Y-84907142D01*
X141694819Y-84907142D02*
X141742438Y-84811904D01*
X141742438Y-84811904D02*
X141790057Y-84764285D01*
X141790057Y-84764285D02*
X141885295Y-84716666D01*
X141885295Y-84716666D02*
X142028152Y-84716666D01*
X142028152Y-84716666D02*
X142123390Y-84764285D01*
X142123390Y-84764285D02*
X142171009Y-84811904D01*
X142171009Y-84811904D02*
X142218628Y-84907142D01*
X142218628Y-84907142D02*
X142218628Y-85288094D01*
X142694819Y-83764285D02*
X142694819Y-84335713D01*
X142694819Y-84049999D02*
X141694819Y-84049999D01*
X141694819Y-84049999D02*
X141837676Y-84145237D01*
X141837676Y-84145237D02*
X141932914Y-84240475D01*
X141932914Y-84240475D02*
X141980533Y-84335713D01*
X137889200Y-103695332D02*
X137936819Y-103552475D01*
X137936819Y-103552475D02*
X137936819Y-103314380D01*
X137936819Y-103314380D02*
X137889200Y-103219142D01*
X137889200Y-103219142D02*
X137841580Y-103171523D01*
X137841580Y-103171523D02*
X137746342Y-103123904D01*
X137746342Y-103123904D02*
X137651104Y-103123904D01*
X137651104Y-103123904D02*
X137555866Y-103171523D01*
X137555866Y-103171523D02*
X137508247Y-103219142D01*
X137508247Y-103219142D02*
X137460628Y-103314380D01*
X137460628Y-103314380D02*
X137413009Y-103504856D01*
X137413009Y-103504856D02*
X137365390Y-103600094D01*
X137365390Y-103600094D02*
X137317771Y-103647713D01*
X137317771Y-103647713D02*
X137222533Y-103695332D01*
X137222533Y-103695332D02*
X137127295Y-103695332D01*
X137127295Y-103695332D02*
X137032057Y-103647713D01*
X137032057Y-103647713D02*
X136984438Y-103600094D01*
X136984438Y-103600094D02*
X136936819Y-103504856D01*
X136936819Y-103504856D02*
X136936819Y-103266761D01*
X136936819Y-103266761D02*
X136984438Y-103123904D01*
X136936819Y-102790570D02*
X137936819Y-102552475D01*
X137936819Y-102552475D02*
X137222533Y-102361999D01*
X137222533Y-102361999D02*
X137936819Y-102171523D01*
X137936819Y-102171523D02*
X136936819Y-101933428D01*
X137936819Y-101028666D02*
X137936819Y-101600094D01*
X137936819Y-101314380D02*
X136936819Y-101314380D01*
X136936819Y-101314380D02*
X137079676Y-101409618D01*
X137079676Y-101409618D02*
X137174914Y-101504856D01*
X137174914Y-101504856D02*
X137222533Y-101600094D01*
X154940095Y-85814819D02*
X154940095Y-86624342D01*
X154940095Y-86624342D02*
X154987714Y-86719580D01*
X154987714Y-86719580D02*
X155035333Y-86767200D01*
X155035333Y-86767200D02*
X155130571Y-86814819D01*
X155130571Y-86814819D02*
X155321047Y-86814819D01*
X155321047Y-86814819D02*
X155416285Y-86767200D01*
X155416285Y-86767200D02*
X155463904Y-86719580D01*
X155463904Y-86719580D02*
X155511523Y-86624342D01*
X155511523Y-86624342D02*
X155511523Y-85814819D01*
X155940095Y-85910057D02*
X155987714Y-85862438D01*
X155987714Y-85862438D02*
X156082952Y-85814819D01*
X156082952Y-85814819D02*
X156321047Y-85814819D01*
X156321047Y-85814819D02*
X156416285Y-85862438D01*
X156416285Y-85862438D02*
X156463904Y-85910057D01*
X156463904Y-85910057D02*
X156511523Y-86005295D01*
X156511523Y-86005295D02*
X156511523Y-86100533D01*
X156511523Y-86100533D02*
X156463904Y-86243390D01*
X156463904Y-86243390D02*
X155892476Y-86814819D01*
X155892476Y-86814819D02*
X156511523Y-86814819D01*
X176332580Y-74867666D02*
X176380200Y-74915285D01*
X176380200Y-74915285D02*
X176427819Y-75058142D01*
X176427819Y-75058142D02*
X176427819Y-75153380D01*
X176427819Y-75153380D02*
X176380200Y-75296237D01*
X176380200Y-75296237D02*
X176284961Y-75391475D01*
X176284961Y-75391475D02*
X176189723Y-75439094D01*
X176189723Y-75439094D02*
X175999247Y-75486713D01*
X175999247Y-75486713D02*
X175856390Y-75486713D01*
X175856390Y-75486713D02*
X175665914Y-75439094D01*
X175665914Y-75439094D02*
X175570676Y-75391475D01*
X175570676Y-75391475D02*
X175475438Y-75296237D01*
X175475438Y-75296237D02*
X175427819Y-75153380D01*
X175427819Y-75153380D02*
X175427819Y-75058142D01*
X175427819Y-75058142D02*
X175475438Y-74915285D01*
X175475438Y-74915285D02*
X175523057Y-74867666D01*
X176427819Y-74391475D02*
X176427819Y-74200999D01*
X176427819Y-74200999D02*
X176380200Y-74105761D01*
X176380200Y-74105761D02*
X176332580Y-74058142D01*
X176332580Y-74058142D02*
X176189723Y-73962904D01*
X176189723Y-73962904D02*
X175999247Y-73915285D01*
X175999247Y-73915285D02*
X175618295Y-73915285D01*
X175618295Y-73915285D02*
X175523057Y-73962904D01*
X175523057Y-73962904D02*
X175475438Y-74010523D01*
X175475438Y-74010523D02*
X175427819Y-74105761D01*
X175427819Y-74105761D02*
X175427819Y-74296237D01*
X175427819Y-74296237D02*
X175475438Y-74391475D01*
X175475438Y-74391475D02*
X175523057Y-74439094D01*
X175523057Y-74439094D02*
X175618295Y-74486713D01*
X175618295Y-74486713D02*
X175856390Y-74486713D01*
X175856390Y-74486713D02*
X175951628Y-74439094D01*
X175951628Y-74439094D02*
X175999247Y-74391475D01*
X175999247Y-74391475D02*
X176046866Y-74296237D01*
X176046866Y-74296237D02*
X176046866Y-74105761D01*
X176046866Y-74105761D02*
X175999247Y-74010523D01*
X175999247Y-74010523D02*
X175951628Y-73962904D01*
X175951628Y-73962904D02*
X175856390Y-73915285D01*
X142599580Y-69233166D02*
X142647200Y-69280785D01*
X142647200Y-69280785D02*
X142694819Y-69423642D01*
X142694819Y-69423642D02*
X142694819Y-69518880D01*
X142694819Y-69518880D02*
X142647200Y-69661737D01*
X142647200Y-69661737D02*
X142551961Y-69756975D01*
X142551961Y-69756975D02*
X142456723Y-69804594D01*
X142456723Y-69804594D02*
X142266247Y-69852213D01*
X142266247Y-69852213D02*
X142123390Y-69852213D01*
X142123390Y-69852213D02*
X141932914Y-69804594D01*
X141932914Y-69804594D02*
X141837676Y-69756975D01*
X141837676Y-69756975D02*
X141742438Y-69661737D01*
X141742438Y-69661737D02*
X141694819Y-69518880D01*
X141694819Y-69518880D02*
X141694819Y-69423642D01*
X141694819Y-69423642D02*
X141742438Y-69280785D01*
X141742438Y-69280785D02*
X141790057Y-69233166D01*
X141694819Y-68899832D02*
X141694819Y-68233166D01*
X141694819Y-68233166D02*
X142694819Y-68661737D01*
X156052095Y-96808819D02*
X156052095Y-97618342D01*
X156052095Y-97618342D02*
X156099714Y-97713580D01*
X156099714Y-97713580D02*
X156147333Y-97761200D01*
X156147333Y-97761200D02*
X156242571Y-97808819D01*
X156242571Y-97808819D02*
X156433047Y-97808819D01*
X156433047Y-97808819D02*
X156528285Y-97761200D01*
X156528285Y-97761200D02*
X156575904Y-97713580D01*
X156575904Y-97713580D02*
X156623523Y-97618342D01*
X156623523Y-97618342D02*
X156623523Y-96808819D01*
X157528285Y-97142152D02*
X157528285Y-97808819D01*
X157290190Y-96761200D02*
X157052095Y-97475485D01*
X157052095Y-97475485D02*
X157671142Y-97475485D01*
X138138819Y-73905904D02*
X138138819Y-73334476D01*
X139138819Y-73620190D02*
X138138819Y-73620190D01*
X139138819Y-73001142D02*
X138138819Y-73001142D01*
X138138819Y-73001142D02*
X138138819Y-72620190D01*
X138138819Y-72620190D02*
X138186438Y-72524952D01*
X138186438Y-72524952D02*
X138234057Y-72477333D01*
X138234057Y-72477333D02*
X138329295Y-72429714D01*
X138329295Y-72429714D02*
X138472152Y-72429714D01*
X138472152Y-72429714D02*
X138567390Y-72477333D01*
X138567390Y-72477333D02*
X138615009Y-72524952D01*
X138615009Y-72524952D02*
X138662628Y-72620190D01*
X138662628Y-72620190D02*
X138662628Y-73001142D01*
X139138819Y-71477333D02*
X139138819Y-72048761D01*
X139138819Y-71763047D02*
X138138819Y-71763047D01*
X138138819Y-71763047D02*
X138281676Y-71858285D01*
X138281676Y-71858285D02*
X138376914Y-71953523D01*
X138376914Y-71953523D02*
X138424533Y-72048761D01*
X179628295Y-103201666D02*
X180199723Y-103201666D01*
X180199723Y-103201666D02*
X180314009Y-103239761D01*
X180314009Y-103239761D02*
X180390200Y-103315952D01*
X180390200Y-103315952D02*
X180428295Y-103430237D01*
X180428295Y-103430237D02*
X180428295Y-103506428D01*
X179704485Y-102858809D02*
X179666390Y-102820713D01*
X179666390Y-102820713D02*
X179628295Y-102744523D01*
X179628295Y-102744523D02*
X179628295Y-102554047D01*
X179628295Y-102554047D02*
X179666390Y-102477856D01*
X179666390Y-102477856D02*
X179704485Y-102439761D01*
X179704485Y-102439761D02*
X179780676Y-102401666D01*
X179780676Y-102401666D02*
X179856866Y-102401666D01*
X179856866Y-102401666D02*
X179971152Y-102439761D01*
X179971152Y-102439761D02*
X180428295Y-102896904D01*
X180428295Y-102896904D02*
X180428295Y-102401666D01*
X172525833Y-76076580D02*
X172478214Y-76124200D01*
X172478214Y-76124200D02*
X172335357Y-76171819D01*
X172335357Y-76171819D02*
X172240119Y-76171819D01*
X172240119Y-76171819D02*
X172097262Y-76124200D01*
X172097262Y-76124200D02*
X172002024Y-76028961D01*
X172002024Y-76028961D02*
X171954405Y-75933723D01*
X171954405Y-75933723D02*
X171906786Y-75743247D01*
X171906786Y-75743247D02*
X171906786Y-75600390D01*
X171906786Y-75600390D02*
X171954405Y-75409914D01*
X171954405Y-75409914D02*
X172002024Y-75314676D01*
X172002024Y-75314676D02*
X172097262Y-75219438D01*
X172097262Y-75219438D02*
X172240119Y-75171819D01*
X172240119Y-75171819D02*
X172335357Y-75171819D01*
X172335357Y-75171819D02*
X172478214Y-75219438D01*
X172478214Y-75219438D02*
X172525833Y-75267057D01*
X172859167Y-75171819D02*
X173478214Y-75171819D01*
X173478214Y-75171819D02*
X173144881Y-75552771D01*
X173144881Y-75552771D02*
X173287738Y-75552771D01*
X173287738Y-75552771D02*
X173382976Y-75600390D01*
X173382976Y-75600390D02*
X173430595Y-75648009D01*
X173430595Y-75648009D02*
X173478214Y-75743247D01*
X173478214Y-75743247D02*
X173478214Y-75981342D01*
X173478214Y-75981342D02*
X173430595Y-76076580D01*
X173430595Y-76076580D02*
X173382976Y-76124200D01*
X173382976Y-76124200D02*
X173287738Y-76171819D01*
X173287738Y-76171819D02*
X173002024Y-76171819D01*
X173002024Y-76171819D02*
X172906786Y-76124200D01*
X172906786Y-76124200D02*
X172859167Y-76076580D01*
X172696819Y-73581666D02*
X172220628Y-73914999D01*
X172696819Y-74153094D02*
X171696819Y-74153094D01*
X171696819Y-74153094D02*
X171696819Y-73772142D01*
X171696819Y-73772142D02*
X171744438Y-73676904D01*
X171744438Y-73676904D02*
X171792057Y-73629285D01*
X171792057Y-73629285D02*
X171887295Y-73581666D01*
X171887295Y-73581666D02*
X172030152Y-73581666D01*
X172030152Y-73581666D02*
X172125390Y-73629285D01*
X172125390Y-73629285D02*
X172173009Y-73676904D01*
X172173009Y-73676904D02*
X172220628Y-73772142D01*
X172220628Y-73772142D02*
X172220628Y-74153094D01*
X171792057Y-73200713D02*
X171744438Y-73153094D01*
X171744438Y-73153094D02*
X171696819Y-73057856D01*
X171696819Y-73057856D02*
X171696819Y-72819761D01*
X171696819Y-72819761D02*
X171744438Y-72724523D01*
X171744438Y-72724523D02*
X171792057Y-72676904D01*
X171792057Y-72676904D02*
X171887295Y-72629285D01*
X171887295Y-72629285D02*
X171982533Y-72629285D01*
X171982533Y-72629285D02*
X172125390Y-72676904D01*
X172125390Y-72676904D02*
X172696819Y-73248332D01*
X172696819Y-73248332D02*
X172696819Y-72629285D01*
X178682819Y-74755333D02*
X179397104Y-74755333D01*
X179397104Y-74755333D02*
X179539961Y-74802952D01*
X179539961Y-74802952D02*
X179635200Y-74898190D01*
X179635200Y-74898190D02*
X179682819Y-75041047D01*
X179682819Y-75041047D02*
X179682819Y-75136285D01*
X179016152Y-73850571D02*
X179682819Y-73850571D01*
X178635200Y-74088666D02*
X179349485Y-74326761D01*
X179349485Y-74326761D02*
X179349485Y-73707714D01*
X139141580Y-85002666D02*
X139189200Y-85050285D01*
X139189200Y-85050285D02*
X139236819Y-85193142D01*
X139236819Y-85193142D02*
X139236819Y-85288380D01*
X139236819Y-85288380D02*
X139189200Y-85431237D01*
X139189200Y-85431237D02*
X139093961Y-85526475D01*
X139093961Y-85526475D02*
X138998723Y-85574094D01*
X138998723Y-85574094D02*
X138808247Y-85621713D01*
X138808247Y-85621713D02*
X138665390Y-85621713D01*
X138665390Y-85621713D02*
X138474914Y-85574094D01*
X138474914Y-85574094D02*
X138379676Y-85526475D01*
X138379676Y-85526475D02*
X138284438Y-85431237D01*
X138284438Y-85431237D02*
X138236819Y-85288380D01*
X138236819Y-85288380D02*
X138236819Y-85193142D01*
X138236819Y-85193142D02*
X138284438Y-85050285D01*
X138284438Y-85050285D02*
X138332057Y-85002666D01*
X139236819Y-84050285D02*
X139236819Y-84621713D01*
X139236819Y-84335999D02*
X138236819Y-84335999D01*
X138236819Y-84335999D02*
X138379676Y-84431237D01*
X138379676Y-84431237D02*
X138474914Y-84526475D01*
X138474914Y-84526475D02*
X138522533Y-84621713D01*
X138789580Y-70270666D02*
X138837200Y-70318285D01*
X138837200Y-70318285D02*
X138884819Y-70461142D01*
X138884819Y-70461142D02*
X138884819Y-70556380D01*
X138884819Y-70556380D02*
X138837200Y-70699237D01*
X138837200Y-70699237D02*
X138741961Y-70794475D01*
X138741961Y-70794475D02*
X138646723Y-70842094D01*
X138646723Y-70842094D02*
X138456247Y-70889713D01*
X138456247Y-70889713D02*
X138313390Y-70889713D01*
X138313390Y-70889713D02*
X138122914Y-70842094D01*
X138122914Y-70842094D02*
X138027676Y-70794475D01*
X138027676Y-70794475D02*
X137932438Y-70699237D01*
X137932438Y-70699237D02*
X137884819Y-70556380D01*
X137884819Y-70556380D02*
X137884819Y-70461142D01*
X137884819Y-70461142D02*
X137932438Y-70318285D01*
X137932438Y-70318285D02*
X137980057Y-70270666D01*
X137884819Y-69413523D02*
X137884819Y-69603999D01*
X137884819Y-69603999D02*
X137932438Y-69699237D01*
X137932438Y-69699237D02*
X137980057Y-69746856D01*
X137980057Y-69746856D02*
X138122914Y-69842094D01*
X138122914Y-69842094D02*
X138313390Y-69889713D01*
X138313390Y-69889713D02*
X138694342Y-69889713D01*
X138694342Y-69889713D02*
X138789580Y-69842094D01*
X138789580Y-69842094D02*
X138837200Y-69794475D01*
X138837200Y-69794475D02*
X138884819Y-69699237D01*
X138884819Y-69699237D02*
X138884819Y-69508761D01*
X138884819Y-69508761D02*
X138837200Y-69413523D01*
X138837200Y-69413523D02*
X138789580Y-69365904D01*
X138789580Y-69365904D02*
X138694342Y-69318285D01*
X138694342Y-69318285D02*
X138456247Y-69318285D01*
X138456247Y-69318285D02*
X138361009Y-69365904D01*
X138361009Y-69365904D02*
X138313390Y-69413523D01*
X138313390Y-69413523D02*
X138265771Y-69508761D01*
X138265771Y-69508761D02*
X138265771Y-69699237D01*
X138265771Y-69699237D02*
X138313390Y-69794475D01*
X138313390Y-69794475D02*
X138361009Y-69842094D01*
X138361009Y-69842094D02*
X138456247Y-69889713D01*
X176332580Y-73057857D02*
X176380200Y-73105476D01*
X176380200Y-73105476D02*
X176427819Y-73248333D01*
X176427819Y-73248333D02*
X176427819Y-73343571D01*
X176427819Y-73343571D02*
X176380200Y-73486428D01*
X176380200Y-73486428D02*
X176284961Y-73581666D01*
X176284961Y-73581666D02*
X176189723Y-73629285D01*
X176189723Y-73629285D02*
X175999247Y-73676904D01*
X175999247Y-73676904D02*
X175856390Y-73676904D01*
X175856390Y-73676904D02*
X175665914Y-73629285D01*
X175665914Y-73629285D02*
X175570676Y-73581666D01*
X175570676Y-73581666D02*
X175475438Y-73486428D01*
X175475438Y-73486428D02*
X175427819Y-73343571D01*
X175427819Y-73343571D02*
X175427819Y-73248333D01*
X175427819Y-73248333D02*
X175475438Y-73105476D01*
X175475438Y-73105476D02*
X175523057Y-73057857D01*
X176427819Y-72105476D02*
X176427819Y-72676904D01*
X176427819Y-72391190D02*
X175427819Y-72391190D01*
X175427819Y-72391190D02*
X175570676Y-72486428D01*
X175570676Y-72486428D02*
X175665914Y-72581666D01*
X175665914Y-72581666D02*
X175713533Y-72676904D01*
X175427819Y-71486428D02*
X175427819Y-71391190D01*
X175427819Y-71391190D02*
X175475438Y-71295952D01*
X175475438Y-71295952D02*
X175523057Y-71248333D01*
X175523057Y-71248333D02*
X175618295Y-71200714D01*
X175618295Y-71200714D02*
X175808771Y-71153095D01*
X175808771Y-71153095D02*
X176046866Y-71153095D01*
X176046866Y-71153095D02*
X176237342Y-71200714D01*
X176237342Y-71200714D02*
X176332580Y-71248333D01*
X176332580Y-71248333D02*
X176380200Y-71295952D01*
X176380200Y-71295952D02*
X176427819Y-71391190D01*
X176427819Y-71391190D02*
X176427819Y-71486428D01*
X176427819Y-71486428D02*
X176380200Y-71581666D01*
X176380200Y-71581666D02*
X176332580Y-71629285D01*
X176332580Y-71629285D02*
X176237342Y-71676904D01*
X176237342Y-71676904D02*
X176046866Y-71724523D01*
X176046866Y-71724523D02*
X175808771Y-71724523D01*
X175808771Y-71724523D02*
X175618295Y-71676904D01*
X175618295Y-71676904D02*
X175523057Y-71629285D01*
X175523057Y-71629285D02*
X175475438Y-71581666D01*
X175475438Y-71581666D02*
X175427819Y-71486428D01*
X139043580Y-76155666D02*
X139091200Y-76203285D01*
X139091200Y-76203285D02*
X139138819Y-76346142D01*
X139138819Y-76346142D02*
X139138819Y-76441380D01*
X139138819Y-76441380D02*
X139091200Y-76584237D01*
X139091200Y-76584237D02*
X138995961Y-76679475D01*
X138995961Y-76679475D02*
X138900723Y-76727094D01*
X138900723Y-76727094D02*
X138710247Y-76774713D01*
X138710247Y-76774713D02*
X138567390Y-76774713D01*
X138567390Y-76774713D02*
X138376914Y-76727094D01*
X138376914Y-76727094D02*
X138281676Y-76679475D01*
X138281676Y-76679475D02*
X138186438Y-76584237D01*
X138186438Y-76584237D02*
X138138819Y-76441380D01*
X138138819Y-76441380D02*
X138138819Y-76346142D01*
X138138819Y-76346142D02*
X138186438Y-76203285D01*
X138186438Y-76203285D02*
X138234057Y-76155666D01*
X138234057Y-75774713D02*
X138186438Y-75727094D01*
X138186438Y-75727094D02*
X138138819Y-75631856D01*
X138138819Y-75631856D02*
X138138819Y-75393761D01*
X138138819Y-75393761D02*
X138186438Y-75298523D01*
X138186438Y-75298523D02*
X138234057Y-75250904D01*
X138234057Y-75250904D02*
X138329295Y-75203285D01*
X138329295Y-75203285D02*
X138424533Y-75203285D01*
X138424533Y-75203285D02*
X138567390Y-75250904D01*
X138567390Y-75250904D02*
X139138819Y-75822332D01*
X139138819Y-75822332D02*
X139138819Y-75203285D01*
X142694819Y-73821166D02*
X142218628Y-74154499D01*
X142694819Y-74392594D02*
X141694819Y-74392594D01*
X141694819Y-74392594D02*
X141694819Y-74011642D01*
X141694819Y-74011642D02*
X141742438Y-73916404D01*
X141742438Y-73916404D02*
X141790057Y-73868785D01*
X141790057Y-73868785D02*
X141885295Y-73821166D01*
X141885295Y-73821166D02*
X142028152Y-73821166D01*
X142028152Y-73821166D02*
X142123390Y-73868785D01*
X142123390Y-73868785D02*
X142171009Y-73916404D01*
X142171009Y-73916404D02*
X142218628Y-74011642D01*
X142218628Y-74011642D02*
X142218628Y-74392594D01*
X141694819Y-73487832D02*
X141694819Y-72868785D01*
X141694819Y-72868785D02*
X142075771Y-73202118D01*
X142075771Y-73202118D02*
X142075771Y-73059261D01*
X142075771Y-73059261D02*
X142123390Y-72964023D01*
X142123390Y-72964023D02*
X142171009Y-72916404D01*
X142171009Y-72916404D02*
X142266247Y-72868785D01*
X142266247Y-72868785D02*
X142504342Y-72868785D01*
X142504342Y-72868785D02*
X142599580Y-72916404D01*
X142599580Y-72916404D02*
X142647200Y-72964023D01*
X142647200Y-72964023D02*
X142694819Y-73059261D01*
X142694819Y-73059261D02*
X142694819Y-73344975D01*
X142694819Y-73344975D02*
X142647200Y-73440213D01*
X142647200Y-73440213D02*
X142599580Y-73487832D01*
X168473333Y-75764819D02*
X168140000Y-75288628D01*
X167901905Y-75764819D02*
X167901905Y-74764819D01*
X167901905Y-74764819D02*
X168282857Y-74764819D01*
X168282857Y-74764819D02*
X168378095Y-74812438D01*
X168378095Y-74812438D02*
X168425714Y-74860057D01*
X168425714Y-74860057D02*
X168473333Y-74955295D01*
X168473333Y-74955295D02*
X168473333Y-75098152D01*
X168473333Y-75098152D02*
X168425714Y-75193390D01*
X168425714Y-75193390D02*
X168378095Y-75241009D01*
X168378095Y-75241009D02*
X168282857Y-75288628D01*
X168282857Y-75288628D02*
X167901905Y-75288628D01*
X169330476Y-75098152D02*
X169330476Y-75764819D01*
X169092381Y-74717200D02*
X168854286Y-75431485D01*
X168854286Y-75431485D02*
X169473333Y-75431485D01*
X145686819Y-93065904D02*
X146496342Y-93065904D01*
X146496342Y-93065904D02*
X146591580Y-93018285D01*
X146591580Y-93018285D02*
X146639200Y-92970666D01*
X146639200Y-92970666D02*
X146686819Y-92875428D01*
X146686819Y-92875428D02*
X146686819Y-92684952D01*
X146686819Y-92684952D02*
X146639200Y-92589714D01*
X146639200Y-92589714D02*
X146591580Y-92542095D01*
X146591580Y-92542095D02*
X146496342Y-92494476D01*
X146496342Y-92494476D02*
X145686819Y-92494476D01*
X146686819Y-91494476D02*
X146686819Y-92065904D01*
X146686819Y-91780190D02*
X145686819Y-91780190D01*
X145686819Y-91780190D02*
X145829676Y-91875428D01*
X145829676Y-91875428D02*
X145924914Y-91970666D01*
X145924914Y-91970666D02*
X145972533Y-92065904D01*
X174740667Y-84513200D02*
X174883524Y-84560819D01*
X174883524Y-84560819D02*
X175121619Y-84560819D01*
X175121619Y-84560819D02*
X175216857Y-84513200D01*
X175216857Y-84513200D02*
X175264476Y-84465580D01*
X175264476Y-84465580D02*
X175312095Y-84370342D01*
X175312095Y-84370342D02*
X175312095Y-84275104D01*
X175312095Y-84275104D02*
X175264476Y-84179866D01*
X175264476Y-84179866D02*
X175216857Y-84132247D01*
X175216857Y-84132247D02*
X175121619Y-84084628D01*
X175121619Y-84084628D02*
X174931143Y-84037009D01*
X174931143Y-84037009D02*
X174835905Y-83989390D01*
X174835905Y-83989390D02*
X174788286Y-83941771D01*
X174788286Y-83941771D02*
X174740667Y-83846533D01*
X174740667Y-83846533D02*
X174740667Y-83751295D01*
X174740667Y-83751295D02*
X174788286Y-83656057D01*
X174788286Y-83656057D02*
X174835905Y-83608438D01*
X174835905Y-83608438D02*
X174931143Y-83560819D01*
X174931143Y-83560819D02*
X175169238Y-83560819D01*
X175169238Y-83560819D02*
X175312095Y-83608438D01*
X175645429Y-83560819D02*
X175883524Y-84560819D01*
X175883524Y-84560819D02*
X176074000Y-83846533D01*
X176074000Y-83846533D02*
X176264476Y-84560819D01*
X176264476Y-84560819D02*
X176502572Y-83560819D01*
X176835905Y-83656057D02*
X176883524Y-83608438D01*
X176883524Y-83608438D02*
X176978762Y-83560819D01*
X176978762Y-83560819D02*
X177216857Y-83560819D01*
X177216857Y-83560819D02*
X177312095Y-83608438D01*
X177312095Y-83608438D02*
X177359714Y-83656057D01*
X177359714Y-83656057D02*
X177407333Y-83751295D01*
X177407333Y-83751295D02*
X177407333Y-83846533D01*
X177407333Y-83846533D02*
X177359714Y-83989390D01*
X177359714Y-83989390D02*
X176788286Y-84560819D01*
X176788286Y-84560819D02*
X177407333Y-84560819D01*
D11*
X175923000Y-80747000D02*
X175923000Y-78307000D01*
X178563000Y-78307000D02*
X178563000Y-80747000D01*
D12*
X176543000Y-81577000D02*
G75*
G03*
X176543000Y-81577000I-100000J0D01*
G01*
D13*
X128805000Y-102462064D02*
X128805000Y-102007936D01*
X130275000Y-102462064D02*
X130275000Y-102007936D01*
X131345000Y-102462064D02*
X131345000Y-102007936D01*
X132815000Y-102462064D02*
X132815000Y-102007936D01*
X135155000Y-78459064D02*
X135155000Y-78004936D01*
X136625000Y-78459064D02*
X136625000Y-78004936D01*
X133831000Y-78004936D02*
X133831000Y-78459064D01*
X132361000Y-78004936D02*
X132361000Y-78459064D01*
D12*
X133990000Y-81880000D02*
X133990000Y-90830000D01*
X127680000Y-81880000D02*
X127330000Y-81880000D01*
X127330000Y-81880000D02*
X127330000Y-90830000D01*
X127330000Y-90830000D02*
X127680000Y-90830000D01*
D13*
X133040000Y-99650000D02*
X133040000Y-96790000D01*
X131120000Y-96790000D02*
X131120000Y-99650000D01*
X131120000Y-99650000D02*
X133040000Y-99650000D01*
X130500000Y-99650000D02*
X130500000Y-96790000D01*
X128580000Y-96790000D02*
X128580000Y-99650000D01*
X128580000Y-99650000D02*
X130500000Y-99650000D01*
X132361000Y-73921252D02*
X132361000Y-73398748D01*
X133831000Y-73921252D02*
X133831000Y-73398748D01*
X135155000Y-73921252D02*
X135155000Y-73398748D01*
X136625000Y-73921252D02*
X136625000Y-73398748D01*
X132361000Y-69476252D02*
X132361000Y-68953748D01*
X133831000Y-69476252D02*
X133831000Y-68953748D01*
X135155000Y-69476252D02*
X135155000Y-68953748D01*
X136625000Y-69476252D02*
X136625000Y-68953748D01*
X168867064Y-69315000D02*
X168412936Y-69315000D01*
X168867064Y-67845000D02*
X168412936Y-67845000D01*
X149366248Y-105691000D02*
X149888752Y-105691000D01*
X149366248Y-107161000D02*
X149888752Y-107161000D01*
X141422000Y-81171000D02*
X141422000Y-78311000D01*
X139502000Y-78311000D02*
X139502000Y-81171000D01*
X141422000Y-78311000D02*
X139502000Y-78311000D01*
X172441000Y-67105000D02*
X173241000Y-67105000D01*
X172441000Y-67305000D02*
X172441000Y-67105000D01*
X172641000Y-70105000D02*
X172441000Y-69905000D01*
X173241000Y-70105000D02*
X172641000Y-70105000D01*
X173241000Y-70105000D02*
X173241000Y-70605000D01*
X174641000Y-67105000D02*
X175441000Y-67105000D01*
X174641000Y-70105000D02*
X174641000Y-70605000D01*
X175441000Y-67105000D02*
X175441000Y-67305000D01*
X175441000Y-69905000D02*
X175441000Y-70105000D01*
X175441000Y-70105000D02*
X174641000Y-70105000D01*
X144638500Y-78478748D02*
X144638500Y-79001252D01*
X143168500Y-78478748D02*
X143168500Y-79001252D01*
X172953752Y-80770000D02*
X172431248Y-80770000D01*
X172953752Y-79300000D02*
X172431248Y-79300000D01*
X144753000Y-84338936D02*
X144753000Y-84793064D01*
X143283000Y-84338936D02*
X143283000Y-84793064D01*
X140982000Y-105862000D02*
X142482000Y-105862000D01*
X144982000Y-104612000D02*
X144982000Y-100112000D01*
X138482000Y-100112000D02*
X138482000Y-104612000D01*
X142482000Y-98862000D02*
X140982000Y-98862000D01*
D11*
X147645000Y-59375000D02*
X165645000Y-59375000D01*
X147645000Y-65875000D02*
X147645000Y-59375000D01*
X147645000Y-84225000D02*
X147645000Y-84875000D01*
X147645000Y-84875000D02*
X150095000Y-84875000D01*
X163195000Y-84875000D02*
X165645000Y-84875000D01*
X165645000Y-59375000D02*
X165645000Y-65875000D01*
X165645000Y-84875000D02*
X165645000Y-84225000D01*
D12*
X146745000Y-66875000D02*
G75*
G03*
X146745000Y-66875000I-100000J0D01*
G01*
D13*
X176713000Y-75745752D02*
X176713000Y-75223248D01*
X178183000Y-75745752D02*
X178183000Y-75223248D01*
X144638500Y-68805248D02*
X144638500Y-69327752D01*
X143168500Y-68805248D02*
X143168500Y-69327752D01*
X146908000Y-88488000D02*
X166720000Y-88488000D01*
X166720000Y-88488000D02*
X166720000Y-104744000D01*
X166720000Y-104744000D02*
X146908000Y-104744000D01*
X146908000Y-104744000D02*
X146908000Y-88488000D01*
X162969961Y-103728000D02*
G75*
G03*
X162969961Y-103728000I-567961J0D01*
G01*
X139762000Y-71944000D02*
X141162000Y-71944000D01*
X139762000Y-73344000D02*
X139762000Y-71944000D01*
X141162000Y-71944000D02*
X141162000Y-73344000D01*
X141162000Y-73344000D02*
X139762000Y-73344000D01*
D11*
X182524000Y-105100000D02*
X182524000Y-103475000D01*
X183954000Y-105100000D02*
X182524000Y-105100000D01*
X186774000Y-103875000D02*
X186774000Y-95575000D01*
X182524000Y-95975000D02*
X182524000Y-94350000D01*
X183954000Y-94350000D02*
X182524000Y-94350000D01*
D12*
X180974000Y-96600000D02*
G75*
G03*
X180974000Y-96600000I-100000J0D01*
G01*
D13*
X172953752Y-78484000D02*
X172431248Y-78484000D01*
X172953752Y-77014000D02*
X172431248Y-77014000D01*
X173157000Y-73642064D02*
X173157000Y-73187936D01*
X174627000Y-73642064D02*
X174627000Y-73187936D01*
X186048000Y-82572000D02*
X186788000Y-82572000D01*
X186788000Y-82572000D02*
X186788000Y-82072000D01*
X180228000Y-82332000D02*
X186548000Y-82332000D01*
X180228000Y-82332000D02*
X180228000Y-66512000D01*
X180688000Y-82332000D02*
X180688000Y-66512000D01*
X185988000Y-82332000D02*
X185988000Y-66512000D01*
X186548000Y-82332000D02*
X186548000Y-66512000D01*
X180228000Y-66512000D02*
X186548000Y-66512000D01*
X139727000Y-85097252D02*
X139727000Y-84574748D01*
X141197000Y-85097252D02*
X141197000Y-84574748D01*
X141082500Y-68805248D02*
X141082500Y-69327752D01*
X139612500Y-68805248D02*
X139612500Y-69327752D01*
X178437000Y-71159248D02*
X178437000Y-71681752D01*
X176967000Y-71159248D02*
X176967000Y-71681752D01*
X141197000Y-75706248D02*
X141197000Y-76228752D01*
X139727000Y-75706248D02*
X139727000Y-76228752D01*
X144638500Y-73427436D02*
X144638500Y-73881564D01*
X143168500Y-73427436D02*
X143168500Y-73881564D01*
X168867064Y-74395000D02*
X168412936Y-74395000D01*
X168867064Y-72925000D02*
X168412936Y-72925000D01*
X145142000Y-88204000D02*
X145142000Y-94214000D01*
X138322000Y-90454000D02*
X138322000Y-94214000D01*
X145142000Y-94214000D02*
X143882000Y-94214000D01*
X138322000Y-94214000D02*
X139582000Y-94214000D01*
X172574000Y-87606000D02*
X172574000Y-89106000D01*
X173824000Y-91606000D02*
X178324000Y-91606000D01*
X178324000Y-85106000D02*
X173824000Y-85106000D01*
X179574000Y-89106000D02*
X179574000Y-87606000D01*
%LPC*%
D14*
X178143000Y-80202000D02*
X176663000Y-80202000D01*
X176343000Y-79882000D01*
X176343000Y-78852000D01*
X178143000Y-78852000D01*
X178143000Y-80202000D01*
G36*
X178143000Y-80202000D02*
G01*
X176663000Y-80202000D01*
X176343000Y-79882000D01*
X176343000Y-78852000D01*
X178143000Y-78852000D01*
X178143000Y-80202000D01*
G37*
D15*
X176443000Y-80677000D03*
X177243000Y-80677000D03*
X178043000Y-80677000D03*
X178043000Y-78377000D03*
X177243000Y-78377000D03*
X176443000Y-78377000D03*
D16*
X129540000Y-103235000D03*
X129540000Y-101235000D03*
X132080000Y-103235000D03*
X132080000Y-101235000D03*
X135890000Y-79232000D03*
X135890000Y-77232000D03*
D17*
X133096000Y-77232000D03*
X133096000Y-79232000D03*
D18*
X133430000Y-83380000D03*
X133430000Y-84230000D03*
X133430000Y-85080000D03*
X133430000Y-85930000D03*
X133430000Y-86780000D03*
X133430000Y-87630000D03*
X133430000Y-88480000D03*
X133430000Y-89330000D03*
X132080000Y-89330000D03*
X132080000Y-88480000D03*
X132080000Y-87630000D03*
X132080000Y-86780000D03*
X132080000Y-85930000D03*
X132080000Y-85080000D03*
X132080000Y-84230000D03*
X132080000Y-83380000D03*
D19*
X132450000Y-82030000D03*
X132450000Y-90680000D03*
X129070000Y-90680000D03*
X129070000Y-82030000D03*
D20*
X126808000Y-74016000D03*
X126808000Y-74516000D03*
X126808000Y-75016000D03*
X126808000Y-75516000D03*
X126808000Y-76016000D03*
X126808000Y-76516000D03*
D21*
X127508000Y-77216000D03*
X128008000Y-77216000D03*
X128508000Y-77216000D03*
X129008000Y-77216000D03*
X129508000Y-77216000D03*
X130008000Y-77216000D03*
D20*
X130708000Y-76516000D03*
X130708000Y-76016000D03*
X130708000Y-75516000D03*
X130708000Y-75016000D03*
X130708000Y-74516000D03*
X130708000Y-74016000D03*
D21*
X130008000Y-73316000D03*
X129508000Y-73316000D03*
X129008000Y-73316000D03*
X128508000Y-73316000D03*
X128008000Y-73316000D03*
X127508000Y-73316000D03*
D22*
X128758000Y-75266000D03*
D23*
X129171700Y-93980000D03*
X132448300Y-93980000D03*
D24*
X132080000Y-98815000D03*
X132080000Y-96765000D03*
X129540000Y-98815000D03*
X129540000Y-96765000D03*
D25*
X133096000Y-74697500D03*
X133096000Y-72622500D03*
X135890000Y-74697500D03*
X135890000Y-72622500D03*
X133096000Y-70252500D03*
X133096000Y-68177500D03*
X135890000Y-70252500D03*
X135890000Y-68177500D03*
D26*
X173736000Y-105156000D03*
D27*
X169640000Y-68580000D03*
X167640000Y-68580000D03*
D28*
X148590000Y-106426000D03*
X150665000Y-106426000D03*
D29*
X140462000Y-81196000D03*
X140462000Y-79146000D03*
D30*
X173941000Y-70105000D03*
D31*
X172466000Y-68605000D03*
D30*
X173941000Y-67105000D03*
D31*
X175416000Y-68605000D03*
D32*
X143903500Y-77702500D03*
X143903500Y-79777500D03*
D33*
X173730000Y-80035000D03*
X171655000Y-80035000D03*
D17*
X144018000Y-83566000D03*
X144018000Y-85566000D03*
D34*
X139482000Y-105612000D03*
X139482000Y-99112000D03*
X143982000Y-105612000D03*
X143982000Y-99112000D03*
D35*
X148145000Y-66865000D03*
X148145000Y-68135000D03*
X148145000Y-69405000D03*
X148145000Y-70675000D03*
X148145000Y-71945000D03*
X148145000Y-73215000D03*
X148145000Y-74485000D03*
X148145000Y-75755000D03*
X148145000Y-77025000D03*
X148145000Y-78295000D03*
X148145000Y-79565000D03*
X148145000Y-80835000D03*
X148145000Y-82105000D03*
X148145000Y-83375000D03*
D36*
X150930000Y-84375000D03*
X152200000Y-84375000D03*
X153470000Y-84375000D03*
X154740000Y-84375000D03*
X156010000Y-84375000D03*
X157280000Y-84375000D03*
X158550000Y-84375000D03*
X159820000Y-84375000D03*
X161090000Y-84375000D03*
X162360000Y-84375000D03*
D35*
X165145000Y-83375000D03*
X165145000Y-82105000D03*
X165145000Y-80835000D03*
X165145000Y-79565000D03*
X165145000Y-78295000D03*
X165145000Y-77025000D03*
X165145000Y-75755000D03*
X165145000Y-74485000D03*
X165145000Y-73215000D03*
X165145000Y-71945000D03*
X165145000Y-70675000D03*
X165145000Y-69405000D03*
X165145000Y-68135000D03*
X165145000Y-66865000D03*
D37*
X153810000Y-72530000D03*
X155645000Y-72530000D03*
X157480000Y-72530000D03*
X153810000Y-74365000D03*
X155645000Y-74365000D03*
X157480000Y-74365000D03*
X153810000Y-76200000D03*
X155645000Y-76200000D03*
X157480000Y-76200000D03*
D38*
X154727500Y-72530000D03*
X156562500Y-72530000D03*
X153810000Y-73447500D03*
X155645000Y-73447500D03*
X157480000Y-73447500D03*
X154727500Y-74365000D03*
X156562500Y-74365000D03*
X153810000Y-75282500D03*
X155645000Y-75282500D03*
X157480000Y-75282500D03*
X154727500Y-76200000D03*
X156562500Y-76200000D03*
D25*
X177448000Y-76522000D03*
X177448000Y-74447000D03*
D32*
X143903500Y-68029000D03*
X143903500Y-70104000D03*
D26*
X127500000Y-68580000D03*
D39*
X165100000Y-103600000D03*
X165100000Y-101600000D03*
X165100000Y-99600000D03*
X165100000Y-97600000D03*
X165100000Y-95600000D03*
X165100000Y-93600000D03*
X165100000Y-91600000D03*
X165100000Y-89520000D03*
X148560000Y-89520000D03*
X148560000Y-91600000D03*
X148560000Y-93600000D03*
X148560000Y-95600000D03*
X148560000Y-97600000D03*
X148560000Y-99600000D03*
X148560000Y-101600000D03*
X148560000Y-103600000D03*
D30*
X140462000Y-72644000D03*
D40*
X182324000Y-96600000D03*
X182324000Y-97850000D03*
X182324000Y-99100000D03*
X182324000Y-100350000D03*
X182324000Y-101600000D03*
X182324000Y-102850000D03*
D41*
X185674000Y-104700000D03*
X185674000Y-94750000D03*
D33*
X173730000Y-77749000D03*
X171655000Y-77749000D03*
D16*
X173892000Y-74415000D03*
X173892000Y-72415000D03*
D42*
X183388000Y-80772000D03*
D43*
X183388000Y-78232000D03*
X183388000Y-75692000D03*
X183388000Y-73152000D03*
X183388000Y-70612000D03*
X183388000Y-68072000D03*
D25*
X140462000Y-85873500D03*
X140462000Y-83798500D03*
D32*
X140347500Y-68029000D03*
X140347500Y-70104000D03*
X177702000Y-70383000D03*
X177702000Y-72458000D03*
X140462000Y-74930000D03*
X140462000Y-77005000D03*
D17*
X143903500Y-72654500D03*
X143903500Y-74654500D03*
D27*
X169640000Y-73660000D03*
X167640000Y-73660000D03*
D44*
X144032000Y-89154000D03*
X141732000Y-89154000D03*
D45*
X141732000Y-95454000D03*
D44*
X139432000Y-89154000D03*
D34*
X172824000Y-86106000D03*
X179324000Y-86106000D03*
X172824000Y-90606000D03*
X179324000Y-90606000D03*
%LPD*%
M02*
