G04 #@! TF.GenerationSoftware,KiCad,Pcbnew,7.0.8*
G04 #@! TF.CreationDate,2023-11-16T17:46:21+01:00*
G04 #@! TF.ProjectId,ESP32-aqs,45535033-322d-4617-9173-2e6b69636164,rev?*
G04 #@! TF.SameCoordinates,Original*
G04 #@! TF.FileFunction,Legend,Bot*
G04 #@! TF.FilePolarity,Positive*
%FSLAX46Y46*%
G04 Gerber Fmt 4.6, Leading zero omitted, Abs format (unit mm)*
G04 Created by KiCad (PCBNEW 7.0.8) date 2023-11-16 17:46:21*
%MOMM*%
%LPD*%
G01*
G04 APERTURE LIST*
%ADD10C,0.650000*%
%ADD11O,2.216000X1.108000*%
%ADD12C,3.500000*%
%ADD13C,2.000000*%
%ADD14C,0.504000*%
%ADD15R,1.000000X1.000000*%
%ADD16R,2.200000X2.200000*%
%ADD17C,2.200000*%
G04 APERTURE END LIST*
%LPC*%
D10*
X133430000Y-83380000D03*
X133430000Y-84230000D03*
X133430000Y-85080000D03*
X133430000Y-85930000D03*
X133430000Y-86780000D03*
X133430000Y-87630000D03*
X133430000Y-88480000D03*
X133430000Y-89330000D03*
X132080000Y-89330000D03*
X132080000Y-88480000D03*
X132080000Y-87630000D03*
X132080000Y-86780000D03*
X132080000Y-85930000D03*
X132080000Y-85080000D03*
X132080000Y-84230000D03*
X132080000Y-83380000D03*
D11*
X132450000Y-82030000D03*
X132450000Y-90680000D03*
X129070000Y-90680000D03*
X129070000Y-82030000D03*
D12*
X173736000Y-105156000D03*
D13*
X139482000Y-105612000D03*
X139482000Y-99112000D03*
X143982000Y-105612000D03*
X143982000Y-99112000D03*
D14*
X154727500Y-72530000D03*
X156562500Y-72530000D03*
X153810000Y-73447500D03*
X155645000Y-73447500D03*
X157480000Y-73447500D03*
X154727500Y-74365000D03*
X156562500Y-74365000D03*
X153810000Y-75282500D03*
X155645000Y-75282500D03*
X157480000Y-75282500D03*
X154727500Y-76200000D03*
X156562500Y-76200000D03*
D12*
X127500000Y-68580000D03*
D15*
X140462000Y-72644000D03*
D16*
X183388000Y-80772000D03*
D17*
X183388000Y-78232000D03*
X183388000Y-75692000D03*
X183388000Y-73152000D03*
X183388000Y-70612000D03*
X183388000Y-68072000D03*
D13*
X172824000Y-86106000D03*
X179324000Y-86106000D03*
X172824000Y-90606000D03*
X179324000Y-90606000D03*
%LPD*%
M02*
