G04 #@! TF.GenerationSoftware,KiCad,Pcbnew,7.0.8*
G04 #@! TF.CreationDate,2023-10-12T10:49:57+02:00*
G04 #@! TF.ProjectId,ESP32-aqs,45535033-322d-4617-9173-2e6b69636164,rev?*
G04 #@! TF.SameCoordinates,Original*
G04 #@! TF.FileFunction,Copper,L2,Bot*
G04 #@! TF.FilePolarity,Positive*
%FSLAX46Y46*%
G04 Gerber Fmt 4.6, Leading zero omitted, Abs format (unit mm)*
G04 Created by KiCad (PCBNEW 7.0.8) date 2023-10-12 10:49:57*
%MOMM*%
%LPD*%
G01*
G04 APERTURE LIST*
G04 #@! TA.AperFunction,ComponentPad*
%ADD10C,3.500000*%
G04 #@! TD*
G04 #@! TA.AperFunction,ComponentPad*
%ADD11C,2.000000*%
G04 #@! TD*
G04 #@! TA.AperFunction,ComponentPad*
%ADD12C,0.300000*%
G04 #@! TD*
G04 #@! TA.AperFunction,ComponentPad*
%ADD13R,1.000000X1.000000*%
G04 #@! TD*
G04 #@! TA.AperFunction,ComponentPad*
%ADD14R,1.700000X1.700000*%
G04 #@! TD*
G04 #@! TA.AperFunction,ComponentPad*
%ADD15O,1.700000X1.700000*%
G04 #@! TD*
G04 #@! TA.AperFunction,ViaPad*
%ADD16C,0.800000*%
G04 #@! TD*
G04 #@! TA.AperFunction,Conductor*
%ADD17C,0.250000*%
G04 #@! TD*
G04 APERTURE END LIST*
D10*
X210820000Y-109220000D03*
D11*
X137668000Y-94416000D03*
X131168000Y-94416000D03*
X137668000Y-89916000D03*
X131168000Y-89916000D03*
D12*
X155054500Y-83463000D03*
X156889500Y-83463000D03*
X154137000Y-84380500D03*
X155972000Y-84380500D03*
X157807000Y-84380500D03*
X155054500Y-85298000D03*
X156889500Y-85298000D03*
X154137000Y-86215500D03*
X155972000Y-86215500D03*
X157807000Y-86215500D03*
X155054500Y-87133000D03*
X156889500Y-87133000D03*
D10*
X119380000Y-109220000D03*
D13*
X122936000Y-63602000D03*
D14*
X187452000Y-69850000D03*
D15*
X189992000Y-69850000D03*
X192532000Y-69850000D03*
X195072000Y-69850000D03*
X197612000Y-69850000D03*
X200152000Y-69850000D03*
D10*
X210820000Y-61214000D03*
X119380000Y-61214000D03*
D11*
X168962000Y-101382000D03*
X175462000Y-101382000D03*
X168962000Y-105882000D03*
X175462000Y-105882000D03*
D16*
X133248000Y-82512500D03*
X192786000Y-99060000D03*
X183642000Y-91186000D03*
X182075000Y-98341000D03*
X151257000Y-95308000D03*
X200278000Y-89090000D03*
X188976000Y-98806000D03*
X148472000Y-79068000D03*
X170180000Y-80264000D03*
X188468000Y-94488000D03*
X170164000Y-84820000D03*
X200278000Y-83090000D03*
X179059250Y-96255250D03*
X173990000Y-92456000D03*
X171196000Y-97028000D03*
X168148000Y-84836000D03*
X176664000Y-88780000D03*
X168164000Y-80264000D03*
X165354000Y-94488000D03*
X176276000Y-79248000D03*
X183642000Y-81026000D03*
D17*
X182626000Y-75184000D02*
X179324000Y-78486000D01*
X195072000Y-73152000D02*
X193040000Y-75184000D01*
X193040000Y-75184000D02*
X182626000Y-75184000D01*
X195072000Y-69850000D02*
X195072000Y-73152000D01*
X179324000Y-78486000D02*
X167894000Y-78486000D01*
X165862000Y-80518000D02*
X161290000Y-80518000D01*
X159115000Y-78343000D02*
X137417500Y-78343000D01*
X137417500Y-78343000D02*
X133248000Y-82512500D01*
X167894000Y-78486000D02*
X165862000Y-80518000D01*
X161290000Y-80518000D02*
X159115000Y-78343000D01*
X170180000Y-80264000D02*
X169164000Y-81280000D01*
X170180000Y-84804000D02*
X170164000Y-84820000D01*
X169164000Y-81280000D02*
X150684000Y-81280000D01*
X188468000Y-94488000D02*
X192786000Y-90170000D01*
X150684000Y-81280000D02*
X148472000Y-79068000D01*
X170180000Y-80264000D02*
X170180000Y-84804000D01*
X192786000Y-87376000D02*
X197072000Y-83090000D01*
X170164000Y-84820000D02*
X170164000Y-88630000D01*
X173990000Y-92456000D02*
X175260000Y-92456000D01*
X192786000Y-90170000D02*
X192786000Y-87376000D01*
X197072000Y-83090000D02*
X200278000Y-83090000D01*
X175260000Y-92456000D02*
X179059250Y-96255250D01*
X170164000Y-88630000D02*
X173990000Y-92456000D01*
X168148000Y-84836000D02*
X168148000Y-93980000D01*
X168148000Y-93980000D02*
X171196000Y-97028000D01*
X171958000Y-84074000D02*
X171958000Y-79756000D01*
X171958000Y-79756000D02*
X171196000Y-78994000D01*
X176664000Y-88780000D02*
X171958000Y-84074000D01*
X171196000Y-78994000D02*
X169434000Y-78994000D01*
X169434000Y-78994000D02*
X168164000Y-80264000D01*
X165354000Y-97774000D02*
X168962000Y-101382000D01*
X165354000Y-94488000D02*
X165354000Y-97774000D01*
X176276000Y-79248000D02*
X181864000Y-79248000D01*
X181864000Y-79248000D02*
X183642000Y-81026000D01*
G04 #@! TA.AperFunction,Conductor*
G36*
X132530121Y-58440502D02*
G01*
X132576614Y-58494158D01*
X132588000Y-58546500D01*
X132588000Y-81839406D01*
X132567998Y-81907527D01*
X132555636Y-81923716D01*
X132508965Y-81975548D01*
X132508958Y-81975558D01*
X132413476Y-82140938D01*
X132413473Y-82140945D01*
X132354457Y-82322572D01*
X132334496Y-82512500D01*
X132354457Y-82702427D01*
X132359662Y-82718445D01*
X132413473Y-82884056D01*
X132413476Y-82884061D01*
X132508958Y-83049441D01*
X132508965Y-83049451D01*
X132636744Y-83191364D01*
X132636747Y-83191366D01*
X132791248Y-83303618D01*
X132965712Y-83381294D01*
X133152513Y-83421000D01*
X133343487Y-83421000D01*
X133530288Y-83381294D01*
X133704752Y-83303618D01*
X133859253Y-83191366D01*
X133892029Y-83154965D01*
X133987034Y-83049451D01*
X133987035Y-83049449D01*
X133987040Y-83049444D01*
X134071797Y-82902641D01*
X154706274Y-82902641D01*
X155054499Y-83250867D01*
X155402724Y-82902641D01*
X156541274Y-82902641D01*
X156889499Y-83250867D01*
X157237724Y-82902641D01*
X157124539Y-82843238D01*
X156969398Y-82805000D01*
X156809601Y-82805000D01*
X156654456Y-82843240D01*
X156541274Y-82902641D01*
X155402724Y-82902641D01*
X155289539Y-82843238D01*
X155134398Y-82805000D01*
X154974601Y-82805000D01*
X154819456Y-82843240D01*
X154706274Y-82902641D01*
X134071797Y-82902641D01*
X134082527Y-82884056D01*
X134141542Y-82702428D01*
X134158907Y-82537203D01*
X134185920Y-82471548D01*
X134195104Y-82461298D01*
X134831500Y-81824902D01*
X134893810Y-81790879D01*
X134920593Y-81788000D01*
X150260710Y-81788000D01*
X150321404Y-81803581D01*
X150326432Y-81806345D01*
X150342959Y-81817202D01*
X150358959Y-81829613D01*
X150381590Y-81839406D01*
X150402251Y-81848347D01*
X150407585Y-81850959D01*
X150448940Y-81873695D01*
X150468562Y-81878733D01*
X150487263Y-81885135D01*
X150505855Y-81893181D01*
X150552470Y-81900563D01*
X150558242Y-81901758D01*
X150603970Y-81913500D01*
X150624231Y-81913500D01*
X150643939Y-81915050D01*
X150663943Y-81918219D01*
X150698464Y-81914956D01*
X150710910Y-81913780D01*
X150716842Y-81913500D01*
X169080147Y-81913500D01*
X169095988Y-81915249D01*
X169096016Y-81914956D01*
X169103902Y-81915700D01*
X169103909Y-81915702D01*
X169173958Y-81913500D01*
X169203856Y-81913500D01*
X169210818Y-81912619D01*
X169216719Y-81912154D01*
X169263889Y-81910673D01*
X169283347Y-81905019D01*
X169302694Y-81901013D01*
X169322797Y-81898474D01*
X169366679Y-81881098D01*
X169372267Y-81879185D01*
X169385353Y-81875384D01*
X169456346Y-81875589D01*
X169515962Y-81914144D01*
X169545269Y-81978810D01*
X169546500Y-81996382D01*
X169546500Y-84099705D01*
X169526498Y-84167826D01*
X169514136Y-84184015D01*
X169424965Y-84283048D01*
X169424958Y-84283058D01*
X169329476Y-84448438D01*
X169329472Y-84448445D01*
X169273233Y-84621529D01*
X169233159Y-84680135D01*
X169167762Y-84707771D01*
X169097805Y-84695664D01*
X169045499Y-84647657D01*
X169033567Y-84621528D01*
X169006792Y-84539125D01*
X168992362Y-84494714D01*
X168982528Y-84464447D01*
X168982527Y-84464445D01*
X168982527Y-84464444D01*
X168887040Y-84299056D01*
X168887038Y-84299054D01*
X168887034Y-84299048D01*
X168759255Y-84157135D01*
X168604752Y-84044882D01*
X168430288Y-83967206D01*
X168243487Y-83927500D01*
X168052513Y-83927500D01*
X167865711Y-83967206D01*
X167691247Y-84044882D01*
X167536744Y-84157135D01*
X167408965Y-84299048D01*
X167408958Y-84299058D01*
X167313476Y-84464438D01*
X167313473Y-84464445D01*
X167254457Y-84646072D01*
X167234496Y-84836000D01*
X167254457Y-85025927D01*
X167277637Y-85097265D01*
X167313473Y-85207556D01*
X167313476Y-85207561D01*
X167399720Y-85356941D01*
X167408960Y-85372944D01*
X167482137Y-85454215D01*
X167512853Y-85518220D01*
X167514500Y-85538524D01*
X167514500Y-93896146D01*
X167512751Y-93911988D01*
X167513044Y-93912016D01*
X167512298Y-93919907D01*
X167512298Y-93919909D01*
X167513199Y-93948562D01*
X167514500Y-93989957D01*
X167514500Y-94019851D01*
X167514501Y-94019872D01*
X167515378Y-94026820D01*
X167515844Y-94032732D01*
X167517326Y-94079888D01*
X167517327Y-94079893D01*
X167522977Y-94099339D01*
X167526986Y-94118697D01*
X167529525Y-94138793D01*
X167529526Y-94138799D01*
X167546893Y-94182662D01*
X167548816Y-94188279D01*
X167561982Y-94233593D01*
X167572294Y-94251031D01*
X167580988Y-94268779D01*
X167588444Y-94287609D01*
X167588450Y-94287620D01*
X167616177Y-94325783D01*
X167619437Y-94330746D01*
X167643460Y-94371365D01*
X167657779Y-94385684D01*
X167670617Y-94400714D01*
X167680156Y-94413843D01*
X167682528Y-94417107D01*
X167706309Y-94436780D01*
X167718886Y-94447185D01*
X167723267Y-94451171D01*
X169621229Y-96349134D01*
X170248877Y-96976782D01*
X170282903Y-97039094D01*
X170285092Y-97052706D01*
X170302457Y-97217927D01*
X170332526Y-97310470D01*
X170361473Y-97399556D01*
X170361476Y-97399561D01*
X170456958Y-97564941D01*
X170456965Y-97564951D01*
X170584744Y-97706864D01*
X170584747Y-97706866D01*
X170739248Y-97819118D01*
X170913712Y-97896794D01*
X171100513Y-97936500D01*
X171291487Y-97936500D01*
X171478288Y-97896794D01*
X171652752Y-97819118D01*
X171807253Y-97706866D01*
X171807255Y-97706864D01*
X171935034Y-97564951D01*
X171935035Y-97564949D01*
X171935040Y-97564944D01*
X172030527Y-97399556D01*
X172089542Y-97217928D01*
X172109504Y-97028000D01*
X172089542Y-96838072D01*
X172030527Y-96656444D01*
X171935040Y-96491056D01*
X171935038Y-96491054D01*
X171935034Y-96491048D01*
X171807255Y-96349135D01*
X171652752Y-96236882D01*
X171478288Y-96159206D01*
X171291487Y-96119500D01*
X171235594Y-96119500D01*
X171167473Y-96099498D01*
X171146499Y-96082595D01*
X168818405Y-93754500D01*
X168784379Y-93692188D01*
X168781500Y-93665405D01*
X168781500Y-85538524D01*
X168801502Y-85470403D01*
X168813858Y-85454220D01*
X168887040Y-85372944D01*
X168982527Y-85207556D01*
X169038766Y-85034470D01*
X169078840Y-84975865D01*
X169144236Y-84948228D01*
X169214193Y-84960335D01*
X169266499Y-85008341D01*
X169278432Y-85034470D01*
X169291231Y-85073861D01*
X169329473Y-85191556D01*
X169338711Y-85207556D01*
X169390928Y-85298000D01*
X169424960Y-85356944D01*
X169498137Y-85438215D01*
X169528853Y-85502220D01*
X169530500Y-85522524D01*
X169530500Y-88546146D01*
X169528751Y-88561988D01*
X169529044Y-88562016D01*
X169528298Y-88569907D01*
X169530500Y-88639957D01*
X169530500Y-88669851D01*
X169530501Y-88669872D01*
X169531378Y-88676820D01*
X169531844Y-88682732D01*
X169533326Y-88729888D01*
X169533327Y-88729893D01*
X169538977Y-88749339D01*
X169542986Y-88768697D01*
X169545525Y-88788793D01*
X169545526Y-88788799D01*
X169562893Y-88832662D01*
X169564816Y-88838279D01*
X169577982Y-88883593D01*
X169588294Y-88901031D01*
X169596988Y-88918779D01*
X169604444Y-88937609D01*
X169604450Y-88937620D01*
X169632177Y-88975783D01*
X169635437Y-88980746D01*
X169659460Y-89021365D01*
X169673779Y-89035684D01*
X169686617Y-89050714D01*
X169696156Y-89063843D01*
X169698528Y-89067107D01*
X169726794Y-89090491D01*
X169734886Y-89097185D01*
X169739267Y-89101171D01*
X172225301Y-91587206D01*
X173042877Y-92404782D01*
X173076903Y-92467094D01*
X173079092Y-92480706D01*
X173096457Y-92645927D01*
X173126526Y-92738470D01*
X173155473Y-92827556D01*
X173155476Y-92827561D01*
X173250958Y-92992941D01*
X173250965Y-92992951D01*
X173378744Y-93134864D01*
X173378747Y-93134866D01*
X173533248Y-93247118D01*
X173707712Y-93324794D01*
X173894513Y-93364500D01*
X174085487Y-93364500D01*
X174272288Y-93324794D01*
X174446752Y-93247118D01*
X174601253Y-93134866D01*
X174604563Y-93131190D01*
X174665009Y-93093950D01*
X174698200Y-93089500D01*
X174945406Y-93089500D01*
X175013527Y-93109502D01*
X175034501Y-93126405D01*
X178112127Y-96204032D01*
X178146153Y-96266344D01*
X178148342Y-96279956D01*
X178165707Y-96445177D01*
X178180615Y-96491058D01*
X178224723Y-96626806D01*
X178224726Y-96626811D01*
X178320208Y-96792191D01*
X178320215Y-96792201D01*
X178447994Y-96934114D01*
X178447997Y-96934116D01*
X178602498Y-97046368D01*
X178776962Y-97124044D01*
X178963763Y-97163750D01*
X179154737Y-97163750D01*
X179341538Y-97124044D01*
X179516002Y-97046368D01*
X179670503Y-96934116D01*
X179670505Y-96934114D01*
X179798284Y-96792201D01*
X179798285Y-96792199D01*
X179798290Y-96792194D01*
X179893777Y-96626806D01*
X179952792Y-96445178D01*
X179972754Y-96255250D01*
X179952792Y-96065322D01*
X179893777Y-95883694D01*
X179798290Y-95718306D01*
X179798288Y-95718304D01*
X179798284Y-95718298D01*
X179670505Y-95576385D01*
X179516002Y-95464132D01*
X179341538Y-95386456D01*
X179154737Y-95346750D01*
X179098844Y-95346750D01*
X179030723Y-95326748D01*
X179009749Y-95309845D01*
X178187904Y-94488000D01*
X187554496Y-94488000D01*
X187574457Y-94677927D01*
X187604526Y-94770470D01*
X187633473Y-94859556D01*
X187633476Y-94859561D01*
X187728958Y-95024941D01*
X187728965Y-95024951D01*
X187856744Y-95166864D01*
X187856747Y-95166866D01*
X188011248Y-95279118D01*
X188185712Y-95356794D01*
X188372513Y-95396500D01*
X188563487Y-95396500D01*
X188750288Y-95356794D01*
X188924752Y-95279118D01*
X189079253Y-95166866D01*
X189207040Y-95024944D01*
X189302527Y-94859556D01*
X189361542Y-94677928D01*
X189378907Y-94512703D01*
X189405920Y-94447048D01*
X189415113Y-94436789D01*
X193174657Y-90677245D01*
X193187092Y-90667284D01*
X193186905Y-90667057D01*
X193193009Y-90662005D01*
X193193018Y-90662000D01*
X193240999Y-90610904D01*
X193262134Y-90589770D01*
X193266429Y-90584232D01*
X193270271Y-90579731D01*
X193302586Y-90545321D01*
X193312345Y-90527567D01*
X193323197Y-90511046D01*
X193335613Y-90495041D01*
X193354347Y-90451748D01*
X193356961Y-90446412D01*
X193379694Y-90405061D01*
X193379695Y-90405060D01*
X193384733Y-90385435D01*
X193391138Y-90366730D01*
X193399181Y-90348145D01*
X193406561Y-90301547D01*
X193407762Y-90295740D01*
X193419500Y-90250030D01*
X193419500Y-90229775D01*
X193421051Y-90210063D01*
X193424220Y-90190057D01*
X193420690Y-90152710D01*
X193419780Y-90143080D01*
X193419500Y-90137148D01*
X193419500Y-87690594D01*
X193439502Y-87622473D01*
X193456405Y-87601499D01*
X197297499Y-83760405D01*
X197359811Y-83726379D01*
X197386594Y-83723500D01*
X199569800Y-83723500D01*
X199637921Y-83743502D01*
X199663437Y-83765190D01*
X199666747Y-83768866D01*
X199821248Y-83881118D01*
X199995712Y-83958794D01*
X200182513Y-83998500D01*
X200373487Y-83998500D01*
X200560288Y-83958794D01*
X200734752Y-83881118D01*
X200889253Y-83768866D01*
X200896570Y-83760740D01*
X201017034Y-83626951D01*
X201017035Y-83626949D01*
X201017040Y-83626944D01*
X201112527Y-83461556D01*
X201171542Y-83279928D01*
X201191504Y-83090000D01*
X201171542Y-82900072D01*
X201112527Y-82718444D01*
X201017040Y-82553056D01*
X201017038Y-82553054D01*
X201017034Y-82553048D01*
X200889255Y-82411135D01*
X200734752Y-82298882D01*
X200560288Y-82221206D01*
X200373487Y-82181500D01*
X200182513Y-82181500D01*
X199995711Y-82221206D01*
X199821247Y-82298882D01*
X199666747Y-82411133D01*
X199663437Y-82414810D01*
X199602991Y-82452050D01*
X199569800Y-82456500D01*
X197155849Y-82456500D01*
X197140010Y-82454751D01*
X197139983Y-82455045D01*
X197132091Y-82454299D01*
X197062060Y-82456500D01*
X197032144Y-82456500D01*
X197025172Y-82457379D01*
X197019265Y-82457844D01*
X196972110Y-82459326D01*
X196972105Y-82459327D01*
X196952660Y-82464977D01*
X196933302Y-82468986D01*
X196913210Y-82471524D01*
X196913202Y-82471526D01*
X196869336Y-82488893D01*
X196863721Y-82490816D01*
X196818407Y-82503982D01*
X196818402Y-82503984D01*
X196800963Y-82514297D01*
X196783218Y-82522990D01*
X196764380Y-82530449D01*
X196742278Y-82546507D01*
X196726212Y-82558180D01*
X196721261Y-82561433D01*
X196680640Y-82585455D01*
X196666307Y-82599787D01*
X196651281Y-82612620D01*
X196634895Y-82624526D01*
X196634894Y-82624526D01*
X196604818Y-82660880D01*
X196600823Y-82665271D01*
X192397336Y-86868757D01*
X192384901Y-86878721D01*
X192385089Y-86878948D01*
X192378980Y-86884001D01*
X192331016Y-86935078D01*
X192309866Y-86956227D01*
X192305560Y-86961777D01*
X192301714Y-86966279D01*
X192269417Y-87000674D01*
X192269411Y-87000683D01*
X192259651Y-87018435D01*
X192248803Y-87034950D01*
X192236386Y-87050958D01*
X192217645Y-87094264D01*
X192215034Y-87099594D01*
X192192305Y-87140939D01*
X192192303Y-87140944D01*
X192187267Y-87160559D01*
X192180864Y-87179262D01*
X192172819Y-87197852D01*
X192165437Y-87244456D01*
X192164233Y-87250268D01*
X192152500Y-87295968D01*
X192152500Y-87316223D01*
X192150949Y-87335933D01*
X192147780Y-87355942D01*
X192147780Y-87355943D01*
X192152220Y-87402917D01*
X192152500Y-87408850D01*
X192152500Y-89855405D01*
X192132498Y-89923526D01*
X192115595Y-89944500D01*
X188517500Y-93542595D01*
X188455188Y-93576621D01*
X188428405Y-93579500D01*
X188372513Y-93579500D01*
X188185711Y-93619206D01*
X188011247Y-93696882D01*
X187856744Y-93809135D01*
X187728965Y-93951048D01*
X187728958Y-93951058D01*
X187637851Y-94108861D01*
X187633473Y-94116444D01*
X187619131Y-94160585D01*
X187574457Y-94298072D01*
X187554496Y-94488000D01*
X178187904Y-94488000D01*
X177396786Y-93696882D01*
X175767244Y-92067339D01*
X175757279Y-92054901D01*
X175757052Y-92055090D01*
X175752001Y-92048984D01*
X175752000Y-92048982D01*
X175700921Y-92001016D01*
X175679777Y-91979871D01*
X175679772Y-91979866D01*
X175674225Y-91975563D01*
X175669717Y-91971712D01*
X175635325Y-91939417D01*
X175635319Y-91939413D01*
X175617563Y-91929651D01*
X175601047Y-91918802D01*
X175585041Y-91906386D01*
X175554289Y-91893078D01*
X175541740Y-91887648D01*
X175536408Y-91885036D01*
X175495061Y-91862305D01*
X175475436Y-91857266D01*
X175456736Y-91850864D01*
X175438145Y-91842819D01*
X175438143Y-91842818D01*
X175438142Y-91842818D01*
X175391542Y-91835437D01*
X175385729Y-91834233D01*
X175340030Y-91822500D01*
X175319776Y-91822500D01*
X175300066Y-91820949D01*
X175280057Y-91817780D01*
X175280056Y-91817780D01*
X175233083Y-91822220D01*
X175227150Y-91822500D01*
X174698200Y-91822500D01*
X174630079Y-91802498D01*
X174604563Y-91780810D01*
X174601252Y-91777133D01*
X174446752Y-91664882D01*
X174272288Y-91587206D01*
X174085487Y-91547500D01*
X174029594Y-91547500D01*
X173961473Y-91527498D01*
X173940499Y-91510595D01*
X170834405Y-88404500D01*
X170800379Y-88342188D01*
X170797500Y-88315405D01*
X170797500Y-85522524D01*
X170817502Y-85454403D01*
X170829858Y-85438220D01*
X170903040Y-85356944D01*
X170998527Y-85191556D01*
X171057542Y-85009928D01*
X171077504Y-84820000D01*
X171057542Y-84630072D01*
X170998527Y-84448444D01*
X170903040Y-84283056D01*
X170845863Y-84219554D01*
X170815146Y-84155546D01*
X170813500Y-84135244D01*
X170813500Y-81914000D01*
X170833502Y-81845879D01*
X170887158Y-81799386D01*
X170939500Y-81788000D01*
X171198500Y-81788000D01*
X171266621Y-81808002D01*
X171313114Y-81861658D01*
X171324500Y-81914000D01*
X171324500Y-83990146D01*
X171322751Y-84005988D01*
X171323044Y-84006016D01*
X171322298Y-84013907D01*
X171324500Y-84083957D01*
X171324500Y-84113851D01*
X171324501Y-84113872D01*
X171325378Y-84120820D01*
X171325844Y-84126732D01*
X171327326Y-84173888D01*
X171327327Y-84173893D01*
X171332977Y-84193339D01*
X171336986Y-84212697D01*
X171339525Y-84232793D01*
X171339526Y-84232799D01*
X171356893Y-84276662D01*
X171358816Y-84282279D01*
X171371982Y-84327593D01*
X171382294Y-84345031D01*
X171390988Y-84362779D01*
X171398444Y-84381609D01*
X171398450Y-84381620D01*
X171426177Y-84419783D01*
X171429437Y-84424746D01*
X171453460Y-84465365D01*
X171467779Y-84479684D01*
X171480617Y-84494714D01*
X171490156Y-84507843D01*
X171492528Y-84511107D01*
X171520794Y-84534491D01*
X171528886Y-84541185D01*
X171533267Y-84545171D01*
X174678689Y-87690594D01*
X175716877Y-88728782D01*
X175750903Y-88791094D01*
X175753092Y-88804706D01*
X175770457Y-88969927D01*
X175794102Y-89042697D01*
X175829473Y-89151556D01*
X175829476Y-89151561D01*
X175924958Y-89316941D01*
X175924965Y-89316951D01*
X176052744Y-89458864D01*
X176052747Y-89458866D01*
X176207248Y-89571118D01*
X176381712Y-89648794D01*
X176568513Y-89688500D01*
X176759487Y-89688500D01*
X176946288Y-89648794D01*
X177120752Y-89571118D01*
X177275253Y-89458866D01*
X177275255Y-89458864D01*
X177403034Y-89316951D01*
X177403035Y-89316949D01*
X177403040Y-89316944D01*
X177498527Y-89151556D01*
X177557542Y-88969928D01*
X177577504Y-88780000D01*
X177557542Y-88590072D01*
X177498527Y-88408444D01*
X177403040Y-88243056D01*
X177403038Y-88243054D01*
X177403034Y-88243048D01*
X177275255Y-88101135D01*
X177120752Y-87988882D01*
X176946288Y-87911206D01*
X176759487Y-87871500D01*
X176703594Y-87871500D01*
X176635473Y-87851498D01*
X176614499Y-87834595D01*
X172628405Y-83848500D01*
X172594379Y-83786188D01*
X172591500Y-83759405D01*
X172591500Y-81914000D01*
X172611502Y-81845879D01*
X172665158Y-81799386D01*
X172717500Y-81788000D01*
X180340000Y-81788000D01*
X180340000Y-80007500D01*
X180360002Y-79939379D01*
X180413658Y-79892886D01*
X180466000Y-79881500D01*
X181549406Y-79881500D01*
X181617527Y-79901502D01*
X181638501Y-79918405D01*
X182694877Y-80974781D01*
X182728903Y-81037093D01*
X182731092Y-81050705D01*
X182748457Y-81215927D01*
X182778526Y-81308470D01*
X182807473Y-81397556D01*
X182807476Y-81397561D01*
X182902958Y-81562941D01*
X182902965Y-81562951D01*
X183030744Y-81704864D01*
X183030747Y-81704866D01*
X183185248Y-81817118D01*
X183359712Y-81894794D01*
X183546513Y-81934500D01*
X183737487Y-81934500D01*
X183924288Y-81894794D01*
X184098752Y-81817118D01*
X184253253Y-81704866D01*
X184253255Y-81704864D01*
X184381034Y-81562951D01*
X184381035Y-81562949D01*
X184381040Y-81562944D01*
X184476527Y-81397556D01*
X184535542Y-81215928D01*
X184555504Y-81026000D01*
X184535542Y-80836072D01*
X184476527Y-80654444D01*
X184381040Y-80489056D01*
X184381038Y-80489054D01*
X184381034Y-80489048D01*
X184253255Y-80347135D01*
X184098752Y-80234882D01*
X183924288Y-80157206D01*
X183737487Y-80117500D01*
X183681594Y-80117500D01*
X183613473Y-80097498D01*
X183592499Y-80080595D01*
X182988340Y-79476436D01*
X182371244Y-78859339D01*
X182361279Y-78846901D01*
X182361052Y-78847090D01*
X182356001Y-78840984D01*
X182356000Y-78840982D01*
X182304920Y-78793015D01*
X182283777Y-78771871D01*
X182283772Y-78771866D01*
X182278225Y-78767563D01*
X182273717Y-78763712D01*
X182239325Y-78731417D01*
X182239319Y-78731413D01*
X182221563Y-78721651D01*
X182205047Y-78710802D01*
X182189041Y-78698386D01*
X182158289Y-78685078D01*
X182145740Y-78679648D01*
X182140408Y-78677036D01*
X182099061Y-78654305D01*
X182079436Y-78649266D01*
X182060736Y-78642864D01*
X182042145Y-78634819D01*
X182042143Y-78634818D01*
X182042142Y-78634818D01*
X181995542Y-78627437D01*
X181989729Y-78626233D01*
X181944030Y-78614500D01*
X181923776Y-78614500D01*
X181904066Y-78612949D01*
X181884057Y-78609780D01*
X181884056Y-78609780D01*
X181837083Y-78614220D01*
X181831150Y-78614500D01*
X180466000Y-78614500D01*
X180397879Y-78594498D01*
X180351386Y-78540842D01*
X180340000Y-78488500D01*
X180340000Y-78418094D01*
X180360002Y-78349973D01*
X180376905Y-78328999D01*
X182851499Y-75854405D01*
X182913811Y-75820379D01*
X182940594Y-75817500D01*
X192956147Y-75817500D01*
X192971988Y-75819249D01*
X192972016Y-75818956D01*
X192979902Y-75819700D01*
X192979909Y-75819702D01*
X193049958Y-75817500D01*
X193079856Y-75817500D01*
X193086818Y-75816619D01*
X193092719Y-75816154D01*
X193139889Y-75814673D01*
X193159347Y-75809019D01*
X193178694Y-75805013D01*
X193198797Y-75802474D01*
X193242679Y-75785099D01*
X193248274Y-75783183D01*
X193276816Y-75774891D01*
X193293591Y-75770019D01*
X193293595Y-75770017D01*
X193311026Y-75759708D01*
X193328780Y-75751009D01*
X193347617Y-75743552D01*
X193385786Y-75715818D01*
X193390744Y-75712562D01*
X193431362Y-75688542D01*
X193445685Y-75674218D01*
X193460724Y-75661374D01*
X193477107Y-75649472D01*
X193507193Y-75613103D01*
X193511161Y-75608741D01*
X195460660Y-73659243D01*
X195473098Y-73649280D01*
X195472910Y-73649053D01*
X195479013Y-73644002D01*
X195479018Y-73644000D01*
X195526984Y-73592920D01*
X195548135Y-73571770D01*
X195552445Y-73566212D01*
X195556274Y-73561729D01*
X195588586Y-73527321D01*
X195598346Y-73509565D01*
X195609195Y-73493050D01*
X195621614Y-73477041D01*
X195640363Y-73433710D01*
X195642953Y-73428423D01*
X195665695Y-73387060D01*
X195670733Y-73367434D01*
X195677137Y-73348732D01*
X195685180Y-73330147D01*
X195685179Y-73330147D01*
X195685181Y-73330145D01*
X195692561Y-73283547D01*
X195693762Y-73277740D01*
X195705500Y-73232030D01*
X195705500Y-73211775D01*
X195707051Y-73192063D01*
X195710220Y-73172057D01*
X195707629Y-73144651D01*
X195705780Y-73125080D01*
X195705500Y-73119148D01*
X195705500Y-71126920D01*
X195725502Y-71058799D01*
X195771527Y-71016108D01*
X195817576Y-70991189D01*
X195995240Y-70852906D01*
X196147722Y-70687268D01*
X196236518Y-70551354D01*
X196290520Y-70505268D01*
X196360868Y-70495692D01*
X196425225Y-70525669D01*
X196447480Y-70551353D01*
X196480607Y-70602058D01*
X196536275Y-70687265D01*
X196536279Y-70687270D01*
X196688762Y-70852908D01*
X196743331Y-70895381D01*
X196866424Y-70991189D01*
X197064426Y-71098342D01*
X197064427Y-71098342D01*
X197064428Y-71098343D01*
X197147671Y-71126920D01*
X197277365Y-71171444D01*
X197499431Y-71208500D01*
X197499435Y-71208500D01*
X197724565Y-71208500D01*
X197724569Y-71208500D01*
X197946635Y-71171444D01*
X198159574Y-71098342D01*
X198357576Y-70991189D01*
X198535240Y-70852906D01*
X198687722Y-70687268D01*
X198776816Y-70550898D01*
X198830819Y-70504810D01*
X198901167Y-70495235D01*
X198965524Y-70525212D01*
X198987782Y-70550898D01*
X199076674Y-70686958D01*
X199229097Y-70852534D01*
X199406698Y-70990767D01*
X199406699Y-70990768D01*
X199604628Y-71097882D01*
X199604630Y-71097883D01*
X199817483Y-71170955D01*
X199817492Y-71170957D01*
X199898000Y-71184391D01*
X199898000Y-70283674D01*
X200009685Y-70334680D01*
X200116237Y-70350000D01*
X200187763Y-70350000D01*
X200294315Y-70334680D01*
X200406000Y-70283674D01*
X200406000Y-71184390D01*
X200486507Y-71170957D01*
X200486516Y-71170955D01*
X200699369Y-71097883D01*
X200699371Y-71097882D01*
X200897300Y-70990768D01*
X200897301Y-70990767D01*
X201074902Y-70852534D01*
X201227325Y-70686958D01*
X201350419Y-70498548D01*
X201440820Y-70292456D01*
X201440823Y-70292449D01*
X201488544Y-70104000D01*
X200583116Y-70104000D01*
X200611493Y-70059844D01*
X200652000Y-69921889D01*
X200652000Y-69778111D01*
X200611493Y-69640156D01*
X200583116Y-69596000D01*
X201488544Y-69596000D01*
X201488544Y-69595999D01*
X201440823Y-69407550D01*
X201440820Y-69407543D01*
X201350419Y-69201451D01*
X201227325Y-69013041D01*
X201074902Y-68847465D01*
X200897301Y-68709232D01*
X200897300Y-68709231D01*
X200699371Y-68602117D01*
X200699369Y-68602116D01*
X200486512Y-68529043D01*
X200486501Y-68529040D01*
X200406000Y-68515606D01*
X200406000Y-69416325D01*
X200294315Y-69365320D01*
X200187763Y-69350000D01*
X200116237Y-69350000D01*
X200009685Y-69365320D01*
X199898000Y-69416325D01*
X199898000Y-68515607D01*
X199897999Y-68515606D01*
X199817498Y-68529040D01*
X199817487Y-68529043D01*
X199604630Y-68602116D01*
X199604628Y-68602117D01*
X199406699Y-68709231D01*
X199406698Y-68709232D01*
X199229097Y-68847465D01*
X199076670Y-69013045D01*
X198987780Y-69149101D01*
X198933776Y-69195189D01*
X198863428Y-69204764D01*
X198799071Y-69174786D01*
X198776816Y-69149101D01*
X198737884Y-69089511D01*
X198687724Y-69012734D01*
X198687720Y-69012729D01*
X198558220Y-68872057D01*
X198535240Y-68847094D01*
X198535239Y-68847093D01*
X198535237Y-68847091D01*
X198415367Y-68753792D01*
X198357576Y-68708811D01*
X198159574Y-68601658D01*
X198159572Y-68601657D01*
X198159571Y-68601656D01*
X197946639Y-68528557D01*
X197946630Y-68528555D01*
X197869029Y-68515606D01*
X197724569Y-68491500D01*
X197499431Y-68491500D01*
X197354971Y-68515606D01*
X197277369Y-68528555D01*
X197277360Y-68528557D01*
X197064428Y-68601656D01*
X197064426Y-68601658D01*
X196866426Y-68708810D01*
X196866424Y-68708811D01*
X196688762Y-68847091D01*
X196536279Y-69012729D01*
X196447483Y-69148643D01*
X196393479Y-69194731D01*
X196323131Y-69204306D01*
X196258774Y-69174329D01*
X196236517Y-69148643D01*
X196147720Y-69012729D01*
X196018220Y-68872057D01*
X195995240Y-68847094D01*
X195995239Y-68847093D01*
X195995237Y-68847091D01*
X195875367Y-68753792D01*
X195817576Y-68708811D01*
X195619574Y-68601658D01*
X195619572Y-68601657D01*
X195619571Y-68601656D01*
X195406639Y-68528557D01*
X195406630Y-68528555D01*
X195329029Y-68515606D01*
X195184569Y-68491500D01*
X194959431Y-68491500D01*
X194814971Y-68515606D01*
X194737369Y-68528555D01*
X194737360Y-68528557D01*
X194524428Y-68601656D01*
X194524426Y-68601658D01*
X194326426Y-68708810D01*
X194326424Y-68708811D01*
X194148762Y-68847091D01*
X193996279Y-69012729D01*
X193907483Y-69148643D01*
X193853479Y-69194731D01*
X193783131Y-69204306D01*
X193718774Y-69174329D01*
X193696517Y-69148643D01*
X193607720Y-69012729D01*
X193478220Y-68872057D01*
X193455240Y-68847094D01*
X193455239Y-68847093D01*
X193455237Y-68847091D01*
X193335367Y-68753792D01*
X193277576Y-68708811D01*
X193079574Y-68601658D01*
X193079572Y-68601657D01*
X193079571Y-68601656D01*
X192866639Y-68528557D01*
X192866630Y-68528555D01*
X192789029Y-68515606D01*
X192644569Y-68491500D01*
X192419431Y-68491500D01*
X192274971Y-68515606D01*
X192197369Y-68528555D01*
X192197360Y-68528557D01*
X191984428Y-68601656D01*
X191984426Y-68601658D01*
X191786426Y-68708810D01*
X191786424Y-68708811D01*
X191608762Y-68847091D01*
X191456279Y-69012729D01*
X191367483Y-69148643D01*
X191313479Y-69194731D01*
X191243131Y-69204306D01*
X191178774Y-69174329D01*
X191156517Y-69148643D01*
X191067720Y-69012729D01*
X190938220Y-68872057D01*
X190915240Y-68847094D01*
X190915239Y-68847093D01*
X190915237Y-68847091D01*
X190795367Y-68753792D01*
X190737576Y-68708811D01*
X190539574Y-68601658D01*
X190539572Y-68601657D01*
X190539571Y-68601656D01*
X190326639Y-68528557D01*
X190326630Y-68528555D01*
X190249029Y-68515606D01*
X190104569Y-68491500D01*
X189879431Y-68491500D01*
X189734971Y-68515606D01*
X189657369Y-68528555D01*
X189657360Y-68528557D01*
X189444428Y-68601656D01*
X189444426Y-68601658D01*
X189246426Y-68708810D01*
X189246424Y-68708811D01*
X189068762Y-68847091D01*
X189007754Y-68913363D01*
X188946901Y-68949933D01*
X188875936Y-68947798D01*
X188817391Y-68907636D01*
X188796999Y-68872057D01*
X188752889Y-68753797D01*
X188752887Y-68753792D01*
X188665261Y-68636738D01*
X188548207Y-68549112D01*
X188548202Y-68549110D01*
X188411204Y-68498011D01*
X188411196Y-68498009D01*
X188350649Y-68491500D01*
X188350638Y-68491500D01*
X186553362Y-68491500D01*
X186553350Y-68491500D01*
X186492803Y-68498009D01*
X186492795Y-68498011D01*
X186355797Y-68549110D01*
X186355792Y-68549112D01*
X186238738Y-68636738D01*
X186151112Y-68753792D01*
X186151110Y-68753797D01*
X186100011Y-68890795D01*
X186100009Y-68890803D01*
X186093500Y-68951350D01*
X186093500Y-70748649D01*
X186100009Y-70809196D01*
X186100011Y-70809204D01*
X186151110Y-70946202D01*
X186151112Y-70946207D01*
X186238738Y-71063261D01*
X186355792Y-71150887D01*
X186355794Y-71150888D01*
X186355796Y-71150889D01*
X186409600Y-71170957D01*
X186492795Y-71201988D01*
X186492803Y-71201990D01*
X186553350Y-71208499D01*
X186553355Y-71208499D01*
X186553362Y-71208500D01*
X186553368Y-71208500D01*
X188350632Y-71208500D01*
X188350638Y-71208500D01*
X188350645Y-71208499D01*
X188350649Y-71208499D01*
X188411196Y-71201990D01*
X188411199Y-71201989D01*
X188411201Y-71201989D01*
X188548204Y-71150889D01*
X188618399Y-71098342D01*
X188665261Y-71063261D01*
X188752886Y-70946208D01*
X188752885Y-70946208D01*
X188752889Y-70946204D01*
X188796999Y-70827939D01*
X188839545Y-70771107D01*
X188906066Y-70746296D01*
X188975440Y-70761388D01*
X189007753Y-70786635D01*
X189028529Y-70809204D01*
X189068762Y-70852908D01*
X189123331Y-70895381D01*
X189246424Y-70991189D01*
X189444426Y-71098342D01*
X189444427Y-71098342D01*
X189444428Y-71098343D01*
X189527671Y-71126920D01*
X189657365Y-71171444D01*
X189879431Y-71208500D01*
X189879435Y-71208500D01*
X190104565Y-71208500D01*
X190104569Y-71208500D01*
X190326635Y-71171444D01*
X190539574Y-71098342D01*
X190737576Y-70991189D01*
X190915240Y-70852906D01*
X191067722Y-70687268D01*
X191156518Y-70551354D01*
X191210520Y-70505268D01*
X191280868Y-70495692D01*
X191345225Y-70525669D01*
X191367480Y-70551353D01*
X191400607Y-70602058D01*
X191456275Y-70687265D01*
X191456279Y-70687270D01*
X191608762Y-70852908D01*
X191663331Y-70895381D01*
X191786424Y-70991189D01*
X191984426Y-71098342D01*
X191984427Y-71098342D01*
X191984428Y-71098343D01*
X192067671Y-71126920D01*
X192197365Y-71171444D01*
X192419431Y-71208500D01*
X192419435Y-71208500D01*
X192644565Y-71208500D01*
X192644569Y-71208500D01*
X192866635Y-71171444D01*
X193079574Y-71098342D01*
X193277576Y-70991189D01*
X193455240Y-70852906D01*
X193607722Y-70687268D01*
X193696518Y-70551354D01*
X193750520Y-70505268D01*
X193820868Y-70495692D01*
X193885225Y-70525669D01*
X193907480Y-70551353D01*
X193940607Y-70602058D01*
X193996275Y-70687265D01*
X193996279Y-70687270D01*
X194148762Y-70852908D01*
X194237592Y-70922047D01*
X194326424Y-70991189D01*
X194372471Y-71016108D01*
X194422859Y-71066118D01*
X194438500Y-71126920D01*
X194438500Y-72837405D01*
X194418498Y-72905526D01*
X194401595Y-72926500D01*
X192814500Y-74513595D01*
X192752188Y-74547621D01*
X192725405Y-74550500D01*
X182709853Y-74550500D01*
X182694011Y-74548750D01*
X182693984Y-74549044D01*
X182686092Y-74548298D01*
X182686091Y-74548298D01*
X182616042Y-74550500D01*
X182586144Y-74550500D01*
X182586140Y-74550500D01*
X182586130Y-74550501D01*
X182579179Y-74551379D01*
X182573267Y-74551844D01*
X182526112Y-74553326D01*
X182526110Y-74553327D01*
X182506655Y-74558978D01*
X182487302Y-74562986D01*
X182467210Y-74565524D01*
X182467202Y-74565526D01*
X182423336Y-74582893D01*
X182417721Y-74584816D01*
X182372407Y-74597982D01*
X182372402Y-74597984D01*
X182354963Y-74608297D01*
X182337218Y-74616990D01*
X182318380Y-74624449D01*
X182296278Y-74640507D01*
X182280212Y-74652180D01*
X182275261Y-74655433D01*
X182234640Y-74679455D01*
X182220307Y-74693787D01*
X182205281Y-74706620D01*
X182188895Y-74718526D01*
X182188894Y-74718526D01*
X182158818Y-74754880D01*
X182154823Y-74759271D01*
X180555095Y-76358999D01*
X180492783Y-76393024D01*
X180421968Y-76387960D01*
X180365132Y-76345413D01*
X180340321Y-76278893D01*
X180340000Y-76269904D01*
X180340000Y-61214003D01*
X208556654Y-61214003D01*
X208576016Y-61509421D01*
X208576018Y-61509435D01*
X208633776Y-61799795D01*
X208633778Y-61799805D01*
X208728938Y-62080137D01*
X208728944Y-62080151D01*
X208859883Y-62345670D01*
X209024359Y-62591827D01*
X209024361Y-62591830D01*
X209024367Y-62591838D01*
X209219573Y-62814427D01*
X209442162Y-63009633D01*
X209442170Y-63009638D01*
X209442172Y-63009640D01*
X209561840Y-63089599D01*
X209688327Y-63174115D01*
X209953855Y-63305059D01*
X210234203Y-63400224D01*
X210524574Y-63457983D01*
X210693388Y-63469047D01*
X210819997Y-63477346D01*
X210820000Y-63477346D01*
X210820003Y-63477346D01*
X210930784Y-63470084D01*
X211115426Y-63457983D01*
X211405797Y-63400224D01*
X211686145Y-63305059D01*
X211951673Y-63174115D01*
X212197838Y-63009633D01*
X212420427Y-62814427D01*
X212615633Y-62591838D01*
X212780115Y-62345673D01*
X212911059Y-62080145D01*
X213006224Y-61799797D01*
X213063983Y-61509426D01*
X213083346Y-61214000D01*
X213063983Y-60918574D01*
X213006224Y-60628203D01*
X212911059Y-60347855D01*
X212780115Y-60082327D01*
X212615633Y-59836162D01*
X212420427Y-59613573D01*
X212197838Y-59418367D01*
X212197830Y-59418361D01*
X212197827Y-59418359D01*
X211951670Y-59253883D01*
X211686151Y-59122944D01*
X211686145Y-59122941D01*
X211686140Y-59122939D01*
X211686137Y-59122938D01*
X211405805Y-59027778D01*
X211405799Y-59027776D01*
X211405797Y-59027776D01*
X211308566Y-59008435D01*
X211115435Y-58970018D01*
X211115421Y-58970016D01*
X210820003Y-58950654D01*
X210819997Y-58950654D01*
X210524578Y-58970016D01*
X210524564Y-58970018D01*
X210282818Y-59018105D01*
X210234203Y-59027776D01*
X210234201Y-59027776D01*
X210234194Y-59027778D01*
X209953862Y-59122938D01*
X209953848Y-59122944D01*
X209688329Y-59253883D01*
X209442172Y-59418359D01*
X209442165Y-59418364D01*
X209442162Y-59418367D01*
X209219573Y-59613573D01*
X209024367Y-59836162D01*
X209024364Y-59836165D01*
X209024359Y-59836172D01*
X208859883Y-60082329D01*
X208728944Y-60347848D01*
X208728938Y-60347862D01*
X208633778Y-60628194D01*
X208633776Y-60628204D01*
X208576018Y-60918564D01*
X208576016Y-60918578D01*
X208556654Y-61213996D01*
X208556654Y-61214003D01*
X180340000Y-61214003D01*
X180340000Y-58546500D01*
X180360002Y-58478379D01*
X180413658Y-58431886D01*
X180466000Y-58420500D01*
X213233500Y-58420500D01*
X213301621Y-58440502D01*
X213348114Y-58494158D01*
X213359500Y-58546500D01*
X213359500Y-111633500D01*
X213339498Y-111701621D01*
X213285842Y-111748114D01*
X213233500Y-111759500D01*
X115442500Y-111759500D01*
X115374379Y-111739498D01*
X115327886Y-111685842D01*
X115316500Y-111633500D01*
X115316500Y-109220003D01*
X117116654Y-109220003D01*
X117136016Y-109515421D01*
X117136018Y-109515435D01*
X117193776Y-109805795D01*
X117193778Y-109805805D01*
X117288938Y-110086137D01*
X117288944Y-110086151D01*
X117419883Y-110351670D01*
X117584359Y-110597827D01*
X117584361Y-110597830D01*
X117584367Y-110597838D01*
X117779573Y-110820427D01*
X118002162Y-111015633D01*
X118248327Y-111180115D01*
X118513855Y-111311059D01*
X118794203Y-111406224D01*
X119084574Y-111463983D01*
X119253388Y-111475047D01*
X119379997Y-111483346D01*
X119380000Y-111483346D01*
X119380003Y-111483346D01*
X119490784Y-111476084D01*
X119675426Y-111463983D01*
X119965797Y-111406224D01*
X120246145Y-111311059D01*
X120511673Y-111180115D01*
X120757838Y-111015633D01*
X120980427Y-110820427D01*
X121175633Y-110597838D01*
X121340115Y-110351673D01*
X121471059Y-110086145D01*
X121566224Y-109805797D01*
X121623983Y-109515426D01*
X121643346Y-109220003D01*
X208556654Y-109220003D01*
X208576016Y-109515421D01*
X208576018Y-109515435D01*
X208633776Y-109805795D01*
X208633778Y-109805805D01*
X208728938Y-110086137D01*
X208728944Y-110086151D01*
X208859883Y-110351670D01*
X209024359Y-110597827D01*
X209024361Y-110597830D01*
X209024367Y-110597838D01*
X209219573Y-110820427D01*
X209442162Y-111015633D01*
X209688327Y-111180115D01*
X209953855Y-111311059D01*
X210234203Y-111406224D01*
X210524574Y-111463983D01*
X210693388Y-111475047D01*
X210819997Y-111483346D01*
X210820000Y-111483346D01*
X210820003Y-111483346D01*
X210930784Y-111476084D01*
X211115426Y-111463983D01*
X211405797Y-111406224D01*
X211686145Y-111311059D01*
X211951673Y-111180115D01*
X212197838Y-111015633D01*
X212420427Y-110820427D01*
X212615633Y-110597838D01*
X212780115Y-110351673D01*
X212911059Y-110086145D01*
X213006224Y-109805797D01*
X213063983Y-109515426D01*
X213083346Y-109220000D01*
X213063983Y-108924574D01*
X213006224Y-108634203D01*
X212911059Y-108353855D01*
X212780115Y-108088327D01*
X212615633Y-107842162D01*
X212420427Y-107619573D01*
X212197838Y-107424367D01*
X212197830Y-107424361D01*
X212197827Y-107424359D01*
X211951670Y-107259883D01*
X211686151Y-107128944D01*
X211686145Y-107128941D01*
X211686140Y-107128939D01*
X211686137Y-107128938D01*
X211405805Y-107033778D01*
X211405799Y-107033776D01*
X211405797Y-107033776D01*
X211308566Y-107014435D01*
X211115435Y-106976018D01*
X211115421Y-106976016D01*
X210820003Y-106956654D01*
X210819997Y-106956654D01*
X210524578Y-106976016D01*
X210524564Y-106976018D01*
X210282818Y-107024105D01*
X210234203Y-107033776D01*
X210234201Y-107033776D01*
X210234194Y-107033778D01*
X209953862Y-107128938D01*
X209953848Y-107128944D01*
X209688329Y-107259883D01*
X209442172Y-107424359D01*
X209442165Y-107424364D01*
X209442162Y-107424367D01*
X209219573Y-107619573D01*
X209024367Y-107842162D01*
X209024364Y-107842165D01*
X209024359Y-107842172D01*
X208859883Y-108088329D01*
X208728944Y-108353848D01*
X208728938Y-108353862D01*
X208633778Y-108634194D01*
X208633776Y-108634204D01*
X208576018Y-108924564D01*
X208576016Y-108924578D01*
X208556654Y-109219996D01*
X208556654Y-109220003D01*
X121643346Y-109220003D01*
X121643346Y-109220000D01*
X121623983Y-108924574D01*
X121566224Y-108634203D01*
X121471059Y-108353855D01*
X121340115Y-108088327D01*
X121175633Y-107842162D01*
X120980427Y-107619573D01*
X120757838Y-107424367D01*
X120757830Y-107424361D01*
X120757827Y-107424359D01*
X120511670Y-107259883D01*
X120246151Y-107128944D01*
X120246145Y-107128941D01*
X120246140Y-107128939D01*
X120246137Y-107128938D01*
X119965805Y-107033778D01*
X119965799Y-107033776D01*
X119965797Y-107033776D01*
X119868566Y-107014435D01*
X119675435Y-106976018D01*
X119675421Y-106976016D01*
X119380003Y-106956654D01*
X119379997Y-106956654D01*
X119084578Y-106976016D01*
X119084564Y-106976018D01*
X118842818Y-107024105D01*
X118794203Y-107033776D01*
X118794201Y-107033776D01*
X118794194Y-107033778D01*
X118513862Y-107128938D01*
X118513848Y-107128944D01*
X118248329Y-107259883D01*
X118002172Y-107424359D01*
X118002165Y-107424364D01*
X118002162Y-107424367D01*
X117779573Y-107619573D01*
X117584367Y-107842162D01*
X117584364Y-107842165D01*
X117584359Y-107842172D01*
X117419883Y-108088329D01*
X117288944Y-108353848D01*
X117288938Y-108353862D01*
X117193778Y-108634194D01*
X117193776Y-108634204D01*
X117136018Y-108924564D01*
X117136016Y-108924578D01*
X117116654Y-109219996D01*
X117116654Y-109220003D01*
X115316500Y-109220003D01*
X115316500Y-105882000D01*
X167449337Y-105882000D01*
X167467960Y-106118632D01*
X167523371Y-106349437D01*
X167614206Y-106568733D01*
X167728897Y-106755891D01*
X168435097Y-106049691D01*
X168438884Y-106067915D01*
X168508442Y-106202156D01*
X168611638Y-106312652D01*
X168740819Y-106391209D01*
X168796421Y-106406788D01*
X168088107Y-107115101D01*
X168088107Y-107115102D01*
X168275261Y-107229791D01*
X168494562Y-107320628D01*
X168725367Y-107376039D01*
X168962000Y-107394662D01*
X169198632Y-107376039D01*
X169429437Y-107320628D01*
X169648738Y-107229791D01*
X169835891Y-107115102D01*
X169835892Y-107115101D01*
X169129625Y-106408834D01*
X169250458Y-106356349D01*
X169367739Y-106260934D01*
X169454928Y-106137415D01*
X169486837Y-106047628D01*
X170195101Y-106755892D01*
X170195102Y-106755891D01*
X170309791Y-106568738D01*
X170400628Y-106349437D01*
X170456039Y-106118632D01*
X170474662Y-105882000D01*
X173949337Y-105882000D01*
X173967960Y-106118632D01*
X174023371Y-106349437D01*
X174114206Y-106568733D01*
X174228897Y-106755891D01*
X174935097Y-106049691D01*
X174938884Y-106067915D01*
X175008442Y-106202156D01*
X175111638Y-106312652D01*
X175240819Y-106391209D01*
X175296421Y-106406788D01*
X174588107Y-107115101D01*
X174588107Y-107115102D01*
X174775261Y-107229791D01*
X174994562Y-107320628D01*
X175225367Y-107376039D01*
X175462000Y-107394662D01*
X175698632Y-107376039D01*
X175929437Y-107320628D01*
X176148738Y-107229791D01*
X176335891Y-107115102D01*
X176335892Y-107115101D01*
X175629625Y-106408834D01*
X175750458Y-106356349D01*
X175867739Y-106260934D01*
X175954928Y-106137415D01*
X175986837Y-106047628D01*
X176695101Y-106755892D01*
X176695102Y-106755891D01*
X176809791Y-106568738D01*
X176900628Y-106349437D01*
X176956039Y-106118632D01*
X176974662Y-105882000D01*
X176956039Y-105645367D01*
X176900628Y-105414562D01*
X176809791Y-105195261D01*
X176695102Y-105008107D01*
X176695101Y-105008107D01*
X175988902Y-105714306D01*
X175985116Y-105696085D01*
X175915558Y-105561844D01*
X175812362Y-105451348D01*
X175683181Y-105372791D01*
X175627577Y-105357211D01*
X176335891Y-104648897D01*
X176148733Y-104534206D01*
X175929437Y-104443371D01*
X175698632Y-104387960D01*
X175462000Y-104369337D01*
X175225367Y-104387960D01*
X174994562Y-104443371D01*
X174775262Y-104534208D01*
X174588107Y-104648896D01*
X174588107Y-104648898D01*
X175294374Y-105355165D01*
X175173542Y-105407651D01*
X175056261Y-105503066D01*
X174969072Y-105626585D01*
X174937162Y-105716371D01*
X174228898Y-105008107D01*
X174228896Y-105008107D01*
X174114208Y-105195262D01*
X174023371Y-105414562D01*
X173967960Y-105645367D01*
X173949337Y-105882000D01*
X170474662Y-105882000D01*
X170456039Y-105645367D01*
X170400628Y-105414562D01*
X170309791Y-105195261D01*
X170195102Y-105008107D01*
X170195101Y-105008107D01*
X169488902Y-105714306D01*
X169485116Y-105696085D01*
X169415558Y-105561844D01*
X169312362Y-105451348D01*
X169183181Y-105372791D01*
X169127577Y-105357211D01*
X169835891Y-104648897D01*
X169648733Y-104534206D01*
X169429437Y-104443371D01*
X169198632Y-104387960D01*
X168962000Y-104369337D01*
X168725367Y-104387960D01*
X168494562Y-104443371D01*
X168275262Y-104534208D01*
X168088107Y-104648896D01*
X168088107Y-104648898D01*
X168794374Y-105355165D01*
X168673542Y-105407651D01*
X168556261Y-105503066D01*
X168469072Y-105626585D01*
X168437162Y-105716371D01*
X167728898Y-105008107D01*
X167728896Y-105008107D01*
X167614208Y-105195262D01*
X167523371Y-105414562D01*
X167467960Y-105645367D01*
X167449337Y-105882000D01*
X115316500Y-105882000D01*
X115316500Y-94416000D01*
X129655337Y-94416000D01*
X129673960Y-94652632D01*
X129729371Y-94883437D01*
X129820206Y-95102733D01*
X129934897Y-95289891D01*
X130641097Y-94583691D01*
X130644884Y-94601915D01*
X130714442Y-94736156D01*
X130817638Y-94846652D01*
X130946819Y-94925209D01*
X131002421Y-94940788D01*
X130294107Y-95649101D01*
X130294107Y-95649102D01*
X130481261Y-95763791D01*
X130700562Y-95854628D01*
X130931367Y-95910039D01*
X131168000Y-95928662D01*
X131404632Y-95910039D01*
X131635437Y-95854628D01*
X131854738Y-95763791D01*
X132041891Y-95649102D01*
X132041892Y-95649101D01*
X131335625Y-94942834D01*
X131456458Y-94890349D01*
X131573739Y-94794934D01*
X131660928Y-94671415D01*
X131692837Y-94581628D01*
X132401101Y-95289892D01*
X132401102Y-95289891D01*
X132515791Y-95102738D01*
X132606628Y-94883437D01*
X132662039Y-94652632D01*
X132680662Y-94416000D01*
X136155337Y-94416000D01*
X136173960Y-94652632D01*
X136229371Y-94883437D01*
X136320206Y-95102733D01*
X136434897Y-95289891D01*
X137141097Y-94583691D01*
X137144884Y-94601915D01*
X137214442Y-94736156D01*
X137317638Y-94846652D01*
X137446819Y-94925209D01*
X137502421Y-94940788D01*
X136794107Y-95649101D01*
X136794107Y-95649102D01*
X136981261Y-95763791D01*
X137200562Y-95854628D01*
X137431367Y-95910039D01*
X137668000Y-95928662D01*
X137904632Y-95910039D01*
X138135437Y-95854628D01*
X138354738Y-95763791D01*
X138541891Y-95649102D01*
X138541892Y-95649101D01*
X137835625Y-94942834D01*
X137956458Y-94890349D01*
X138073739Y-94794934D01*
X138160928Y-94671415D01*
X138192837Y-94581628D01*
X138901101Y-95289892D01*
X138901102Y-95289891D01*
X139015791Y-95102738D01*
X139106628Y-94883437D01*
X139162039Y-94652632D01*
X139174996Y-94488000D01*
X164440496Y-94488000D01*
X164460457Y-94677927D01*
X164490526Y-94770470D01*
X164519473Y-94859556D01*
X164519476Y-94859561D01*
X164580928Y-94966000D01*
X164614960Y-95024944D01*
X164688137Y-95106215D01*
X164718853Y-95170220D01*
X164720500Y-95190524D01*
X164720500Y-97690146D01*
X164718751Y-97705988D01*
X164719044Y-97706016D01*
X164718298Y-97713907D01*
X164720500Y-97783957D01*
X164720500Y-97813851D01*
X164720501Y-97813872D01*
X164721378Y-97820820D01*
X164721844Y-97826732D01*
X164723326Y-97873888D01*
X164723327Y-97873893D01*
X164728977Y-97893339D01*
X164732986Y-97912697D01*
X164735525Y-97932793D01*
X164735526Y-97932799D01*
X164752893Y-97976662D01*
X164754816Y-97982279D01*
X164767982Y-98027593D01*
X164778294Y-98045031D01*
X164786988Y-98062779D01*
X164794444Y-98081609D01*
X164794450Y-98081620D01*
X164822177Y-98119783D01*
X164825437Y-98124746D01*
X164849460Y-98165365D01*
X164863779Y-98179684D01*
X164876617Y-98194714D01*
X164886156Y-98207843D01*
X164888528Y-98211107D01*
X164916794Y-98234491D01*
X164924886Y-98241185D01*
X164929267Y-98245171D01*
X166552931Y-99868835D01*
X167487636Y-100803540D01*
X167521662Y-100865852D01*
X167521060Y-100922049D01*
X167467465Y-101145289D01*
X167448835Y-101382000D01*
X167467465Y-101618710D01*
X167522894Y-101849592D01*
X167613759Y-102068961D01*
X167737825Y-102271417D01*
X167737826Y-102271419D01*
X167892030Y-102451969D01*
X168072580Y-102606173D01*
X168072584Y-102606176D01*
X168275037Y-102730240D01*
X168494406Y-102821105D01*
X168725289Y-102876535D01*
X168962000Y-102895165D01*
X169198711Y-102876535D01*
X169429594Y-102821105D01*
X169648963Y-102730240D01*
X169851416Y-102606176D01*
X170031969Y-102451969D01*
X170186176Y-102271416D01*
X170310240Y-102068963D01*
X170401105Y-101849594D01*
X170456535Y-101618711D01*
X170475165Y-101382000D01*
X173948835Y-101382000D01*
X173967465Y-101618710D01*
X174022894Y-101849592D01*
X174113759Y-102068961D01*
X174237825Y-102271417D01*
X174237826Y-102271419D01*
X174392030Y-102451969D01*
X174572580Y-102606173D01*
X174572584Y-102606176D01*
X174775037Y-102730240D01*
X174994406Y-102821105D01*
X175225289Y-102876535D01*
X175462000Y-102895165D01*
X175698711Y-102876535D01*
X175929594Y-102821105D01*
X176148963Y-102730240D01*
X176351416Y-102606176D01*
X176531969Y-102451969D01*
X176686176Y-102271416D01*
X176810240Y-102068963D01*
X176901105Y-101849594D01*
X176956535Y-101618711D01*
X176975165Y-101382000D01*
X176956535Y-101145289D01*
X176901105Y-100914406D01*
X176810240Y-100695037D01*
X176686176Y-100492584D01*
X176686173Y-100492580D01*
X176531969Y-100312030D01*
X176351419Y-100157826D01*
X176351417Y-100157825D01*
X176351416Y-100157824D01*
X176148963Y-100033760D01*
X175929594Y-99942895D01*
X175929592Y-99942894D01*
X175771651Y-99904976D01*
X175698711Y-99887465D01*
X175462000Y-99868835D01*
X175225289Y-99887465D01*
X174994407Y-99942894D01*
X174775038Y-100033759D01*
X174572582Y-100157825D01*
X174572580Y-100157826D01*
X174392030Y-100312030D01*
X174237826Y-100492580D01*
X174237825Y-100492582D01*
X174113759Y-100695038D01*
X174022894Y-100914407D01*
X173967465Y-101145289D01*
X173948835Y-101382000D01*
X170475165Y-101382000D01*
X170456535Y-101145289D01*
X170401105Y-100914406D01*
X170310240Y-100695037D01*
X170186176Y-100492584D01*
X170186173Y-100492580D01*
X170031969Y-100312030D01*
X169851419Y-100157826D01*
X169851417Y-100157825D01*
X169851416Y-100157824D01*
X169648963Y-100033760D01*
X169429594Y-99942895D01*
X169429592Y-99942894D01*
X169271651Y-99904976D01*
X169198711Y-99887465D01*
X168962000Y-99868835D01*
X168725289Y-99887465D01*
X168502049Y-99941060D01*
X168431141Y-99937513D01*
X168383540Y-99907636D01*
X166024405Y-97548500D01*
X165990379Y-97486188D01*
X165987500Y-97459405D01*
X165987500Y-95190524D01*
X166007502Y-95122403D01*
X166019858Y-95106220D01*
X166093040Y-95024944D01*
X166188527Y-94859556D01*
X166247542Y-94677928D01*
X166267504Y-94488000D01*
X166247542Y-94298072D01*
X166188527Y-94116444D01*
X166093040Y-93951056D01*
X166093038Y-93951054D01*
X166093034Y-93951048D01*
X165965255Y-93809135D01*
X165810752Y-93696882D01*
X165636288Y-93619206D01*
X165449487Y-93579500D01*
X165258513Y-93579500D01*
X165071711Y-93619206D01*
X164897247Y-93696882D01*
X164742744Y-93809135D01*
X164614965Y-93951048D01*
X164614958Y-93951058D01*
X164523851Y-94108861D01*
X164519473Y-94116444D01*
X164505131Y-94160585D01*
X164460457Y-94298072D01*
X164440496Y-94488000D01*
X139174996Y-94488000D01*
X139180662Y-94416000D01*
X139162039Y-94179367D01*
X139106628Y-93948562D01*
X139015791Y-93729261D01*
X138901102Y-93542107D01*
X138901101Y-93542107D01*
X138194902Y-94248306D01*
X138191116Y-94230085D01*
X138121558Y-94095844D01*
X138018362Y-93985348D01*
X137889181Y-93906791D01*
X137833577Y-93891211D01*
X138541891Y-93182897D01*
X138354733Y-93068206D01*
X138135437Y-92977371D01*
X137904632Y-92921960D01*
X137668000Y-92903337D01*
X137431367Y-92921960D01*
X137200562Y-92977371D01*
X136981262Y-93068208D01*
X136794107Y-93182896D01*
X136794107Y-93182898D01*
X137500374Y-93889165D01*
X137379542Y-93941651D01*
X137262261Y-94037066D01*
X137175072Y-94160585D01*
X137143162Y-94250371D01*
X136434898Y-93542107D01*
X136434896Y-93542107D01*
X136320208Y-93729262D01*
X136229371Y-93948562D01*
X136173960Y-94179367D01*
X136155337Y-94416000D01*
X132680662Y-94416000D01*
X132662039Y-94179367D01*
X132606628Y-93948562D01*
X132515791Y-93729261D01*
X132401102Y-93542107D01*
X132401101Y-93542107D01*
X131694902Y-94248306D01*
X131691116Y-94230085D01*
X131621558Y-94095844D01*
X131518362Y-93985348D01*
X131389181Y-93906791D01*
X131333577Y-93891211D01*
X132041891Y-93182897D01*
X131854733Y-93068206D01*
X131635437Y-92977371D01*
X131404632Y-92921960D01*
X131168000Y-92903337D01*
X130931367Y-92921960D01*
X130700562Y-92977371D01*
X130481262Y-93068208D01*
X130294107Y-93182896D01*
X130294107Y-93182898D01*
X131000374Y-93889165D01*
X130879542Y-93941651D01*
X130762261Y-94037066D01*
X130675072Y-94160585D01*
X130643162Y-94250371D01*
X129934898Y-93542107D01*
X129934896Y-93542107D01*
X129820208Y-93729262D01*
X129729371Y-93948562D01*
X129673960Y-94179367D01*
X129655337Y-94416000D01*
X115316500Y-94416000D01*
X115316500Y-89916000D01*
X129654835Y-89916000D01*
X129673465Y-90152711D01*
X129682431Y-90190057D01*
X129728894Y-90383592D01*
X129795884Y-90545320D01*
X129819760Y-90602963D01*
X129865283Y-90677250D01*
X129943825Y-90805417D01*
X129943826Y-90805419D01*
X130098030Y-90985969D01*
X130278580Y-91140173D01*
X130278584Y-91140176D01*
X130481037Y-91264240D01*
X130700406Y-91355105D01*
X130931289Y-91410535D01*
X131168000Y-91429165D01*
X131404711Y-91410535D01*
X131635594Y-91355105D01*
X131854963Y-91264240D01*
X132057416Y-91140176D01*
X132237969Y-90985969D01*
X132392176Y-90805416D01*
X132516240Y-90602963D01*
X132607105Y-90383594D01*
X132662535Y-90152711D01*
X132681165Y-89916000D01*
X136154835Y-89916000D01*
X136173465Y-90152711D01*
X136182431Y-90190057D01*
X136228894Y-90383592D01*
X136295884Y-90545320D01*
X136319760Y-90602963D01*
X136365283Y-90677250D01*
X136443825Y-90805417D01*
X136443826Y-90805419D01*
X136598030Y-90985969D01*
X136778580Y-91140173D01*
X136778584Y-91140176D01*
X136981037Y-91264240D01*
X137200406Y-91355105D01*
X137431289Y-91410535D01*
X137668000Y-91429165D01*
X137904711Y-91410535D01*
X138135594Y-91355105D01*
X138354963Y-91264240D01*
X138557416Y-91140176D01*
X138737969Y-90985969D01*
X138892176Y-90805416D01*
X139016240Y-90602963D01*
X139107105Y-90383594D01*
X139162535Y-90152711D01*
X139181165Y-89916000D01*
X139162535Y-89679289D01*
X139107105Y-89448406D01*
X139016240Y-89229037D01*
X138892176Y-89026584D01*
X138853027Y-88980746D01*
X138737969Y-88846030D01*
X138557419Y-88691826D01*
X138557417Y-88691825D01*
X138557416Y-88691824D01*
X138354963Y-88567760D01*
X138135594Y-88476895D01*
X138135592Y-88476894D01*
X137977651Y-88438976D01*
X137904711Y-88421465D01*
X137668000Y-88402835D01*
X137431289Y-88421465D01*
X137200407Y-88476894D01*
X136981038Y-88567759D01*
X136778582Y-88691825D01*
X136778580Y-88691826D01*
X136598030Y-88846030D01*
X136443826Y-89026580D01*
X136443825Y-89026582D01*
X136319759Y-89229038D01*
X136228894Y-89448407D01*
X136180786Y-89648793D01*
X136173465Y-89679289D01*
X136154835Y-89916000D01*
X132681165Y-89916000D01*
X132662535Y-89679289D01*
X132607105Y-89448406D01*
X132516240Y-89229037D01*
X132392176Y-89026584D01*
X132353027Y-88980746D01*
X132237969Y-88846030D01*
X132057419Y-88691826D01*
X132057417Y-88691825D01*
X132057416Y-88691824D01*
X131854963Y-88567760D01*
X131635594Y-88476895D01*
X131635592Y-88476894D01*
X131477651Y-88438976D01*
X131404711Y-88421465D01*
X131168000Y-88402835D01*
X130931289Y-88421465D01*
X130700407Y-88476894D01*
X130481038Y-88567759D01*
X130278582Y-88691825D01*
X130278580Y-88691826D01*
X130098030Y-88846030D01*
X129943826Y-89026580D01*
X129943825Y-89026582D01*
X129819759Y-89229038D01*
X129728894Y-89448407D01*
X129680786Y-89648793D01*
X129673465Y-89679289D01*
X129654835Y-89916000D01*
X115316500Y-89916000D01*
X115316500Y-87693357D01*
X154706274Y-87693357D01*
X154819454Y-87752759D01*
X154819459Y-87752761D01*
X154974601Y-87790999D01*
X154974606Y-87791000D01*
X155134394Y-87791000D01*
X155134398Y-87790999D01*
X155289540Y-87752761D01*
X155289544Y-87752759D01*
X155402724Y-87693357D01*
X156541274Y-87693357D01*
X156654454Y-87752759D01*
X156654459Y-87752761D01*
X156809601Y-87790999D01*
X156809606Y-87791000D01*
X156969394Y-87791000D01*
X156969398Y-87790999D01*
X157124540Y-87752761D01*
X157124544Y-87752759D01*
X157237724Y-87693357D01*
X157237724Y-87693355D01*
X156889501Y-87345132D01*
X156889500Y-87345132D01*
X156541274Y-87693356D01*
X156541274Y-87693357D01*
X155402724Y-87693357D01*
X155402724Y-87693355D01*
X155054501Y-87345132D01*
X155054500Y-87345132D01*
X154706274Y-87693356D01*
X154706274Y-87693357D01*
X115316500Y-87693357D01*
X115316500Y-86775857D01*
X153788774Y-86775857D01*
X153901954Y-86835259D01*
X153901959Y-86835261D01*
X154057101Y-86873499D01*
X154057106Y-86873500D01*
X154216894Y-86873500D01*
X154216904Y-86873498D01*
X154252301Y-86864774D01*
X154323229Y-86867892D01*
X154381211Y-86908861D01*
X154407840Y-86974675D01*
X154407536Y-87002299D01*
X154391667Y-87132996D01*
X154391667Y-87133002D01*
X154410927Y-87291625D01*
X154467588Y-87441028D01*
X154494846Y-87480520D01*
X154809875Y-87165492D01*
X154954500Y-87165492D01*
X154992697Y-87218065D01*
X155038662Y-87233000D01*
X155070338Y-87233000D01*
X155116303Y-87218065D01*
X155154500Y-87165492D01*
X155154500Y-87132999D01*
X155266632Y-87132999D01*
X155614153Y-87480520D01*
X155641406Y-87441037D01*
X155641409Y-87441031D01*
X155698072Y-87291623D01*
X155717333Y-87133002D01*
X155717333Y-87132997D01*
X155701463Y-87002300D01*
X155713108Y-86932265D01*
X155760768Y-86879643D01*
X155829311Y-86861142D01*
X155856698Y-86864773D01*
X155892103Y-86873499D01*
X155892106Y-86873500D01*
X156051894Y-86873500D01*
X156051904Y-86873498D01*
X156087301Y-86864774D01*
X156158229Y-86867892D01*
X156216211Y-86908861D01*
X156242840Y-86974675D01*
X156242536Y-87002299D01*
X156226667Y-87132996D01*
X156226667Y-87133002D01*
X156245927Y-87291625D01*
X156302588Y-87441028D01*
X156329846Y-87480520D01*
X156644875Y-87165492D01*
X156789500Y-87165492D01*
X156827697Y-87218065D01*
X156873662Y-87233000D01*
X156905338Y-87233000D01*
X156951303Y-87218065D01*
X156989500Y-87165492D01*
X156989500Y-87132999D01*
X157101632Y-87132999D01*
X157449153Y-87480520D01*
X157476406Y-87441037D01*
X157476409Y-87441031D01*
X157533072Y-87291623D01*
X157552333Y-87133002D01*
X157552333Y-87132997D01*
X157536463Y-87002300D01*
X157548108Y-86932265D01*
X157595768Y-86879643D01*
X157664311Y-86861142D01*
X157691698Y-86864773D01*
X157727103Y-86873499D01*
X157727106Y-86873500D01*
X157886894Y-86873500D01*
X157886898Y-86873499D01*
X158042040Y-86835261D01*
X158042044Y-86835259D01*
X158155224Y-86775857D01*
X158155224Y-86775855D01*
X157807001Y-86427632D01*
X157807000Y-86427632D01*
X157490880Y-86743751D01*
X157490877Y-86743752D01*
X157462374Y-86772257D01*
X157101632Y-87132999D01*
X156989500Y-87132999D01*
X156989500Y-87100508D01*
X156951303Y-87047935D01*
X156905338Y-87033000D01*
X156873662Y-87033000D01*
X156827697Y-87047935D01*
X156789500Y-87100508D01*
X156789500Y-87165492D01*
X156644875Y-87165492D01*
X156677367Y-87133000D01*
X156365281Y-86820914D01*
X156365278Y-86820909D01*
X155972001Y-86427632D01*
X155972000Y-86427632D01*
X155655880Y-86743751D01*
X155655877Y-86743752D01*
X155627374Y-86772257D01*
X155266632Y-87132999D01*
X155154500Y-87132999D01*
X155154500Y-87100508D01*
X155116303Y-87047935D01*
X155070338Y-87033000D01*
X155038662Y-87033000D01*
X154992697Y-87047935D01*
X154954500Y-87100508D01*
X154954500Y-87165492D01*
X154809875Y-87165492D01*
X154842367Y-87133000D01*
X154530281Y-86820914D01*
X154530278Y-86820909D01*
X154137001Y-86427632D01*
X154137000Y-86427632D01*
X153788774Y-86775856D01*
X153788774Y-86775857D01*
X115316500Y-86775857D01*
X115316500Y-86215502D01*
X153474167Y-86215502D01*
X153493427Y-86374125D01*
X153550088Y-86523528D01*
X153577346Y-86563020D01*
X153892375Y-86247992D01*
X154037000Y-86247992D01*
X154075197Y-86300565D01*
X154121162Y-86315500D01*
X154152838Y-86315500D01*
X154198803Y-86300565D01*
X154237000Y-86247992D01*
X154237000Y-86215499D01*
X154349132Y-86215499D01*
X154738382Y-86604749D01*
X155054499Y-86920867D01*
X155399725Y-86575641D01*
X155441996Y-86533372D01*
X155727376Y-86247992D01*
X155872000Y-86247992D01*
X155910197Y-86300565D01*
X155956162Y-86315500D01*
X155987838Y-86315500D01*
X156033803Y-86300565D01*
X156072000Y-86247992D01*
X156072000Y-86215499D01*
X156184131Y-86215499D01*
X156502005Y-86533372D01*
X156573382Y-86604749D01*
X156889499Y-86920867D01*
X157234725Y-86575641D01*
X157276996Y-86533372D01*
X157562376Y-86247992D01*
X157707000Y-86247992D01*
X157745197Y-86300565D01*
X157791162Y-86315500D01*
X157822838Y-86315500D01*
X157868803Y-86300565D01*
X157907000Y-86247992D01*
X157907000Y-86215499D01*
X158019132Y-86215499D01*
X158366653Y-86563020D01*
X158393906Y-86523537D01*
X158393909Y-86523531D01*
X158450572Y-86374123D01*
X158469833Y-86215502D01*
X158469833Y-86215497D01*
X158450572Y-86056874D01*
X158393911Y-85907471D01*
X158393908Y-85907465D01*
X158366652Y-85867978D01*
X158019132Y-86215499D01*
X157907000Y-86215499D01*
X157907000Y-86183008D01*
X157868803Y-86130435D01*
X157822838Y-86115500D01*
X157791162Y-86115500D01*
X157745197Y-86130435D01*
X157707000Y-86183008D01*
X157707000Y-86247992D01*
X157562376Y-86247992D01*
X157594868Y-86215500D01*
X157282781Y-85903414D01*
X157282778Y-85903409D01*
X156889501Y-85510132D01*
X156889500Y-85510132D01*
X156573380Y-85826251D01*
X156573377Y-85826252D01*
X156544874Y-85854757D01*
X156496217Y-85903414D01*
X156184131Y-86215499D01*
X156072000Y-86215499D01*
X156072000Y-86183008D01*
X156033803Y-86130435D01*
X155987838Y-86115500D01*
X155956162Y-86115500D01*
X155910197Y-86130435D01*
X155872000Y-86183008D01*
X155872000Y-86247992D01*
X155727376Y-86247992D01*
X155759868Y-86215500D01*
X155447781Y-85903414D01*
X155447778Y-85903409D01*
X155054501Y-85510132D01*
X155054500Y-85510132D01*
X154738380Y-85826251D01*
X154738377Y-85826252D01*
X154709874Y-85854757D01*
X154349132Y-86215499D01*
X154237000Y-86215499D01*
X154237000Y-86183008D01*
X154198803Y-86130435D01*
X154152838Y-86115500D01*
X154121162Y-86115500D01*
X154075197Y-86130435D01*
X154037000Y-86183008D01*
X154037000Y-86247992D01*
X153892375Y-86247992D01*
X153924868Y-86215499D01*
X153577347Y-85867978D01*
X153577345Y-85867978D01*
X153550092Y-85907463D01*
X153550088Y-85907471D01*
X153493427Y-86056874D01*
X153474167Y-86215497D01*
X153474167Y-86215502D01*
X115316500Y-86215502D01*
X115316500Y-85655141D01*
X153788774Y-85655141D01*
X154136999Y-86003367D01*
X154482225Y-85658141D01*
X154524496Y-85615872D01*
X154809876Y-85330492D01*
X154954500Y-85330492D01*
X154992697Y-85383065D01*
X155038662Y-85398000D01*
X155070338Y-85398000D01*
X155116303Y-85383065D01*
X155154500Y-85330492D01*
X155154500Y-85297999D01*
X155266632Y-85297999D01*
X155655882Y-85687249D01*
X155971999Y-86003367D01*
X156317225Y-85658141D01*
X156359496Y-85615872D01*
X156644876Y-85330492D01*
X156789500Y-85330492D01*
X156827697Y-85383065D01*
X156873662Y-85398000D01*
X156905338Y-85398000D01*
X156951303Y-85383065D01*
X156989500Y-85330492D01*
X156989500Y-85297999D01*
X157101632Y-85297999D01*
X157490882Y-85687249D01*
X157806999Y-86003367D01*
X158155224Y-85655141D01*
X158042039Y-85595738D01*
X157886898Y-85557500D01*
X157727106Y-85557500D01*
X157727096Y-85557501D01*
X157691695Y-85566226D01*
X157620767Y-85563106D01*
X157562785Y-85522135D01*
X157536159Y-85456321D01*
X157536463Y-85428699D01*
X157552333Y-85298002D01*
X157552333Y-85297997D01*
X157536463Y-85167300D01*
X157548108Y-85097265D01*
X157595768Y-85044643D01*
X157664311Y-85026142D01*
X157691698Y-85029773D01*
X157727103Y-85038499D01*
X157727106Y-85038500D01*
X157886894Y-85038500D01*
X157886898Y-85038499D01*
X158042040Y-85000261D01*
X158042044Y-85000259D01*
X158155224Y-84940857D01*
X158155224Y-84940855D01*
X157807001Y-84592632D01*
X157807000Y-84592632D01*
X157490880Y-84908751D01*
X157490877Y-84908752D01*
X157467933Y-84931697D01*
X157413717Y-84985914D01*
X157101632Y-85297999D01*
X156989500Y-85297999D01*
X156989500Y-85265508D01*
X156951303Y-85212935D01*
X156905338Y-85198000D01*
X156873662Y-85198000D01*
X156827697Y-85212935D01*
X156789500Y-85265508D01*
X156789500Y-85330492D01*
X156644876Y-85330492D01*
X156677368Y-85298000D01*
X156365281Y-84985914D01*
X156365278Y-84985909D01*
X155972001Y-84592632D01*
X155972000Y-84592632D01*
X155655880Y-84908751D01*
X155655877Y-84908752D01*
X155632933Y-84931697D01*
X155578717Y-84985914D01*
X155266632Y-85297999D01*
X155154500Y-85297999D01*
X155154500Y-85265508D01*
X155116303Y-85212935D01*
X155070338Y-85198000D01*
X155038662Y-85198000D01*
X154992697Y-85212935D01*
X154954500Y-85265508D01*
X154954500Y-85330492D01*
X154809876Y-85330492D01*
X154842368Y-85298000D01*
X154530281Y-84985914D01*
X154530278Y-84985909D01*
X154137001Y-84592632D01*
X154137000Y-84592632D01*
X153788774Y-84940856D01*
X153788774Y-84940857D01*
X153901954Y-85000259D01*
X153901959Y-85000261D01*
X154057101Y-85038499D01*
X154057106Y-85038500D01*
X154216894Y-85038500D01*
X154216904Y-85038498D01*
X154252301Y-85029774D01*
X154323229Y-85032892D01*
X154381211Y-85073861D01*
X154407840Y-85139675D01*
X154407536Y-85167299D01*
X154391667Y-85297996D01*
X154391667Y-85298003D01*
X154407536Y-85428700D01*
X154395891Y-85498735D01*
X154348230Y-85551356D01*
X154279687Y-85569857D01*
X154252303Y-85566226D01*
X154216901Y-85557500D01*
X154057101Y-85557500D01*
X153901956Y-85595740D01*
X153788774Y-85655141D01*
X115316500Y-85655141D01*
X115316500Y-84380502D01*
X153474167Y-84380502D01*
X153493427Y-84539125D01*
X153550088Y-84688528D01*
X153577346Y-84728020D01*
X153892375Y-84412992D01*
X154037000Y-84412992D01*
X154075197Y-84465565D01*
X154121162Y-84480500D01*
X154152838Y-84480500D01*
X154198803Y-84465565D01*
X154237000Y-84412992D01*
X154237000Y-84380499D01*
X154349132Y-84380499D01*
X155054500Y-85085867D01*
X155402860Y-84737507D01*
X155441996Y-84698372D01*
X155727376Y-84412992D01*
X155872000Y-84412992D01*
X155910197Y-84465565D01*
X155956162Y-84480500D01*
X155987838Y-84480500D01*
X156033803Y-84465565D01*
X156072000Y-84412992D01*
X156072000Y-84380499D01*
X156184131Y-84380499D01*
X156502005Y-84698372D01*
X156889500Y-85085867D01*
X157237860Y-84737507D01*
X157276996Y-84698372D01*
X157562376Y-84412992D01*
X157707000Y-84412992D01*
X157745197Y-84465565D01*
X157791162Y-84480500D01*
X157822838Y-84480500D01*
X157868803Y-84465565D01*
X157907000Y-84412992D01*
X157907000Y-84380499D01*
X158019132Y-84380499D01*
X158366653Y-84728020D01*
X158393906Y-84688537D01*
X158393909Y-84688531D01*
X158450572Y-84539123D01*
X158469833Y-84380502D01*
X158469833Y-84380497D01*
X158450572Y-84221874D01*
X158393911Y-84072471D01*
X158393908Y-84072465D01*
X158366652Y-84032978D01*
X158019132Y-84380499D01*
X157907000Y-84380499D01*
X157907000Y-84348008D01*
X157868803Y-84295435D01*
X157822838Y-84280500D01*
X157791162Y-84280500D01*
X157745197Y-84295435D01*
X157707000Y-84348008D01*
X157707000Y-84412992D01*
X157562376Y-84412992D01*
X157594868Y-84380500D01*
X157282781Y-84068414D01*
X157282778Y-84068409D01*
X156889501Y-83675132D01*
X156889500Y-83675132D01*
X156573380Y-83991251D01*
X156573377Y-83991252D01*
X156544874Y-84019757D01*
X156496217Y-84068414D01*
X156184131Y-84380499D01*
X156072000Y-84380499D01*
X156072000Y-84348008D01*
X156033803Y-84295435D01*
X155987838Y-84280500D01*
X155956162Y-84280500D01*
X155910197Y-84295435D01*
X155872000Y-84348008D01*
X155872000Y-84412992D01*
X155727376Y-84412992D01*
X155759868Y-84380500D01*
X155447781Y-84068414D01*
X155447778Y-84068409D01*
X155054501Y-83675132D01*
X155054500Y-83675132D01*
X154738380Y-83991251D01*
X154738377Y-83991252D01*
X154709874Y-84019757D01*
X154349132Y-84380499D01*
X154237000Y-84380499D01*
X154237000Y-84348008D01*
X154198803Y-84295435D01*
X154152838Y-84280500D01*
X154121162Y-84280500D01*
X154075197Y-84295435D01*
X154037000Y-84348008D01*
X154037000Y-84412992D01*
X153892375Y-84412992D01*
X153924868Y-84380499D01*
X153577347Y-84032978D01*
X153577345Y-84032978D01*
X153550092Y-84072463D01*
X153550088Y-84072471D01*
X153493427Y-84221874D01*
X153474167Y-84380497D01*
X153474167Y-84380502D01*
X115316500Y-84380502D01*
X115316500Y-83820141D01*
X153788774Y-83820141D01*
X154136999Y-84168367D01*
X154482225Y-83823141D01*
X154524496Y-83780872D01*
X154809876Y-83495492D01*
X154954500Y-83495492D01*
X154992697Y-83548065D01*
X155038662Y-83563000D01*
X155070338Y-83563000D01*
X155116303Y-83548065D01*
X155154500Y-83495492D01*
X155154500Y-83462999D01*
X155266632Y-83462999D01*
X155655882Y-83852249D01*
X155971999Y-84168367D01*
X156317225Y-83823141D01*
X156359496Y-83780872D01*
X156644876Y-83495492D01*
X156789500Y-83495492D01*
X156827697Y-83548065D01*
X156873662Y-83563000D01*
X156905338Y-83563000D01*
X156951303Y-83548065D01*
X156989500Y-83495492D01*
X156989500Y-83462999D01*
X157101632Y-83462999D01*
X157490882Y-83852249D01*
X157806999Y-84168367D01*
X158155224Y-83820141D01*
X158042039Y-83760738D01*
X157886898Y-83722500D01*
X157727106Y-83722500D01*
X157727096Y-83722501D01*
X157691695Y-83731226D01*
X157620767Y-83728106D01*
X157562785Y-83687135D01*
X157536159Y-83621321D01*
X157536463Y-83593699D01*
X157552333Y-83463002D01*
X157552333Y-83462997D01*
X157533072Y-83304374D01*
X157476411Y-83154971D01*
X157476408Y-83154965D01*
X157449152Y-83115478D01*
X157101632Y-83462999D01*
X156989500Y-83462999D01*
X156989500Y-83430508D01*
X156951303Y-83377935D01*
X156905338Y-83363000D01*
X156873662Y-83363000D01*
X156827697Y-83377935D01*
X156789500Y-83430508D01*
X156789500Y-83495492D01*
X156644876Y-83495492D01*
X156677368Y-83463000D01*
X156677368Y-83462999D01*
X156329847Y-83115478D01*
X156329845Y-83115478D01*
X156302592Y-83154963D01*
X156302588Y-83154971D01*
X156245927Y-83304374D01*
X156226667Y-83462997D01*
X156226667Y-83463003D01*
X156242536Y-83593700D01*
X156230891Y-83663735D01*
X156183230Y-83716356D01*
X156114687Y-83734857D01*
X156087303Y-83731226D01*
X156051901Y-83722500D01*
X155892106Y-83722500D01*
X155892096Y-83722501D01*
X155856695Y-83731226D01*
X155785767Y-83728106D01*
X155727785Y-83687135D01*
X155701159Y-83621321D01*
X155701463Y-83593699D01*
X155717333Y-83463002D01*
X155717333Y-83462997D01*
X155698072Y-83304374D01*
X155641411Y-83154971D01*
X155641408Y-83154965D01*
X155614152Y-83115478D01*
X155266632Y-83462999D01*
X155154500Y-83462999D01*
X155154500Y-83430508D01*
X155116303Y-83377935D01*
X155070338Y-83363000D01*
X155038662Y-83363000D01*
X154992697Y-83377935D01*
X154954500Y-83430508D01*
X154954500Y-83495492D01*
X154809876Y-83495492D01*
X154842368Y-83463000D01*
X154842368Y-83462999D01*
X154494847Y-83115478D01*
X154494845Y-83115478D01*
X154467592Y-83154963D01*
X154467588Y-83154971D01*
X154410927Y-83304374D01*
X154391667Y-83462997D01*
X154391667Y-83463003D01*
X154407536Y-83593700D01*
X154395891Y-83663735D01*
X154348230Y-83716356D01*
X154279687Y-83734857D01*
X154252303Y-83731226D01*
X154216901Y-83722500D01*
X154057101Y-83722500D01*
X153901956Y-83760740D01*
X153788774Y-83820141D01*
X115316500Y-83820141D01*
X115316500Y-64150649D01*
X121927500Y-64150649D01*
X121934009Y-64211196D01*
X121934011Y-64211204D01*
X121985110Y-64348202D01*
X121985112Y-64348207D01*
X122072738Y-64465261D01*
X122189792Y-64552887D01*
X122189794Y-64552888D01*
X122189796Y-64552889D01*
X122248875Y-64574924D01*
X122326795Y-64603988D01*
X122326803Y-64603990D01*
X122387350Y-64610499D01*
X122387355Y-64610499D01*
X122387362Y-64610500D01*
X122387368Y-64610500D01*
X123484632Y-64610500D01*
X123484638Y-64610500D01*
X123484645Y-64610499D01*
X123484649Y-64610499D01*
X123545196Y-64603990D01*
X123545199Y-64603989D01*
X123545201Y-64603989D01*
X123682204Y-64552889D01*
X123799261Y-64465261D01*
X123886889Y-64348204D01*
X123937989Y-64211201D01*
X123944500Y-64150638D01*
X123944500Y-63053362D01*
X123939799Y-63009633D01*
X123937990Y-62992803D01*
X123937988Y-62992795D01*
X123886889Y-62855797D01*
X123886887Y-62855792D01*
X123799261Y-62738738D01*
X123682207Y-62651112D01*
X123682202Y-62651110D01*
X123545204Y-62600011D01*
X123545196Y-62600009D01*
X123484649Y-62593500D01*
X123484638Y-62593500D01*
X122387362Y-62593500D01*
X122387350Y-62593500D01*
X122326803Y-62600009D01*
X122326795Y-62600011D01*
X122189797Y-62651110D01*
X122189792Y-62651112D01*
X122072738Y-62738738D01*
X121985112Y-62855792D01*
X121985110Y-62855797D01*
X121934011Y-62992795D01*
X121934009Y-62992803D01*
X121927500Y-63053350D01*
X121927500Y-64150649D01*
X115316500Y-64150649D01*
X115316500Y-61214003D01*
X117116654Y-61214003D01*
X117136016Y-61509421D01*
X117136018Y-61509435D01*
X117193776Y-61799795D01*
X117193778Y-61799805D01*
X117288938Y-62080137D01*
X117288944Y-62080151D01*
X117419883Y-62345670D01*
X117584359Y-62591827D01*
X117584361Y-62591830D01*
X117584367Y-62591838D01*
X117779573Y-62814427D01*
X118002162Y-63009633D01*
X118002170Y-63009638D01*
X118002172Y-63009640D01*
X118121840Y-63089599D01*
X118248327Y-63174115D01*
X118513855Y-63305059D01*
X118794203Y-63400224D01*
X119084574Y-63457983D01*
X119253388Y-63469047D01*
X119379997Y-63477346D01*
X119380000Y-63477346D01*
X119380003Y-63477346D01*
X119490784Y-63470084D01*
X119675426Y-63457983D01*
X119965797Y-63400224D01*
X120246145Y-63305059D01*
X120511673Y-63174115D01*
X120757838Y-63009633D01*
X120980427Y-62814427D01*
X121175633Y-62591838D01*
X121340115Y-62345673D01*
X121471059Y-62080145D01*
X121566224Y-61799797D01*
X121623983Y-61509426D01*
X121643346Y-61214000D01*
X121623983Y-60918574D01*
X121566224Y-60628203D01*
X121471059Y-60347855D01*
X121340115Y-60082327D01*
X121175633Y-59836162D01*
X120980427Y-59613573D01*
X120757838Y-59418367D01*
X120757830Y-59418361D01*
X120757827Y-59418359D01*
X120511670Y-59253883D01*
X120246151Y-59122944D01*
X120246145Y-59122941D01*
X120246140Y-59122939D01*
X120246137Y-59122938D01*
X119965805Y-59027778D01*
X119965799Y-59027776D01*
X119965797Y-59027776D01*
X119868566Y-59008435D01*
X119675435Y-58970018D01*
X119675421Y-58970016D01*
X119380003Y-58950654D01*
X119379997Y-58950654D01*
X119084578Y-58970016D01*
X119084564Y-58970018D01*
X118842818Y-59018105D01*
X118794203Y-59027776D01*
X118794201Y-59027776D01*
X118794194Y-59027778D01*
X118513862Y-59122938D01*
X118513848Y-59122944D01*
X118248329Y-59253883D01*
X118002172Y-59418359D01*
X118002165Y-59418364D01*
X118002162Y-59418367D01*
X117779573Y-59613573D01*
X117584367Y-59836162D01*
X117584364Y-59836165D01*
X117584359Y-59836172D01*
X117419883Y-60082329D01*
X117288944Y-60347848D01*
X117288938Y-60347862D01*
X117193778Y-60628194D01*
X117193776Y-60628204D01*
X117136018Y-60918564D01*
X117136016Y-60918578D01*
X117116654Y-61213996D01*
X117116654Y-61214003D01*
X115316500Y-61214003D01*
X115316500Y-58546500D01*
X115336502Y-58478379D01*
X115390158Y-58431886D01*
X115442500Y-58420500D01*
X132462000Y-58420500D01*
X132530121Y-58440502D01*
G37*
G04 #@! TD.AperFunction*
M02*
