G04 #@! TF.GenerationSoftware,KiCad,Pcbnew,7.0.8*
G04 #@! TF.CreationDate,2023-10-19T15:12:35+02:00*
G04 #@! TF.ProjectId,ESP32-aqs,45535033-322d-4617-9173-2e6b69636164,rev?*
G04 #@! TF.SameCoordinates,Original*
G04 #@! TF.FileFunction,Copper,L2,Bot*
G04 #@! TF.FilePolarity,Positive*
%FSLAX46Y46*%
G04 Gerber Fmt 4.6, Leading zero omitted, Abs format (unit mm)*
G04 Created by KiCad (PCBNEW 7.0.8) date 2023-10-19 15:12:35*
%MOMM*%
%LPD*%
G01*
G04 APERTURE LIST*
G04 #@! TA.AperFunction,ComponentPad*
%ADD10C,3.500000*%
G04 #@! TD*
G04 #@! TA.AperFunction,ComponentPad*
%ADD11C,2.000000*%
G04 #@! TD*
G04 #@! TA.AperFunction,ComponentPad*
%ADD12C,0.300000*%
G04 #@! TD*
G04 #@! TA.AperFunction,ComponentPad*
%ADD13R,1.000000X1.000000*%
G04 #@! TD*
G04 #@! TA.AperFunction,ComponentPad*
%ADD14R,2.200000X2.200000*%
G04 #@! TD*
G04 #@! TA.AperFunction,ComponentPad*
%ADD15C,2.200000*%
G04 #@! TD*
G04 #@! TA.AperFunction,ViaPad*
%ADD16C,0.800000*%
G04 #@! TD*
G04 #@! TA.AperFunction,Conductor*
%ADD17C,0.250000*%
G04 #@! TD*
G04 APERTURE END LIST*
D10*
X173736000Y-105156000D03*
D11*
X139482000Y-105612000D03*
X139482000Y-99112000D03*
X143982000Y-105612000D03*
X143982000Y-99112000D03*
D12*
X154727500Y-72530000D03*
X156562500Y-72530000D03*
X153810000Y-73447500D03*
X155645000Y-73447500D03*
X157480000Y-73447500D03*
X154727500Y-74365000D03*
X156562500Y-74365000D03*
X153810000Y-75282500D03*
X155645000Y-75282500D03*
X157480000Y-75282500D03*
X154727500Y-76200000D03*
X156562500Y-76200000D03*
D10*
X135890000Y-68580000D03*
D13*
X140462000Y-72644000D03*
D14*
X183388000Y-80772000D03*
D15*
X183388000Y-78232000D03*
X183388000Y-75692000D03*
X183388000Y-73152000D03*
X183388000Y-70612000D03*
X183388000Y-68072000D03*
D11*
X172824000Y-86106000D03*
X179324000Y-86106000D03*
X172824000Y-90606000D03*
X179324000Y-90606000D03*
D16*
X139446000Y-89154000D03*
X165100000Y-89408000D03*
X182324000Y-97850000D03*
X173687000Y-77749000D03*
X169672000Y-73660000D03*
X148336000Y-68072000D03*
X169672000Y-68580000D03*
X175768000Y-76708000D03*
X146050000Y-90678000D03*
X173309075Y-76199500D03*
X169418000Y-71882000D03*
X171450000Y-100350000D03*
X166116000Y-85852000D03*
X148590000Y-89408000D03*
X173941000Y-74447000D03*
X162052000Y-87122000D03*
X164592000Y-87122000D03*
X166878000Y-83312000D03*
D17*
X162315305Y-90424000D02*
X165317000Y-87422305D01*
X139446000Y-89154000D02*
X145551305Y-89154000D01*
X165317000Y-83468091D02*
X166235091Y-82550000D01*
X146812000Y-90414695D02*
X147056695Y-90414695D01*
X184912000Y-82550000D02*
X185928000Y-81534000D01*
X166235091Y-82550000D02*
X184912000Y-82550000D01*
X165317000Y-87422305D02*
X165317000Y-83468091D01*
X145551305Y-89154000D02*
X146812000Y-90414695D01*
X147056695Y-90414695D02*
X147066000Y-90424000D01*
X185928000Y-75692000D02*
X183388000Y-73152000D01*
X185928000Y-81534000D02*
X185928000Y-75692000D01*
X147066000Y-90424000D02*
X162315305Y-90424000D01*
X173687000Y-77011000D02*
X173990000Y-76708000D01*
X173687000Y-77749000D02*
X173687000Y-77011000D01*
X173990000Y-76708000D02*
X175768000Y-76708000D01*
X149098000Y-67310000D02*
X148336000Y-68072000D01*
X169672000Y-68580000D02*
X168402000Y-67310000D01*
X168148000Y-70104000D02*
X168148000Y-72136000D01*
X168148000Y-72136000D02*
X169672000Y-73660000D01*
X168402000Y-67310000D02*
X149098000Y-67310000D01*
X169672000Y-68580000D02*
X168148000Y-70104000D01*
X146050000Y-97044000D02*
X143982000Y-99112000D01*
X146050000Y-90678000D02*
X146050000Y-97044000D01*
X173309075Y-76199500D02*
X173562575Y-75946000D01*
X173562575Y-75946000D02*
X181102000Y-75946000D01*
X181102000Y-75946000D02*
X183388000Y-78232000D01*
X183388000Y-75692000D02*
X181356000Y-73660000D01*
X173990000Y-71882000D02*
X169418000Y-71882000D01*
X175768000Y-73660000D02*
X173990000Y-71882000D01*
X181356000Y-73660000D02*
X175768000Y-73660000D01*
X171450000Y-100350000D02*
X169692000Y-100350000D01*
X167894000Y-87630000D02*
X166116000Y-85852000D01*
X167894000Y-98552000D02*
X167894000Y-87630000D01*
X169692000Y-100350000D02*
X167894000Y-98552000D01*
X173941000Y-74447000D02*
X173701695Y-74447000D01*
X173701695Y-74447000D02*
X160772695Y-87376000D01*
X160772695Y-87376000D02*
X150622000Y-87376000D01*
X150622000Y-87376000D02*
X148590000Y-89408000D01*
X162052000Y-87122000D02*
X164592000Y-87122000D01*
X166878000Y-83312000D02*
X170030000Y-83312000D01*
X170030000Y-83312000D02*
X172824000Y-86106000D01*
G04 #@! TA.AperFunction,Conductor*
G36*
X187394539Y-66060185D02*
G01*
X187440294Y-66112989D01*
X187451500Y-66164500D01*
X187451500Y-107825500D01*
X187431815Y-107892539D01*
X187379011Y-107938294D01*
X187327500Y-107949500D01*
X133474500Y-107949500D01*
X133407461Y-107929815D01*
X133361706Y-107877011D01*
X133350500Y-107825500D01*
X133350500Y-105612005D01*
X137976859Y-105612005D01*
X137997385Y-105859729D01*
X137997387Y-105859738D01*
X138058412Y-106100717D01*
X138158266Y-106328364D01*
X138258564Y-106481882D01*
X138956070Y-105784376D01*
X138958884Y-105797915D01*
X139028442Y-105932156D01*
X139131638Y-106042652D01*
X139260819Y-106121209D01*
X139312002Y-106135549D01*
X138611942Y-106835609D01*
X138658768Y-106872055D01*
X138658770Y-106872056D01*
X138877385Y-106990364D01*
X138877396Y-106990369D01*
X139112506Y-107071083D01*
X139357707Y-107112000D01*
X139606293Y-107112000D01*
X139851493Y-107071083D01*
X140086603Y-106990369D01*
X140086614Y-106990364D01*
X140305228Y-106872057D01*
X140305231Y-106872055D01*
X140352056Y-106835609D01*
X139653568Y-106137121D01*
X139770458Y-106086349D01*
X139887739Y-105990934D01*
X139974928Y-105867415D01*
X140005354Y-105781802D01*
X140705434Y-106481882D01*
X140805731Y-106328369D01*
X140905587Y-106100717D01*
X140966612Y-105859738D01*
X140966614Y-105859729D01*
X140987141Y-105612005D01*
X140987141Y-105612000D01*
X142468835Y-105612000D01*
X142487465Y-105848714D01*
X142542895Y-106079595D01*
X142542895Y-106079597D01*
X142633757Y-106298959D01*
X142633759Y-106298962D01*
X142757820Y-106501410D01*
X142757821Y-106501413D01*
X142757824Y-106501416D01*
X142912031Y-106681969D01*
X142999210Y-106756427D01*
X143092586Y-106836178D01*
X143092589Y-106836179D01*
X143295037Y-106960240D01*
X143295040Y-106960242D01*
X143514403Y-107051104D01*
X143514404Y-107051104D01*
X143514406Y-107051105D01*
X143745289Y-107106535D01*
X143982000Y-107125165D01*
X144218711Y-107106535D01*
X144449594Y-107051105D01*
X144449596Y-107051104D01*
X144449597Y-107051104D01*
X144668959Y-106960242D01*
X144668960Y-106960241D01*
X144668963Y-106960240D01*
X144871416Y-106836176D01*
X145051969Y-106681969D01*
X145206176Y-106501416D01*
X145330240Y-106298963D01*
X145334915Y-106287678D01*
X145421104Y-106079597D01*
X145421104Y-106079596D01*
X145421105Y-106079594D01*
X145476535Y-105848711D01*
X145495165Y-105612000D01*
X145476535Y-105375289D01*
X145423888Y-105156000D01*
X171472654Y-105156000D01*
X171492017Y-105451424D01*
X171492018Y-105451436D01*
X171549774Y-105741789D01*
X171549779Y-105741809D01*
X171644937Y-106022137D01*
X171644941Y-106022147D01*
X171775879Y-106287663D01*
X171775888Y-106287678D01*
X171803074Y-106328364D01*
X171918703Y-106501416D01*
X171940368Y-106533839D01*
X172135572Y-106756427D01*
X172225862Y-106835609D01*
X172358162Y-106951633D01*
X172604327Y-107116115D01*
X172604330Y-107116116D01*
X172604336Y-107116120D01*
X172869852Y-107247058D01*
X172869862Y-107247062D01*
X173150190Y-107342220D01*
X173150194Y-107342221D01*
X173150203Y-107342224D01*
X173346493Y-107381269D01*
X173440563Y-107399981D01*
X173440564Y-107399981D01*
X173440574Y-107399983D01*
X173736000Y-107419346D01*
X174031426Y-107399983D01*
X174321797Y-107342224D01*
X174321809Y-107342220D01*
X174602137Y-107247062D01*
X174602147Y-107247058D01*
X174867663Y-107116120D01*
X174867663Y-107116119D01*
X174867673Y-107116115D01*
X175113838Y-106951633D01*
X175336427Y-106756427D01*
X175531633Y-106533838D01*
X175696115Y-106287673D01*
X175827059Y-106022145D01*
X175846270Y-105965553D01*
X175922220Y-105741809D01*
X175922220Y-105741808D01*
X175922224Y-105741797D01*
X175979983Y-105451426D01*
X175999346Y-105156000D01*
X175979983Y-104860574D01*
X175922224Y-104570203D01*
X175912661Y-104542031D01*
X175827062Y-104289862D01*
X175827058Y-104289852D01*
X175696120Y-104024336D01*
X175696111Y-104024321D01*
X175693894Y-104021003D01*
X175531633Y-103778162D01*
X175488864Y-103729393D01*
X175336427Y-103555572D01*
X175113839Y-103360368D01*
X174867678Y-103195888D01*
X174867663Y-103195879D01*
X174602147Y-103064941D01*
X174602137Y-103064937D01*
X174321809Y-102969779D01*
X174321789Y-102969774D01*
X174031436Y-102912018D01*
X174031427Y-102912017D01*
X174031426Y-102912017D01*
X173736000Y-102892654D01*
X173440574Y-102912017D01*
X173440573Y-102912017D01*
X173440563Y-102912018D01*
X173150210Y-102969774D01*
X173150190Y-102969779D01*
X172869862Y-103064937D01*
X172869852Y-103064941D01*
X172604336Y-103195879D01*
X172604321Y-103195888D01*
X172358160Y-103360368D01*
X172135572Y-103555572D01*
X171940368Y-103778160D01*
X171775888Y-104024321D01*
X171775879Y-104024336D01*
X171644941Y-104289852D01*
X171644937Y-104289862D01*
X171549779Y-104570190D01*
X171549774Y-104570210D01*
X171492018Y-104860563D01*
X171492017Y-104860575D01*
X171472654Y-105156000D01*
X145423888Y-105156000D01*
X145421105Y-105144406D01*
X145421104Y-105144403D01*
X145421104Y-105144402D01*
X145330242Y-104925040D01*
X145330240Y-104925037D01*
X145206179Y-104722589D01*
X145206178Y-104722586D01*
X145171340Y-104681797D01*
X145051969Y-104542031D01*
X144872078Y-104388389D01*
X144871413Y-104387821D01*
X144871410Y-104387820D01*
X144668962Y-104263759D01*
X144668959Y-104263757D01*
X144449596Y-104172895D01*
X144218714Y-104117465D01*
X143982000Y-104098835D01*
X143745285Y-104117465D01*
X143514404Y-104172895D01*
X143514402Y-104172895D01*
X143295040Y-104263757D01*
X143295037Y-104263759D01*
X143092589Y-104387820D01*
X143092586Y-104387821D01*
X142912031Y-104542031D01*
X142757821Y-104722586D01*
X142757820Y-104722589D01*
X142633759Y-104925037D01*
X142633757Y-104925040D01*
X142542895Y-105144402D01*
X142542895Y-105144404D01*
X142487465Y-105375285D01*
X142468835Y-105612000D01*
X140987141Y-105612000D01*
X140987141Y-105611994D01*
X140966614Y-105364270D01*
X140966612Y-105364261D01*
X140905587Y-105123282D01*
X140805731Y-104895630D01*
X140705434Y-104742116D01*
X140007929Y-105439622D01*
X140005116Y-105426085D01*
X139935558Y-105291844D01*
X139832362Y-105181348D01*
X139703181Y-105102791D01*
X139651997Y-105088450D01*
X140352057Y-104388390D01*
X140352056Y-104388389D01*
X140305229Y-104351943D01*
X140086614Y-104233635D01*
X140086603Y-104233630D01*
X139851493Y-104152916D01*
X139606293Y-104112000D01*
X139357707Y-104112000D01*
X139112506Y-104152916D01*
X138877396Y-104233630D01*
X138877390Y-104233632D01*
X138658761Y-104351949D01*
X138611942Y-104388388D01*
X138611942Y-104388390D01*
X139310431Y-105086878D01*
X139193542Y-105137651D01*
X139076261Y-105233066D01*
X138989072Y-105356585D01*
X138958645Y-105442197D01*
X138258564Y-104742116D01*
X138158267Y-104895632D01*
X138058412Y-105123282D01*
X137997387Y-105364261D01*
X137997385Y-105364270D01*
X137976859Y-105611994D01*
X137976859Y-105612005D01*
X133350500Y-105612005D01*
X133350500Y-99112005D01*
X137976859Y-99112005D01*
X137997385Y-99359729D01*
X137997387Y-99359738D01*
X138058412Y-99600717D01*
X138158266Y-99828364D01*
X138258564Y-99981882D01*
X138956070Y-99284376D01*
X138958884Y-99297915D01*
X139028442Y-99432156D01*
X139131638Y-99542652D01*
X139260819Y-99621209D01*
X139312002Y-99635549D01*
X138611942Y-100335609D01*
X138658768Y-100372055D01*
X138658770Y-100372056D01*
X138877385Y-100490364D01*
X138877396Y-100490369D01*
X139112506Y-100571083D01*
X139357707Y-100612000D01*
X139606293Y-100612000D01*
X139851493Y-100571083D01*
X140086603Y-100490369D01*
X140086614Y-100490364D01*
X140305228Y-100372057D01*
X140305231Y-100372055D01*
X140352056Y-100335609D01*
X139653568Y-99637121D01*
X139770458Y-99586349D01*
X139887739Y-99490934D01*
X139974928Y-99367415D01*
X140005354Y-99281802D01*
X140705434Y-99981882D01*
X140805731Y-99828369D01*
X140905587Y-99600717D01*
X140966612Y-99359738D01*
X140966614Y-99359729D01*
X140987141Y-99112005D01*
X140987141Y-99111994D01*
X140966614Y-98864270D01*
X140966612Y-98864261D01*
X140905587Y-98623282D01*
X140805731Y-98395630D01*
X140705434Y-98242116D01*
X140007929Y-98939622D01*
X140005116Y-98926085D01*
X139935558Y-98791844D01*
X139832362Y-98681348D01*
X139703181Y-98602791D01*
X139651997Y-98588450D01*
X140352057Y-97888390D01*
X140352056Y-97888389D01*
X140305229Y-97851943D01*
X140086614Y-97733635D01*
X140086603Y-97733630D01*
X139851493Y-97652916D01*
X139606293Y-97612000D01*
X139357707Y-97612000D01*
X139112506Y-97652916D01*
X138877396Y-97733630D01*
X138877390Y-97733632D01*
X138658761Y-97851949D01*
X138611942Y-97888388D01*
X138611942Y-97888390D01*
X139310431Y-98586878D01*
X139193542Y-98637651D01*
X139076261Y-98733066D01*
X138989072Y-98856585D01*
X138958645Y-98942197D01*
X138258564Y-98242116D01*
X138158267Y-98395632D01*
X138058412Y-98623282D01*
X137997387Y-98864261D01*
X137997385Y-98864270D01*
X137976859Y-99111994D01*
X137976859Y-99112005D01*
X133350500Y-99112005D01*
X133350500Y-89154000D01*
X138532496Y-89154000D01*
X138552458Y-89343928D01*
X138552459Y-89343931D01*
X138611470Y-89525549D01*
X138611473Y-89525556D01*
X138706960Y-89690944D01*
X138834747Y-89832866D01*
X138989248Y-89945118D01*
X139163712Y-90022794D01*
X139350513Y-90062500D01*
X139541487Y-90062500D01*
X139728288Y-90022794D01*
X139902752Y-89945118D01*
X140057253Y-89832866D01*
X140061160Y-89828527D01*
X140120646Y-89791879D01*
X140153309Y-89787500D01*
X145237539Y-89787500D01*
X145304578Y-89807185D01*
X145325218Y-89823818D01*
X145384815Y-89883415D01*
X145418300Y-89944737D01*
X145413316Y-90014429D01*
X145389285Y-90054066D01*
X145310958Y-90141057D01*
X145215473Y-90306443D01*
X145215470Y-90306450D01*
X145178548Y-90420085D01*
X145156458Y-90488072D01*
X145136496Y-90678000D01*
X145156458Y-90867928D01*
X145156459Y-90867931D01*
X145215470Y-91049549D01*
X145215473Y-91049556D01*
X145276928Y-91156000D01*
X145310960Y-91214944D01*
X145384649Y-91296784D01*
X145414880Y-91359775D01*
X145416500Y-91379756D01*
X145416500Y-96730232D01*
X145396815Y-96797271D01*
X145380181Y-96817913D01*
X144559666Y-97638427D01*
X144498343Y-97671912D01*
X144443038Y-97671320D01*
X144218714Y-97617465D01*
X143982000Y-97598835D01*
X143745285Y-97617465D01*
X143514404Y-97672895D01*
X143514402Y-97672895D01*
X143295040Y-97763757D01*
X143295037Y-97763759D01*
X143092589Y-97887820D01*
X143092586Y-97887821D01*
X142912031Y-98042031D01*
X142757821Y-98222586D01*
X142757820Y-98222589D01*
X142633759Y-98425037D01*
X142633757Y-98425040D01*
X142542897Y-98644400D01*
X142542895Y-98644404D01*
X142487465Y-98875285D01*
X142468835Y-99112000D01*
X142487465Y-99348714D01*
X142542895Y-99579595D01*
X142542895Y-99579597D01*
X142633757Y-99798959D01*
X142633759Y-99798962D01*
X142757820Y-100001410D01*
X142757821Y-100001413D01*
X142757824Y-100001416D01*
X142912031Y-100181969D01*
X143051797Y-100301340D01*
X143092586Y-100336178D01*
X143092589Y-100336179D01*
X143295037Y-100460240D01*
X143295040Y-100460242D01*
X143514403Y-100551104D01*
X143514404Y-100551104D01*
X143514406Y-100551105D01*
X143745289Y-100606535D01*
X143982000Y-100625165D01*
X144218711Y-100606535D01*
X144449594Y-100551105D01*
X144449596Y-100551104D01*
X144449597Y-100551104D01*
X144668959Y-100460242D01*
X144668960Y-100460241D01*
X144668963Y-100460240D01*
X144871416Y-100336176D01*
X145051969Y-100181969D01*
X145206176Y-100001416D01*
X145330240Y-99798963D01*
X145421105Y-99579594D01*
X145476535Y-99348711D01*
X145495165Y-99112000D01*
X145476535Y-98875289D01*
X145422678Y-98650958D01*
X145426169Y-98581177D01*
X145455569Y-98534333D01*
X146438815Y-97551087D01*
X146451180Y-97541183D01*
X146451006Y-97540973D01*
X146457012Y-97536003D01*
X146457018Y-97536000D01*
X146504999Y-97484904D01*
X146526135Y-97463769D01*
X146530458Y-97458195D01*
X146534257Y-97453747D01*
X146566585Y-97419322D01*
X146576420Y-97401432D01*
X146587098Y-97385174D01*
X146599614Y-97369040D01*
X146618374Y-97325686D01*
X146620935Y-97320458D01*
X146643695Y-97279060D01*
X146648774Y-97259274D01*
X146655072Y-97240882D01*
X146663181Y-97222145D01*
X146670569Y-97175497D01*
X146671751Y-97169786D01*
X146683500Y-97124030D01*
X146683500Y-97103615D01*
X146685027Y-97084214D01*
X146688220Y-97064057D01*
X146683775Y-97017033D01*
X146683500Y-97011195D01*
X146683500Y-91379756D01*
X146703185Y-91312717D01*
X146715346Y-91296788D01*
X146789040Y-91214944D01*
X146846570Y-91115298D01*
X146897134Y-91067086D01*
X146965741Y-91053862D01*
X146984782Y-91057195D01*
X146985970Y-91057500D01*
X147006384Y-91057500D01*
X147025783Y-91059027D01*
X147045943Y-91062220D01*
X147092966Y-91057775D01*
X147098804Y-91057500D01*
X162231671Y-91057500D01*
X162247418Y-91059238D01*
X162247444Y-91058968D01*
X162255210Y-91059701D01*
X162255214Y-91059702D01*
X162325263Y-91057500D01*
X162355161Y-91057500D01*
X162355162Y-91057500D01*
X162356527Y-91057327D01*
X162362167Y-91056614D01*
X162367990Y-91056156D01*
X162394013Y-91055338D01*
X162415195Y-91054673D01*
X162424986Y-91051827D01*
X162434786Y-91048980D01*
X162453843Y-91045032D01*
X162474102Y-91042474D01*
X162518026Y-91025082D01*
X162523526Y-91023199D01*
X162568898Y-91010018D01*
X162586470Y-90999625D01*
X162603937Y-90991068D01*
X162622922Y-90983552D01*
X162661131Y-90955790D01*
X162666009Y-90952585D01*
X162706667Y-90928542D01*
X162721107Y-90914100D01*
X162735897Y-90901470D01*
X162752412Y-90889472D01*
X162782527Y-90853067D01*
X162786431Y-90848776D01*
X165705817Y-87929391D01*
X165718178Y-87919490D01*
X165718004Y-87919280D01*
X165724013Y-87914307D01*
X165724018Y-87914305D01*
X165771983Y-87863226D01*
X165793135Y-87842075D01*
X165797461Y-87836497D01*
X165801250Y-87832060D01*
X165833586Y-87797626D01*
X165843419Y-87779737D01*
X165854102Y-87763474D01*
X165866614Y-87747346D01*
X165885371Y-87703996D01*
X165887941Y-87698752D01*
X165888421Y-87697880D01*
X165910695Y-87657365D01*
X165915774Y-87637578D01*
X165922070Y-87619190D01*
X165930181Y-87600450D01*
X165937569Y-87553802D01*
X165938751Y-87548091D01*
X165950500Y-87502335D01*
X165950500Y-87481920D01*
X165952027Y-87462519D01*
X165953338Y-87454242D01*
X165955220Y-87442362D01*
X165950775Y-87395338D01*
X165950500Y-87389500D01*
X165950500Y-86884500D01*
X165970185Y-86817461D01*
X166022989Y-86771706D01*
X166074500Y-86760500D01*
X166077234Y-86760500D01*
X166144273Y-86780185D01*
X166164915Y-86796819D01*
X167224181Y-87856085D01*
X167257666Y-87917408D01*
X167260500Y-87943766D01*
X167260500Y-98468366D01*
X167258761Y-98484113D01*
X167259032Y-98484139D01*
X167258298Y-98491905D01*
X167260500Y-98561957D01*
X167260500Y-98591859D01*
X167261384Y-98598856D01*
X167261842Y-98604679D01*
X167263326Y-98651889D01*
X167263327Y-98651891D01*
X167269022Y-98671495D01*
X167272967Y-98690542D01*
X167275526Y-98710797D01*
X167275527Y-98710800D01*
X167275528Y-98710803D01*
X167292914Y-98754716D01*
X167294806Y-98760244D01*
X167307981Y-98805592D01*
X167318372Y-98823162D01*
X167326932Y-98840635D01*
X167334447Y-98859617D01*
X167362209Y-98897827D01*
X167365418Y-98902712D01*
X167379240Y-98926085D01*
X167389458Y-98943362D01*
X167389462Y-98943366D01*
X167403889Y-98957793D01*
X167416526Y-98972588D01*
X167428528Y-98989107D01*
X167464931Y-99019222D01*
X167469231Y-99023135D01*
X168781704Y-100335609D01*
X169184912Y-100738817D01*
X169194819Y-100751183D01*
X169195029Y-100751010D01*
X169199996Y-100757015D01*
X169251079Y-100804984D01*
X169272224Y-100826130D01*
X169277813Y-100830466D01*
X169282245Y-100834252D01*
X169314159Y-100864220D01*
X169316680Y-100866587D01*
X169334562Y-100876417D01*
X169350829Y-100887102D01*
X169366960Y-100899615D01*
X169388838Y-100909081D01*
X169410307Y-100918371D01*
X169415533Y-100920931D01*
X169456940Y-100943695D01*
X169476716Y-100948772D01*
X169495124Y-100955075D01*
X169513850Y-100963179D01*
X169513852Y-100963180D01*
X169513853Y-100963180D01*
X169513855Y-100963181D01*
X169554784Y-100969663D01*
X169560503Y-100970569D01*
X169566212Y-100971751D01*
X169611970Y-100983500D01*
X169632384Y-100983500D01*
X169651783Y-100985027D01*
X169671943Y-100988220D01*
X169718966Y-100983775D01*
X169724804Y-100983500D01*
X170742691Y-100983500D01*
X170809730Y-101003185D01*
X170834840Y-101024527D01*
X170838747Y-101028866D01*
X170993248Y-101141118D01*
X171167712Y-101218794D01*
X171354513Y-101258500D01*
X171545487Y-101258500D01*
X171732288Y-101218794D01*
X171906752Y-101141118D01*
X172061253Y-101028866D01*
X172189040Y-100886944D01*
X172284527Y-100721556D01*
X172343542Y-100539928D01*
X172363504Y-100350000D01*
X172343542Y-100160072D01*
X172284527Y-99978444D01*
X172189040Y-99813056D01*
X172061253Y-99671134D01*
X171906752Y-99558882D01*
X171732288Y-99481206D01*
X171732286Y-99481205D01*
X171545487Y-99441500D01*
X171354513Y-99441500D01*
X171167714Y-99481205D01*
X170993246Y-99558883D01*
X170838745Y-99671135D01*
X170834840Y-99675473D01*
X170775354Y-99712121D01*
X170742691Y-99716500D01*
X170005766Y-99716500D01*
X169938727Y-99696815D01*
X169918085Y-99680181D01*
X168563819Y-98325914D01*
X168530334Y-98264591D01*
X168527500Y-98238233D01*
X168527500Y-90606005D01*
X171318859Y-90606005D01*
X171339385Y-90853729D01*
X171339387Y-90853738D01*
X171400412Y-91094717D01*
X171500266Y-91322364D01*
X171600564Y-91475882D01*
X172298070Y-90778376D01*
X172300884Y-90791915D01*
X172370442Y-90926156D01*
X172473638Y-91036652D01*
X172602819Y-91115209D01*
X172654002Y-91129549D01*
X171953942Y-91829609D01*
X172000768Y-91866055D01*
X172000770Y-91866056D01*
X172219385Y-91984364D01*
X172219396Y-91984369D01*
X172454506Y-92065083D01*
X172699707Y-92106000D01*
X172948293Y-92106000D01*
X173193493Y-92065083D01*
X173428603Y-91984369D01*
X173428614Y-91984364D01*
X173647228Y-91866057D01*
X173647231Y-91866055D01*
X173694056Y-91829609D01*
X172995568Y-91131121D01*
X173112458Y-91080349D01*
X173229739Y-90984934D01*
X173316928Y-90861415D01*
X173347354Y-90775802D01*
X174047434Y-91475882D01*
X174147731Y-91322369D01*
X174247587Y-91094717D01*
X174308612Y-90853738D01*
X174308614Y-90853729D01*
X174329141Y-90606005D01*
X177818859Y-90606005D01*
X177839385Y-90853729D01*
X177839387Y-90853738D01*
X177900412Y-91094717D01*
X178000266Y-91322364D01*
X178100564Y-91475882D01*
X178798070Y-90778376D01*
X178800884Y-90791915D01*
X178870442Y-90926156D01*
X178973638Y-91036652D01*
X179102819Y-91115209D01*
X179154002Y-91129549D01*
X178453942Y-91829609D01*
X178500768Y-91866055D01*
X178500770Y-91866056D01*
X178719385Y-91984364D01*
X178719396Y-91984369D01*
X178954506Y-92065083D01*
X179199707Y-92106000D01*
X179448293Y-92106000D01*
X179693493Y-92065083D01*
X179928603Y-91984369D01*
X179928614Y-91984364D01*
X180147228Y-91866057D01*
X180147231Y-91866055D01*
X180194056Y-91829609D01*
X179495568Y-91131121D01*
X179612458Y-91080349D01*
X179729739Y-90984934D01*
X179816928Y-90861415D01*
X179847354Y-90775802D01*
X180547434Y-91475882D01*
X180647731Y-91322369D01*
X180747587Y-91094717D01*
X180808612Y-90853738D01*
X180808614Y-90853729D01*
X180829141Y-90606005D01*
X180829141Y-90605994D01*
X180808614Y-90358270D01*
X180808612Y-90358261D01*
X180747587Y-90117282D01*
X180647731Y-89889630D01*
X180547434Y-89736116D01*
X179849929Y-90433622D01*
X179847116Y-90420085D01*
X179777558Y-90285844D01*
X179674362Y-90175348D01*
X179545181Y-90096791D01*
X179493997Y-90082450D01*
X180194057Y-89382390D01*
X180194056Y-89382389D01*
X180147229Y-89345943D01*
X179928614Y-89227635D01*
X179928603Y-89227630D01*
X179693493Y-89146916D01*
X179448293Y-89106000D01*
X179199707Y-89106000D01*
X178954506Y-89146916D01*
X178719396Y-89227630D01*
X178719390Y-89227632D01*
X178500761Y-89345949D01*
X178453942Y-89382388D01*
X178453942Y-89382390D01*
X179152431Y-90080878D01*
X179035542Y-90131651D01*
X178918261Y-90227066D01*
X178831072Y-90350585D01*
X178800645Y-90436197D01*
X178100564Y-89736116D01*
X178000267Y-89889632D01*
X177900412Y-90117282D01*
X177839387Y-90358261D01*
X177839385Y-90358270D01*
X177818859Y-90605994D01*
X177818859Y-90606005D01*
X174329141Y-90606005D01*
X174329141Y-90605994D01*
X174308614Y-90358270D01*
X174308612Y-90358261D01*
X174247587Y-90117282D01*
X174147731Y-89889630D01*
X174047434Y-89736116D01*
X173349929Y-90433622D01*
X173347116Y-90420085D01*
X173277558Y-90285844D01*
X173174362Y-90175348D01*
X173045181Y-90096791D01*
X172993997Y-90082450D01*
X173694057Y-89382390D01*
X173694056Y-89382389D01*
X173647229Y-89345943D01*
X173428614Y-89227635D01*
X173428603Y-89227630D01*
X173193493Y-89146916D01*
X172948293Y-89106000D01*
X172699707Y-89106000D01*
X172454506Y-89146916D01*
X172219396Y-89227630D01*
X172219390Y-89227632D01*
X172000761Y-89345949D01*
X171953942Y-89382388D01*
X171953942Y-89382390D01*
X172652431Y-90080878D01*
X172535542Y-90131651D01*
X172418261Y-90227066D01*
X172331072Y-90350585D01*
X172300645Y-90436197D01*
X171600564Y-89736116D01*
X171500267Y-89889632D01*
X171400412Y-90117282D01*
X171339387Y-90358261D01*
X171339385Y-90358270D01*
X171318859Y-90605994D01*
X171318859Y-90606005D01*
X168527500Y-90606005D01*
X168527500Y-87713632D01*
X168529239Y-87697880D01*
X168528968Y-87697855D01*
X168529700Y-87690099D01*
X168529702Y-87690092D01*
X168527500Y-87620028D01*
X168527500Y-87590144D01*
X168526614Y-87583141D01*
X168526157Y-87577322D01*
X168525418Y-87553802D01*
X168524674Y-87530111D01*
X168518976Y-87510499D01*
X168515033Y-87491466D01*
X168512474Y-87471203D01*
X168495085Y-87427286D01*
X168493196Y-87421766D01*
X168480018Y-87376407D01*
X168469626Y-87358835D01*
X168461066Y-87341362D01*
X168453552Y-87322383D01*
X168425794Y-87284179D01*
X168422587Y-87279296D01*
X168412873Y-87262871D01*
X168398542Y-87238638D01*
X168384108Y-87224204D01*
X168371471Y-87209409D01*
X168359472Y-87192893D01*
X168359470Y-87192890D01*
X168323073Y-87162781D01*
X168318751Y-87158847D01*
X167062620Y-85902715D01*
X167029135Y-85841392D01*
X167026982Y-85828012D01*
X167009542Y-85662072D01*
X166950527Y-85480444D01*
X166855040Y-85315056D01*
X166727253Y-85173134D01*
X166572752Y-85060882D01*
X166398288Y-84983206D01*
X166398286Y-84983205D01*
X166211487Y-84943500D01*
X166074500Y-84943500D01*
X166007461Y-84923815D01*
X165961706Y-84871011D01*
X165950500Y-84819500D01*
X165950500Y-83962668D01*
X165970185Y-83895629D01*
X166022989Y-83849874D01*
X166092147Y-83839930D01*
X166155703Y-83868955D01*
X166166643Y-83879689D01*
X166266747Y-83990866D01*
X166421248Y-84103118D01*
X166595712Y-84180794D01*
X166782513Y-84220500D01*
X166973487Y-84220500D01*
X167160288Y-84180794D01*
X167334752Y-84103118D01*
X167489253Y-83990866D01*
X167493160Y-83986527D01*
X167552646Y-83949879D01*
X167585309Y-83945500D01*
X169716234Y-83945500D01*
X169783273Y-83965185D01*
X169803915Y-83981819D01*
X171350428Y-85528332D01*
X171383913Y-85589655D01*
X171383321Y-85644960D01*
X171329465Y-85869285D01*
X171310835Y-86106000D01*
X171329465Y-86342714D01*
X171384895Y-86573595D01*
X171384895Y-86573597D01*
X171475757Y-86792959D01*
X171475759Y-86792962D01*
X171599820Y-86995410D01*
X171599821Y-86995413D01*
X171599824Y-86995416D01*
X171754031Y-87175969D01*
X171880731Y-87284181D01*
X171934586Y-87330178D01*
X171934588Y-87330178D01*
X172036171Y-87392429D01*
X172137037Y-87454240D01*
X172137040Y-87454242D01*
X172356403Y-87545104D01*
X172356404Y-87545104D01*
X172356406Y-87545105D01*
X172587289Y-87600535D01*
X172824000Y-87619165D01*
X173060711Y-87600535D01*
X173291594Y-87545105D01*
X173291596Y-87545104D01*
X173291597Y-87545104D01*
X173510959Y-87454242D01*
X173510960Y-87454241D01*
X173510963Y-87454240D01*
X173713416Y-87330176D01*
X173893969Y-87175969D01*
X174048176Y-86995416D01*
X174172240Y-86792963D01*
X174173476Y-86789981D01*
X174263104Y-86573597D01*
X174263104Y-86573596D01*
X174263105Y-86573594D01*
X174318535Y-86342711D01*
X174337165Y-86106000D01*
X177810835Y-86106000D01*
X177829465Y-86342714D01*
X177884895Y-86573595D01*
X177884895Y-86573597D01*
X177975757Y-86792959D01*
X177975759Y-86792962D01*
X178099820Y-86995410D01*
X178099821Y-86995413D01*
X178099824Y-86995416D01*
X178254031Y-87175969D01*
X178380731Y-87284181D01*
X178434586Y-87330178D01*
X178434588Y-87330178D01*
X178536171Y-87392429D01*
X178637037Y-87454240D01*
X178637040Y-87454242D01*
X178856403Y-87545104D01*
X178856404Y-87545104D01*
X178856406Y-87545105D01*
X179087289Y-87600535D01*
X179324000Y-87619165D01*
X179560711Y-87600535D01*
X179791594Y-87545105D01*
X179791596Y-87545104D01*
X179791597Y-87545104D01*
X180010959Y-87454242D01*
X180010960Y-87454241D01*
X180010963Y-87454240D01*
X180213416Y-87330176D01*
X180393969Y-87175969D01*
X180548176Y-86995416D01*
X180672240Y-86792963D01*
X180673476Y-86789981D01*
X180763104Y-86573597D01*
X180763104Y-86573596D01*
X180763105Y-86573594D01*
X180818535Y-86342711D01*
X180837165Y-86106000D01*
X180818535Y-85869289D01*
X180763105Y-85638406D01*
X180763104Y-85638403D01*
X180763104Y-85638402D01*
X180672242Y-85419040D01*
X180672240Y-85419037D01*
X180548179Y-85216589D01*
X180548178Y-85216586D01*
X180511066Y-85173134D01*
X180393969Y-85036031D01*
X180262581Y-84923815D01*
X180213413Y-84881821D01*
X180213410Y-84881820D01*
X180010962Y-84757759D01*
X180010959Y-84757757D01*
X179791596Y-84666895D01*
X179560714Y-84611465D01*
X179324000Y-84592835D01*
X179087285Y-84611465D01*
X178856404Y-84666895D01*
X178856402Y-84666895D01*
X178637040Y-84757757D01*
X178637037Y-84757759D01*
X178434589Y-84881820D01*
X178434586Y-84881821D01*
X178254031Y-85036031D01*
X178099821Y-85216586D01*
X178099820Y-85216589D01*
X177975759Y-85419037D01*
X177975757Y-85419040D01*
X177884895Y-85638402D01*
X177884895Y-85638404D01*
X177829465Y-85869285D01*
X177810835Y-86106000D01*
X174337165Y-86106000D01*
X174318535Y-85869289D01*
X174263105Y-85638406D01*
X174263104Y-85638403D01*
X174263104Y-85638402D01*
X174172242Y-85419040D01*
X174172240Y-85419037D01*
X174048179Y-85216589D01*
X174048178Y-85216586D01*
X174011066Y-85173134D01*
X173893969Y-85036031D01*
X173762581Y-84923815D01*
X173713413Y-84881821D01*
X173713410Y-84881820D01*
X173510962Y-84757759D01*
X173510959Y-84757757D01*
X173291596Y-84666895D01*
X173060714Y-84611465D01*
X172824000Y-84592835D01*
X172587285Y-84611465D01*
X172362960Y-84665321D01*
X172293177Y-84661830D01*
X172246332Y-84632428D01*
X171009086Y-83395181D01*
X170975601Y-83333858D01*
X170980585Y-83264166D01*
X171022457Y-83208233D01*
X171087921Y-83183816D01*
X171096767Y-83183500D01*
X184828366Y-83183500D01*
X184844113Y-83185238D01*
X184844139Y-83184968D01*
X184851905Y-83185701D01*
X184851909Y-83185702D01*
X184921958Y-83183500D01*
X184951856Y-83183500D01*
X184951857Y-83183500D01*
X184953222Y-83183327D01*
X184958862Y-83182614D01*
X184964685Y-83182156D01*
X184990708Y-83181338D01*
X185011890Y-83180673D01*
X185021681Y-83177827D01*
X185031481Y-83174980D01*
X185050538Y-83171032D01*
X185070797Y-83168474D01*
X185114721Y-83151082D01*
X185120221Y-83149199D01*
X185165593Y-83136018D01*
X185183165Y-83125625D01*
X185200632Y-83117068D01*
X185219617Y-83109552D01*
X185257826Y-83081790D01*
X185262704Y-83078585D01*
X185303362Y-83054542D01*
X185317802Y-83040100D01*
X185332592Y-83027470D01*
X185349107Y-83015472D01*
X185379222Y-82979067D01*
X185383126Y-82974776D01*
X186316813Y-82041089D01*
X186329177Y-82031186D01*
X186329003Y-82030976D01*
X186335015Y-82026002D01*
X186335015Y-82026001D01*
X186335018Y-82026000D01*
X186382984Y-81974920D01*
X186404135Y-81953770D01*
X186408461Y-81948192D01*
X186412250Y-81943755D01*
X186444586Y-81909321D01*
X186454419Y-81891432D01*
X186465102Y-81875169D01*
X186477614Y-81859041D01*
X186496371Y-81815691D01*
X186498941Y-81810447D01*
X186521693Y-81769064D01*
X186521693Y-81769063D01*
X186521695Y-81769060D01*
X186526774Y-81749273D01*
X186533070Y-81730885D01*
X186541181Y-81712145D01*
X186548569Y-81665497D01*
X186549751Y-81659786D01*
X186561500Y-81614030D01*
X186561500Y-81593615D01*
X186563027Y-81574214D01*
X186566220Y-81554057D01*
X186561775Y-81507033D01*
X186561500Y-81501195D01*
X186561500Y-75775626D01*
X186563238Y-75759881D01*
X186562967Y-75759856D01*
X186563701Y-75752093D01*
X186561500Y-75682059D01*
X186561500Y-75652150D01*
X186561500Y-75652144D01*
X186560615Y-75645140D01*
X186560156Y-75639311D01*
X186558673Y-75592109D01*
X186552979Y-75572514D01*
X186549032Y-75553457D01*
X186546474Y-75533203D01*
X186529088Y-75489291D01*
X186527196Y-75483764D01*
X186520798Y-75461744D01*
X186514018Y-75438406D01*
X186503625Y-75420833D01*
X186495063Y-75403355D01*
X186492303Y-75396384D01*
X186487552Y-75384383D01*
X186487550Y-75384380D01*
X186487549Y-75384378D01*
X186459794Y-75346177D01*
X186456586Y-75341293D01*
X186441031Y-75314992D01*
X186432542Y-75300637D01*
X186418108Y-75286203D01*
X186405469Y-75271406D01*
X186393471Y-75254892D01*
X186357084Y-75224790D01*
X186352762Y-75220857D01*
X184940083Y-73808178D01*
X184906598Y-73746855D01*
X184911582Y-73677163D01*
X184913181Y-73673099D01*
X184922505Y-73650591D01*
X184981609Y-73404403D01*
X185001474Y-73152000D01*
X184981609Y-72899597D01*
X184922505Y-72653409D01*
X184912809Y-72630000D01*
X184825616Y-72419497D01*
X184693331Y-72203629D01*
X184693330Y-72203627D01*
X184693329Y-72203626D01*
X184693328Y-72203624D01*
X184528898Y-72011102D01*
X184488136Y-71976287D01*
X184449945Y-71917785D01*
X184449445Y-71847917D01*
X184486798Y-71788870D01*
X184488029Y-71787802D01*
X184528898Y-71752898D01*
X184693328Y-71560376D01*
X184825616Y-71344502D01*
X184922505Y-71110591D01*
X184981609Y-70864403D01*
X185001474Y-70612000D01*
X184981609Y-70359597D01*
X184922505Y-70113409D01*
X184910300Y-70083943D01*
X184825616Y-69879497D01*
X184693331Y-69663629D01*
X184693330Y-69663627D01*
X184693329Y-69663626D01*
X184693328Y-69663624D01*
X184528898Y-69471102D01*
X184336376Y-69306672D01*
X184336374Y-69306670D01*
X184336372Y-69306669D01*
X184336370Y-69306668D01*
X184175185Y-69207893D01*
X184152294Y-69189847D01*
X183559568Y-68597121D01*
X183676458Y-68546349D01*
X183793739Y-68450934D01*
X183880928Y-68327415D01*
X183911354Y-68241801D01*
X184685732Y-69016179D01*
X184686424Y-69015371D01*
X184686432Y-69015360D01*
X184818019Y-68800631D01*
X184914396Y-68567956D01*
X184973187Y-68323072D01*
X184992947Y-68072000D01*
X184973187Y-67820927D01*
X184914396Y-67576043D01*
X184818019Y-67343368D01*
X184686432Y-67128638D01*
X184686430Y-67128636D01*
X184685732Y-67127819D01*
X183913929Y-67899622D01*
X183911116Y-67886085D01*
X183841558Y-67751844D01*
X183738362Y-67641348D01*
X183609181Y-67562791D01*
X183557996Y-67548449D01*
X184332178Y-66774266D01*
X184332178Y-66774264D01*
X184331374Y-66773577D01*
X184331358Y-66773566D01*
X184116631Y-66641980D01*
X183883956Y-66545603D01*
X183639072Y-66486812D01*
X183388000Y-66467052D01*
X183136927Y-66486812D01*
X182892043Y-66545603D01*
X182659368Y-66641980D01*
X182444637Y-66773568D01*
X182443820Y-66774266D01*
X183216432Y-67546878D01*
X183099542Y-67597651D01*
X182982261Y-67693066D01*
X182895072Y-67816585D01*
X182864644Y-67902198D01*
X182090266Y-67127820D01*
X182089568Y-67128637D01*
X181957980Y-67343368D01*
X181861603Y-67576043D01*
X181802812Y-67820927D01*
X181783052Y-68072000D01*
X181802812Y-68323072D01*
X181861603Y-68567956D01*
X181957980Y-68800631D01*
X182089566Y-69015358D01*
X182089577Y-69015374D01*
X182090264Y-69016178D01*
X182090266Y-69016178D01*
X182862070Y-68244373D01*
X182864884Y-68257915D01*
X182934442Y-68392156D01*
X183037638Y-68502652D01*
X183166819Y-68581209D01*
X183218002Y-68595549D01*
X182623706Y-69189845D01*
X182600816Y-69207890D01*
X182439630Y-69306668D01*
X182439621Y-69306674D01*
X182247102Y-69471102D01*
X182082669Y-69663627D01*
X182082668Y-69663629D01*
X181950383Y-69879497D01*
X181853495Y-70113406D01*
X181794391Y-70359593D01*
X181774526Y-70612000D01*
X181794391Y-70864406D01*
X181853495Y-71110593D01*
X181950383Y-71344502D01*
X182082668Y-71560370D01*
X182082669Y-71560372D01*
X182247102Y-71752898D01*
X182287862Y-71787711D01*
X182326054Y-71846218D01*
X182326552Y-71916086D01*
X182289198Y-71975132D01*
X182287862Y-71976289D01*
X182247102Y-72011101D01*
X182082669Y-72203627D01*
X182082668Y-72203629D01*
X181950383Y-72419497D01*
X181853495Y-72653406D01*
X181815484Y-72811737D01*
X181794391Y-72899597D01*
X181788450Y-72975088D01*
X181763565Y-73040376D01*
X181707334Y-73081846D01*
X181637609Y-73086333D01*
X181605098Y-73074022D01*
X181591062Y-73066306D01*
X181591061Y-73066305D01*
X181591060Y-73066305D01*
X181584669Y-73064664D01*
X181571287Y-73061228D01*
X181552881Y-73054926D01*
X181534144Y-73046818D01*
X181534146Y-73046818D01*
X181487496Y-73039430D01*
X181481781Y-73038246D01*
X181461612Y-73033068D01*
X181436032Y-73026500D01*
X181436030Y-73026500D01*
X181415616Y-73026500D01*
X181396217Y-73024973D01*
X181376058Y-73021780D01*
X181376057Y-73021780D01*
X181329034Y-73026225D01*
X181323196Y-73026500D01*
X176081766Y-73026500D01*
X176014727Y-73006815D01*
X175994085Y-72990181D01*
X174497088Y-71493183D01*
X174487187Y-71480823D01*
X174486977Y-71480998D01*
X174482002Y-71474986D01*
X174482000Y-71474982D01*
X174455657Y-71450245D01*
X174430921Y-71427015D01*
X174409768Y-71405863D01*
X174407792Y-71404331D01*
X174404183Y-71401531D01*
X174399750Y-71397744D01*
X174365321Y-71365414D01*
X174365319Y-71365412D01*
X174347431Y-71355578D01*
X174331170Y-71344897D01*
X174315039Y-71332384D01*
X174271693Y-71313627D01*
X174266445Y-71311056D01*
X174239251Y-71296106D01*
X174225060Y-71288305D01*
X174221660Y-71287432D01*
X174205287Y-71283228D01*
X174186881Y-71276926D01*
X174168144Y-71268818D01*
X174168146Y-71268818D01*
X174121496Y-71261430D01*
X174115781Y-71260246D01*
X174095612Y-71255068D01*
X174070032Y-71248500D01*
X174070030Y-71248500D01*
X174049616Y-71248500D01*
X174030217Y-71246973D01*
X174010058Y-71243780D01*
X174010057Y-71243780D01*
X173963034Y-71248225D01*
X173957196Y-71248500D01*
X170125309Y-71248500D01*
X170058270Y-71228815D01*
X170033160Y-71207473D01*
X170029254Y-71203135D01*
X169901882Y-71110593D01*
X169874752Y-71090882D01*
X169700288Y-71013206D01*
X169700286Y-71013205D01*
X169513487Y-70973500D01*
X169322513Y-70973500D01*
X169135714Y-71013205D01*
X169135712Y-71013206D01*
X168961248Y-71090882D01*
X168961246Y-71090883D01*
X168955935Y-71093248D01*
X168886685Y-71102532D01*
X168823409Y-71072904D01*
X168786196Y-71013769D01*
X168781500Y-70979968D01*
X168781500Y-70417766D01*
X168801185Y-70350727D01*
X168817819Y-70330085D01*
X169623085Y-69524819D01*
X169684408Y-69491334D01*
X169710766Y-69488500D01*
X169767487Y-69488500D01*
X169954288Y-69448794D01*
X170128752Y-69371118D01*
X170283253Y-69258866D01*
X170411040Y-69116944D01*
X170506527Y-68951556D01*
X170565542Y-68769928D01*
X170585504Y-68580000D01*
X170565542Y-68390072D01*
X170506527Y-68208444D01*
X170411040Y-68043056D01*
X170283253Y-67901134D01*
X170128752Y-67788882D01*
X169954288Y-67711206D01*
X169954286Y-67711205D01*
X169767487Y-67671500D01*
X169710767Y-67671500D01*
X169643728Y-67651815D01*
X169623086Y-67635181D01*
X168909088Y-66921183D01*
X168899187Y-66908823D01*
X168898977Y-66908998D01*
X168894002Y-66902986D01*
X168894000Y-66902982D01*
X168867658Y-66878245D01*
X168842922Y-66855016D01*
X168821768Y-66833863D01*
X168819792Y-66832331D01*
X168816183Y-66829531D01*
X168811750Y-66825744D01*
X168777321Y-66793414D01*
X168777319Y-66793412D01*
X168759431Y-66783578D01*
X168743170Y-66772897D01*
X168727039Y-66760384D01*
X168683693Y-66741627D01*
X168678445Y-66739056D01*
X168651019Y-66723979D01*
X168637060Y-66716305D01*
X168633660Y-66715432D01*
X168617287Y-66711228D01*
X168598881Y-66704926D01*
X168580144Y-66696818D01*
X168580146Y-66696818D01*
X168533496Y-66689430D01*
X168527781Y-66688246D01*
X168507612Y-66683068D01*
X168482032Y-66676500D01*
X168482030Y-66676500D01*
X168461616Y-66676500D01*
X168442217Y-66674973D01*
X168422058Y-66671780D01*
X168422057Y-66671780D01*
X168375034Y-66676225D01*
X168369196Y-66676500D01*
X149181632Y-66676500D01*
X149165880Y-66674760D01*
X149165855Y-66675032D01*
X149158093Y-66674298D01*
X149158092Y-66674298D01*
X149088029Y-66676500D01*
X149058144Y-66676500D01*
X149058141Y-66676500D01*
X149058129Y-66676501D01*
X149051137Y-66677384D01*
X149045320Y-66677841D01*
X148998114Y-66679325D01*
X148998107Y-66679326D01*
X148978500Y-66685022D01*
X148959461Y-66688965D01*
X148939211Y-66691524D01*
X148939201Y-66691526D01*
X148895291Y-66708911D01*
X148889765Y-66710803D01*
X148844412Y-66723979D01*
X148844407Y-66723981D01*
X148826833Y-66734374D01*
X148809372Y-66742928D01*
X148790386Y-66750446D01*
X148790384Y-66750447D01*
X148752172Y-66778208D01*
X148747290Y-66781415D01*
X148706637Y-66805457D01*
X148692201Y-66819894D01*
X148677415Y-66832523D01*
X148660893Y-66844528D01*
X148660891Y-66844529D01*
X148660891Y-66844530D01*
X148660889Y-66844532D01*
X148630781Y-66880925D01*
X148626848Y-66885246D01*
X148384913Y-67127182D01*
X148323593Y-67160666D01*
X148297234Y-67163500D01*
X148240513Y-67163500D01*
X148053714Y-67203205D01*
X147879246Y-67280883D01*
X147724745Y-67393135D01*
X147596959Y-67535057D01*
X147501473Y-67700443D01*
X147501470Y-67700450D01*
X147472737Y-67788883D01*
X147442458Y-67882072D01*
X147422496Y-68072000D01*
X147442458Y-68261928D01*
X147442459Y-68261931D01*
X147501470Y-68443549D01*
X147501473Y-68443556D01*
X147596960Y-68608944D01*
X147724747Y-68750866D01*
X147879248Y-68863118D01*
X148053712Y-68940794D01*
X148240513Y-68980500D01*
X148431487Y-68980500D01*
X148618288Y-68940794D01*
X148792752Y-68863118D01*
X148947253Y-68750866D01*
X149075040Y-68608944D01*
X149170527Y-68443556D01*
X149229542Y-68261928D01*
X149246981Y-68096000D01*
X149273564Y-68031389D01*
X149282622Y-68021282D01*
X149324089Y-67979817D01*
X149385413Y-67946333D01*
X149411768Y-67943500D01*
X168088234Y-67943500D01*
X168155273Y-67963185D01*
X168175915Y-67979819D01*
X168688414Y-68492318D01*
X168721899Y-68553641D01*
X168716915Y-68623333D01*
X168688414Y-68667680D01*
X167759179Y-69596914D01*
X167746820Y-69606818D01*
X167746993Y-69607027D01*
X167740983Y-69611999D01*
X167693016Y-69663078D01*
X167671872Y-69684222D01*
X167671857Y-69684239D01*
X167667531Y-69689814D01*
X167663747Y-69694244D01*
X167631419Y-69728671D01*
X167631412Y-69728681D01*
X167621579Y-69746567D01*
X167610903Y-69762820D01*
X167598386Y-69778957D01*
X167598385Y-69778959D01*
X167579625Y-69822310D01*
X167577055Y-69827556D01*
X167554303Y-69868941D01*
X167554303Y-69868942D01*
X167549225Y-69888720D01*
X167542925Y-69907122D01*
X167534818Y-69925857D01*
X167527431Y-69972495D01*
X167526246Y-69978216D01*
X167514500Y-70023965D01*
X167514500Y-70044384D01*
X167512973Y-70063783D01*
X167509780Y-70083941D01*
X167509780Y-70083942D01*
X167514225Y-70130966D01*
X167514500Y-70136804D01*
X167514500Y-72052366D01*
X167512761Y-72068113D01*
X167513032Y-72068139D01*
X167512298Y-72075905D01*
X167514500Y-72145957D01*
X167514500Y-72175859D01*
X167515384Y-72182856D01*
X167515842Y-72188679D01*
X167517326Y-72235889D01*
X167517327Y-72235891D01*
X167523022Y-72255495D01*
X167526967Y-72274542D01*
X167529526Y-72294797D01*
X167529527Y-72294800D01*
X167529528Y-72294803D01*
X167546914Y-72338716D01*
X167548806Y-72344244D01*
X167561981Y-72389592D01*
X167572372Y-72407162D01*
X167580932Y-72424635D01*
X167588447Y-72443617D01*
X167616209Y-72481827D01*
X167619418Y-72486712D01*
X167639032Y-72519879D01*
X167643458Y-72527362D01*
X167643462Y-72527366D01*
X167657889Y-72541793D01*
X167670526Y-72556588D01*
X167682528Y-72573107D01*
X167718931Y-72603222D01*
X167723231Y-72607135D01*
X168226482Y-73110386D01*
X168725378Y-73609282D01*
X168758863Y-73670605D01*
X168761018Y-73684001D01*
X168765211Y-73723891D01*
X168778458Y-73849928D01*
X168778459Y-73849931D01*
X168837470Y-74031549D01*
X168837473Y-74031556D01*
X168932960Y-74196944D01*
X169060747Y-74338866D01*
X169215248Y-74451118D01*
X169389712Y-74528794D01*
X169576513Y-74568500D01*
X169767487Y-74568500D01*
X169954288Y-74528794D01*
X170128752Y-74451118D01*
X170283253Y-74338866D01*
X170411040Y-74196944D01*
X170506527Y-74031556D01*
X170565542Y-73849928D01*
X170585504Y-73660000D01*
X170565542Y-73470072D01*
X170506527Y-73288444D01*
X170411040Y-73123056D01*
X170283253Y-72981134D01*
X170128752Y-72868882D01*
X170000400Y-72811736D01*
X169947163Y-72766486D01*
X169926842Y-72699637D01*
X169945887Y-72632414D01*
X169977951Y-72598139D01*
X170029253Y-72560866D01*
X170033160Y-72556527D01*
X170092646Y-72519879D01*
X170125309Y-72515500D01*
X173676234Y-72515500D01*
X173743273Y-72535185D01*
X173763915Y-72551819D01*
X175260910Y-74048814D01*
X175270816Y-74061178D01*
X175271026Y-74061005D01*
X175276001Y-74067019D01*
X175327095Y-74115000D01*
X175348224Y-74136129D01*
X175348228Y-74136132D01*
X175348231Y-74136135D01*
X175353805Y-74140458D01*
X175358247Y-74144252D01*
X175392678Y-74176585D01*
X175392681Y-74176587D01*
X175410563Y-74186417D01*
X175426830Y-74197102D01*
X175442959Y-74209614D01*
X175486307Y-74228371D01*
X175491533Y-74230931D01*
X175532940Y-74253695D01*
X175552716Y-74258772D01*
X175571124Y-74265075D01*
X175589850Y-74273179D01*
X175589852Y-74273180D01*
X175589853Y-74273180D01*
X175589855Y-74273181D01*
X175630784Y-74279663D01*
X175636503Y-74280569D01*
X175642212Y-74281751D01*
X175687970Y-74293500D01*
X175708384Y-74293500D01*
X175727783Y-74295027D01*
X175747943Y-74298220D01*
X175794966Y-74293775D01*
X175800804Y-74293500D01*
X181042234Y-74293500D01*
X181109273Y-74313185D01*
X181129915Y-74329819D01*
X181835915Y-75035820D01*
X181869400Y-75097143D01*
X181864416Y-75166835D01*
X181862796Y-75170950D01*
X181853497Y-75193401D01*
X181853495Y-75193407D01*
X181794391Y-75439595D01*
X181794390Y-75439601D01*
X181793576Y-75449945D01*
X181768689Y-75515232D01*
X181712455Y-75556700D01*
X181642729Y-75561182D01*
X181585075Y-75530601D01*
X181542922Y-75491016D01*
X181521768Y-75469863D01*
X181519792Y-75468331D01*
X181516183Y-75465531D01*
X181511750Y-75461744D01*
X181477321Y-75429414D01*
X181477319Y-75429412D01*
X181459431Y-75419578D01*
X181443170Y-75408897D01*
X181427039Y-75396384D01*
X181383693Y-75377627D01*
X181378445Y-75375056D01*
X181351251Y-75360106D01*
X181337060Y-75352305D01*
X181333660Y-75351432D01*
X181317287Y-75347228D01*
X181298881Y-75340926D01*
X181280144Y-75332818D01*
X181280146Y-75332818D01*
X181233496Y-75325430D01*
X181227781Y-75324246D01*
X181207612Y-75319068D01*
X181182032Y-75312500D01*
X181182030Y-75312500D01*
X181161616Y-75312500D01*
X181142217Y-75310973D01*
X181122058Y-75307780D01*
X181122057Y-75307780D01*
X181075034Y-75312225D01*
X181069196Y-75312500D01*
X174662715Y-75312500D01*
X174595676Y-75292815D01*
X174549921Y-75240011D01*
X174539977Y-75170853D01*
X174569002Y-75107297D01*
X174570565Y-75105528D01*
X174578115Y-75097143D01*
X174680040Y-74983944D01*
X174775527Y-74818556D01*
X174834542Y-74636928D01*
X174854504Y-74447000D01*
X174834542Y-74257072D01*
X174775527Y-74075444D01*
X174680040Y-73910056D01*
X174552253Y-73768134D01*
X174397752Y-73655882D01*
X174223288Y-73578206D01*
X174223286Y-73578205D01*
X174036487Y-73538500D01*
X173845513Y-73538500D01*
X173658714Y-73578205D01*
X173658712Y-73578206D01*
X173491847Y-73652499D01*
X173484246Y-73655883D01*
X173329745Y-73768135D01*
X173201959Y-73910057D01*
X173106473Y-74075443D01*
X173106472Y-74075445D01*
X173081559Y-74152119D01*
X173051309Y-74201480D01*
X160546609Y-86706181D01*
X160485286Y-86739666D01*
X160458928Y-86742500D01*
X150705631Y-86742500D01*
X150689879Y-86740760D01*
X150689854Y-86741032D01*
X150682092Y-86740298D01*
X150682091Y-86740298D01*
X150612028Y-86742500D01*
X150582144Y-86742500D01*
X150582141Y-86742500D01*
X150582129Y-86742501D01*
X150575137Y-86743384D01*
X150569320Y-86743841D01*
X150522114Y-86745325D01*
X150522107Y-86745326D01*
X150502500Y-86751022D01*
X150483461Y-86754965D01*
X150463211Y-86757524D01*
X150463201Y-86757526D01*
X150419291Y-86774911D01*
X150413765Y-86776803D01*
X150368412Y-86789979D01*
X150368407Y-86789981D01*
X150350833Y-86800374D01*
X150333372Y-86808928D01*
X150314386Y-86816446D01*
X150314384Y-86816447D01*
X150276172Y-86844208D01*
X150271290Y-86847415D01*
X150230637Y-86871457D01*
X150216201Y-86885894D01*
X150201415Y-86898523D01*
X150184893Y-86910528D01*
X150184891Y-86910529D01*
X150184891Y-86910530D01*
X150184888Y-86910532D01*
X150154780Y-86946925D01*
X150150849Y-86951246D01*
X148638914Y-88463181D01*
X148577591Y-88496666D01*
X148551233Y-88499500D01*
X148494513Y-88499500D01*
X148307714Y-88539205D01*
X148133246Y-88616883D01*
X147978745Y-88729135D01*
X147850959Y-88871057D01*
X147755473Y-89036443D01*
X147755470Y-89036450D01*
X147719578Y-89146916D01*
X147696458Y-89218072D01*
X147676496Y-89408000D01*
X147696458Y-89597928D01*
X147696459Y-89597931D01*
X147706288Y-89628182D01*
X147708283Y-89698023D01*
X147672202Y-89757856D01*
X147609501Y-89788684D01*
X147588357Y-89790500D01*
X147188629Y-89790500D01*
X147157792Y-89786604D01*
X147136728Y-89781195D01*
X147136725Y-89781195D01*
X147125766Y-89781195D01*
X147058727Y-89761510D01*
X147038085Y-89744876D01*
X146058393Y-88765183D01*
X146048492Y-88752823D01*
X146048282Y-88752998D01*
X146043307Y-88746986D01*
X146043305Y-88746982D01*
X146016962Y-88722245D01*
X145992226Y-88699015D01*
X145971073Y-88677863D01*
X145969097Y-88676331D01*
X145965488Y-88673531D01*
X145961055Y-88669744D01*
X145926626Y-88637414D01*
X145926624Y-88637412D01*
X145908736Y-88627578D01*
X145892475Y-88616897D01*
X145876344Y-88604384D01*
X145832998Y-88585627D01*
X145827750Y-88583056D01*
X145800556Y-88568106D01*
X145786365Y-88560305D01*
X145782965Y-88559432D01*
X145766592Y-88555228D01*
X145748186Y-88548926D01*
X145729449Y-88540818D01*
X145729451Y-88540818D01*
X145682801Y-88533430D01*
X145677086Y-88532246D01*
X145656917Y-88527068D01*
X145631337Y-88520500D01*
X145631335Y-88520500D01*
X145610921Y-88520500D01*
X145591522Y-88518973D01*
X145571363Y-88515780D01*
X145571362Y-88515780D01*
X145524339Y-88520225D01*
X145518501Y-88520500D01*
X140153309Y-88520500D01*
X140086270Y-88500815D01*
X140061160Y-88479473D01*
X140057254Y-88475135D01*
X139902753Y-88362883D01*
X139902752Y-88362882D01*
X139728288Y-88285206D01*
X139728286Y-88285205D01*
X139541487Y-88245500D01*
X139350513Y-88245500D01*
X139163714Y-88285205D01*
X138989246Y-88362883D01*
X138834745Y-88475135D01*
X138706959Y-88617057D01*
X138611473Y-88782443D01*
X138611470Y-88782450D01*
X138552459Y-88964068D01*
X138552458Y-88964072D01*
X138532496Y-89154000D01*
X133350500Y-89154000D01*
X133350500Y-76754431D01*
X154385199Y-76754431D01*
X154495312Y-76812223D01*
X154648575Y-76850000D01*
X154806425Y-76850000D01*
X154959685Y-76812224D01*
X155069797Y-76754431D01*
X156220199Y-76754431D01*
X156330312Y-76812223D01*
X156483575Y-76850000D01*
X156641425Y-76850000D01*
X156794685Y-76812224D01*
X156904799Y-76754430D01*
X156562501Y-76412132D01*
X156562500Y-76412132D01*
X156220199Y-76754430D01*
X156220199Y-76754431D01*
X155069797Y-76754431D01*
X155069799Y-76754430D01*
X154727501Y-76412132D01*
X154727500Y-76412132D01*
X154385199Y-76754430D01*
X154385199Y-76754431D01*
X133350500Y-76754431D01*
X133350500Y-75836931D01*
X153467699Y-75836931D01*
X153577812Y-75894723D01*
X153731075Y-75932500D01*
X153888926Y-75932500D01*
X153888928Y-75932499D01*
X153937453Y-75920539D01*
X154007255Y-75923607D01*
X154064318Y-75963926D01*
X154090523Y-76028695D01*
X154090225Y-76055881D01*
X154072726Y-76199999D01*
X154091753Y-76356699D01*
X154147722Y-76504283D01*
X154147725Y-76504288D01*
X154173596Y-76541770D01*
X154173597Y-76541770D01*
X154482876Y-76232492D01*
X154627500Y-76232492D01*
X154665697Y-76285065D01*
X154711662Y-76300000D01*
X154743338Y-76300000D01*
X154789303Y-76285065D01*
X154827500Y-76232492D01*
X154827500Y-76200000D01*
X154939632Y-76200000D01*
X155281401Y-76541770D01*
X155307273Y-76504290D01*
X155363247Y-76356697D01*
X155382273Y-76200000D01*
X155364774Y-76055882D01*
X155376234Y-75986959D01*
X155423138Y-75935172D01*
X155490593Y-75916965D01*
X155517546Y-75920538D01*
X155566077Y-75932500D01*
X155723926Y-75932500D01*
X155723928Y-75932499D01*
X155772453Y-75920539D01*
X155842255Y-75923607D01*
X155899318Y-75963926D01*
X155925523Y-76028695D01*
X155925225Y-76055881D01*
X155907726Y-76199999D01*
X155926753Y-76356699D01*
X155982722Y-76504283D01*
X155982725Y-76504288D01*
X156008596Y-76541770D01*
X156008597Y-76541770D01*
X156317876Y-76232492D01*
X156462500Y-76232492D01*
X156500697Y-76285065D01*
X156546662Y-76300000D01*
X156578338Y-76300000D01*
X156624303Y-76285065D01*
X156662500Y-76232492D01*
X156662500Y-76200000D01*
X156774632Y-76200000D01*
X157116401Y-76541770D01*
X157142273Y-76504290D01*
X157198247Y-76356697D01*
X157217273Y-76200000D01*
X157199774Y-76055882D01*
X157211234Y-75986959D01*
X157258138Y-75935172D01*
X157325593Y-75916965D01*
X157352546Y-75920538D01*
X157401077Y-75932500D01*
X157558925Y-75932500D01*
X157712185Y-75894724D01*
X157822299Y-75836930D01*
X157480001Y-75494632D01*
X157480000Y-75494632D01*
X157157466Y-75817164D01*
X157157463Y-75817165D01*
X157146958Y-75827672D01*
X157093361Y-75881268D01*
X157093357Y-75881274D01*
X156774632Y-76199999D01*
X156774632Y-76200000D01*
X156662500Y-76200000D01*
X156662500Y-76167508D01*
X156624303Y-76114935D01*
X156578338Y-76100000D01*
X156546662Y-76100000D01*
X156500697Y-76114935D01*
X156462500Y-76167508D01*
X156462500Y-76232492D01*
X156317876Y-76232492D01*
X156350368Y-76200000D01*
X156031641Y-75881273D01*
X156031639Y-75881270D01*
X155645001Y-75494632D01*
X155645000Y-75494632D01*
X155322466Y-75817164D01*
X155322463Y-75817165D01*
X155311958Y-75827672D01*
X155258361Y-75881268D01*
X155258357Y-75881274D01*
X154939632Y-76199999D01*
X154939632Y-76200000D01*
X154827500Y-76200000D01*
X154827500Y-76167508D01*
X154789303Y-76114935D01*
X154743338Y-76100000D01*
X154711662Y-76100000D01*
X154665697Y-76114935D01*
X154627500Y-76167508D01*
X154627500Y-76232492D01*
X154482876Y-76232492D01*
X154515368Y-76200000D01*
X154196641Y-75881273D01*
X154196639Y-75881270D01*
X153810001Y-75494632D01*
X153810000Y-75494632D01*
X153467699Y-75836930D01*
X153467699Y-75836931D01*
X133350500Y-75836931D01*
X133350500Y-75282500D01*
X153155226Y-75282500D01*
X153174253Y-75439199D01*
X153230222Y-75586783D01*
X153230225Y-75586788D01*
X153256096Y-75624270D01*
X153256097Y-75624270D01*
X153565376Y-75314992D01*
X153710000Y-75314992D01*
X153748197Y-75367565D01*
X153794162Y-75382500D01*
X153825838Y-75382500D01*
X153871803Y-75367565D01*
X153910000Y-75314992D01*
X153910000Y-75282499D01*
X154022132Y-75282499D01*
X154345663Y-75606030D01*
X154404967Y-75665335D01*
X154727499Y-75987867D01*
X155083921Y-75631444D01*
X155109338Y-75606029D01*
X155400374Y-75314992D01*
X155545000Y-75314992D01*
X155583197Y-75367565D01*
X155629162Y-75382500D01*
X155660838Y-75382500D01*
X155706803Y-75367565D01*
X155745000Y-75314992D01*
X155745000Y-75282499D01*
X155857131Y-75282499D01*
X156180663Y-75606030D01*
X156239967Y-75665335D01*
X156562499Y-75987867D01*
X156918921Y-75631444D01*
X156944338Y-75606029D01*
X157235374Y-75314992D01*
X157380000Y-75314992D01*
X157418197Y-75367565D01*
X157464162Y-75382500D01*
X157495838Y-75382500D01*
X157541803Y-75367565D01*
X157580000Y-75314992D01*
X157580000Y-75282501D01*
X157692132Y-75282501D01*
X158033901Y-75624270D01*
X158059773Y-75586790D01*
X158115747Y-75439197D01*
X158134773Y-75282500D01*
X158115747Y-75125802D01*
X158059773Y-74978209D01*
X158033901Y-74940729D01*
X158033901Y-74940728D01*
X157692132Y-75282499D01*
X157692132Y-75282501D01*
X157580000Y-75282501D01*
X157580000Y-75250008D01*
X157541803Y-75197435D01*
X157495838Y-75182500D01*
X157464162Y-75182500D01*
X157418197Y-75197435D01*
X157380000Y-75250008D01*
X157380000Y-75314992D01*
X157235374Y-75314992D01*
X157267867Y-75282499D01*
X156949141Y-74963773D01*
X156949139Y-74963770D01*
X156562501Y-74577132D01*
X156562500Y-74577132D01*
X156239966Y-74899664D01*
X156239963Y-74899665D01*
X156229458Y-74910172D01*
X156175861Y-74963768D01*
X156175857Y-74963774D01*
X155857131Y-75282499D01*
X155745000Y-75282499D01*
X155745000Y-75250008D01*
X155706803Y-75197435D01*
X155660838Y-75182500D01*
X155629162Y-75182500D01*
X155583197Y-75197435D01*
X155545000Y-75250008D01*
X155545000Y-75314992D01*
X155400374Y-75314992D01*
X155432867Y-75282499D01*
X155114141Y-74963773D01*
X155114139Y-74963770D01*
X154727501Y-74577132D01*
X154727500Y-74577132D01*
X154404966Y-74899664D01*
X154404963Y-74899665D01*
X154394458Y-74910172D01*
X154340861Y-74963768D01*
X154340857Y-74963774D01*
X154022132Y-75282499D01*
X153910000Y-75282499D01*
X153910000Y-75250008D01*
X153871803Y-75197435D01*
X153825838Y-75182500D01*
X153794162Y-75182500D01*
X153748197Y-75197435D01*
X153710000Y-75250008D01*
X153710000Y-75314992D01*
X153565376Y-75314992D01*
X153597868Y-75282500D01*
X153256096Y-74940728D01*
X153230227Y-74978207D01*
X153230224Y-74978213D01*
X153174253Y-75125801D01*
X153155226Y-75282500D01*
X133350500Y-75282500D01*
X133350500Y-74001931D01*
X153467699Y-74001931D01*
X153577812Y-74059723D01*
X153731075Y-74097500D01*
X153888926Y-74097500D01*
X153888928Y-74097499D01*
X153937453Y-74085539D01*
X154007255Y-74088607D01*
X154064318Y-74128926D01*
X154090523Y-74193695D01*
X154090225Y-74220881D01*
X154072726Y-74364999D01*
X154072726Y-74365000D01*
X154090225Y-74509118D01*
X154078765Y-74578041D01*
X154031861Y-74629827D01*
X153964405Y-74648034D01*
X153937455Y-74644461D01*
X153888926Y-74632500D01*
X153731075Y-74632500D01*
X153577815Y-74670275D01*
X153467700Y-74728068D01*
X153809999Y-75070367D01*
X154166421Y-74713944D01*
X154191838Y-74688529D01*
X154482874Y-74397492D01*
X154627500Y-74397492D01*
X154665697Y-74450065D01*
X154711662Y-74465000D01*
X154743338Y-74465000D01*
X154789303Y-74450065D01*
X154827500Y-74397492D01*
X154827500Y-74364999D01*
X154939632Y-74364999D01*
X155263163Y-74688530D01*
X155322467Y-74747835D01*
X155644999Y-75070367D01*
X156001421Y-74713944D01*
X156026838Y-74688529D01*
X156317874Y-74397492D01*
X156462500Y-74397492D01*
X156500697Y-74450065D01*
X156546662Y-74465000D01*
X156578338Y-74465000D01*
X156624303Y-74450065D01*
X156662500Y-74397492D01*
X156662500Y-74364999D01*
X156774632Y-74364999D01*
X157098163Y-74688530D01*
X157157467Y-74747835D01*
X157480000Y-75070368D01*
X157480001Y-75070368D01*
X157822299Y-74728067D01*
X157712183Y-74670275D01*
X157558925Y-74632500D01*
X157401074Y-74632500D01*
X157352544Y-74644461D01*
X157282742Y-74641391D01*
X157225680Y-74601071D01*
X157199475Y-74536301D01*
X157199774Y-74509117D01*
X157217273Y-74364999D01*
X157199774Y-74220882D01*
X157211234Y-74151959D01*
X157258138Y-74100172D01*
X157325593Y-74081965D01*
X157352546Y-74085538D01*
X157401077Y-74097500D01*
X157558925Y-74097500D01*
X157712185Y-74059724D01*
X157822299Y-74001930D01*
X157480001Y-73659632D01*
X157480000Y-73659632D01*
X157157466Y-73982164D01*
X157157463Y-73982165D01*
X157146958Y-73992672D01*
X157093361Y-74046268D01*
X157093357Y-74046274D01*
X156774632Y-74364999D01*
X156662500Y-74364999D01*
X156662500Y-74332508D01*
X156624303Y-74279935D01*
X156578338Y-74265000D01*
X156546662Y-74265000D01*
X156500697Y-74279935D01*
X156462500Y-74332508D01*
X156462500Y-74397492D01*
X156317874Y-74397492D01*
X156350367Y-74364999D01*
X156031641Y-74046273D01*
X156031639Y-74046270D01*
X155645001Y-73659632D01*
X155645000Y-73659632D01*
X155322466Y-73982164D01*
X155322463Y-73982165D01*
X155311958Y-73992672D01*
X155258361Y-74046268D01*
X155258357Y-74046274D01*
X154939632Y-74364999D01*
X154827500Y-74364999D01*
X154827500Y-74332508D01*
X154789303Y-74279935D01*
X154743338Y-74265000D01*
X154711662Y-74265000D01*
X154665697Y-74279935D01*
X154627500Y-74332508D01*
X154627500Y-74397492D01*
X154482874Y-74397492D01*
X154515367Y-74364999D01*
X154196641Y-74046273D01*
X154196639Y-74046270D01*
X153810001Y-73659632D01*
X153810000Y-73659632D01*
X153467699Y-74001930D01*
X153467699Y-74001931D01*
X133350500Y-74001931D01*
X133350500Y-73192654D01*
X139453500Y-73192654D01*
X139460011Y-73253202D01*
X139460011Y-73253204D01*
X139511111Y-73390204D01*
X139598739Y-73507261D01*
X139715796Y-73594889D01*
X139852799Y-73645989D01*
X139880050Y-73648918D01*
X139913345Y-73652499D01*
X139913362Y-73652500D01*
X141010638Y-73652500D01*
X141010654Y-73652499D01*
X141037692Y-73649591D01*
X141071201Y-73645989D01*
X141208204Y-73594889D01*
X141325261Y-73507261D01*
X141369998Y-73447500D01*
X153155226Y-73447500D01*
X153174253Y-73604199D01*
X153230222Y-73751783D01*
X153230225Y-73751788D01*
X153256096Y-73789270D01*
X153256097Y-73789270D01*
X153565376Y-73479992D01*
X153710000Y-73479992D01*
X153748197Y-73532565D01*
X153794162Y-73547500D01*
X153825838Y-73547500D01*
X153871803Y-73532565D01*
X153910000Y-73479992D01*
X153910000Y-73447499D01*
X154022132Y-73447499D01*
X154345663Y-73771030D01*
X154404967Y-73830335D01*
X154727500Y-74152868D01*
X154727501Y-74152868D01*
X155085983Y-73794384D01*
X155109338Y-73771030D01*
X155400376Y-73479992D01*
X155545000Y-73479992D01*
X155583197Y-73532565D01*
X155629162Y-73547500D01*
X155660838Y-73547500D01*
X155706803Y-73532565D01*
X155745000Y-73479992D01*
X155745000Y-73447499D01*
X155857131Y-73447499D01*
X156180663Y-73771030D01*
X156239967Y-73830335D01*
X156562500Y-74152868D01*
X156562501Y-74152868D01*
X156920983Y-73794384D01*
X156944338Y-73771030D01*
X157235376Y-73479992D01*
X157380000Y-73479992D01*
X157418197Y-73532565D01*
X157464162Y-73547500D01*
X157495838Y-73547500D01*
X157541803Y-73532565D01*
X157580000Y-73479992D01*
X157580000Y-73447501D01*
X157692132Y-73447501D01*
X158033901Y-73789270D01*
X158059773Y-73751790D01*
X158115747Y-73604197D01*
X158134773Y-73447500D01*
X158115747Y-73290802D01*
X158059773Y-73143209D01*
X158033901Y-73105729D01*
X158033901Y-73105728D01*
X157692132Y-73447499D01*
X157692132Y-73447501D01*
X157580000Y-73447501D01*
X157580000Y-73415008D01*
X157541803Y-73362435D01*
X157495838Y-73347500D01*
X157464162Y-73347500D01*
X157418197Y-73362435D01*
X157380000Y-73415008D01*
X157380000Y-73479992D01*
X157235376Y-73479992D01*
X157267868Y-73447500D01*
X156949141Y-73128773D01*
X156949139Y-73128770D01*
X156562501Y-72742132D01*
X156562500Y-72742132D01*
X156239966Y-73064664D01*
X156239963Y-73064665D01*
X156229458Y-73075172D01*
X156175861Y-73128768D01*
X156175857Y-73128774D01*
X155857131Y-73447499D01*
X155745000Y-73447499D01*
X155745000Y-73415008D01*
X155706803Y-73362435D01*
X155660838Y-73347500D01*
X155629162Y-73347500D01*
X155583197Y-73362435D01*
X155545000Y-73415008D01*
X155545000Y-73479992D01*
X155400376Y-73479992D01*
X155432868Y-73447500D01*
X155114141Y-73128773D01*
X155114139Y-73128770D01*
X154727501Y-72742132D01*
X154727500Y-72742132D01*
X154404966Y-73064664D01*
X154404963Y-73064665D01*
X154394458Y-73075172D01*
X154340861Y-73128768D01*
X154340857Y-73128774D01*
X154022132Y-73447499D01*
X153910000Y-73447499D01*
X153910000Y-73415008D01*
X153871803Y-73362435D01*
X153825838Y-73347500D01*
X153794162Y-73347500D01*
X153748197Y-73362435D01*
X153710000Y-73415008D01*
X153710000Y-73479992D01*
X153565376Y-73479992D01*
X153597868Y-73447500D01*
X153256096Y-73105728D01*
X153230227Y-73143207D01*
X153230224Y-73143213D01*
X153174253Y-73290801D01*
X153155226Y-73447500D01*
X141369998Y-73447500D01*
X141412889Y-73390204D01*
X141463989Y-73253201D01*
X141468480Y-73211426D01*
X141470499Y-73192654D01*
X141470500Y-73192637D01*
X141470500Y-72893068D01*
X153467700Y-72893068D01*
X153809999Y-73235367D01*
X154166421Y-72878944D01*
X154191838Y-72853529D01*
X154482874Y-72562492D01*
X154627500Y-72562492D01*
X154665697Y-72615065D01*
X154711662Y-72630000D01*
X154743338Y-72630000D01*
X154789303Y-72615065D01*
X154827500Y-72562492D01*
X154827500Y-72530000D01*
X154939632Y-72530000D01*
X155263163Y-72853530D01*
X155322467Y-72912835D01*
X155644999Y-73235367D01*
X156001421Y-72878944D01*
X156026838Y-72853529D01*
X156317874Y-72562492D01*
X156462500Y-72562492D01*
X156500697Y-72615065D01*
X156546662Y-72630000D01*
X156578338Y-72630000D01*
X156624303Y-72615065D01*
X156662500Y-72562492D01*
X156662500Y-72530000D01*
X156774632Y-72530000D01*
X157098163Y-72853530D01*
X157157467Y-72912835D01*
X157480000Y-73235368D01*
X157480001Y-73235368D01*
X157822299Y-72893067D01*
X157712183Y-72835275D01*
X157558925Y-72797500D01*
X157401074Y-72797500D01*
X157352544Y-72809461D01*
X157282742Y-72806391D01*
X157225680Y-72766071D01*
X157199475Y-72701301D01*
X157199774Y-72674117D01*
X157217273Y-72529999D01*
X157198247Y-72373302D01*
X157142273Y-72225709D01*
X157116401Y-72188229D01*
X157116401Y-72188228D01*
X156774632Y-72529999D01*
X156774632Y-72530000D01*
X156662500Y-72530000D01*
X156662500Y-72497508D01*
X156624303Y-72444935D01*
X156578338Y-72430000D01*
X156546662Y-72430000D01*
X156500697Y-72444935D01*
X156462500Y-72497508D01*
X156462500Y-72562492D01*
X156317874Y-72562492D01*
X156350367Y-72529999D01*
X156008596Y-72188228D01*
X155982727Y-72225707D01*
X155982724Y-72225713D01*
X155926753Y-72373301D01*
X155907726Y-72530000D01*
X155925225Y-72674118D01*
X155913765Y-72743041D01*
X155866861Y-72794827D01*
X155799405Y-72813034D01*
X155772455Y-72809461D01*
X155723926Y-72797500D01*
X155566074Y-72797500D01*
X155517544Y-72809461D01*
X155447742Y-72806391D01*
X155390680Y-72766071D01*
X155364475Y-72701301D01*
X155364774Y-72674117D01*
X155382273Y-72529999D01*
X155363247Y-72373302D01*
X155307273Y-72225709D01*
X155281401Y-72188229D01*
X155281401Y-72188228D01*
X154939632Y-72529999D01*
X154939632Y-72530000D01*
X154827500Y-72530000D01*
X154827500Y-72497508D01*
X154789303Y-72444935D01*
X154743338Y-72430000D01*
X154711662Y-72430000D01*
X154665697Y-72444935D01*
X154627500Y-72497508D01*
X154627500Y-72562492D01*
X154482874Y-72562492D01*
X154515367Y-72529999D01*
X154173596Y-72188228D01*
X154147727Y-72225707D01*
X154147724Y-72225713D01*
X154091753Y-72373301D01*
X154072726Y-72530000D01*
X154090225Y-72674118D01*
X154078765Y-72743041D01*
X154031861Y-72794827D01*
X153964405Y-72813034D01*
X153937455Y-72809461D01*
X153888926Y-72797500D01*
X153731075Y-72797500D01*
X153577815Y-72835275D01*
X153467700Y-72893068D01*
X141470500Y-72893068D01*
X141470500Y-72095362D01*
X141470499Y-72095345D01*
X141467157Y-72064270D01*
X141463989Y-72034799D01*
X141455150Y-72011102D01*
X141441896Y-71975568D01*
X154385200Y-71975568D01*
X154727500Y-72317868D01*
X154727501Y-72317868D01*
X155069798Y-71975568D01*
X156220200Y-71975568D01*
X156562500Y-72317868D01*
X156562501Y-72317868D01*
X156904799Y-71975567D01*
X156794683Y-71917775D01*
X156641425Y-71880000D01*
X156483575Y-71880000D01*
X156330315Y-71917775D01*
X156220200Y-71975568D01*
X155069798Y-71975568D01*
X155069799Y-71975567D01*
X154959683Y-71917775D01*
X154806425Y-71880000D01*
X154648575Y-71880000D01*
X154495315Y-71917775D01*
X154385200Y-71975568D01*
X141441896Y-71975568D01*
X141441522Y-71974564D01*
X141412889Y-71897796D01*
X141325261Y-71780739D01*
X141208204Y-71693111D01*
X141071203Y-71642011D01*
X141010654Y-71635500D01*
X141010638Y-71635500D01*
X139913362Y-71635500D01*
X139913345Y-71635500D01*
X139852797Y-71642011D01*
X139852795Y-71642011D01*
X139715795Y-71693111D01*
X139598739Y-71780739D01*
X139511111Y-71897795D01*
X139460011Y-72034795D01*
X139460011Y-72034797D01*
X139453500Y-72095345D01*
X139453500Y-73192654D01*
X133350500Y-73192654D01*
X133350500Y-68580000D01*
X133626654Y-68580000D01*
X133646017Y-68875424D01*
X133646018Y-68875436D01*
X133703774Y-69165789D01*
X133703779Y-69165809D01*
X133798937Y-69446137D01*
X133798941Y-69446147D01*
X133929879Y-69711663D01*
X133929888Y-69711678D01*
X134094368Y-69957839D01*
X134289572Y-70180427D01*
X134460225Y-70330085D01*
X134512162Y-70375633D01*
X134758327Y-70540115D01*
X134758330Y-70540116D01*
X134758336Y-70540120D01*
X135023852Y-70671058D01*
X135023862Y-70671062D01*
X135304190Y-70766220D01*
X135304194Y-70766221D01*
X135304203Y-70766224D01*
X135500493Y-70805269D01*
X135594563Y-70823981D01*
X135594564Y-70823981D01*
X135594574Y-70823983D01*
X135890000Y-70843346D01*
X136185426Y-70823983D01*
X136475797Y-70766224D01*
X136475809Y-70766220D01*
X136756137Y-70671062D01*
X136756147Y-70671058D01*
X137021663Y-70540120D01*
X137021663Y-70540119D01*
X137021673Y-70540115D01*
X137267838Y-70375633D01*
X137490427Y-70180427D01*
X137685633Y-69957838D01*
X137850115Y-69711673D01*
X137981059Y-69446145D01*
X138044632Y-69258866D01*
X138076220Y-69165809D01*
X138076220Y-69165808D01*
X138076224Y-69165797D01*
X138133983Y-68875426D01*
X138153346Y-68580000D01*
X138133983Y-68284574D01*
X138129478Y-68261928D01*
X138088531Y-68056074D01*
X138076224Y-67994203D01*
X138076220Y-67994190D01*
X137981062Y-67713862D01*
X137981058Y-67713852D01*
X137850120Y-67448336D01*
X137850111Y-67448321D01*
X137813236Y-67393134D01*
X137685633Y-67202162D01*
X137619876Y-67127181D01*
X137490427Y-66979572D01*
X137267839Y-66784368D01*
X137259624Y-66778879D01*
X137136812Y-66696818D01*
X137021678Y-66619888D01*
X137021663Y-66619879D01*
X136756147Y-66488941D01*
X136756137Y-66488937D01*
X136475809Y-66393779D01*
X136475789Y-66393774D01*
X136185436Y-66336018D01*
X136185427Y-66336017D01*
X136185426Y-66336017D01*
X135890000Y-66316654D01*
X135594574Y-66336017D01*
X135594573Y-66336017D01*
X135594563Y-66336018D01*
X135304210Y-66393774D01*
X135304190Y-66393779D01*
X135023862Y-66488937D01*
X135023852Y-66488941D01*
X134758336Y-66619879D01*
X134758321Y-66619888D01*
X134512160Y-66784368D01*
X134289572Y-66979572D01*
X134094368Y-67202160D01*
X133929888Y-67448321D01*
X133929879Y-67448336D01*
X133798941Y-67713852D01*
X133798937Y-67713862D01*
X133703779Y-67994190D01*
X133703774Y-67994210D01*
X133646018Y-68284563D01*
X133646017Y-68284575D01*
X133626654Y-68580000D01*
X133350500Y-68580000D01*
X133350500Y-66164500D01*
X133370185Y-66097461D01*
X133422989Y-66051706D01*
X133474500Y-66040500D01*
X187327500Y-66040500D01*
X187394539Y-66060185D01*
G37*
G04 #@! TD.AperFunction*
M02*
