G04 #@! TF.GenerationSoftware,KiCad,Pcbnew,7.0.8*
G04 #@! TF.CreationDate,2023-12-07T14:44:19+01:00*
G04 #@! TF.ProjectId,ESP32-aqs,45535033-322d-4617-9173-2e6b69636164,rev?*
G04 #@! TF.SameCoordinates,Original*
G04 #@! TF.FileFunction,Soldermask,Bot*
G04 #@! TF.FilePolarity,Negative*
%FSLAX46Y46*%
G04 Gerber Fmt 4.6, Leading zero omitted, Abs format (unit mm)*
G04 Created by KiCad (PCBNEW 7.0.8) date 2023-12-07 14:44:19*
%MOMM*%
%LPD*%
G01*
G04 APERTURE LIST*
%ADD10C,2.000000*%
%ADD11C,0.504000*%
%ADD12R,1.000000X1.000000*%
%ADD13C,0.650000*%
%ADD14O,2.216000X1.108000*%
%ADD15C,4.000000*%
%ADD16R,2.200000X2.200000*%
%ADD17C,2.200000*%
G04 APERTURE END LIST*
D10*
X143152000Y-103560000D03*
X136652000Y-103560000D03*
X143152000Y-99060000D03*
X136652000Y-99060000D03*
D11*
X154727500Y-72530000D03*
X156562500Y-72530000D03*
X153810000Y-73447500D03*
X155645000Y-73447500D03*
X157480000Y-73447500D03*
X154727500Y-74365000D03*
X156562500Y-74365000D03*
X153810000Y-75282500D03*
X155645000Y-75282500D03*
X157480000Y-75282500D03*
X154727500Y-76200000D03*
X156562500Y-76200000D03*
D12*
X140462000Y-72644000D03*
D13*
X133430000Y-83380000D03*
X133430000Y-84230000D03*
X133430000Y-85080000D03*
X133430000Y-85930000D03*
X133430000Y-86780000D03*
X133430000Y-87630000D03*
X133430000Y-88480000D03*
X133430000Y-89330000D03*
X132080000Y-89330000D03*
X132080000Y-88480000D03*
X132080000Y-87630000D03*
X132080000Y-86780000D03*
X132080000Y-85930000D03*
X132080000Y-85080000D03*
X132080000Y-84230000D03*
X132080000Y-83380000D03*
D14*
X132450000Y-82030000D03*
X132450000Y-90680000D03*
X129070000Y-90680000D03*
X129070000Y-82030000D03*
D15*
X173736000Y-105156000D03*
D16*
X183388000Y-95500000D03*
D17*
X183388000Y-92960000D03*
X183388000Y-90420000D03*
X183388000Y-87880000D03*
X183388000Y-85340000D03*
D16*
X183388000Y-80830000D03*
D17*
X183388000Y-78290000D03*
X183388000Y-75750000D03*
X183388000Y-73210000D03*
X183388000Y-70670000D03*
X183388000Y-68130000D03*
D15*
X127508000Y-68580000D03*
D10*
X172030000Y-90170000D03*
X172030000Y-83670000D03*
X176530000Y-90170000D03*
X176530000Y-83670000D03*
M02*
