M48
; DRILL file {KiCad 7.0.8} date Thu Oct 12 10:50:13 2023
; FORMAT={-:-/ absolute / metric / decimal}
; #@! TF.CreationDate,2023-10-12T10:50:13+02:00
; #@! TF.GenerationSoftware,Kicad,Pcbnew,7.0.8
; #@! TF.FileFunction,Plated,1,2,PTH
FMAT,2
METRIC
; #@! TA.AperFunction,Plated,PTH,ComponentDrill
T1C0.200
; #@! TA.AperFunction,Plated,PTH,ViaDrill
T2C0.400
; #@! TA.AperFunction,Plated,PTH,ComponentDrill
T3C0.500
; #@! TA.AperFunction,Plated,PTH,ComponentDrill
T4C1.000
; #@! TA.AperFunction,Plated,PTH,ComponentDrill
T5C1.100
; #@! TA.AperFunction,Plated,PTH,ComponentDrill
T6C2.200
%
G90
G05
T1
X154.137Y-84.38
X154.137Y-86.215
X155.054Y-83.463
X155.054Y-85.298
X155.054Y-87.133
X155.972Y-84.38
X155.972Y-86.215
X156.889Y-83.463
X156.889Y-85.298
X156.889Y-87.133
X157.807Y-84.38
X157.807Y-86.215
T2
X133.248Y-82.513
X148.472Y-79.068
X151.257Y-95.308
X165.354Y-94.488
X168.148Y-84.836
X168.164Y-80.264
X170.164Y-84.82
X170.18Y-80.264
X171.196Y-97.028
X173.99Y-92.456
X176.276Y-79.248
X176.664Y-88.78
X179.059Y-96.255
X182.075Y-98.341
X183.642Y-81.026
X183.642Y-91.186
X188.468Y-94.488
X188.976Y-98.806
X192.786Y-99.06
X200.278Y-83.09
X200.278Y-89.09
T3
X122.936Y-63.602
T4
X187.452Y-69.85
X189.992Y-69.85
X192.532Y-69.85
X195.072Y-69.85
X197.612Y-69.85
X200.152Y-69.85
T5
X131.168Y-89.916
X131.168Y-94.416
X137.668Y-89.916
X137.668Y-94.416
X168.962Y-101.382
X168.962Y-105.882
X175.462Y-101.382
X175.462Y-105.882
T6
X119.38Y-61.214
X119.38Y-109.22
X210.82Y-61.214
X210.82Y-109.22
T0
M30
