M48
; DRILL file {KiCad 7.0.8} date Thu Dec  7 14:44:22 2023
; FORMAT={-:-/ absolute / metric / decimal}
; #@! TF.CreationDate,2023-12-07T14:44:22+01:00
; #@! TF.GenerationSoftware,Kicad,Pcbnew,7.0.8
; #@! TF.FileFunction,Plated,1,2,PTH
FMAT,2
METRIC
; #@! TA.AperFunction,Plated,PTH,ComponentDrill
T1C0.200
; #@! TA.AperFunction,Plated,PTH,ViaDrill
T2C0.400
; #@! TA.AperFunction,Plated,PTH,ComponentDrill
T3C0.400
; #@! TA.AperFunction,Plated,PTH,ComponentDrill
T4C0.500
; #@! TA.AperFunction,Plated,PTH,ComponentDrill
T5C0.600
; #@! TA.AperFunction,Plated,PTH,ComponentDrill
T6C1.100
; #@! TA.AperFunction,Plated,PTH,ComponentDrill
T7C3.000
%
G90
G05
T1
X153.81Y-73.447
X153.81Y-75.282
X154.727Y-72.53
X154.727Y-74.365
X154.727Y-76.2
X155.645Y-73.447
X155.645Y-75.282
X156.562Y-72.53
X156.562Y-74.365
X156.562Y-76.2
X157.48Y-73.447
X157.48Y-75.282
T2
X126.873Y-72.263
X127.0Y-78.74
X128.5Y-87.0
X129.0Y-85.5
X129.393Y-71.735
X130.75Y-78.25
X130.8Y-72.5
X130.81Y-70.612
X131.5Y-77.5
X131.964Y-93.225
X132.5Y-98.5
X132.5Y-101.0
X134.25Y-93.225
X135.75Y-76.0
X139.446Y-89.154
X146.05Y-90.678
X148.082Y-78.232
X148.082Y-80.772
X148.336Y-68.072
X148.59Y-89.408
X148.59Y-91.694
X159.366Y-87.159
X164.084Y-86.868
X165.1Y-83.312
X165.1Y-89.408
X165.354Y-70.612
X165.354Y-71.882
X166.116Y-85.852
X167.132Y-67.564
X170.942Y-80.264
X171.0Y-72.0
X171.196Y-93.98
X171.704Y-76.67
X175.514Y-78.74
X176.022Y-74.676
X178.2Y-72.5
X181.75Y-99.0
X184.15Y-98.806
T3
X132.08Y-83.38
X132.08Y-84.23
X132.08Y-85.08
X132.08Y-85.93
X132.08Y-86.78
X132.08Y-87.63
X132.08Y-88.48
X132.08Y-89.33
X133.43Y-83.38
X133.43Y-84.23
X133.43Y-85.08
X133.43Y-85.93
X133.43Y-86.78
X133.43Y-87.63
X133.43Y-88.48
X133.43Y-89.33
T4
X140.462Y-72.644
T6
X136.652Y-99.06
X136.652Y-103.56
X143.152Y-99.06
X143.152Y-103.56
X172.03Y-83.67
X172.03Y-90.17
X176.53Y-83.67
X176.53Y-90.17
X183.388Y-68.13
X183.388Y-70.67
X183.388Y-73.21
X183.388Y-75.75
X183.388Y-78.29
X183.388Y-80.83
X183.388Y-85.34
X183.388Y-87.88
X183.388Y-90.42
X183.388Y-92.96
X183.388Y-95.5
T7
X127.508Y-68.58
X173.736Y-105.156
T5
X129.47Y-82.03G85X128.67Y-82.03
G05
X129.47Y-90.68G85X128.67Y-90.68
G05
X133.2Y-82.03G85X131.7Y-82.03
G05
X133.2Y-90.68G85X131.7Y-90.68
G05
T0
M30
