%TF.GenerationSoftware,KiCad,Pcbnew,(6.0.7)*%
%TF.CreationDate,2023-10-05T09:54:16+02:00*%
%TF.ProjectId,ESP32-aqs,45535033-322d-4617-9173-2e6b69636164,rev?*%
%TF.SameCoordinates,Original*%
%TF.FileFunction,Copper,L1,Top*%
%TF.FilePolarity,Positive*%
%FSLAX46Y46*%
G04 Gerber Fmt 4.6, Leading zero omitted, Abs format (unit mm)*
G04 Created by KiCad (PCBNEW (6.0.7)) date 2023-10-05 09:54:16*
%MOMM*%
%LPD*%
G01*
G04 APERTURE LIST*
G04 Aperture macros list*
%AMRoundRect*
0 Rectangle with rounded corners*
0 $1 Rounding radius*
0 $2 $3 $4 $5 $6 $7 $8 $9 X,Y pos of 4 corners*
0 Add a 4 corners polygon primitive as box body*
4,1,4,$2,$3,$4,$5,$6,$7,$8,$9,$2,$3,0*
0 Add four circle primitives for the rounded corners*
1,1,$1+$1,$2,$3*
1,1,$1+$1,$4,$5*
1,1,$1+$1,$6,$7*
1,1,$1+$1,$8,$9*
0 Add four rect primitives between the rounded corners*
20,1,$1+$1,$2,$3,$4,$5,0*
20,1,$1+$1,$4,$5,$6,$7,0*
20,1,$1+$1,$6,$7,$8,$9,0*
20,1,$1+$1,$8,$9,$2,$3,0*%
%AMFreePoly0*
4,1,15,-0.324998,0.855000,0.625000,0.855000,0.628536,0.853536,0.630000,0.850000,0.630000,-0.850000,0.628536,-0.853536,0.625000,-0.855000,-0.625000,-0.855000,-0.628536,-0.853536,-0.630000,-0.850000,-0.630001,0.550000,-0.628536,0.553536,-0.328536,0.853536,-0.325000,0.855001,-0.324998,0.855000,-0.324998,0.855000,$1*%
G04 Aperture macros list end*
%TA.AperFunction,ComponentPad*%
%ADD10C,3.500000*%
%TD*%
%TA.AperFunction,SMDPad,CuDef*%
%ADD11RoundRect,0.250000X0.350000X0.450000X-0.350000X0.450000X-0.350000X-0.450000X0.350000X-0.450000X0*%
%TD*%
%TA.AperFunction,SMDPad,CuDef*%
%ADD12R,0.550000X0.400000*%
%TD*%
%TA.AperFunction,SMDPad,CuDef*%
%ADD13FreePoly0,0.000000*%
%TD*%
%TA.AperFunction,SMDPad,CuDef*%
%ADD14RoundRect,0.250000X-0.475000X0.337500X-0.475000X-0.337500X0.475000X-0.337500X0.475000X0.337500X0*%
%TD*%
%TA.AperFunction,SMDPad,CuDef*%
%ADD15RoundRect,0.250000X-0.450000X0.325000X-0.450000X-0.325000X0.450000X-0.325000X0.450000X0.325000X0*%
%TD*%
%TA.AperFunction,SMDPad,CuDef*%
%ADD16R,1.000000X1.000000*%
%TD*%
%TA.AperFunction,SMDPad,CuDef*%
%ADD17R,1.050000X2.200000*%
%TD*%
%TA.AperFunction,ComponentPad*%
%ADD18C,2.000000*%
%TD*%
%TA.AperFunction,SMDPad,CuDef*%
%ADD19R,2.000000X0.900000*%
%TD*%
%TA.AperFunction,SMDPad,CuDef*%
%ADD20R,0.900000X2.000000*%
%TD*%
%TA.AperFunction,SMDPad,CuDef*%
%ADD21R,1.330000X1.330000*%
%TD*%
%TA.AperFunction,ComponentPad*%
%ADD22C,0.300000*%
%TD*%
%TA.AperFunction,SMDPad,CuDef*%
%ADD23R,2.540000X1.524000*%
%TD*%
%TA.AperFunction,ComponentPad*%
%ADD24R,1.000000X1.000000*%
%TD*%
%TA.AperFunction,ComponentPad*%
%ADD25R,1.700000X1.700000*%
%TD*%
%TA.AperFunction,ComponentPad*%
%ADD26O,1.700000X1.700000*%
%TD*%
%TA.AperFunction,SMDPad,CuDef*%
%ADD27R,0.600000X1.700000*%
%TD*%
%TA.AperFunction,SMDPad,CuDef*%
%ADD28R,1.000000X2.800000*%
%TD*%
%TA.AperFunction,SMDPad,CuDef*%
%ADD29RoundRect,0.250000X-0.337500X-0.475000X0.337500X-0.475000X0.337500X0.475000X-0.337500X0.475000X0*%
%TD*%
%TA.AperFunction,SMDPad,CuDef*%
%ADD30RoundRect,0.250000X-0.450000X0.350000X-0.450000X-0.350000X0.450000X-0.350000X0.450000X0.350000X0*%
%TD*%
%TA.AperFunction,SMDPad,CuDef*%
%ADD31R,1.500000X2.000000*%
%TD*%
%TA.AperFunction,SMDPad,CuDef*%
%ADD32R,3.800000X2.000000*%
%TD*%
%TA.AperFunction,ViaPad*%
%ADD33C,0.800000*%
%TD*%
%TA.AperFunction,Conductor*%
%ADD34C,0.250000*%
%TD*%
G04 APERTURE END LIST*
D10*
%TO.P,H2,1*%
%TO.N,N/C*%
X221996000Y-113030000D03*
%TD*%
D11*
%TO.P,R5,1*%
%TO.N,+3V3*%
X170164000Y-80264000D03*
%TO.P,R5,2*%
%TO.N,SCL*%
X168164000Y-80264000D03*
%TD*%
D12*
%TO.P,U3,1,VDD*%
%TO.N,+3V3*%
X174364000Y-95466000D03*
%TO.P,U3,2,VSS*%
%TO.N,GND*%
X174364000Y-96266000D03*
%TO.P,U3,3,SDA*%
%TO.N,SDA*%
X174364000Y-97066000D03*
%TO.P,U3,4,N/A*%
%TO.N,GND*%
X176664000Y-97066000D03*
%TO.P,U3,5,VDDH*%
%TO.N,+3V3*%
X176664000Y-96266000D03*
%TO.P,U3,6,SCL*%
%TO.N,SCL*%
X176664000Y-95466000D03*
D13*
%TO.P,U3,7,EXP*%
%TO.N,GND*%
X175514000Y-96266000D03*
%TD*%
D14*
%TO.P,C8,1*%
%TO.N,+3V3*%
X203454000Y-85090000D03*
%TO.P,C8,2*%
%TO.N,GND*%
X203454000Y-87165000D03*
%TD*%
D15*
%TO.P,D1,1,K*%
%TO.N,GND*%
X129032000Y-74168000D03*
%TO.P,D1,2,A*%
%TO.N,Net-(D1-Pad2)*%
X129032000Y-76218000D03*
%TD*%
D16*
%TO.P,J3,1,In*%
%TO.N,Net-(J3-Pad1)*%
X208280000Y-70842000D03*
D17*
%TO.P,J3,2,Ext*%
%TO.N,GND*%
X209755000Y-69342000D03*
X206805000Y-69342000D03*
D16*
X208280000Y-67842000D03*
%TD*%
D14*
%TO.P,C5,1*%
%TO.N,EN*%
X142494000Y-91672500D03*
%TO.P,C5,2*%
%TO.N,GND*%
X142494000Y-93747500D03*
%TD*%
%TO.P,C4,1*%
%TO.N,+3V3*%
X182372000Y-96266000D03*
%TO.P,C4,2*%
%TO.N,GND*%
X182372000Y-98341000D03*
%TD*%
D11*
%TO.P,R1,1*%
%TO.N,Net-(D1-Pad2)*%
X126492000Y-77724000D03*
%TO.P,R1,2*%
%TO.N,+3V3*%
X124492000Y-77724000D03*
%TD*%
D18*
%TO.P,SW1,1*%
%TO.N,GND*%
X137668000Y-94416000D03*
X131168000Y-94416000D03*
%TO.P,SW1,2*%
%TO.N,EN*%
X131168000Y-89916000D03*
X137668000Y-89916000D03*
%TD*%
D19*
%TO.P,U2,1,GND*%
%TO.N,GND*%
X148472000Y-77798000D03*
%TO.P,U2,2,3V3*%
%TO.N,+3V3*%
X148472000Y-79068000D03*
%TO.P,U2,3,EN*%
%TO.N,EN*%
X148472000Y-80338000D03*
%TO.P,U2,4,SENSOR_VP*%
%TO.N,unconnected-(U2-Pad4)*%
X148472000Y-81608000D03*
%TO.P,U2,5,SENSOR_VN*%
%TO.N,unconnected-(U2-Pad5)*%
X148472000Y-82878000D03*
%TO.P,U2,6,IO34*%
%TO.N,unconnected-(U2-Pad6)*%
X148472000Y-84148000D03*
%TO.P,U2,7,IO35*%
%TO.N,unconnected-(U2-Pad7)*%
X148472000Y-85418000D03*
%TO.P,U2,8,IO32*%
%TO.N,unconnected-(U2-Pad8)*%
X148472000Y-86688000D03*
%TO.P,U2,9,IO33*%
%TO.N,unconnected-(U2-Pad9)*%
X148472000Y-87958000D03*
%TO.P,U2,10,IO25*%
%TO.N,unconnected-(U2-Pad10)*%
X148472000Y-89228000D03*
%TO.P,U2,11,IO26*%
%TO.N,unconnected-(U2-Pad11)*%
X148472000Y-90498000D03*
%TO.P,U2,12,IO27*%
%TO.N,unconnected-(U2-Pad12)*%
X148472000Y-91768000D03*
%TO.P,U2,13,IO14*%
%TO.N,RST*%
X148472000Y-93038000D03*
%TO.P,U2,14,IO12*%
%TO.N,unconnected-(U2-Pad14)*%
X148472000Y-94308000D03*
D20*
%TO.P,U2,15,GND*%
%TO.N,GND*%
X151257000Y-95308000D03*
%TO.P,U2,16,IO13*%
%TO.N,unconnected-(U2-Pad16)*%
X152527000Y-95308000D03*
%TO.P,U2,17,SHD/SD2*%
%TO.N,unconnected-(U2-Pad17)*%
X153797000Y-95308000D03*
%TO.P,U2,18,SWP/SD3*%
%TO.N,unconnected-(U2-Pad18)*%
X155067000Y-95308000D03*
%TO.P,U2,19,SCS/CMD*%
%TO.N,unconnected-(U2-Pad19)*%
X156337000Y-95308000D03*
%TO.P,U2,20,SCK/CLK*%
%TO.N,unconnected-(U2-Pad20)*%
X157607000Y-95308000D03*
%TO.P,U2,21,SDO/SD0*%
%TO.N,unconnected-(U2-Pad21)*%
X158877000Y-95308000D03*
%TO.P,U2,22,SDI/SD1*%
%TO.N,unconnected-(U2-Pad22)*%
X160147000Y-95308000D03*
%TO.P,U2,23,IO15*%
%TO.N,unconnected-(U2-Pad23)*%
X161417000Y-95308000D03*
%TO.P,U2,24,IO2*%
%TO.N,unconnected-(U2-Pad24)*%
X162687000Y-95308000D03*
D19*
%TO.P,U2,25,IO0*%
%TO.N,BOOT*%
X165472000Y-94308000D03*
%TO.P,U2,26,IO4*%
%TO.N,unconnected-(U2-Pad26)*%
X165472000Y-93038000D03*
%TO.P,U2,27,IO16*%
%TO.N,unconnected-(U2-Pad27)*%
X165472000Y-91768000D03*
%TO.P,U2,28,IO17*%
%TO.N,unconnected-(U2-Pad28)*%
X165472000Y-90498000D03*
%TO.P,U2,29,IO5*%
%TO.N,CS*%
X165472000Y-89228000D03*
%TO.P,U2,30,IO18*%
%TO.N,SCK*%
X165472000Y-87958000D03*
%TO.P,U2,31,IO19*%
%TO.N,MISO*%
X165472000Y-86688000D03*
%TO.P,U2,32,NC*%
%TO.N,unconnected-(U2-Pad32)*%
X165472000Y-85418000D03*
%TO.P,U2,33,IO21*%
%TO.N,SDA*%
X165472000Y-84148000D03*
%TO.P,U2,34,RXD0*%
%TO.N,TX*%
X165472000Y-82878000D03*
%TO.P,U2,35,TXD0*%
%TO.N,RX*%
X165472000Y-81608000D03*
%TO.P,U2,36,IO22*%
%TO.N,SCL*%
X165472000Y-80338000D03*
%TO.P,U2,37,IO23*%
%TO.N,MOSI*%
X165472000Y-79068000D03*
%TO.P,U2,38,GND*%
%TO.N,GND*%
X165472000Y-77798000D03*
D21*
%TO.P,U2,39_1,GND*%
X154137000Y-83463000D03*
%TO.P,U2,39_2,GND*%
X155972000Y-83463000D03*
%TO.P,U2,39_3,GND*%
X157807000Y-83463000D03*
%TO.P,U2,39_4,GND*%
X154137000Y-85298000D03*
%TO.P,U2,39_5,GND*%
X155972000Y-85298000D03*
%TO.P,U2,39_6,GND*%
X157807000Y-85298000D03*
%TO.P,U2,39_7,GND*%
X154137000Y-87133000D03*
%TO.P,U2,39_8,GND*%
X155972000Y-87133000D03*
%TO.P,U2,39_9,GND*%
X157807000Y-87133000D03*
D22*
%TO.P,U2,39_10,GND*%
X155054500Y-83463000D03*
%TO.P,U2,39_11,GND*%
X156889500Y-83463000D03*
%TO.P,U2,39_12,GND*%
X154137000Y-84380500D03*
%TO.P,U2,39_13,GND*%
X155972000Y-84380500D03*
%TO.P,U2,39_14,GND*%
X157807000Y-84380500D03*
%TO.P,U2,39_15,GND*%
X155054500Y-85298000D03*
%TO.P,U2,39_16,GND*%
X156889500Y-85298000D03*
%TO.P,U2,39_17,GND*%
X154137000Y-86215500D03*
%TO.P,U2,39_18,GND*%
X155972000Y-86215500D03*
%TO.P,U2,39_19,GND*%
X157807000Y-86215500D03*
%TO.P,U2,39_20,GND*%
X155054500Y-87133000D03*
%TO.P,U2,39_21,GND*%
X156889500Y-87133000D03*
%TD*%
D14*
%TO.P,C9,1*%
%TO.N,+3V3*%
X206756000Y-85047000D03*
%TO.P,C9,2*%
%TO.N,GND*%
X206756000Y-87122000D03*
%TD*%
D10*
%TO.P,H3,1*%
%TO.N,N/C*%
X115316000Y-113030000D03*
%TD*%
D14*
%TO.P,C7,1*%
%TO.N,+3V3*%
X142494000Y-81999000D03*
%TO.P,C7,2*%
%TO.N,GND*%
X142494000Y-84074000D03*
%TD*%
D23*
%TO.P,U4,1,GND*%
%TO.N,GND*%
X183738000Y-77090000D03*
%TO.P,U4,2,SO*%
%TO.N,MISO*%
X183738000Y-79090000D03*
%TO.P,U4,3,SI*%
%TO.N,MOSI*%
X183738000Y-81090000D03*
%TO.P,U4,4,SCK*%
%TO.N,SCK*%
X183738000Y-83090000D03*
%TO.P,U4,5,NSS*%
%TO.N,CS*%
X183738000Y-85090000D03*
%TO.P,U4,6,RST*%
%TO.N,RST*%
X183738000Y-87090000D03*
%TO.P,U4,7,DIO5*%
%TO.N,unconnected-(U4-Pad7)*%
X183738000Y-89090000D03*
%TO.P,U4,8,GND*%
%TO.N,GND*%
X183738000Y-91170000D03*
%TO.P,U4,9,RF*%
%TO.N,Net-(J3-Pad1)*%
X200278000Y-91170000D03*
%TO.P,U4,10,GND*%
%TO.N,GND*%
X200278000Y-89090000D03*
%TO.P,U4,11,DIO3*%
%TO.N,unconnected-(U4-Pad11)*%
X200278000Y-87090000D03*
%TO.P,U4,12,DIO4*%
%TO.N,unconnected-(U4-Pad12)*%
X200278000Y-85090000D03*
%TO.P,U4,13,VCC*%
%TO.N,+3V3*%
X200278000Y-83090000D03*
%TO.P,U4,14,DIO0*%
%TO.N,unconnected-(U4-Pad14)*%
X200278000Y-81090000D03*
%TO.P,U4,15,DIO1*%
%TO.N,unconnected-(U4-Pad15)*%
X200278000Y-79090000D03*
%TO.P,U4,16,DIO2*%
%TO.N,unconnected-(U4-Pad16)*%
X200278000Y-77090000D03*
%TD*%
D24*
%TO.P,TP1,1,1*%
%TO.N,+3V3*%
X122936000Y-63602000D03*
%TD*%
D25*
%TO.P,J1,1,Pin_1*%
%TO.N,unconnected-(J1-Pad1)*%
X187452000Y-69850000D03*
D26*
%TO.P,J1,2,Pin_2*%
%TO.N,RX*%
X189992000Y-69850000D03*
%TO.P,J1,3,Pin_3*%
%TO.N,TX*%
X192532000Y-69850000D03*
%TO.P,J1,4,Pin_4*%
%TO.N,VIN*%
X195072000Y-69850000D03*
%TO.P,J1,5,Pin_5*%
%TO.N,unconnected-(J1-Pad5)*%
X197612000Y-69850000D03*
%TO.P,J1,6,Pin_6*%
%TO.N,GND*%
X200152000Y-69850000D03*
%TD*%
D10*
%TO.P,H1,1*%
%TO.N,N/C*%
X221996000Y-61214000D03*
%TD*%
D27*
%TO.P,J2,1,1*%
%TO.N,VIN*%
X193879000Y-98896500D03*
%TO.P,J2,2,2*%
%TO.N,GND*%
X192629000Y-98896500D03*
%TO.P,J2,3,3*%
%TO.N,SDA*%
X191379000Y-98896500D03*
%TO.P,J2,4,4*%
%TO.N,SCL*%
X190129000Y-98896500D03*
%TO.P,J2,5,5*%
%TO.N,GND*%
X188879000Y-98896500D03*
%TO.P,J2,6,6*%
%TO.N,unconnected-(J2-Pad6)*%
X187629000Y-98896500D03*
D28*
%TO.P,J2,S1,SHIELD*%
%TO.N,unconnected-(J2-PadS1)*%
X185779000Y-102246500D03*
%TO.P,J2,S2,SHIELD*%
X195729000Y-102246500D03*
%TD*%
D14*
%TO.P,C3,1*%
%TO.N,+3V3*%
X179070000Y-96244500D03*
%TO.P,C3,2*%
%TO.N,GND*%
X179070000Y-98319500D03*
%TD*%
D29*
%TO.P,C1,1*%
%TO.N,VIN*%
X133210500Y-82550000D03*
%TO.P,C1,2*%
%TO.N,GND*%
X135285500Y-82550000D03*
%TD*%
D14*
%TO.P,C6,1*%
%TO.N,+3V3*%
X138938000Y-81999000D03*
%TO.P,C6,2*%
%TO.N,GND*%
X138938000Y-84074000D03*
%TD*%
%TO.P,C2,1*%
%TO.N,+3V3*%
X129032000Y-68580000D03*
%TO.P,C2,2*%
%TO.N,GND*%
X129032000Y-70655000D03*
%TD*%
D30*
%TO.P,R3,1*%
%TO.N,+3V3*%
X142494000Y-86624500D03*
%TO.P,R3,2*%
%TO.N,EN*%
X142494000Y-88624500D03*
%TD*%
D11*
%TO.P,R4,1*%
%TO.N,+3V3*%
X170148000Y-84836000D03*
%TO.P,R4,2*%
%TO.N,SDA*%
X168148000Y-84836000D03*
%TD*%
D31*
%TO.P,U1,1,GND*%
%TO.N,GND*%
X124982000Y-68580000D03*
%TO.P,U1,2,VO*%
%TO.N,+3V3*%
X122682000Y-68580000D03*
D32*
X122682000Y-74880000D03*
D31*
%TO.P,U1,3,VI*%
%TO.N,VIN*%
X120382000Y-68580000D03*
%TD*%
D10*
%TO.P,H4,1*%
%TO.N,N/C*%
X115570000Y-61214000D03*
%TD*%
D18*
%TO.P,SW2,1*%
%TO.N,BOOT*%
X175462000Y-101382000D03*
X168962000Y-101382000D03*
%TO.P,SW2,2*%
%TO.N,GND*%
X175462000Y-105882000D03*
X168962000Y-105882000D03*
%TD*%
D33*
%TO.N,VIN*%
X133248000Y-82512500D03*
%TO.N,GND*%
X192786000Y-99060000D03*
X183642000Y-91186000D03*
X182075000Y-98341000D03*
X151257000Y-95308000D03*
X200278000Y-89090000D03*
X188976000Y-98806000D03*
%TO.N,+3V3*%
X148472000Y-79068000D03*
X170180000Y-80264000D03*
X188468000Y-94488000D03*
X170164000Y-84820000D03*
X200278000Y-83090000D03*
X179059250Y-96255250D03*
X173990000Y-92456000D03*
%TO.N,SDA*%
X171196000Y-97028000D03*
X168148000Y-84836000D03*
%TO.N,SCL*%
X176664000Y-88780000D03*
X168164000Y-80264000D03*
%TO.N,BOOT*%
X165354000Y-94488000D03*
%TO.N,MOSI*%
X176276000Y-79248000D03*
X183642000Y-81026000D03*
%TD*%
D34*
%TO.N,VIN*%
X195072000Y-97703500D02*
X193879000Y-98896500D01*
X118110000Y-70104000D02*
X119634000Y-68580000D01*
X195072000Y-69850000D02*
X195072000Y-97703500D01*
X118110000Y-80518000D02*
X118110000Y-70104000D01*
X133210500Y-82550000D02*
X120142000Y-82550000D01*
X119634000Y-68580000D02*
X120382000Y-68580000D01*
X120142000Y-82550000D02*
X118110000Y-80518000D01*
X133248000Y-82512500D02*
X133210500Y-82550000D01*
%TO.N,GND*%
X129032000Y-74168000D02*
X129032000Y-74422000D01*
X209755000Y-69342000D02*
X209804000Y-69293000D01*
X128524000Y-91772000D02*
X128524000Y-89154000D01*
X209804000Y-69293000D02*
X209804000Y-68072000D01*
X156889500Y-87133000D02*
X155972000Y-87133000D01*
X154137000Y-84380500D02*
X154137000Y-85298000D01*
X155054500Y-85298000D02*
X154137000Y-85298000D01*
X126957000Y-68580000D02*
X129032000Y-70655000D01*
X131168000Y-94416000D02*
X128524000Y-91772000D01*
X185040000Y-77090000D02*
X185928000Y-77978000D01*
X155054500Y-87133000D02*
X155972000Y-87133000D01*
X182075000Y-98341000D02*
X179091500Y-98341000D01*
X141804000Y-94416000D02*
X142494000Y-93726000D01*
X176664000Y-97066000D02*
X176568000Y-97066000D01*
X177816500Y-97066000D02*
X179070000Y-98319500D01*
X203454000Y-87165000D02*
X206713000Y-87165000D01*
X142494000Y-84074000D02*
X138938000Y-84074000D01*
X168962000Y-105882000D02*
X175462000Y-105882000D01*
X157807000Y-86215500D02*
X157807000Y-87133000D01*
X129032000Y-70655000D02*
X129032000Y-74168000D01*
X201529000Y-89090000D02*
X203454000Y-87165000D01*
X150814000Y-79310000D02*
X151257000Y-79753000D01*
X131168000Y-94416000D02*
X137668000Y-94416000D01*
X137414000Y-82550000D02*
X138938000Y-84074000D01*
X156889500Y-83463000D02*
X155972000Y-83463000D01*
X155054500Y-83463000D02*
X154137000Y-83463000D01*
X148472000Y-77798000D02*
X165472000Y-77798000D01*
X207240000Y-67842000D02*
X208280000Y-67842000D01*
X200152000Y-69850000D02*
X206297000Y-69850000D01*
X154137000Y-86215500D02*
X154137000Y-85298000D01*
X154137000Y-87133000D02*
X154137000Y-86215500D01*
X156889500Y-85298000D02*
X155972000Y-85298000D01*
X156889500Y-87133000D02*
X157807000Y-87133000D01*
X149302000Y-77798000D02*
X150814000Y-79310000D01*
X129032000Y-74422000D02*
X135285500Y-80675500D01*
X155972000Y-84380500D02*
X155972000Y-85298000D01*
X184166000Y-91170000D02*
X183738000Y-91170000D01*
X156889500Y-85298000D02*
X157807000Y-85298000D01*
X185928000Y-77978000D02*
X185928000Y-89408000D01*
X135128000Y-82550000D02*
X135285500Y-82550000D01*
X135285500Y-80675500D02*
X135285500Y-82550000D01*
X157807000Y-84380500D02*
X157807000Y-83463000D01*
X148472000Y-77798000D02*
X149302000Y-77798000D01*
X176276000Y-96774000D02*
X176022000Y-96774000D01*
X156889500Y-83463000D02*
X157807000Y-83463000D01*
X157807000Y-84380500D02*
X157807000Y-85298000D01*
X137668000Y-94416000D02*
X141804000Y-94416000D01*
X185928000Y-89408000D02*
X184166000Y-91170000D01*
X174364000Y-96266000D02*
X175514000Y-96266000D01*
X155972000Y-84380500D02*
X155972000Y-83463000D01*
X176664000Y-97066000D02*
X177816500Y-97066000D01*
X155054500Y-87133000D02*
X154137000Y-87133000D01*
X154137000Y-84380500D02*
X154137000Y-83463000D01*
X206297000Y-69850000D02*
X206805000Y-69342000D01*
X157807000Y-85298000D02*
X157807000Y-86215500D01*
X206805000Y-69342000D02*
X206805000Y-68277000D01*
X124982000Y-68580000D02*
X126957000Y-68580000D01*
X209804000Y-68072000D02*
X209574000Y-67842000D01*
X206805000Y-68277000D02*
X207240000Y-67842000D01*
X155054500Y-85298000D02*
X155972000Y-85298000D01*
X135285500Y-82550000D02*
X137414000Y-82550000D01*
X176568000Y-97066000D02*
X176276000Y-96774000D01*
X206713000Y-87165000D02*
X206756000Y-87122000D01*
X155972000Y-86215500D02*
X155972000Y-85298000D01*
X200278000Y-89090000D02*
X201529000Y-89090000D01*
X151257000Y-79753000D02*
X151257000Y-95308000D01*
X179091500Y-98341000D02*
X179070000Y-98319500D01*
X209574000Y-67842000D02*
X208280000Y-67842000D01*
X155972000Y-86215500D02*
X155972000Y-87133000D01*
X182372000Y-98341000D02*
X182075000Y-98341000D01*
X183738000Y-77090000D02*
X185040000Y-77090000D01*
X155054500Y-83463000D02*
X155972000Y-83463000D01*
X128524000Y-89154000D02*
X135128000Y-82550000D01*
%TO.N,+3V3*%
X182372000Y-96266000D02*
X183642000Y-94996000D01*
X122682000Y-67818000D02*
X124206000Y-66294000D01*
X179059250Y-96255250D02*
X179070000Y-96244500D01*
X131572000Y-75946000D02*
X131572000Y-71120000D01*
X134366000Y-78740000D02*
X131572000Y-75946000D01*
X122682000Y-75914000D02*
X122682000Y-74880000D01*
X148472000Y-79068000D02*
X148144000Y-78740000D01*
X170164000Y-84820000D02*
X170148000Y-84836000D01*
X124206000Y-66294000D02*
X127254000Y-66294000D01*
X144018000Y-85852000D02*
X144018000Y-83523000D01*
X174364000Y-92830000D02*
X173990000Y-92456000D01*
X138938000Y-81999000D02*
X142494000Y-81999000D01*
X129032000Y-68072000D02*
X129032000Y-68580000D01*
X144823000Y-81999000D02*
X142494000Y-81999000D01*
X124492000Y-77724000D02*
X122682000Y-75914000D01*
X200278000Y-83090000D02*
X201454000Y-83090000D01*
X122682000Y-68580000D02*
X122682000Y-67818000D01*
X144018000Y-83523000D02*
X142494000Y-81999000D01*
X122682000Y-68580000D02*
X122682000Y-63856000D01*
X179070000Y-96244500D02*
X182350500Y-96244500D01*
X122682000Y-63856000D02*
X122936000Y-63602000D01*
X148144000Y-78740000D02*
X134366000Y-78740000D01*
X122682000Y-68580000D02*
X122682000Y-74880000D01*
X182350500Y-96244500D02*
X182372000Y-96266000D01*
X201454000Y-83090000D02*
X203454000Y-85090000D01*
X179048500Y-96266000D02*
X179059250Y-96255250D01*
X187960000Y-94996000D02*
X188468000Y-94488000D01*
X203497000Y-85047000D02*
X203454000Y-85090000D01*
X176664000Y-96266000D02*
X179048500Y-96266000D01*
X147754000Y-79068000D02*
X144823000Y-81999000D01*
X174364000Y-95466000D02*
X174364000Y-92830000D01*
X206756000Y-85047000D02*
X203497000Y-85047000D01*
X131572000Y-71120000D02*
X129032000Y-68580000D01*
X127254000Y-66294000D02*
X129032000Y-68072000D01*
X143245500Y-86624500D02*
X144018000Y-85852000D01*
X183642000Y-94996000D02*
X187960000Y-94996000D01*
X142494000Y-86624500D02*
X143245500Y-86624500D01*
X148472000Y-79068000D02*
X147754000Y-79068000D01*
%TO.N,EN*%
X138959500Y-88624500D02*
X142494000Y-88624500D01*
X146050000Y-85068500D02*
X142494000Y-88624500D01*
X142494000Y-88624500D02*
X142494000Y-91672500D01*
X131168000Y-89916000D02*
X137668000Y-89916000D01*
X137668000Y-89916000D02*
X138959500Y-88624500D01*
X146050000Y-81930000D02*
X146050000Y-85068500D01*
X147642000Y-80338000D02*
X146050000Y-81930000D01*
X148472000Y-80338000D02*
X147642000Y-80338000D01*
%TO.N,Net-(D1-Pad2)*%
X127526000Y-77724000D02*
X129032000Y-76218000D01*
X126492000Y-77724000D02*
X127526000Y-77724000D01*
%TO.N,RX*%
X181864000Y-74930000D02*
X175186000Y-81608000D01*
X175186000Y-81608000D02*
X165472000Y-81608000D01*
X188722000Y-74930000D02*
X181864000Y-74930000D01*
X189992000Y-73660000D02*
X188722000Y-74930000D01*
X189992000Y-69850000D02*
X189992000Y-73660000D01*
%TO.N,TX*%
X165472000Y-82878000D02*
X175183208Y-82878000D01*
X175183208Y-82878000D02*
X175871208Y-82190000D01*
X182143000Y-76003000D02*
X182708000Y-75438000D01*
X182708000Y-75438000D02*
X190500000Y-75438000D01*
X190500000Y-75438000D02*
X192532000Y-73406000D01*
X176128000Y-82190000D02*
X182143000Y-76175000D01*
X182143000Y-76175000D02*
X182143000Y-76003000D01*
X175871208Y-82190000D02*
X176128000Y-82190000D01*
X192532000Y-73406000D02*
X192532000Y-69850000D01*
%TO.N,SDA*%
X186690000Y-100584000D02*
X190241500Y-100584000D01*
X185928000Y-99822000D02*
X186690000Y-100584000D01*
X174364000Y-97066000D02*
X177120000Y-99822000D01*
X190241500Y-100584000D02*
X191379000Y-99446500D01*
X191379000Y-99446500D02*
X191379000Y-98896500D01*
X171234000Y-97066000D02*
X174364000Y-97066000D01*
X167460000Y-84148000D02*
X168148000Y-84836000D01*
X171196000Y-97028000D02*
X171234000Y-97066000D01*
X165472000Y-84148000D02*
X167460000Y-84148000D01*
X177120000Y-99822000D02*
X185928000Y-99822000D01*
%TO.N,SCL*%
X165472000Y-80338000D02*
X168090000Y-80338000D01*
X187452000Y-93218000D02*
X179578000Y-93218000D01*
X179578000Y-93218000D02*
X177330000Y-95466000D01*
X188223305Y-93218000D02*
X187452000Y-93218000D01*
X168090000Y-80338000D02*
X168164000Y-80264000D01*
X190129000Y-95123695D02*
X188223305Y-93218000D01*
X177330000Y-95466000D02*
X176664000Y-95466000D01*
X176664000Y-95466000D02*
X176664000Y-88780000D01*
X190129000Y-98896500D02*
X190129000Y-95123695D01*
%TO.N,RST*%
X171196000Y-93726000D02*
X166116000Y-98806000D01*
X146050000Y-94210000D02*
X147222000Y-93038000D01*
X147222000Y-93038000D02*
X148472000Y-93038000D01*
X148590000Y-98806000D02*
X146050000Y-96266000D01*
X166116000Y-98806000D02*
X148590000Y-98806000D01*
X146050000Y-96266000D02*
X146050000Y-94210000D01*
X174276000Y-87090000D02*
X171196000Y-90170000D01*
X183738000Y-87090000D02*
X174276000Y-87090000D01*
X171196000Y-90170000D02*
X171196000Y-93726000D01*
%TO.N,BOOT*%
X168962000Y-101382000D02*
X175462000Y-101382000D01*
%TO.N,CS*%
X171122000Y-89228000D02*
X165472000Y-89228000D01*
X183738000Y-85090000D02*
X175260000Y-85090000D01*
X175260000Y-85090000D02*
X171122000Y-89228000D01*
%TO.N,SCK*%
X176244000Y-83090000D02*
X171376000Y-87958000D01*
X183738000Y-83090000D02*
X176244000Y-83090000D01*
X171376000Y-87958000D02*
X165472000Y-87958000D01*
%TO.N,MISO*%
X165472000Y-86688000D02*
X172009604Y-86688000D01*
X176057604Y-82640000D02*
X178980000Y-82640000D01*
X182530000Y-79090000D02*
X183738000Y-79090000D01*
X172009604Y-86688000D02*
X176057604Y-82640000D01*
X178980000Y-82640000D02*
X182530000Y-79090000D01*
%TO.N,MOSI*%
X176022000Y-78994000D02*
X167894000Y-78994000D01*
X167820000Y-79068000D02*
X165472000Y-79068000D01*
X167894000Y-78994000D02*
X167820000Y-79068000D01*
X176276000Y-79248000D02*
X176022000Y-78994000D01*
%TO.N,Net-(J3-Pad1)*%
X208280000Y-88138000D02*
X205248000Y-91170000D01*
X208280000Y-70842000D02*
X208280000Y-88138000D01*
X205248000Y-91170000D02*
X200278000Y-91170000D01*
%TO.N,unconnected-(J2-PadS1)*%
X195729000Y-102246500D02*
X185779000Y-102246500D01*
%TD*%
M02*
