%TF.GenerationSoftware,KiCad,Pcbnew,(6.0.7)*%
%TF.CreationDate,2023-10-05T09:54:16+02:00*%
%TF.ProjectId,ESP32-aqs,45535033-322d-4617-9173-2e6b69636164,rev?*%
%TF.SameCoordinates,Original*%
%TF.FileFunction,Copper,L2,Bot*%
%TF.FilePolarity,Positive*%
%FSLAX46Y46*%
G04 Gerber Fmt 4.6, Leading zero omitted, Abs format (unit mm)*
G04 Created by KiCad (PCBNEW (6.0.7)) date 2023-10-05 09:54:16*
%MOMM*%
%LPD*%
G01*
G04 APERTURE LIST*
%TA.AperFunction,ComponentPad*%
%ADD10C,3.500000*%
%TD*%
%TA.AperFunction,ComponentPad*%
%ADD11C,2.000000*%
%TD*%
%TA.AperFunction,ComponentPad*%
%ADD12C,0.300000*%
%TD*%
%TA.AperFunction,ComponentPad*%
%ADD13R,1.000000X1.000000*%
%TD*%
%TA.AperFunction,ComponentPad*%
%ADD14R,1.700000X1.700000*%
%TD*%
%TA.AperFunction,ComponentPad*%
%ADD15O,1.700000X1.700000*%
%TD*%
%TA.AperFunction,ViaPad*%
%ADD16C,0.800000*%
%TD*%
%TA.AperFunction,Conductor*%
%ADD17C,0.250000*%
%TD*%
G04 APERTURE END LIST*
D10*
%TO.P,H2,1*%
%TO.N,N/C*%
X221996000Y-113030000D03*
%TD*%
D11*
%TO.P,SW1,1*%
%TO.N,GND*%
X137668000Y-94416000D03*
X131168000Y-94416000D03*
%TO.P,SW1,2*%
%TO.N,EN*%
X131168000Y-89916000D03*
X137668000Y-89916000D03*
%TD*%
D12*
%TO.P,U2,39_10,GND*%
%TO.N,GND*%
X155054500Y-83463000D03*
%TO.P,U2,39_11,GND*%
X156889500Y-83463000D03*
%TO.P,U2,39_12,GND*%
X154137000Y-84380500D03*
%TO.P,U2,39_13,GND*%
X155972000Y-84380500D03*
%TO.P,U2,39_14,GND*%
X157807000Y-84380500D03*
%TO.P,U2,39_15,GND*%
X155054500Y-85298000D03*
%TO.P,U2,39_16,GND*%
X156889500Y-85298000D03*
%TO.P,U2,39_17,GND*%
X154137000Y-86215500D03*
%TO.P,U2,39_18,GND*%
X155972000Y-86215500D03*
%TO.P,U2,39_19,GND*%
X157807000Y-86215500D03*
%TO.P,U2,39_20,GND*%
X155054500Y-87133000D03*
%TO.P,U2,39_21,GND*%
X156889500Y-87133000D03*
%TD*%
D10*
%TO.P,H3,1*%
%TO.N,N/C*%
X115316000Y-113030000D03*
%TD*%
D13*
%TO.P,TP1,1,1*%
%TO.N,+3V3*%
X122936000Y-63602000D03*
%TD*%
D14*
%TO.P,J1,1,Pin_1*%
%TO.N,unconnected-(J1-Pad1)*%
X187452000Y-69850000D03*
D15*
%TO.P,J1,2,Pin_2*%
%TO.N,RX*%
X189992000Y-69850000D03*
%TO.P,J1,3,Pin_3*%
%TO.N,TX*%
X192532000Y-69850000D03*
%TO.P,J1,4,Pin_4*%
%TO.N,VIN*%
X195072000Y-69850000D03*
%TO.P,J1,5,Pin_5*%
%TO.N,unconnected-(J1-Pad5)*%
X197612000Y-69850000D03*
%TO.P,J1,6,Pin_6*%
%TO.N,GND*%
X200152000Y-69850000D03*
%TD*%
D10*
%TO.P,H1,1*%
%TO.N,N/C*%
X221996000Y-61214000D03*
%TD*%
%TO.P,H4,1*%
%TO.N,N/C*%
X115570000Y-61214000D03*
%TD*%
D11*
%TO.P,SW2,1*%
%TO.N,BOOT*%
X175462000Y-101382000D03*
X168962000Y-101382000D03*
%TO.P,SW2,2*%
%TO.N,GND*%
X175462000Y-105882000D03*
X168962000Y-105882000D03*
%TD*%
D16*
%TO.N,VIN*%
X133248000Y-82512500D03*
%TO.N,GND*%
X192786000Y-99060000D03*
X183642000Y-91186000D03*
X182075000Y-98341000D03*
X151257000Y-95308000D03*
X200278000Y-89090000D03*
X188976000Y-98806000D03*
%TO.N,+3V3*%
X148472000Y-79068000D03*
X170180000Y-80264000D03*
X188468000Y-94488000D03*
X170164000Y-84820000D03*
X200278000Y-83090000D03*
X179059250Y-96255250D03*
X173990000Y-92456000D03*
%TO.N,SDA*%
X171196000Y-97028000D03*
X168148000Y-84836000D03*
%TO.N,SCL*%
X176664000Y-88780000D03*
X168164000Y-80264000D03*
%TO.N,BOOT*%
X165354000Y-94488000D03*
%TO.N,MOSI*%
X176276000Y-79248000D03*
X183642000Y-81026000D03*
%TD*%
D17*
%TO.N,VIN*%
X182626000Y-75184000D02*
X179324000Y-78486000D01*
X195072000Y-73152000D02*
X193040000Y-75184000D01*
X193040000Y-75184000D02*
X182626000Y-75184000D01*
X195072000Y-69850000D02*
X195072000Y-73152000D01*
X179324000Y-78486000D02*
X167894000Y-78486000D01*
X165862000Y-80518000D02*
X161290000Y-80518000D01*
X159115000Y-78343000D02*
X137417500Y-78343000D01*
X137417500Y-78343000D02*
X133248000Y-82512500D01*
X167894000Y-78486000D02*
X165862000Y-80518000D01*
X161290000Y-80518000D02*
X159115000Y-78343000D01*
%TO.N,+3V3*%
X170180000Y-80264000D02*
X169164000Y-81280000D01*
X170180000Y-84804000D02*
X170164000Y-84820000D01*
X169164000Y-81280000D02*
X150684000Y-81280000D01*
X188468000Y-94488000D02*
X192786000Y-90170000D01*
X150684000Y-81280000D02*
X148472000Y-79068000D01*
X170180000Y-80264000D02*
X170180000Y-84804000D01*
X192786000Y-87376000D02*
X197072000Y-83090000D01*
X170164000Y-84820000D02*
X170164000Y-88630000D01*
X173990000Y-92456000D02*
X175260000Y-92456000D01*
X192786000Y-90170000D02*
X192786000Y-87376000D01*
X197072000Y-83090000D02*
X200278000Y-83090000D01*
X175260000Y-92456000D02*
X179059250Y-96255250D01*
X170164000Y-88630000D02*
X173990000Y-92456000D01*
%TO.N,SDA*%
X168148000Y-84836000D02*
X168148000Y-93980000D01*
X168148000Y-93980000D02*
X171196000Y-97028000D01*
%TO.N,SCL*%
X171958000Y-84074000D02*
X171958000Y-79756000D01*
X171958000Y-79756000D02*
X171196000Y-78994000D01*
X176664000Y-88780000D02*
X171958000Y-84074000D01*
X171196000Y-78994000D02*
X169434000Y-78994000D01*
X169434000Y-78994000D02*
X168164000Y-80264000D01*
%TO.N,BOOT*%
X165354000Y-97774000D02*
X168962000Y-101382000D01*
X165354000Y-94488000D02*
X165354000Y-97774000D01*
%TO.N,MOSI*%
X176276000Y-79248000D02*
X181864000Y-79248000D01*
X181864000Y-79248000D02*
X183642000Y-81026000D01*
%TD*%
%TA.AperFunction,Conductor*%
%TO.N,GND*%
G36*
X132530121Y-59710502D02*
G01*
X132576614Y-59764158D01*
X132588000Y-59816500D01*
X132588000Y-80518000D01*
X134042405Y-80518000D01*
X134110526Y-80538002D01*
X134157019Y-80591658D01*
X134167123Y-80661932D01*
X134137629Y-80726512D01*
X134131500Y-80733095D01*
X133297500Y-81567095D01*
X133235188Y-81601121D01*
X133208405Y-81604000D01*
X133152513Y-81604000D01*
X133146061Y-81605372D01*
X133146056Y-81605372D01*
X133059112Y-81623853D01*
X132965712Y-81643706D01*
X132959682Y-81646391D01*
X132959681Y-81646391D01*
X132797278Y-81718697D01*
X132797276Y-81718698D01*
X132791248Y-81721382D01*
X132785907Y-81725262D01*
X132785906Y-81725263D01*
X132747273Y-81753332D01*
X132636747Y-81833634D01*
X132632326Y-81838544D01*
X132632325Y-81838545D01*
X132564780Y-81913562D01*
X132508960Y-81975556D01*
X132413473Y-82140944D01*
X132354458Y-82322572D01*
X132353768Y-82329133D01*
X132353768Y-82329135D01*
X132340111Y-82459078D01*
X132334496Y-82512500D01*
X132335186Y-82519065D01*
X132350774Y-82667373D01*
X132354458Y-82702428D01*
X132413473Y-82884056D01*
X132416776Y-82889778D01*
X132416777Y-82889779D01*
X132450686Y-82948510D01*
X132508960Y-83049444D01*
X132513378Y-83054351D01*
X132513379Y-83054352D01*
X132593704Y-83143562D01*
X132636747Y-83191366D01*
X132711490Y-83245670D01*
X132767283Y-83286206D01*
X132791248Y-83303618D01*
X132797276Y-83306302D01*
X132797278Y-83306303D01*
X132959681Y-83378609D01*
X132965712Y-83381294D01*
X133059113Y-83401147D01*
X133146056Y-83419628D01*
X133146061Y-83419628D01*
X133152513Y-83421000D01*
X133343487Y-83421000D01*
X133349939Y-83419628D01*
X133349944Y-83419628D01*
X133436887Y-83401147D01*
X133530288Y-83381294D01*
X133536319Y-83378609D01*
X133698722Y-83306303D01*
X133698724Y-83306302D01*
X133704752Y-83303618D01*
X133728718Y-83286206D01*
X133784510Y-83245670D01*
X133859253Y-83191366D01*
X133902296Y-83143562D01*
X133982621Y-83054352D01*
X133982622Y-83054351D01*
X133987040Y-83049444D01*
X134045314Y-82948510D01*
X134071132Y-82903792D01*
X154711893Y-82903792D01*
X154714264Y-82910632D01*
X155041688Y-83238056D01*
X155055632Y-83245670D01*
X155057465Y-83245539D01*
X155064080Y-83241288D01*
X155389812Y-82915556D01*
X155396236Y-82903792D01*
X156546893Y-82903792D01*
X156549264Y-82910632D01*
X156876688Y-83238056D01*
X156890632Y-83245670D01*
X156892465Y-83245539D01*
X156899080Y-83241288D01*
X157224812Y-82915556D01*
X157231572Y-82903176D01*
X157227062Y-82897152D01*
X157133749Y-82847745D01*
X157119672Y-82842342D01*
X156979946Y-82807245D01*
X156964974Y-82805354D01*
X156820910Y-82804600D01*
X156805934Y-82806332D01*
X156665835Y-82839967D01*
X156651711Y-82845220D01*
X156557095Y-82894055D01*
X156546893Y-82903792D01*
X155396236Y-82903792D01*
X155396572Y-82903176D01*
X155392062Y-82897152D01*
X155298749Y-82847745D01*
X155284672Y-82842342D01*
X155144946Y-82807245D01*
X155129974Y-82805354D01*
X154985910Y-82804600D01*
X154970934Y-82806332D01*
X154830835Y-82839967D01*
X154816711Y-82845220D01*
X154722095Y-82894055D01*
X154711893Y-82903792D01*
X134071132Y-82903792D01*
X134079223Y-82889779D01*
X134079224Y-82889778D01*
X134082527Y-82884056D01*
X134141542Y-82702428D01*
X134145227Y-82667373D01*
X134158907Y-82537207D01*
X134185920Y-82471550D01*
X134195122Y-82461282D01*
X136101499Y-80554905D01*
X136163811Y-80520879D01*
X136190594Y-80518000D01*
X148973906Y-80518000D01*
X149042027Y-80538002D01*
X149063001Y-80554905D01*
X150180343Y-81672247D01*
X150187887Y-81680537D01*
X150192000Y-81687018D01*
X150197777Y-81692443D01*
X150241667Y-81733658D01*
X150244509Y-81736413D01*
X150264230Y-81756134D01*
X150267425Y-81758612D01*
X150276447Y-81766318D01*
X150308679Y-81796586D01*
X150315628Y-81800406D01*
X150326432Y-81806346D01*
X150342956Y-81817199D01*
X150358959Y-81829613D01*
X150399543Y-81847176D01*
X150410173Y-81852383D01*
X150448940Y-81873695D01*
X150456617Y-81875666D01*
X150456622Y-81875668D01*
X150468558Y-81878732D01*
X150487266Y-81885137D01*
X150505855Y-81893181D01*
X150513680Y-81894420D01*
X150513682Y-81894421D01*
X150549519Y-81900097D01*
X150561140Y-81902504D01*
X150592959Y-81910673D01*
X150603970Y-81913500D01*
X150624231Y-81913500D01*
X150643940Y-81915051D01*
X150663943Y-81918219D01*
X150671835Y-81917473D01*
X150677062Y-81916979D01*
X150707954Y-81914059D01*
X150719811Y-81913500D01*
X169085233Y-81913500D01*
X169096416Y-81914027D01*
X169103909Y-81915702D01*
X169111835Y-81915453D01*
X169111836Y-81915453D01*
X169171986Y-81913562D01*
X169175945Y-81913500D01*
X169203856Y-81913500D01*
X169207791Y-81913003D01*
X169207856Y-81912995D01*
X169219693Y-81912062D01*
X169251951Y-81911048D01*
X169255970Y-81910922D01*
X169263889Y-81910673D01*
X169283343Y-81905021D01*
X169302700Y-81901013D01*
X169314930Y-81899468D01*
X169314931Y-81899468D01*
X169322797Y-81898474D01*
X169330168Y-81895555D01*
X169330170Y-81895555D01*
X169363912Y-81882196D01*
X169375140Y-81878352D01*
X169385345Y-81875387D01*
X169456342Y-81875588D01*
X169515958Y-81914141D01*
X169545268Y-81978806D01*
X169546500Y-81996383D01*
X169546500Y-84099706D01*
X169526498Y-84167827D01*
X169514136Y-84184015D01*
X169497168Y-84202861D01*
X169454418Y-84250340D01*
X169424960Y-84283056D01*
X169329473Y-84448444D01*
X169273233Y-84621531D01*
X169233161Y-84680136D01*
X169167764Y-84707773D01*
X169097807Y-84695666D01*
X169045501Y-84647660D01*
X169033568Y-84621531D01*
X169008548Y-84544528D01*
X168982527Y-84464444D01*
X168979116Y-84458535D01*
X168890341Y-84304774D01*
X168887040Y-84299056D01*
X168868215Y-84278148D01*
X168763675Y-84162045D01*
X168763674Y-84162044D01*
X168759253Y-84157134D01*
X168604752Y-84044882D01*
X168598724Y-84042198D01*
X168598722Y-84042197D01*
X168436319Y-83969891D01*
X168436318Y-83969891D01*
X168430288Y-83967206D01*
X168336888Y-83947353D01*
X168249944Y-83928872D01*
X168249939Y-83928872D01*
X168243487Y-83927500D01*
X168052513Y-83927500D01*
X168046061Y-83928872D01*
X168046056Y-83928872D01*
X167959112Y-83947353D01*
X167865712Y-83967206D01*
X167859682Y-83969891D01*
X167859681Y-83969891D01*
X167697278Y-84042197D01*
X167697276Y-84042198D01*
X167691248Y-84044882D01*
X167536747Y-84157134D01*
X167532326Y-84162044D01*
X167532325Y-84162045D01*
X167427786Y-84278148D01*
X167408960Y-84299056D01*
X167405659Y-84304774D01*
X167316885Y-84458535D01*
X167313473Y-84464444D01*
X167254458Y-84646072D01*
X167253768Y-84652633D01*
X167253768Y-84652635D01*
X167246577Y-84721058D01*
X167234496Y-84836000D01*
X167235186Y-84842565D01*
X167252087Y-85003365D01*
X167254458Y-85025928D01*
X167313473Y-85207556D01*
X167408960Y-85372944D01*
X167482137Y-85454215D01*
X167512853Y-85518221D01*
X167514500Y-85538524D01*
X167514500Y-93901233D01*
X167513973Y-93912416D01*
X167512298Y-93919909D01*
X167512547Y-93927835D01*
X167512547Y-93927836D01*
X167514438Y-93987986D01*
X167514500Y-93991945D01*
X167514500Y-94019856D01*
X167514997Y-94023790D01*
X167514997Y-94023791D01*
X167515005Y-94023856D01*
X167515938Y-94035693D01*
X167517327Y-94079889D01*
X167522978Y-94099339D01*
X167526987Y-94118700D01*
X167529526Y-94138797D01*
X167532445Y-94146168D01*
X167532445Y-94146170D01*
X167545804Y-94179912D01*
X167549649Y-94191142D01*
X167561982Y-94233593D01*
X167566015Y-94240412D01*
X167566017Y-94240417D01*
X167572293Y-94251028D01*
X167580988Y-94268776D01*
X167588448Y-94287617D01*
X167593110Y-94294033D01*
X167593110Y-94294034D01*
X167614436Y-94323387D01*
X167620952Y-94333307D01*
X167643458Y-94371362D01*
X167657779Y-94385683D01*
X167670619Y-94400716D01*
X167682528Y-94417107D01*
X167688634Y-94422158D01*
X167716605Y-94445298D01*
X167725384Y-94453288D01*
X170248878Y-96976783D01*
X170282904Y-97039095D01*
X170285093Y-97052708D01*
X170296620Y-97162378D01*
X170302458Y-97217928D01*
X170361473Y-97399556D01*
X170456960Y-97564944D01*
X170461378Y-97569851D01*
X170461379Y-97569852D01*
X170580325Y-97701955D01*
X170584747Y-97706866D01*
X170683843Y-97778864D01*
X170732006Y-97813856D01*
X170739248Y-97819118D01*
X170745276Y-97821802D01*
X170745278Y-97821803D01*
X170862266Y-97873889D01*
X170913712Y-97896794D01*
X171007112Y-97916647D01*
X171094056Y-97935128D01*
X171094061Y-97935128D01*
X171100513Y-97936500D01*
X171291487Y-97936500D01*
X171297939Y-97935128D01*
X171297944Y-97935128D01*
X171384888Y-97916647D01*
X171478288Y-97896794D01*
X171529734Y-97873889D01*
X171646722Y-97821803D01*
X171646724Y-97821802D01*
X171652752Y-97819118D01*
X171659995Y-97813856D01*
X171708157Y-97778864D01*
X171807253Y-97706866D01*
X171811675Y-97701955D01*
X171930621Y-97569852D01*
X171930622Y-97569851D01*
X171935040Y-97564944D01*
X172030527Y-97399556D01*
X172089542Y-97217928D01*
X172095381Y-97162378D01*
X172108814Y-97034565D01*
X172109504Y-97028000D01*
X172089542Y-96838072D01*
X172030527Y-96656444D01*
X172013416Y-96626806D01*
X171938341Y-96496774D01*
X171935040Y-96491056D01*
X171807253Y-96349134D01*
X171678033Y-96255250D01*
X171658094Y-96240763D01*
X171658093Y-96240762D01*
X171652752Y-96236882D01*
X171646724Y-96234198D01*
X171646722Y-96234197D01*
X171484319Y-96161891D01*
X171484318Y-96161891D01*
X171478288Y-96159206D01*
X171384888Y-96139353D01*
X171297944Y-96120872D01*
X171297939Y-96120872D01*
X171291487Y-96119500D01*
X171235594Y-96119500D01*
X171167473Y-96099498D01*
X171146499Y-96082595D01*
X168818405Y-93754500D01*
X168784379Y-93692188D01*
X168781500Y-93665405D01*
X168781500Y-85538524D01*
X168801502Y-85470403D01*
X168813858Y-85454221D01*
X168887040Y-85372944D01*
X168982527Y-85207556D01*
X169038767Y-85034469D01*
X169078839Y-84975864D01*
X169144236Y-84948227D01*
X169214193Y-84960334D01*
X169266499Y-85008340D01*
X169278432Y-85034468D01*
X169329473Y-85191556D01*
X169332776Y-85197278D01*
X169332777Y-85197279D01*
X169342015Y-85213279D01*
X169424960Y-85356944D01*
X169498137Y-85438215D01*
X169528853Y-85502221D01*
X169530500Y-85522524D01*
X169530500Y-88551233D01*
X169529973Y-88562416D01*
X169528298Y-88569909D01*
X169528547Y-88577835D01*
X169528547Y-88577836D01*
X169530438Y-88637986D01*
X169530500Y-88641945D01*
X169530500Y-88669856D01*
X169530997Y-88673790D01*
X169530997Y-88673791D01*
X169531005Y-88673856D01*
X169531938Y-88685693D01*
X169533327Y-88729889D01*
X169538978Y-88749339D01*
X169542987Y-88768700D01*
X169545526Y-88788797D01*
X169548445Y-88796168D01*
X169548445Y-88796170D01*
X169561804Y-88829912D01*
X169565649Y-88841142D01*
X169568161Y-88849787D01*
X169577982Y-88883593D01*
X169582015Y-88890412D01*
X169582017Y-88890417D01*
X169588293Y-88901028D01*
X169596988Y-88918776D01*
X169604448Y-88937617D01*
X169609110Y-88944033D01*
X169609110Y-88944034D01*
X169630436Y-88973387D01*
X169636952Y-88983307D01*
X169659458Y-89021362D01*
X169673779Y-89035683D01*
X169686619Y-89050716D01*
X169698528Y-89067107D01*
X169704634Y-89072158D01*
X169732605Y-89095298D01*
X169741384Y-89103288D01*
X173042878Y-92404783D01*
X173076904Y-92467095D01*
X173079093Y-92480706D01*
X173096458Y-92645928D01*
X173155473Y-92827556D01*
X173250960Y-92992944D01*
X173378747Y-93134866D01*
X173533248Y-93247118D01*
X173539276Y-93249802D01*
X173539278Y-93249803D01*
X173701681Y-93322109D01*
X173707712Y-93324794D01*
X173801113Y-93344647D01*
X173888056Y-93363128D01*
X173888061Y-93363128D01*
X173894513Y-93364500D01*
X174085487Y-93364500D01*
X174091939Y-93363128D01*
X174091944Y-93363128D01*
X174178887Y-93344647D01*
X174272288Y-93324794D01*
X174278319Y-93322109D01*
X174440722Y-93249803D01*
X174440724Y-93249802D01*
X174446752Y-93247118D01*
X174521699Y-93192666D01*
X174579671Y-93150546D01*
X174601253Y-93134866D01*
X174605668Y-93129963D01*
X174610580Y-93125540D01*
X174611705Y-93126789D01*
X174665014Y-93093949D01*
X174698200Y-93089500D01*
X174945406Y-93089500D01*
X175013527Y-93109502D01*
X175034501Y-93126405D01*
X178112128Y-96204033D01*
X178146154Y-96266345D01*
X178148343Y-96279956D01*
X178165708Y-96445178D01*
X178224723Y-96626806D01*
X178228026Y-96632528D01*
X178228027Y-96632529D01*
X178245463Y-96662729D01*
X178320210Y-96792194D01*
X178447997Y-96934116D01*
X178506723Y-96976783D01*
X178592488Y-97039095D01*
X178602498Y-97046368D01*
X178608526Y-97049052D01*
X178608528Y-97049053D01*
X178770931Y-97121359D01*
X178776962Y-97124044D01*
X178870363Y-97143897D01*
X178957306Y-97162378D01*
X178957311Y-97162378D01*
X178963763Y-97163750D01*
X179154737Y-97163750D01*
X179161189Y-97162378D01*
X179161194Y-97162378D01*
X179248138Y-97143897D01*
X179341538Y-97124044D01*
X179347569Y-97121359D01*
X179509972Y-97049053D01*
X179509974Y-97049052D01*
X179516002Y-97046368D01*
X179526013Y-97039095D01*
X179611777Y-96976783D01*
X179670503Y-96934116D01*
X179798290Y-96792194D01*
X179873037Y-96662729D01*
X179890473Y-96632529D01*
X179890474Y-96632528D01*
X179893777Y-96626806D01*
X179952792Y-96445178D01*
X179972754Y-96255250D01*
X179962942Y-96161891D01*
X179953482Y-96071885D01*
X179953482Y-96071883D01*
X179952792Y-96065322D01*
X179893777Y-95883694D01*
X179798290Y-95718306D01*
X179727184Y-95639334D01*
X179674925Y-95581295D01*
X179674924Y-95581294D01*
X179670503Y-95576384D01*
X179516002Y-95464132D01*
X179509974Y-95461448D01*
X179509972Y-95461447D01*
X179347569Y-95389141D01*
X179347568Y-95389141D01*
X179341538Y-95386456D01*
X179248138Y-95366603D01*
X179161194Y-95348122D01*
X179161189Y-95348122D01*
X179154737Y-95346750D01*
X179098844Y-95346750D01*
X179030723Y-95326748D01*
X179009749Y-95309845D01*
X178187905Y-94488000D01*
X187554496Y-94488000D01*
X187574458Y-94677928D01*
X187633473Y-94859556D01*
X187728960Y-95024944D01*
X187733375Y-95029847D01*
X187733379Y-95029852D01*
X187802135Y-95106213D01*
X187856747Y-95166866D01*
X188011248Y-95279118D01*
X188017276Y-95281802D01*
X188017278Y-95281803D01*
X188166234Y-95348122D01*
X188185712Y-95356794D01*
X188279113Y-95376647D01*
X188366056Y-95395128D01*
X188366061Y-95395128D01*
X188372513Y-95396500D01*
X188563487Y-95396500D01*
X188569939Y-95395128D01*
X188569944Y-95395128D01*
X188656887Y-95376647D01*
X188750288Y-95356794D01*
X188769766Y-95348122D01*
X188918722Y-95281803D01*
X188918724Y-95281802D01*
X188924752Y-95279118D01*
X189079253Y-95166866D01*
X189133865Y-95106213D01*
X189202621Y-95029852D01*
X189202625Y-95029847D01*
X189207040Y-95024944D01*
X189302527Y-94859556D01*
X189361542Y-94677928D01*
X189378907Y-94512706D01*
X189405920Y-94447050D01*
X189415122Y-94436782D01*
X193178247Y-90673657D01*
X193186537Y-90666113D01*
X193193018Y-90662000D01*
X193239659Y-90612332D01*
X193242413Y-90609491D01*
X193262134Y-90589770D01*
X193264612Y-90586575D01*
X193272318Y-90577553D01*
X193297158Y-90551101D01*
X193302586Y-90545321D01*
X193312346Y-90527568D01*
X193323199Y-90511045D01*
X193330753Y-90501306D01*
X193335613Y-90495041D01*
X193353176Y-90454457D01*
X193358383Y-90443827D01*
X193379695Y-90405060D01*
X193381666Y-90397383D01*
X193381668Y-90397378D01*
X193384732Y-90385442D01*
X193391138Y-90366730D01*
X193396033Y-90355419D01*
X193399181Y-90348145D01*
X193400421Y-90340317D01*
X193400423Y-90340310D01*
X193406099Y-90304476D01*
X193408505Y-90292856D01*
X193417528Y-90257711D01*
X193417528Y-90257710D01*
X193419500Y-90250030D01*
X193419500Y-90229776D01*
X193421051Y-90210065D01*
X193422980Y-90197886D01*
X193424220Y-90190057D01*
X193420059Y-90146038D01*
X193419500Y-90134181D01*
X193419500Y-87690594D01*
X193439502Y-87622473D01*
X193456405Y-87601499D01*
X197297499Y-83760405D01*
X197359811Y-83726379D01*
X197386594Y-83723500D01*
X199569800Y-83723500D01*
X199637921Y-83743502D01*
X199657147Y-83759843D01*
X199657420Y-83759540D01*
X199662332Y-83763963D01*
X199666747Y-83768866D01*
X199688329Y-83784546D01*
X199755097Y-83833056D01*
X199821248Y-83881118D01*
X199827276Y-83883802D01*
X199827278Y-83883803D01*
X199989681Y-83956109D01*
X199995712Y-83958794D01*
X200089112Y-83978647D01*
X200176056Y-83997128D01*
X200176061Y-83997128D01*
X200182513Y-83998500D01*
X200373487Y-83998500D01*
X200379939Y-83997128D01*
X200379944Y-83997128D01*
X200466887Y-83978647D01*
X200560288Y-83958794D01*
X200566319Y-83956109D01*
X200728722Y-83883803D01*
X200728724Y-83883802D01*
X200734752Y-83881118D01*
X200889253Y-83768866D01*
X200923637Y-83730679D01*
X201012621Y-83631852D01*
X201012622Y-83631851D01*
X201017040Y-83626944D01*
X201112527Y-83461556D01*
X201171542Y-83279928D01*
X201175157Y-83245539D01*
X201190814Y-83096565D01*
X201191504Y-83090000D01*
X201187241Y-83049444D01*
X201172232Y-82906635D01*
X201172232Y-82906633D01*
X201171542Y-82900072D01*
X201112527Y-82718444D01*
X201017040Y-82553056D01*
X201000881Y-82535109D01*
X200893675Y-82416045D01*
X200893674Y-82416044D01*
X200889253Y-82411134D01*
X200767358Y-82322572D01*
X200740094Y-82302763D01*
X200740093Y-82302762D01*
X200734752Y-82298882D01*
X200728724Y-82296198D01*
X200728722Y-82296197D01*
X200566319Y-82223891D01*
X200566318Y-82223891D01*
X200560288Y-82221206D01*
X200466888Y-82201353D01*
X200379944Y-82182872D01*
X200379939Y-82182872D01*
X200373487Y-82181500D01*
X200182513Y-82181500D01*
X200176061Y-82182872D01*
X200176056Y-82182872D01*
X200089112Y-82201353D01*
X199995712Y-82221206D01*
X199989682Y-82223891D01*
X199989681Y-82223891D01*
X199827278Y-82296197D01*
X199827276Y-82296198D01*
X199821248Y-82298882D01*
X199815907Y-82302762D01*
X199815906Y-82302763D01*
X199779608Y-82329135D01*
X199666747Y-82411134D01*
X199662332Y-82416037D01*
X199657420Y-82420460D01*
X199656295Y-82419211D01*
X199602986Y-82452051D01*
X199569800Y-82456500D01*
X197150763Y-82456500D01*
X197139579Y-82455973D01*
X197132091Y-82454299D01*
X197124168Y-82454548D01*
X197064033Y-82456438D01*
X197060075Y-82456500D01*
X197032144Y-82456500D01*
X197028229Y-82456995D01*
X197028225Y-82456995D01*
X197028167Y-82457003D01*
X197028138Y-82457006D01*
X197016296Y-82457939D01*
X196972110Y-82459327D01*
X196954744Y-82464372D01*
X196952658Y-82464978D01*
X196933306Y-82468986D01*
X196926235Y-82469880D01*
X196913203Y-82471526D01*
X196905834Y-82474443D01*
X196905832Y-82474444D01*
X196872097Y-82487800D01*
X196860869Y-82491645D01*
X196818407Y-82503982D01*
X196811585Y-82508016D01*
X196811579Y-82508019D01*
X196800968Y-82514294D01*
X196783218Y-82522990D01*
X196771756Y-82527528D01*
X196771751Y-82527531D01*
X196764383Y-82530448D01*
X196757968Y-82535109D01*
X196728625Y-82556427D01*
X196718707Y-82562943D01*
X196700019Y-82573995D01*
X196680637Y-82585458D01*
X196666313Y-82599782D01*
X196651281Y-82612621D01*
X196634893Y-82624528D01*
X196606712Y-82658593D01*
X196598722Y-82667373D01*
X192393747Y-86872348D01*
X192385461Y-86879888D01*
X192378982Y-86884000D01*
X192373557Y-86889777D01*
X192332357Y-86933651D01*
X192329602Y-86936493D01*
X192309865Y-86956230D01*
X192307385Y-86959427D01*
X192299682Y-86968447D01*
X192269414Y-87000679D01*
X192265595Y-87007625D01*
X192265593Y-87007628D01*
X192259652Y-87018434D01*
X192248801Y-87034953D01*
X192236386Y-87050959D01*
X192233241Y-87058228D01*
X192233238Y-87058232D01*
X192218826Y-87091537D01*
X192213609Y-87102187D01*
X192192305Y-87140940D01*
X192190334Y-87148615D01*
X192190334Y-87148616D01*
X192187267Y-87160562D01*
X192180863Y-87179266D01*
X192172819Y-87197855D01*
X192171580Y-87205678D01*
X192171577Y-87205688D01*
X192165901Y-87241524D01*
X192163495Y-87253144D01*
X192154472Y-87288289D01*
X192152500Y-87295970D01*
X192152500Y-87316224D01*
X192150949Y-87335934D01*
X192147780Y-87355943D01*
X192148526Y-87363835D01*
X192151941Y-87399961D01*
X192152500Y-87411819D01*
X192152500Y-89855405D01*
X192132498Y-89923526D01*
X192115595Y-89944500D01*
X188517500Y-93542595D01*
X188455188Y-93576621D01*
X188428405Y-93579500D01*
X188372513Y-93579500D01*
X188366061Y-93580872D01*
X188366056Y-93580872D01*
X188279113Y-93599353D01*
X188185712Y-93619206D01*
X188179682Y-93621891D01*
X188179681Y-93621891D01*
X188017278Y-93694197D01*
X188017276Y-93694198D01*
X188011248Y-93696882D01*
X187856747Y-93809134D01*
X187728960Y-93951056D01*
X187706500Y-93989958D01*
X187643349Y-94099339D01*
X187633473Y-94116444D01*
X187574458Y-94298072D01*
X187573768Y-94304633D01*
X187573768Y-94304635D01*
X187560717Y-94428812D01*
X187554496Y-94488000D01*
X178187905Y-94488000D01*
X177400668Y-93700763D01*
X175763652Y-92063747D01*
X175756112Y-92055461D01*
X175752000Y-92048982D01*
X175702348Y-92002356D01*
X175699507Y-91999602D01*
X175679770Y-91979865D01*
X175676573Y-91977385D01*
X175667551Y-91969680D01*
X175641100Y-91944841D01*
X175635321Y-91939414D01*
X175628375Y-91935595D01*
X175628372Y-91935593D01*
X175617566Y-91929652D01*
X175601047Y-91918801D01*
X175600583Y-91918441D01*
X175585041Y-91906386D01*
X175577772Y-91903241D01*
X175577768Y-91903238D01*
X175544463Y-91888826D01*
X175533813Y-91883609D01*
X175495060Y-91862305D01*
X175475437Y-91857267D01*
X175456734Y-91850863D01*
X175445420Y-91845967D01*
X175445419Y-91845967D01*
X175438145Y-91842819D01*
X175430322Y-91841580D01*
X175430312Y-91841577D01*
X175394476Y-91835901D01*
X175382856Y-91833495D01*
X175347711Y-91824472D01*
X175347710Y-91824472D01*
X175340030Y-91822500D01*
X175319776Y-91822500D01*
X175300065Y-91820949D01*
X175287886Y-91819020D01*
X175280057Y-91817780D01*
X175272165Y-91818526D01*
X175236039Y-91821941D01*
X175224181Y-91822500D01*
X174698200Y-91822500D01*
X174630079Y-91802498D01*
X174610853Y-91786157D01*
X174610580Y-91786460D01*
X174605668Y-91782037D01*
X174601253Y-91777134D01*
X174446752Y-91664882D01*
X174440724Y-91662198D01*
X174440722Y-91662197D01*
X174278319Y-91589891D01*
X174278318Y-91589891D01*
X174272288Y-91587206D01*
X174178887Y-91567353D01*
X174091944Y-91548872D01*
X174091939Y-91548872D01*
X174085487Y-91547500D01*
X174029594Y-91547500D01*
X173961473Y-91527498D01*
X173940499Y-91510595D01*
X170834405Y-88404500D01*
X170800379Y-88342188D01*
X170797500Y-88315405D01*
X170797500Y-85522524D01*
X170817502Y-85454403D01*
X170829858Y-85438221D01*
X170903040Y-85356944D01*
X170985985Y-85213279D01*
X170995223Y-85197279D01*
X170995224Y-85197278D01*
X170998527Y-85191556D01*
X171057542Y-85009928D01*
X171062755Y-84960334D01*
X171076814Y-84826565D01*
X171077504Y-84820000D01*
X171068072Y-84730257D01*
X171058232Y-84636635D01*
X171058232Y-84636633D01*
X171057542Y-84630072D01*
X170998527Y-84448444D01*
X170983371Y-84422192D01*
X170906343Y-84288777D01*
X170906341Y-84288774D01*
X170903040Y-84283056D01*
X170845864Y-84219556D01*
X170815147Y-84155548D01*
X170813500Y-84135245D01*
X170813500Y-80966524D01*
X170833502Y-80898403D01*
X170845858Y-80882221D01*
X170919040Y-80800944D01*
X171014527Y-80635556D01*
X171024435Y-80605063D01*
X171064509Y-80546458D01*
X171129906Y-80518821D01*
X171144268Y-80518000D01*
X171198500Y-80518000D01*
X171266621Y-80538002D01*
X171313114Y-80591658D01*
X171324500Y-80644000D01*
X171324500Y-83995233D01*
X171323973Y-84006416D01*
X171322298Y-84013909D01*
X171322547Y-84021835D01*
X171322547Y-84021836D01*
X171324438Y-84081986D01*
X171324500Y-84085945D01*
X171324500Y-84113856D01*
X171324997Y-84117790D01*
X171324997Y-84117791D01*
X171325005Y-84117856D01*
X171325938Y-84129693D01*
X171327327Y-84173889D01*
X171332978Y-84193339D01*
X171336987Y-84212700D01*
X171339526Y-84232797D01*
X171342445Y-84240168D01*
X171342445Y-84240170D01*
X171355804Y-84273912D01*
X171359649Y-84285142D01*
X171369771Y-84319983D01*
X171371982Y-84327593D01*
X171376015Y-84334412D01*
X171376017Y-84334417D01*
X171382293Y-84345028D01*
X171390988Y-84362776D01*
X171398448Y-84381617D01*
X171403110Y-84388033D01*
X171403110Y-84388034D01*
X171424436Y-84417387D01*
X171430952Y-84427307D01*
X171447170Y-84454729D01*
X171453458Y-84465362D01*
X171467779Y-84479683D01*
X171480619Y-84494716D01*
X171492528Y-84511107D01*
X171498634Y-84516158D01*
X171526605Y-84539298D01*
X171535384Y-84547288D01*
X175716878Y-88728783D01*
X175750904Y-88791095D01*
X175753093Y-88804706D01*
X175770458Y-88969928D01*
X175829473Y-89151556D01*
X175924960Y-89316944D01*
X175929378Y-89321851D01*
X175929379Y-89321852D01*
X176048325Y-89453955D01*
X176052747Y-89458866D01*
X176207248Y-89571118D01*
X176213276Y-89573802D01*
X176213278Y-89573803D01*
X176375681Y-89646109D01*
X176381712Y-89648794D01*
X176475112Y-89668647D01*
X176562056Y-89687128D01*
X176562061Y-89687128D01*
X176568513Y-89688500D01*
X176759487Y-89688500D01*
X176765939Y-89687128D01*
X176765944Y-89687128D01*
X176852888Y-89668647D01*
X176946288Y-89648794D01*
X176952319Y-89646109D01*
X177114722Y-89573803D01*
X177114724Y-89573802D01*
X177120752Y-89571118D01*
X177275253Y-89458866D01*
X177279675Y-89453955D01*
X177398621Y-89321852D01*
X177398622Y-89321851D01*
X177403040Y-89316944D01*
X177498527Y-89151556D01*
X177557542Y-88969928D01*
X177577504Y-88780000D01*
X177568574Y-88695035D01*
X177558232Y-88596635D01*
X177558232Y-88596633D01*
X177557542Y-88590072D01*
X177498527Y-88408444D01*
X177403040Y-88243056D01*
X177275253Y-88101134D01*
X177120752Y-87988882D01*
X177114724Y-87986198D01*
X177114722Y-87986197D01*
X176952319Y-87913891D01*
X176952318Y-87913891D01*
X176946288Y-87911206D01*
X176852887Y-87891353D01*
X176765944Y-87872872D01*
X176765939Y-87872872D01*
X176759487Y-87871500D01*
X176703594Y-87871500D01*
X176635473Y-87851498D01*
X176614499Y-87834595D01*
X172628405Y-83848500D01*
X172594379Y-83786188D01*
X172591500Y-83759405D01*
X172591500Y-80644000D01*
X172611502Y-80575879D01*
X172665158Y-80529386D01*
X172717500Y-80518000D01*
X180340000Y-80518000D01*
X180340000Y-80007500D01*
X180360002Y-79939379D01*
X180413658Y-79892886D01*
X180466000Y-79881500D01*
X181549406Y-79881500D01*
X181617527Y-79901502D01*
X181638501Y-79918405D01*
X182694878Y-80974782D01*
X182728904Y-81037094D01*
X182731092Y-81050703D01*
X182748458Y-81215928D01*
X182807473Y-81397556D01*
X182902960Y-81562944D01*
X182907378Y-81567851D01*
X182907379Y-81567852D01*
X183019561Y-81692443D01*
X183030747Y-81704866D01*
X183101311Y-81756134D01*
X183176997Y-81811123D01*
X183185248Y-81817118D01*
X183191276Y-81819802D01*
X183191278Y-81819803D01*
X183353681Y-81892109D01*
X183359712Y-81894794D01*
X183445378Y-81913003D01*
X183540056Y-81933128D01*
X183540061Y-81933128D01*
X183546513Y-81934500D01*
X183737487Y-81934500D01*
X183743939Y-81933128D01*
X183743944Y-81933128D01*
X183838622Y-81913003D01*
X183924288Y-81894794D01*
X183930319Y-81892109D01*
X184092722Y-81819803D01*
X184092724Y-81819802D01*
X184098752Y-81817118D01*
X184107004Y-81811123D01*
X184182689Y-81756134D01*
X184253253Y-81704866D01*
X184264439Y-81692443D01*
X184376621Y-81567852D01*
X184376622Y-81567851D01*
X184381040Y-81562944D01*
X184476527Y-81397556D01*
X184535542Y-81215928D01*
X184555504Y-81026000D01*
X184549253Y-80966524D01*
X184536232Y-80842635D01*
X184536232Y-80842633D01*
X184535542Y-80836072D01*
X184476527Y-80654444D01*
X184381040Y-80489056D01*
X184253253Y-80347134D01*
X184098752Y-80234882D01*
X184092724Y-80232198D01*
X184092722Y-80232197D01*
X183930319Y-80159891D01*
X183930318Y-80159891D01*
X183924288Y-80157206D01*
X183830887Y-80137353D01*
X183743944Y-80118872D01*
X183743939Y-80118872D01*
X183737487Y-80117500D01*
X183681594Y-80117500D01*
X183613473Y-80097498D01*
X183592499Y-80080595D01*
X182988342Y-79476437D01*
X182367652Y-78855747D01*
X182360112Y-78847461D01*
X182356000Y-78840982D01*
X182306348Y-78794356D01*
X182303507Y-78791602D01*
X182283770Y-78771865D01*
X182280573Y-78769385D01*
X182271551Y-78761680D01*
X182245100Y-78736841D01*
X182239321Y-78731414D01*
X182232375Y-78727595D01*
X182232372Y-78727593D01*
X182221566Y-78721652D01*
X182205047Y-78710801D01*
X182204583Y-78710441D01*
X182189041Y-78698386D01*
X182181772Y-78695241D01*
X182181768Y-78695238D01*
X182148463Y-78680826D01*
X182137813Y-78675609D01*
X182099060Y-78654305D01*
X182079437Y-78649267D01*
X182060734Y-78642863D01*
X182049420Y-78637967D01*
X182049419Y-78637967D01*
X182042145Y-78634819D01*
X182034322Y-78633580D01*
X182034312Y-78633577D01*
X181998476Y-78627901D01*
X181986856Y-78625495D01*
X181951711Y-78616472D01*
X181951710Y-78616472D01*
X181944030Y-78614500D01*
X181923776Y-78614500D01*
X181904065Y-78612949D01*
X181891886Y-78611020D01*
X181884057Y-78609780D01*
X181876165Y-78610526D01*
X181840039Y-78613941D01*
X181828181Y-78614500D01*
X180466000Y-78614500D01*
X180397879Y-78594498D01*
X180351386Y-78540842D01*
X180340000Y-78488500D01*
X180340000Y-78418094D01*
X180360002Y-78349973D01*
X180376905Y-78328999D01*
X182851499Y-75854405D01*
X182913811Y-75820379D01*
X182940594Y-75817500D01*
X192961233Y-75817500D01*
X192972416Y-75818027D01*
X192979909Y-75819702D01*
X192987835Y-75819453D01*
X192987836Y-75819453D01*
X193047986Y-75817562D01*
X193051945Y-75817500D01*
X193079856Y-75817500D01*
X193083791Y-75817003D01*
X193083856Y-75816995D01*
X193095693Y-75816062D01*
X193127951Y-75815048D01*
X193131970Y-75814922D01*
X193139889Y-75814673D01*
X193159343Y-75809021D01*
X193178700Y-75805013D01*
X193190930Y-75803468D01*
X193190931Y-75803468D01*
X193198797Y-75802474D01*
X193206168Y-75799555D01*
X193206170Y-75799555D01*
X193239912Y-75786196D01*
X193251142Y-75782351D01*
X193285983Y-75772229D01*
X193285984Y-75772229D01*
X193293593Y-75770018D01*
X193300412Y-75765985D01*
X193300417Y-75765983D01*
X193311028Y-75759707D01*
X193328776Y-75751012D01*
X193347617Y-75743552D01*
X193383387Y-75717564D01*
X193393307Y-75711048D01*
X193424535Y-75692580D01*
X193424538Y-75692578D01*
X193431362Y-75688542D01*
X193445683Y-75674221D01*
X193460717Y-75661380D01*
X193470694Y-75654131D01*
X193477107Y-75649472D01*
X193505298Y-75615395D01*
X193513288Y-75606616D01*
X195464253Y-73655652D01*
X195472539Y-73648112D01*
X195479018Y-73644000D01*
X195525644Y-73594348D01*
X195528398Y-73591507D01*
X195548135Y-73571770D01*
X195550615Y-73568573D01*
X195558320Y-73559551D01*
X195583159Y-73533100D01*
X195588586Y-73527321D01*
X195592405Y-73520375D01*
X195592407Y-73520372D01*
X195598348Y-73509566D01*
X195609199Y-73493047D01*
X195616758Y-73483301D01*
X195621614Y-73477041D01*
X195624759Y-73469772D01*
X195624762Y-73469768D01*
X195639174Y-73436463D01*
X195644391Y-73425813D01*
X195665695Y-73387060D01*
X195670733Y-73367437D01*
X195677137Y-73348734D01*
X195682033Y-73337420D01*
X195682033Y-73337419D01*
X195685181Y-73330145D01*
X195686420Y-73322322D01*
X195686423Y-73322312D01*
X195692099Y-73286476D01*
X195694505Y-73274856D01*
X195703528Y-73239711D01*
X195703528Y-73239710D01*
X195705500Y-73232030D01*
X195705500Y-73211776D01*
X195707051Y-73192065D01*
X195708980Y-73179886D01*
X195710220Y-73172057D01*
X195706059Y-73128038D01*
X195705500Y-73116181D01*
X195705500Y-71130427D01*
X195725502Y-71062306D01*
X195766618Y-71022550D01*
X195769994Y-71020896D01*
X195951860Y-70891173D01*
X196110096Y-70733489D01*
X196240453Y-70552077D01*
X196241776Y-70553028D01*
X196288645Y-70509857D01*
X196358580Y-70497625D01*
X196424026Y-70525144D01*
X196451875Y-70556994D01*
X196511987Y-70655088D01*
X196658250Y-70823938D01*
X196830126Y-70966632D01*
X197023000Y-71079338D01*
X197231692Y-71159030D01*
X197236760Y-71160061D01*
X197236763Y-71160062D01*
X197331862Y-71179410D01*
X197450597Y-71203567D01*
X197455772Y-71203757D01*
X197455774Y-71203757D01*
X197668673Y-71211564D01*
X197668677Y-71211564D01*
X197673837Y-71211753D01*
X197678957Y-71211097D01*
X197678959Y-71211097D01*
X197890288Y-71184025D01*
X197890289Y-71184025D01*
X197895416Y-71183368D01*
X197900366Y-71181883D01*
X198104429Y-71120661D01*
X198104434Y-71120659D01*
X198109384Y-71119174D01*
X198309994Y-71020896D01*
X198491860Y-70891173D01*
X198650096Y-70733489D01*
X198780453Y-70552077D01*
X198781640Y-70552930D01*
X198828960Y-70509362D01*
X198898897Y-70497145D01*
X198964338Y-70524678D01*
X198992166Y-70556511D01*
X199049694Y-70650388D01*
X199055777Y-70658699D01*
X199195213Y-70819667D01*
X199202580Y-70826883D01*
X199366434Y-70962916D01*
X199374881Y-70968831D01*
X199558756Y-71076279D01*
X199568042Y-71080729D01*
X199767001Y-71156703D01*
X199776899Y-71159579D01*
X199880250Y-71180606D01*
X199894299Y-71179410D01*
X199898000Y-71169065D01*
X199898000Y-71168517D01*
X200406000Y-71168517D01*
X200410064Y-71182359D01*
X200423478Y-71184393D01*
X200430184Y-71183534D01*
X200440262Y-71181392D01*
X200644255Y-71120191D01*
X200653842Y-71116433D01*
X200845095Y-71022739D01*
X200853945Y-71017464D01*
X201027328Y-70893792D01*
X201035200Y-70887139D01*
X201186052Y-70736812D01*
X201192730Y-70728965D01*
X201317003Y-70556020D01*
X201322313Y-70547183D01*
X201416670Y-70356267D01*
X201420469Y-70346672D01*
X201482377Y-70142910D01*
X201484555Y-70132837D01*
X201485986Y-70121962D01*
X201483775Y-70107778D01*
X201470617Y-70104000D01*
X200424115Y-70104000D01*
X200408876Y-70108475D01*
X200407671Y-70109865D01*
X200406000Y-70117548D01*
X200406000Y-71168517D01*
X199898000Y-71168517D01*
X199898000Y-69577885D01*
X200406000Y-69577885D01*
X200410475Y-69593124D01*
X200411865Y-69594329D01*
X200419548Y-69596000D01*
X201470344Y-69596000D01*
X201483875Y-69592027D01*
X201485180Y-69582947D01*
X201443214Y-69415875D01*
X201439894Y-69406124D01*
X201354972Y-69210814D01*
X201350105Y-69201739D01*
X201234426Y-69022926D01*
X201228136Y-69014757D01*
X201084806Y-68857240D01*
X201077273Y-68850215D01*
X200910139Y-68718222D01*
X200901552Y-68712517D01*
X200715117Y-68609599D01*
X200705705Y-68605369D01*
X200504959Y-68534280D01*
X200494988Y-68531646D01*
X200423837Y-68518972D01*
X200410540Y-68520432D01*
X200406000Y-68534989D01*
X200406000Y-69577885D01*
X199898000Y-69577885D01*
X199898000Y-68533102D01*
X199894082Y-68519758D01*
X199879806Y-68517771D01*
X199841324Y-68523660D01*
X199831288Y-68526051D01*
X199628868Y-68592212D01*
X199619359Y-68596209D01*
X199430463Y-68694542D01*
X199421738Y-68700036D01*
X199251433Y-68827905D01*
X199243726Y-68834748D01*
X199096590Y-68988717D01*
X199090109Y-68996722D01*
X198985498Y-69150074D01*
X198930587Y-69195076D01*
X198860062Y-69203247D01*
X198796315Y-69171993D01*
X198775618Y-69147509D01*
X198694822Y-69022617D01*
X198694820Y-69022614D01*
X198692014Y-69018277D01*
X198541670Y-68853051D01*
X198537619Y-68849852D01*
X198537615Y-68849848D01*
X198370414Y-68717800D01*
X198370410Y-68717798D01*
X198366359Y-68714598D01*
X198330028Y-68694542D01*
X198314136Y-68685769D01*
X198170789Y-68606638D01*
X198165920Y-68604914D01*
X198165916Y-68604912D01*
X197965087Y-68533795D01*
X197965083Y-68533794D01*
X197960212Y-68532069D01*
X197955119Y-68531162D01*
X197955116Y-68531161D01*
X197745373Y-68493800D01*
X197745367Y-68493799D01*
X197740284Y-68492894D01*
X197666452Y-68491992D01*
X197522081Y-68490228D01*
X197522079Y-68490228D01*
X197516911Y-68490165D01*
X197296091Y-68523955D01*
X197083756Y-68593357D01*
X196885607Y-68696507D01*
X196881474Y-68699610D01*
X196881471Y-68699612D01*
X196711100Y-68827530D01*
X196706965Y-68830635D01*
X196703393Y-68834373D01*
X196595729Y-68947037D01*
X196552629Y-68992138D01*
X196445201Y-69149621D01*
X196390293Y-69194621D01*
X196319768Y-69202792D01*
X196256021Y-69171538D01*
X196235324Y-69147054D01*
X196154822Y-69022617D01*
X196154820Y-69022614D01*
X196152014Y-69018277D01*
X196001670Y-68853051D01*
X195997619Y-68849852D01*
X195997615Y-68849848D01*
X195830414Y-68717800D01*
X195830410Y-68717798D01*
X195826359Y-68714598D01*
X195790028Y-68694542D01*
X195774136Y-68685769D01*
X195630789Y-68606638D01*
X195625920Y-68604914D01*
X195625916Y-68604912D01*
X195425087Y-68533795D01*
X195425083Y-68533794D01*
X195420212Y-68532069D01*
X195415119Y-68531162D01*
X195415116Y-68531161D01*
X195205373Y-68493800D01*
X195205367Y-68493799D01*
X195200284Y-68492894D01*
X195126452Y-68491992D01*
X194982081Y-68490228D01*
X194982079Y-68490228D01*
X194976911Y-68490165D01*
X194756091Y-68523955D01*
X194543756Y-68593357D01*
X194345607Y-68696507D01*
X194341474Y-68699610D01*
X194341471Y-68699612D01*
X194171100Y-68827530D01*
X194166965Y-68830635D01*
X194163393Y-68834373D01*
X194055729Y-68947037D01*
X194012629Y-68992138D01*
X193905201Y-69149621D01*
X193850293Y-69194621D01*
X193779768Y-69202792D01*
X193716021Y-69171538D01*
X193695324Y-69147054D01*
X193614822Y-69022617D01*
X193614820Y-69022614D01*
X193612014Y-69018277D01*
X193461670Y-68853051D01*
X193457619Y-68849852D01*
X193457615Y-68849848D01*
X193290414Y-68717800D01*
X193290410Y-68717798D01*
X193286359Y-68714598D01*
X193250028Y-68694542D01*
X193234136Y-68685769D01*
X193090789Y-68606638D01*
X193085920Y-68604914D01*
X193085916Y-68604912D01*
X192885087Y-68533795D01*
X192885083Y-68533794D01*
X192880212Y-68532069D01*
X192875119Y-68531162D01*
X192875116Y-68531161D01*
X192665373Y-68493800D01*
X192665367Y-68493799D01*
X192660284Y-68492894D01*
X192586452Y-68491992D01*
X192442081Y-68490228D01*
X192442079Y-68490228D01*
X192436911Y-68490165D01*
X192216091Y-68523955D01*
X192003756Y-68593357D01*
X191805607Y-68696507D01*
X191801474Y-68699610D01*
X191801471Y-68699612D01*
X191631100Y-68827530D01*
X191626965Y-68830635D01*
X191623393Y-68834373D01*
X191515729Y-68947037D01*
X191472629Y-68992138D01*
X191365201Y-69149621D01*
X191310293Y-69194621D01*
X191239768Y-69202792D01*
X191176021Y-69171538D01*
X191155324Y-69147054D01*
X191074822Y-69022617D01*
X191074820Y-69022614D01*
X191072014Y-69018277D01*
X190921670Y-68853051D01*
X190917619Y-68849852D01*
X190917615Y-68849848D01*
X190750414Y-68717800D01*
X190750410Y-68717798D01*
X190746359Y-68714598D01*
X190710028Y-68694542D01*
X190694136Y-68685769D01*
X190550789Y-68606638D01*
X190545920Y-68604914D01*
X190545916Y-68604912D01*
X190345087Y-68533795D01*
X190345083Y-68533794D01*
X190340212Y-68532069D01*
X190335119Y-68531162D01*
X190335116Y-68531161D01*
X190125373Y-68493800D01*
X190125367Y-68493799D01*
X190120284Y-68492894D01*
X190046452Y-68491992D01*
X189902081Y-68490228D01*
X189902079Y-68490228D01*
X189896911Y-68490165D01*
X189676091Y-68523955D01*
X189463756Y-68593357D01*
X189265607Y-68696507D01*
X189261474Y-68699610D01*
X189261471Y-68699612D01*
X189091100Y-68827530D01*
X189086965Y-68830635D01*
X189030537Y-68889684D01*
X189006283Y-68915064D01*
X188944759Y-68950494D01*
X188873846Y-68947037D01*
X188816060Y-68905791D01*
X188797207Y-68872243D01*
X188755767Y-68761703D01*
X188752615Y-68753295D01*
X188665261Y-68636739D01*
X188548705Y-68549385D01*
X188412316Y-68498255D01*
X188350134Y-68491500D01*
X186553866Y-68491500D01*
X186491684Y-68498255D01*
X186355295Y-68549385D01*
X186238739Y-68636739D01*
X186151385Y-68753295D01*
X186100255Y-68889684D01*
X186093500Y-68951866D01*
X186093500Y-70748134D01*
X186100255Y-70810316D01*
X186151385Y-70946705D01*
X186238739Y-71063261D01*
X186355295Y-71150615D01*
X186491684Y-71201745D01*
X186553866Y-71208500D01*
X188350134Y-71208500D01*
X188412316Y-71201745D01*
X188548705Y-71150615D01*
X188665261Y-71063261D01*
X188752615Y-70946705D01*
X188774799Y-70887529D01*
X188796598Y-70829382D01*
X188839240Y-70772618D01*
X188905802Y-70747918D01*
X188975150Y-70763126D01*
X189009817Y-70791114D01*
X189038250Y-70823938D01*
X189210126Y-70966632D01*
X189403000Y-71079338D01*
X189611692Y-71159030D01*
X189616760Y-71160061D01*
X189616763Y-71160062D01*
X189711862Y-71179410D01*
X189830597Y-71203567D01*
X189835772Y-71203757D01*
X189835774Y-71203757D01*
X190048673Y-71211564D01*
X190048677Y-71211564D01*
X190053837Y-71211753D01*
X190058957Y-71211097D01*
X190058959Y-71211097D01*
X190270288Y-71184025D01*
X190270289Y-71184025D01*
X190275416Y-71183368D01*
X190280366Y-71181883D01*
X190484429Y-71120661D01*
X190484434Y-71120659D01*
X190489384Y-71119174D01*
X190689994Y-71020896D01*
X190871860Y-70891173D01*
X191030096Y-70733489D01*
X191160453Y-70552077D01*
X191161776Y-70553028D01*
X191208645Y-70509857D01*
X191278580Y-70497625D01*
X191344026Y-70525144D01*
X191371875Y-70556994D01*
X191431987Y-70655088D01*
X191578250Y-70823938D01*
X191750126Y-70966632D01*
X191943000Y-71079338D01*
X192151692Y-71159030D01*
X192156760Y-71160061D01*
X192156763Y-71160062D01*
X192251862Y-71179410D01*
X192370597Y-71203567D01*
X192375772Y-71203757D01*
X192375774Y-71203757D01*
X192588673Y-71211564D01*
X192588677Y-71211564D01*
X192593837Y-71211753D01*
X192598957Y-71211097D01*
X192598959Y-71211097D01*
X192810288Y-71184025D01*
X192810289Y-71184025D01*
X192815416Y-71183368D01*
X192820366Y-71181883D01*
X193024429Y-71120661D01*
X193024434Y-71120659D01*
X193029384Y-71119174D01*
X193229994Y-71020896D01*
X193411860Y-70891173D01*
X193570096Y-70733489D01*
X193700453Y-70552077D01*
X193701776Y-70553028D01*
X193748645Y-70509857D01*
X193818580Y-70497625D01*
X193884026Y-70525144D01*
X193911875Y-70556994D01*
X193971987Y-70655088D01*
X194118250Y-70823938D01*
X194290126Y-70966632D01*
X194294593Y-70969242D01*
X194376070Y-71016853D01*
X194424794Y-71068491D01*
X194438500Y-71125641D01*
X194438500Y-72837406D01*
X194418498Y-72905527D01*
X194401595Y-72926501D01*
X192814500Y-74513595D01*
X192752188Y-74547621D01*
X192725405Y-74550500D01*
X182704767Y-74550500D01*
X182693584Y-74549973D01*
X182686091Y-74548298D01*
X182678165Y-74548547D01*
X182678164Y-74548547D01*
X182618014Y-74550438D01*
X182614055Y-74550500D01*
X182586144Y-74550500D01*
X182582210Y-74550997D01*
X182582209Y-74550997D01*
X182582144Y-74551005D01*
X182570307Y-74551938D01*
X182538490Y-74552938D01*
X182534029Y-74553078D01*
X182526110Y-74553327D01*
X182508454Y-74558456D01*
X182506658Y-74558978D01*
X182487306Y-74562986D01*
X182480235Y-74563880D01*
X182467203Y-74565526D01*
X182459834Y-74568443D01*
X182459832Y-74568444D01*
X182426097Y-74581800D01*
X182414869Y-74585645D01*
X182372407Y-74597982D01*
X182365585Y-74602016D01*
X182365579Y-74602019D01*
X182354968Y-74608294D01*
X182337218Y-74616990D01*
X182325756Y-74621528D01*
X182325751Y-74621531D01*
X182318383Y-74624448D01*
X182311968Y-74629109D01*
X182282625Y-74650427D01*
X182272707Y-74656943D01*
X182254019Y-74667995D01*
X182234637Y-74679458D01*
X182220313Y-74693782D01*
X182205281Y-74706621D01*
X182188893Y-74718528D01*
X182160712Y-74752593D01*
X182152722Y-74761373D01*
X180555095Y-76359000D01*
X180492783Y-76393026D01*
X180421968Y-76387961D01*
X180365132Y-76345414D01*
X180340321Y-76278894D01*
X180340000Y-76269905D01*
X180340000Y-59816500D01*
X180360002Y-59748379D01*
X180413658Y-59701886D01*
X180466000Y-59690500D01*
X220061966Y-59690500D01*
X220130087Y-59710502D01*
X220176580Y-59764158D01*
X220186684Y-59834432D01*
X220166731Y-59886502D01*
X220035885Y-60082327D01*
X219904941Y-60347855D01*
X219809776Y-60628203D01*
X219752017Y-60918574D01*
X219732654Y-61214000D01*
X219752017Y-61509426D01*
X219809776Y-61799797D01*
X219904941Y-62080145D01*
X220035885Y-62345673D01*
X220200367Y-62591838D01*
X220203081Y-62594932D01*
X220203085Y-62594938D01*
X220324477Y-62733358D01*
X220395573Y-62814427D01*
X220398662Y-62817136D01*
X220615062Y-63006915D01*
X220615068Y-63006919D01*
X220618162Y-63009633D01*
X220621588Y-63011922D01*
X220621593Y-63011926D01*
X220679277Y-63050469D01*
X220864327Y-63174115D01*
X220868026Y-63175939D01*
X220868031Y-63175942D01*
X221004313Y-63243148D01*
X221129855Y-63305059D01*
X221133760Y-63306384D01*
X221133761Y-63306385D01*
X221406290Y-63398896D01*
X221406294Y-63398897D01*
X221410203Y-63400224D01*
X221414247Y-63401028D01*
X221414253Y-63401030D01*
X221696535Y-63457180D01*
X221696541Y-63457181D01*
X221700574Y-63457983D01*
X221704679Y-63458252D01*
X221704686Y-63458253D01*
X221991881Y-63477076D01*
X221996000Y-63477346D01*
X222000119Y-63477076D01*
X222287314Y-63458253D01*
X222287321Y-63458252D01*
X222291426Y-63457983D01*
X222295459Y-63457181D01*
X222295465Y-63457180D01*
X222577747Y-63401030D01*
X222577753Y-63401028D01*
X222581797Y-63400224D01*
X222585706Y-63398897D01*
X222585710Y-63398896D01*
X222858239Y-63306385D01*
X222858240Y-63306384D01*
X222862145Y-63305059D01*
X222987687Y-63243148D01*
X223123969Y-63175942D01*
X223123974Y-63175939D01*
X223127673Y-63174115D01*
X223323498Y-63043269D01*
X223391251Y-63022054D01*
X223459718Y-63040837D01*
X223507161Y-63093654D01*
X223519500Y-63148034D01*
X223519500Y-111095966D01*
X223499498Y-111164087D01*
X223445842Y-111210580D01*
X223375568Y-111220684D01*
X223323498Y-111200731D01*
X223268656Y-111164087D01*
X223127673Y-111069885D01*
X223123974Y-111068061D01*
X223123969Y-111068058D01*
X222987687Y-111000852D01*
X222862145Y-110938941D01*
X222858239Y-110937615D01*
X222585710Y-110845104D01*
X222585706Y-110845103D01*
X222581797Y-110843776D01*
X222577753Y-110842972D01*
X222577747Y-110842970D01*
X222295465Y-110786820D01*
X222295459Y-110786819D01*
X222291426Y-110786017D01*
X222287321Y-110785748D01*
X222287314Y-110785747D01*
X222000119Y-110766924D01*
X221996000Y-110766654D01*
X221991881Y-110766924D01*
X221704686Y-110785747D01*
X221704679Y-110785748D01*
X221700574Y-110786017D01*
X221696541Y-110786819D01*
X221696535Y-110786820D01*
X221414253Y-110842970D01*
X221414247Y-110842972D01*
X221410203Y-110843776D01*
X221406294Y-110845103D01*
X221406290Y-110845104D01*
X221133761Y-110937615D01*
X221129855Y-110938941D01*
X221004313Y-111000852D01*
X220868031Y-111068058D01*
X220868026Y-111068061D01*
X220864327Y-111069885D01*
X220860894Y-111072179D01*
X220621593Y-111232074D01*
X220621588Y-111232078D01*
X220618162Y-111234367D01*
X220615068Y-111237081D01*
X220615062Y-111237085D01*
X220398662Y-111426864D01*
X220395573Y-111429573D01*
X220392864Y-111432662D01*
X220203085Y-111649062D01*
X220203081Y-111649068D01*
X220200367Y-111652162D01*
X220035885Y-111898327D01*
X219904941Y-112163855D01*
X219809776Y-112444203D01*
X219752017Y-112734574D01*
X219732654Y-113030000D01*
X219752017Y-113325426D01*
X219809776Y-113615797D01*
X219904941Y-113896145D01*
X220035885Y-114161673D01*
X220038179Y-114165106D01*
X220166731Y-114357498D01*
X220187946Y-114425251D01*
X220169163Y-114493718D01*
X220116346Y-114541161D01*
X220061966Y-114553500D01*
X117250034Y-114553500D01*
X117181913Y-114533498D01*
X117135420Y-114479842D01*
X117125316Y-114409568D01*
X117145269Y-114357498D01*
X117273821Y-114165106D01*
X117276115Y-114161673D01*
X117407059Y-113896145D01*
X117502224Y-113615797D01*
X117559983Y-113325426D01*
X117579346Y-113030000D01*
X117559983Y-112734574D01*
X117502224Y-112444203D01*
X117407059Y-112163855D01*
X117276115Y-111898327D01*
X117111633Y-111652162D01*
X117108919Y-111649068D01*
X117108915Y-111649062D01*
X116919136Y-111432662D01*
X116916427Y-111429573D01*
X116913338Y-111426864D01*
X116696938Y-111237085D01*
X116696932Y-111237081D01*
X116693838Y-111234367D01*
X116690412Y-111232078D01*
X116690407Y-111232074D01*
X116451106Y-111072179D01*
X116447673Y-111069885D01*
X116443974Y-111068061D01*
X116443969Y-111068058D01*
X116307687Y-111000852D01*
X116182145Y-110938941D01*
X116178239Y-110937615D01*
X115905710Y-110845104D01*
X115905706Y-110845103D01*
X115901797Y-110843776D01*
X115897753Y-110842972D01*
X115897747Y-110842970D01*
X115615465Y-110786820D01*
X115615459Y-110786819D01*
X115611426Y-110786017D01*
X115607321Y-110785748D01*
X115607314Y-110785747D01*
X115320119Y-110766924D01*
X115316000Y-110766654D01*
X115311881Y-110766924D01*
X115024686Y-110785747D01*
X115024679Y-110785748D01*
X115020574Y-110786017D01*
X115016541Y-110786819D01*
X115016535Y-110786820D01*
X114734253Y-110842970D01*
X114734247Y-110842972D01*
X114730203Y-110843776D01*
X114726294Y-110845103D01*
X114726290Y-110845104D01*
X114453761Y-110937615D01*
X114449855Y-110938941D01*
X114324313Y-111000852D01*
X114188031Y-111068058D01*
X114188026Y-111068061D01*
X114184327Y-111069885D01*
X114043344Y-111164087D01*
X113988502Y-111200731D01*
X113920749Y-111221946D01*
X113852282Y-111203163D01*
X113804839Y-111150346D01*
X113792500Y-111095966D01*
X113792500Y-107114670D01*
X168094160Y-107114670D01*
X168099887Y-107122320D01*
X168271042Y-107227205D01*
X168279837Y-107231687D01*
X168489988Y-107318734D01*
X168499373Y-107321783D01*
X168720554Y-107374885D01*
X168730301Y-107376428D01*
X168957070Y-107394275D01*
X168966930Y-107394275D01*
X169193699Y-107376428D01*
X169203446Y-107374885D01*
X169424627Y-107321783D01*
X169434012Y-107318734D01*
X169644163Y-107231687D01*
X169652958Y-107227205D01*
X169820445Y-107124568D01*
X169829400Y-107114670D01*
X174594160Y-107114670D01*
X174599887Y-107122320D01*
X174771042Y-107227205D01*
X174779837Y-107231687D01*
X174989988Y-107318734D01*
X174999373Y-107321783D01*
X175220554Y-107374885D01*
X175230301Y-107376428D01*
X175457070Y-107394275D01*
X175466930Y-107394275D01*
X175693699Y-107376428D01*
X175703446Y-107374885D01*
X175924627Y-107321783D01*
X175934012Y-107318734D01*
X176144163Y-107231687D01*
X176152958Y-107227205D01*
X176320445Y-107124568D01*
X176329907Y-107114110D01*
X176326124Y-107105334D01*
X175474812Y-106254022D01*
X175460868Y-106246408D01*
X175459035Y-106246539D01*
X175452420Y-106250790D01*
X174600920Y-107102290D01*
X174594160Y-107114670D01*
X169829400Y-107114670D01*
X169829907Y-107114110D01*
X169826124Y-107105334D01*
X168974812Y-106254022D01*
X168960868Y-106246408D01*
X168959035Y-106246539D01*
X168952420Y-106250790D01*
X168100920Y-107102290D01*
X168094160Y-107114670D01*
X113792500Y-107114670D01*
X113792500Y-105886930D01*
X167449725Y-105886930D01*
X167467572Y-106113699D01*
X167469115Y-106123446D01*
X167522217Y-106344627D01*
X167525266Y-106354012D01*
X167612313Y-106564163D01*
X167616795Y-106572958D01*
X167719432Y-106740445D01*
X167729890Y-106749907D01*
X167738666Y-106746124D01*
X168589978Y-105894812D01*
X168596356Y-105883132D01*
X169326408Y-105883132D01*
X169326539Y-105884965D01*
X169330790Y-105891580D01*
X170182290Y-106743080D01*
X170194670Y-106749840D01*
X170202320Y-106744113D01*
X170307205Y-106572958D01*
X170311687Y-106564163D01*
X170398734Y-106354012D01*
X170401783Y-106344627D01*
X170454885Y-106123446D01*
X170456428Y-106113699D01*
X170474275Y-105886930D01*
X173949725Y-105886930D01*
X173967572Y-106113699D01*
X173969115Y-106123446D01*
X174022217Y-106344627D01*
X174025266Y-106354012D01*
X174112313Y-106564163D01*
X174116795Y-106572958D01*
X174219432Y-106740445D01*
X174229890Y-106749907D01*
X174238666Y-106746124D01*
X175089978Y-105894812D01*
X175096356Y-105883132D01*
X175826408Y-105883132D01*
X175826539Y-105884965D01*
X175830790Y-105891580D01*
X176682290Y-106743080D01*
X176694670Y-106749840D01*
X176702320Y-106744113D01*
X176807205Y-106572958D01*
X176811687Y-106564163D01*
X176898734Y-106354012D01*
X176901783Y-106344627D01*
X176954885Y-106123446D01*
X176956428Y-106113699D01*
X176974275Y-105886930D01*
X176974275Y-105877070D01*
X176956428Y-105650301D01*
X176954885Y-105640554D01*
X176901783Y-105419373D01*
X176898734Y-105409988D01*
X176811687Y-105199837D01*
X176807205Y-105191042D01*
X176704568Y-105023555D01*
X176694110Y-105014093D01*
X176685334Y-105017876D01*
X175834022Y-105869188D01*
X175826408Y-105883132D01*
X175096356Y-105883132D01*
X175097592Y-105880868D01*
X175097461Y-105879035D01*
X175093210Y-105872420D01*
X174241710Y-105020920D01*
X174229330Y-105014160D01*
X174221680Y-105019887D01*
X174116795Y-105191042D01*
X174112313Y-105199837D01*
X174025266Y-105409988D01*
X174022217Y-105419373D01*
X173969115Y-105640554D01*
X173967572Y-105650301D01*
X173949725Y-105877070D01*
X173949725Y-105886930D01*
X170474275Y-105886930D01*
X170474275Y-105877070D01*
X170456428Y-105650301D01*
X170454885Y-105640554D01*
X170401783Y-105419373D01*
X170398734Y-105409988D01*
X170311687Y-105199837D01*
X170307205Y-105191042D01*
X170204568Y-105023555D01*
X170194110Y-105014093D01*
X170185334Y-105017876D01*
X169334022Y-105869188D01*
X169326408Y-105883132D01*
X168596356Y-105883132D01*
X168597592Y-105880868D01*
X168597461Y-105879035D01*
X168593210Y-105872420D01*
X167741710Y-105020920D01*
X167729330Y-105014160D01*
X167721680Y-105019887D01*
X167616795Y-105191042D01*
X167612313Y-105199837D01*
X167525266Y-105409988D01*
X167522217Y-105419373D01*
X167469115Y-105640554D01*
X167467572Y-105650301D01*
X167449725Y-105877070D01*
X167449725Y-105886930D01*
X113792500Y-105886930D01*
X113792500Y-104649890D01*
X168094093Y-104649890D01*
X168097876Y-104658666D01*
X168949188Y-105509978D01*
X168963132Y-105517592D01*
X168964965Y-105517461D01*
X168971580Y-105513210D01*
X169823080Y-104661710D01*
X169829534Y-104649890D01*
X174594093Y-104649890D01*
X174597876Y-104658666D01*
X175449188Y-105509978D01*
X175463132Y-105517592D01*
X175464965Y-105517461D01*
X175471580Y-105513210D01*
X176323080Y-104661710D01*
X176329840Y-104649330D01*
X176324113Y-104641680D01*
X176152958Y-104536795D01*
X176144163Y-104532313D01*
X175934012Y-104445266D01*
X175924627Y-104442217D01*
X175703446Y-104389115D01*
X175693699Y-104387572D01*
X175466930Y-104369725D01*
X175457070Y-104369725D01*
X175230301Y-104387572D01*
X175220554Y-104389115D01*
X174999373Y-104442217D01*
X174989988Y-104445266D01*
X174779837Y-104532313D01*
X174771042Y-104536795D01*
X174603555Y-104639432D01*
X174594093Y-104649890D01*
X169829534Y-104649890D01*
X169829840Y-104649330D01*
X169824113Y-104641680D01*
X169652958Y-104536795D01*
X169644163Y-104532313D01*
X169434012Y-104445266D01*
X169424627Y-104442217D01*
X169203446Y-104389115D01*
X169193699Y-104387572D01*
X168966930Y-104369725D01*
X168957070Y-104369725D01*
X168730301Y-104387572D01*
X168720554Y-104389115D01*
X168499373Y-104442217D01*
X168489988Y-104445266D01*
X168279837Y-104532313D01*
X168271042Y-104536795D01*
X168103555Y-104639432D01*
X168094093Y-104649890D01*
X113792500Y-104649890D01*
X113792500Y-95648670D01*
X130300160Y-95648670D01*
X130305887Y-95656320D01*
X130477042Y-95761205D01*
X130485837Y-95765687D01*
X130695988Y-95852734D01*
X130705373Y-95855783D01*
X130926554Y-95908885D01*
X130936301Y-95910428D01*
X131163070Y-95928275D01*
X131172930Y-95928275D01*
X131399699Y-95910428D01*
X131409446Y-95908885D01*
X131630627Y-95855783D01*
X131640012Y-95852734D01*
X131850163Y-95765687D01*
X131858958Y-95761205D01*
X132026445Y-95658568D01*
X132035400Y-95648670D01*
X136800160Y-95648670D01*
X136805887Y-95656320D01*
X136977042Y-95761205D01*
X136985837Y-95765687D01*
X137195988Y-95852734D01*
X137205373Y-95855783D01*
X137426554Y-95908885D01*
X137436301Y-95910428D01*
X137663070Y-95928275D01*
X137672930Y-95928275D01*
X137899699Y-95910428D01*
X137909446Y-95908885D01*
X138130627Y-95855783D01*
X138140012Y-95852734D01*
X138350163Y-95765687D01*
X138358958Y-95761205D01*
X138526445Y-95658568D01*
X138535907Y-95648110D01*
X138532124Y-95639334D01*
X137680812Y-94788022D01*
X137666868Y-94780408D01*
X137665035Y-94780539D01*
X137658420Y-94784790D01*
X136806920Y-95636290D01*
X136800160Y-95648670D01*
X132035400Y-95648670D01*
X132035907Y-95648110D01*
X132032124Y-95639334D01*
X131180812Y-94788022D01*
X131166868Y-94780408D01*
X131165035Y-94780539D01*
X131158420Y-94784790D01*
X130306920Y-95636290D01*
X130300160Y-95648670D01*
X113792500Y-95648670D01*
X113792500Y-94420930D01*
X129655725Y-94420930D01*
X129673572Y-94647699D01*
X129675115Y-94657446D01*
X129728217Y-94878627D01*
X129731266Y-94888012D01*
X129818313Y-95098163D01*
X129822795Y-95106958D01*
X129925432Y-95274445D01*
X129935890Y-95283907D01*
X129944666Y-95280124D01*
X130795978Y-94428812D01*
X130802356Y-94417132D01*
X131532408Y-94417132D01*
X131532539Y-94418965D01*
X131536790Y-94425580D01*
X132388290Y-95277080D01*
X132400670Y-95283840D01*
X132408320Y-95278113D01*
X132513205Y-95106958D01*
X132517687Y-95098163D01*
X132604734Y-94888012D01*
X132607783Y-94878627D01*
X132660885Y-94657446D01*
X132662428Y-94647699D01*
X132680275Y-94420930D01*
X136155725Y-94420930D01*
X136173572Y-94647699D01*
X136175115Y-94657446D01*
X136228217Y-94878627D01*
X136231266Y-94888012D01*
X136318313Y-95098163D01*
X136322795Y-95106958D01*
X136425432Y-95274445D01*
X136435890Y-95283907D01*
X136444666Y-95280124D01*
X137295978Y-94428812D01*
X137302356Y-94417132D01*
X138032408Y-94417132D01*
X138032539Y-94418965D01*
X138036790Y-94425580D01*
X138888290Y-95277080D01*
X138900670Y-95283840D01*
X138908320Y-95278113D01*
X139013205Y-95106958D01*
X139017687Y-95098163D01*
X139104734Y-94888012D01*
X139107783Y-94878627D01*
X139160885Y-94657446D01*
X139162428Y-94647699D01*
X139174997Y-94488000D01*
X164440496Y-94488000D01*
X164460458Y-94677928D01*
X164519473Y-94859556D01*
X164614960Y-95024944D01*
X164688137Y-95106215D01*
X164718853Y-95170221D01*
X164720500Y-95190524D01*
X164720500Y-97695233D01*
X164719973Y-97706416D01*
X164718298Y-97713909D01*
X164718547Y-97721835D01*
X164718547Y-97721836D01*
X164720438Y-97781986D01*
X164720500Y-97785945D01*
X164720500Y-97813856D01*
X164720997Y-97817790D01*
X164720997Y-97817791D01*
X164721005Y-97817856D01*
X164721938Y-97829693D01*
X164723327Y-97873889D01*
X164728978Y-97893339D01*
X164732987Y-97912700D01*
X164735526Y-97932797D01*
X164738445Y-97940168D01*
X164738445Y-97940170D01*
X164751804Y-97973912D01*
X164755649Y-97985142D01*
X164767982Y-98027593D01*
X164772015Y-98034412D01*
X164772017Y-98034417D01*
X164778293Y-98045028D01*
X164786988Y-98062776D01*
X164794448Y-98081617D01*
X164799110Y-98088033D01*
X164799110Y-98088034D01*
X164820436Y-98117387D01*
X164826952Y-98127307D01*
X164849458Y-98165362D01*
X164863779Y-98179683D01*
X164876619Y-98194716D01*
X164888528Y-98211107D01*
X164894634Y-98216158D01*
X164922605Y-98239298D01*
X164931384Y-98247288D01*
X167487636Y-100803540D01*
X167521662Y-100865852D01*
X167521060Y-100922049D01*
X167467465Y-101145289D01*
X167448835Y-101382000D01*
X167467465Y-101618711D01*
X167522895Y-101849594D01*
X167613760Y-102068963D01*
X167616346Y-102073183D01*
X167735241Y-102267202D01*
X167735245Y-102267208D01*
X167737824Y-102271416D01*
X167892031Y-102451969D01*
X168072584Y-102606176D01*
X168076792Y-102608755D01*
X168076798Y-102608759D01*
X168270817Y-102727654D01*
X168275037Y-102730240D01*
X168279607Y-102732133D01*
X168279611Y-102732135D01*
X168489833Y-102819211D01*
X168494406Y-102821105D01*
X168574609Y-102840360D01*
X168720476Y-102875380D01*
X168720482Y-102875381D01*
X168725289Y-102876535D01*
X168962000Y-102895165D01*
X169198711Y-102876535D01*
X169203518Y-102875381D01*
X169203524Y-102875380D01*
X169349391Y-102840360D01*
X169429594Y-102821105D01*
X169434167Y-102819211D01*
X169644389Y-102732135D01*
X169644393Y-102732133D01*
X169648963Y-102730240D01*
X169653183Y-102727654D01*
X169847202Y-102608759D01*
X169847208Y-102608755D01*
X169851416Y-102606176D01*
X170031969Y-102451969D01*
X170186176Y-102271416D01*
X170188755Y-102267208D01*
X170188759Y-102267202D01*
X170307654Y-102073183D01*
X170310240Y-102068963D01*
X170401105Y-101849594D01*
X170456535Y-101618711D01*
X170475165Y-101382000D01*
X173948835Y-101382000D01*
X173967465Y-101618711D01*
X174022895Y-101849594D01*
X174113760Y-102068963D01*
X174116346Y-102073183D01*
X174235241Y-102267202D01*
X174235245Y-102267208D01*
X174237824Y-102271416D01*
X174392031Y-102451969D01*
X174572584Y-102606176D01*
X174576792Y-102608755D01*
X174576798Y-102608759D01*
X174770817Y-102727654D01*
X174775037Y-102730240D01*
X174779607Y-102732133D01*
X174779611Y-102732135D01*
X174989833Y-102819211D01*
X174994406Y-102821105D01*
X175074609Y-102840360D01*
X175220476Y-102875380D01*
X175220482Y-102875381D01*
X175225289Y-102876535D01*
X175462000Y-102895165D01*
X175698711Y-102876535D01*
X175703518Y-102875381D01*
X175703524Y-102875380D01*
X175849391Y-102840360D01*
X175929594Y-102821105D01*
X175934167Y-102819211D01*
X176144389Y-102732135D01*
X176144393Y-102732133D01*
X176148963Y-102730240D01*
X176153183Y-102727654D01*
X176347202Y-102608759D01*
X176347208Y-102608755D01*
X176351416Y-102606176D01*
X176531969Y-102451969D01*
X176686176Y-102271416D01*
X176688755Y-102267208D01*
X176688759Y-102267202D01*
X176807654Y-102073183D01*
X176810240Y-102068963D01*
X176901105Y-101849594D01*
X176956535Y-101618711D01*
X176975165Y-101382000D01*
X176956535Y-101145289D01*
X176901105Y-100914406D01*
X176899211Y-100909833D01*
X176812135Y-100699611D01*
X176812133Y-100699607D01*
X176810240Y-100695037D01*
X176807654Y-100690817D01*
X176688759Y-100496798D01*
X176688755Y-100496792D01*
X176686176Y-100492584D01*
X176531969Y-100312031D01*
X176351416Y-100157824D01*
X176347208Y-100155245D01*
X176347202Y-100155241D01*
X176153183Y-100036346D01*
X176148963Y-100033760D01*
X176144393Y-100031867D01*
X176144389Y-100031865D01*
X175934167Y-99944789D01*
X175934165Y-99944788D01*
X175929594Y-99942895D01*
X175849391Y-99923640D01*
X175703524Y-99888620D01*
X175703518Y-99888619D01*
X175698711Y-99887465D01*
X175462000Y-99868835D01*
X175225289Y-99887465D01*
X175220482Y-99888619D01*
X175220476Y-99888620D01*
X175074609Y-99923640D01*
X174994406Y-99942895D01*
X174989835Y-99944788D01*
X174989833Y-99944789D01*
X174779611Y-100031865D01*
X174779607Y-100031867D01*
X174775037Y-100033760D01*
X174770817Y-100036346D01*
X174576798Y-100155241D01*
X174576792Y-100155245D01*
X174572584Y-100157824D01*
X174392031Y-100312031D01*
X174237824Y-100492584D01*
X174235245Y-100496792D01*
X174235241Y-100496798D01*
X174116346Y-100690817D01*
X174113760Y-100695037D01*
X174111867Y-100699607D01*
X174111865Y-100699611D01*
X174024789Y-100909833D01*
X174022895Y-100914406D01*
X173967465Y-101145289D01*
X173948835Y-101382000D01*
X170475165Y-101382000D01*
X170456535Y-101145289D01*
X170401105Y-100914406D01*
X170399211Y-100909833D01*
X170312135Y-100699611D01*
X170312133Y-100699607D01*
X170310240Y-100695037D01*
X170307654Y-100690817D01*
X170188759Y-100496798D01*
X170188755Y-100496792D01*
X170186176Y-100492584D01*
X170031969Y-100312031D01*
X169851416Y-100157824D01*
X169847208Y-100155245D01*
X169847202Y-100155241D01*
X169653183Y-100036346D01*
X169648963Y-100033760D01*
X169644393Y-100031867D01*
X169644389Y-100031865D01*
X169434167Y-99944789D01*
X169434165Y-99944788D01*
X169429594Y-99942895D01*
X169349391Y-99923640D01*
X169203524Y-99888620D01*
X169203518Y-99888619D01*
X169198711Y-99887465D01*
X168962000Y-99868835D01*
X168725289Y-99887465D01*
X168720482Y-99888619D01*
X168720476Y-99888620D01*
X168502049Y-99941060D01*
X168431141Y-99937513D01*
X168383540Y-99907636D01*
X166024405Y-97548500D01*
X165990379Y-97486188D01*
X165987500Y-97459405D01*
X165987500Y-95190524D01*
X166007502Y-95122403D01*
X166019858Y-95106221D01*
X166093040Y-95024944D01*
X166188527Y-94859556D01*
X166247542Y-94677928D01*
X166267504Y-94488000D01*
X166261283Y-94428812D01*
X166248232Y-94304635D01*
X166248232Y-94304633D01*
X166247542Y-94298072D01*
X166188527Y-94116444D01*
X166178652Y-94099339D01*
X166115500Y-93989958D01*
X166093040Y-93951056D01*
X165965253Y-93809134D01*
X165810752Y-93696882D01*
X165804724Y-93694198D01*
X165804722Y-93694197D01*
X165642319Y-93621891D01*
X165642318Y-93621891D01*
X165636288Y-93619206D01*
X165542887Y-93599353D01*
X165455944Y-93580872D01*
X165455939Y-93580872D01*
X165449487Y-93579500D01*
X165258513Y-93579500D01*
X165252061Y-93580872D01*
X165252056Y-93580872D01*
X165165113Y-93599353D01*
X165071712Y-93619206D01*
X165065682Y-93621891D01*
X165065681Y-93621891D01*
X164903278Y-93694197D01*
X164903276Y-93694198D01*
X164897248Y-93696882D01*
X164742747Y-93809134D01*
X164614960Y-93951056D01*
X164592500Y-93989958D01*
X164529349Y-94099339D01*
X164519473Y-94116444D01*
X164460458Y-94298072D01*
X164459768Y-94304633D01*
X164459768Y-94304635D01*
X164446717Y-94428812D01*
X164440496Y-94488000D01*
X139174997Y-94488000D01*
X139180275Y-94420930D01*
X139180275Y-94411070D01*
X139162428Y-94184301D01*
X139160885Y-94174554D01*
X139107783Y-93953373D01*
X139104734Y-93943988D01*
X139017687Y-93733837D01*
X139013205Y-93725042D01*
X138910568Y-93557555D01*
X138900110Y-93548093D01*
X138891334Y-93551876D01*
X138040022Y-94403188D01*
X138032408Y-94417132D01*
X137302356Y-94417132D01*
X137303592Y-94414868D01*
X137303461Y-94413035D01*
X137299210Y-94406420D01*
X136447710Y-93554920D01*
X136435330Y-93548160D01*
X136427680Y-93553887D01*
X136322795Y-93725042D01*
X136318313Y-93733837D01*
X136231266Y-93943988D01*
X136228217Y-93953373D01*
X136175115Y-94174554D01*
X136173572Y-94184301D01*
X136155725Y-94411070D01*
X136155725Y-94420930D01*
X132680275Y-94420930D01*
X132680275Y-94411070D01*
X132662428Y-94184301D01*
X132660885Y-94174554D01*
X132607783Y-93953373D01*
X132604734Y-93943988D01*
X132517687Y-93733837D01*
X132513205Y-93725042D01*
X132410568Y-93557555D01*
X132400110Y-93548093D01*
X132391334Y-93551876D01*
X131540022Y-94403188D01*
X131532408Y-94417132D01*
X130802356Y-94417132D01*
X130803592Y-94414868D01*
X130803461Y-94413035D01*
X130799210Y-94406420D01*
X129947710Y-93554920D01*
X129935330Y-93548160D01*
X129927680Y-93553887D01*
X129822795Y-93725042D01*
X129818313Y-93733837D01*
X129731266Y-93943988D01*
X129728217Y-93953373D01*
X129675115Y-94174554D01*
X129673572Y-94184301D01*
X129655725Y-94411070D01*
X129655725Y-94420930D01*
X113792500Y-94420930D01*
X113792500Y-93183890D01*
X130300093Y-93183890D01*
X130303876Y-93192666D01*
X131155188Y-94043978D01*
X131169132Y-94051592D01*
X131170965Y-94051461D01*
X131177580Y-94047210D01*
X132029080Y-93195710D01*
X132035534Y-93183890D01*
X136800093Y-93183890D01*
X136803876Y-93192666D01*
X137655188Y-94043978D01*
X137669132Y-94051592D01*
X137670965Y-94051461D01*
X137677580Y-94047210D01*
X138529080Y-93195710D01*
X138535840Y-93183330D01*
X138530113Y-93175680D01*
X138358958Y-93070795D01*
X138350163Y-93066313D01*
X138140012Y-92979266D01*
X138130627Y-92976217D01*
X137909446Y-92923115D01*
X137899699Y-92921572D01*
X137672930Y-92903725D01*
X137663070Y-92903725D01*
X137436301Y-92921572D01*
X137426554Y-92923115D01*
X137205373Y-92976217D01*
X137195988Y-92979266D01*
X136985837Y-93066313D01*
X136977042Y-93070795D01*
X136809555Y-93173432D01*
X136800093Y-93183890D01*
X132035534Y-93183890D01*
X132035840Y-93183330D01*
X132030113Y-93175680D01*
X131858958Y-93070795D01*
X131850163Y-93066313D01*
X131640012Y-92979266D01*
X131630627Y-92976217D01*
X131409446Y-92923115D01*
X131399699Y-92921572D01*
X131172930Y-92903725D01*
X131163070Y-92903725D01*
X130936301Y-92921572D01*
X130926554Y-92923115D01*
X130705373Y-92976217D01*
X130695988Y-92979266D01*
X130485837Y-93066313D01*
X130477042Y-93070795D01*
X130309555Y-93173432D01*
X130300093Y-93183890D01*
X113792500Y-93183890D01*
X113792500Y-89916000D01*
X129654835Y-89916000D01*
X129673465Y-90152711D01*
X129674619Y-90157518D01*
X129674620Y-90157524D01*
X129696829Y-90250030D01*
X129728895Y-90383594D01*
X129730788Y-90388165D01*
X129730789Y-90388167D01*
X129813002Y-90586647D01*
X129819760Y-90602963D01*
X129822346Y-90607183D01*
X129941241Y-90801202D01*
X129941245Y-90801208D01*
X129943824Y-90805416D01*
X130098031Y-90985969D01*
X130278584Y-91140176D01*
X130282792Y-91142755D01*
X130282798Y-91142759D01*
X130476817Y-91261654D01*
X130481037Y-91264240D01*
X130485607Y-91266133D01*
X130485611Y-91266135D01*
X130695833Y-91353211D01*
X130700406Y-91355105D01*
X130780609Y-91374360D01*
X130926476Y-91409380D01*
X130926482Y-91409381D01*
X130931289Y-91410535D01*
X131168000Y-91429165D01*
X131404711Y-91410535D01*
X131409518Y-91409381D01*
X131409524Y-91409380D01*
X131555391Y-91374360D01*
X131635594Y-91355105D01*
X131640167Y-91353211D01*
X131850389Y-91266135D01*
X131850393Y-91266133D01*
X131854963Y-91264240D01*
X131859183Y-91261654D01*
X132053202Y-91142759D01*
X132053208Y-91142755D01*
X132057416Y-91140176D01*
X132237969Y-90985969D01*
X132392176Y-90805416D01*
X132394755Y-90801208D01*
X132394759Y-90801202D01*
X132513654Y-90607183D01*
X132516240Y-90602963D01*
X132522999Y-90586647D01*
X132605211Y-90388167D01*
X132605212Y-90388165D01*
X132607105Y-90383594D01*
X132639171Y-90250030D01*
X132661380Y-90157524D01*
X132661381Y-90157518D01*
X132662535Y-90152711D01*
X132681165Y-89916000D01*
X136154835Y-89916000D01*
X136173465Y-90152711D01*
X136174619Y-90157518D01*
X136174620Y-90157524D01*
X136196829Y-90250030D01*
X136228895Y-90383594D01*
X136230788Y-90388165D01*
X136230789Y-90388167D01*
X136313002Y-90586647D01*
X136319760Y-90602963D01*
X136322346Y-90607183D01*
X136441241Y-90801202D01*
X136441245Y-90801208D01*
X136443824Y-90805416D01*
X136598031Y-90985969D01*
X136778584Y-91140176D01*
X136782792Y-91142755D01*
X136782798Y-91142759D01*
X136976817Y-91261654D01*
X136981037Y-91264240D01*
X136985607Y-91266133D01*
X136985611Y-91266135D01*
X137195833Y-91353211D01*
X137200406Y-91355105D01*
X137280609Y-91374360D01*
X137426476Y-91409380D01*
X137426482Y-91409381D01*
X137431289Y-91410535D01*
X137668000Y-91429165D01*
X137904711Y-91410535D01*
X137909518Y-91409381D01*
X137909524Y-91409380D01*
X138055391Y-91374360D01*
X138135594Y-91355105D01*
X138140167Y-91353211D01*
X138350389Y-91266135D01*
X138350393Y-91266133D01*
X138354963Y-91264240D01*
X138359183Y-91261654D01*
X138553202Y-91142759D01*
X138553208Y-91142755D01*
X138557416Y-91140176D01*
X138737969Y-90985969D01*
X138892176Y-90805416D01*
X138894755Y-90801208D01*
X138894759Y-90801202D01*
X139013654Y-90607183D01*
X139016240Y-90602963D01*
X139022999Y-90586647D01*
X139105211Y-90388167D01*
X139105212Y-90388165D01*
X139107105Y-90383594D01*
X139139171Y-90250030D01*
X139161380Y-90157524D01*
X139161381Y-90157518D01*
X139162535Y-90152711D01*
X139181165Y-89916000D01*
X139180504Y-89907595D01*
X139162923Y-89684223D01*
X139162535Y-89679289D01*
X139155544Y-89650166D01*
X139108260Y-89453218D01*
X139107105Y-89448406D01*
X139016240Y-89229037D01*
X139013654Y-89224817D01*
X138894759Y-89030798D01*
X138894755Y-89030792D01*
X138892176Y-89026584D01*
X138737969Y-88846031D01*
X138557416Y-88691824D01*
X138553208Y-88689245D01*
X138553202Y-88689241D01*
X138359183Y-88570346D01*
X138354963Y-88567760D01*
X138350393Y-88565867D01*
X138350389Y-88565865D01*
X138140167Y-88478789D01*
X138140165Y-88478788D01*
X138135594Y-88476895D01*
X138055391Y-88457640D01*
X137909524Y-88422620D01*
X137909518Y-88422619D01*
X137904711Y-88421465D01*
X137668000Y-88402835D01*
X137431289Y-88421465D01*
X137426482Y-88422619D01*
X137426476Y-88422620D01*
X137280609Y-88457640D01*
X137200406Y-88476895D01*
X137195835Y-88478788D01*
X137195833Y-88478789D01*
X136985611Y-88565865D01*
X136985607Y-88565867D01*
X136981037Y-88567760D01*
X136976817Y-88570346D01*
X136782798Y-88689241D01*
X136782792Y-88689245D01*
X136778584Y-88691824D01*
X136598031Y-88846031D01*
X136443824Y-89026584D01*
X136441245Y-89030792D01*
X136441241Y-89030798D01*
X136322346Y-89224817D01*
X136319760Y-89229037D01*
X136228895Y-89448406D01*
X136227740Y-89453218D01*
X136180457Y-89650166D01*
X136173465Y-89679289D01*
X136173077Y-89684223D01*
X136155497Y-89907595D01*
X136154835Y-89916000D01*
X132681165Y-89916000D01*
X132680504Y-89907595D01*
X132662923Y-89684223D01*
X132662535Y-89679289D01*
X132655544Y-89650166D01*
X132608260Y-89453218D01*
X132607105Y-89448406D01*
X132516240Y-89229037D01*
X132513654Y-89224817D01*
X132394759Y-89030798D01*
X132394755Y-89030792D01*
X132392176Y-89026584D01*
X132237969Y-88846031D01*
X132057416Y-88691824D01*
X132053208Y-88689245D01*
X132053202Y-88689241D01*
X131859183Y-88570346D01*
X131854963Y-88567760D01*
X131850393Y-88565867D01*
X131850389Y-88565865D01*
X131640167Y-88478789D01*
X131640165Y-88478788D01*
X131635594Y-88476895D01*
X131555391Y-88457640D01*
X131409524Y-88422620D01*
X131409518Y-88422619D01*
X131404711Y-88421465D01*
X131168000Y-88402835D01*
X130931289Y-88421465D01*
X130926482Y-88422619D01*
X130926476Y-88422620D01*
X130780609Y-88457640D01*
X130700406Y-88476895D01*
X130695835Y-88478788D01*
X130695833Y-88478789D01*
X130485611Y-88565865D01*
X130485607Y-88565867D01*
X130481037Y-88567760D01*
X130476817Y-88570346D01*
X130282798Y-88689241D01*
X130282792Y-88689245D01*
X130278584Y-88691824D01*
X130098031Y-88846031D01*
X129943824Y-89026584D01*
X129941245Y-89030792D01*
X129941241Y-89030798D01*
X129822346Y-89224817D01*
X129819760Y-89229037D01*
X129728895Y-89448406D01*
X129727740Y-89453218D01*
X129680457Y-89650166D01*
X129673465Y-89679289D01*
X129673077Y-89684223D01*
X129655497Y-89907595D01*
X129654835Y-89916000D01*
X113792500Y-89916000D01*
X113792500Y-87692499D01*
X154712753Y-87692499D01*
X154717442Y-87698763D01*
X154803818Y-87745662D01*
X154817844Y-87751215D01*
X154957193Y-87787772D01*
X154972144Y-87789819D01*
X155116187Y-87792083D01*
X155131191Y-87790506D01*
X155271625Y-87758342D01*
X155285810Y-87753235D01*
X155387254Y-87702214D01*
X155397560Y-87692583D01*
X155397532Y-87692499D01*
X156547753Y-87692499D01*
X156552442Y-87698763D01*
X156638818Y-87745662D01*
X156652844Y-87751215D01*
X156792193Y-87787772D01*
X156807144Y-87789819D01*
X156951187Y-87792083D01*
X156966191Y-87790506D01*
X157106625Y-87758342D01*
X157120810Y-87753235D01*
X157222254Y-87702214D01*
X157232560Y-87692583D01*
X157230348Y-87685980D01*
X156902312Y-87357944D01*
X156888368Y-87350330D01*
X156886535Y-87350461D01*
X156879920Y-87354712D01*
X156554513Y-87680119D01*
X156547753Y-87692499D01*
X155397532Y-87692499D01*
X155395348Y-87685980D01*
X155067312Y-87357944D01*
X155053368Y-87350330D01*
X155051535Y-87350461D01*
X155044920Y-87354712D01*
X154719513Y-87680119D01*
X154712753Y-87692499D01*
X113792500Y-87692499D01*
X113792500Y-86774999D01*
X153795253Y-86774999D01*
X153799942Y-86781263D01*
X153886318Y-86828162D01*
X153900344Y-86833715D01*
X154039693Y-86870272D01*
X154054644Y-86872319D01*
X154198687Y-86874583D01*
X154213691Y-86873006D01*
X154254874Y-86863574D01*
X154325741Y-86867864D01*
X154383039Y-86909786D01*
X154408576Y-86976031D01*
X154407925Y-87002840D01*
X154392694Y-87118528D01*
X154392537Y-87133609D01*
X154408346Y-87276805D01*
X154411792Y-87291494D01*
X154461299Y-87426783D01*
X154468149Y-87440226D01*
X154484970Y-87465259D01*
X154494954Y-87473558D01*
X154509045Y-87466323D01*
X154829556Y-87145812D01*
X154835934Y-87134132D01*
X155271830Y-87134132D01*
X155271961Y-87135965D01*
X155276212Y-87142580D01*
X155601882Y-87468250D01*
X155613892Y-87474808D01*
X155625633Y-87465838D01*
X155630913Y-87458490D01*
X155638178Y-87445275D01*
X155691913Y-87311607D01*
X155695819Y-87297028D01*
X155716607Y-87150962D01*
X155717231Y-87142758D01*
X155717290Y-87137121D01*
X155716838Y-87128906D01*
X155701611Y-87003082D01*
X155713284Y-86933052D01*
X155760965Y-86880450D01*
X155829516Y-86861977D01*
X155858669Y-86866069D01*
X155874688Y-86870271D01*
X155889644Y-86872319D01*
X156033687Y-86874583D01*
X156048691Y-86873006D01*
X156089874Y-86863574D01*
X156160741Y-86867864D01*
X156218039Y-86909786D01*
X156243576Y-86976031D01*
X156242925Y-87002840D01*
X156227694Y-87118528D01*
X156227537Y-87133609D01*
X156243346Y-87276805D01*
X156246792Y-87291494D01*
X156296299Y-87426783D01*
X156303149Y-87440226D01*
X156319970Y-87465259D01*
X156329954Y-87473558D01*
X156344045Y-87466323D01*
X156664556Y-87145812D01*
X156670934Y-87134132D01*
X157106830Y-87134132D01*
X157106961Y-87135965D01*
X157111212Y-87142580D01*
X157436882Y-87468250D01*
X157448892Y-87474808D01*
X157460633Y-87465838D01*
X157465913Y-87458490D01*
X157473178Y-87445275D01*
X157526913Y-87311607D01*
X157530819Y-87297028D01*
X157551607Y-87150962D01*
X157552231Y-87142758D01*
X157552290Y-87137121D01*
X157551838Y-87128906D01*
X157536611Y-87003082D01*
X157548284Y-86933052D01*
X157595965Y-86880450D01*
X157664516Y-86861977D01*
X157693669Y-86866069D01*
X157709688Y-86870271D01*
X157724644Y-86872319D01*
X157868687Y-86874583D01*
X157883691Y-86873006D01*
X158024125Y-86840842D01*
X158038310Y-86835735D01*
X158139754Y-86784714D01*
X158150060Y-86775083D01*
X158147848Y-86768480D01*
X157819812Y-86440444D01*
X157805868Y-86432830D01*
X157804035Y-86432961D01*
X157797420Y-86437212D01*
X157459201Y-86775431D01*
X157456924Y-86773154D01*
X157446752Y-86783122D01*
X157449131Y-86785501D01*
X157114444Y-87120188D01*
X157106830Y-87134132D01*
X156670934Y-87134132D01*
X156672170Y-87131868D01*
X156672039Y-87130035D01*
X156667788Y-87123420D01*
X156329613Y-86785245D01*
X156330345Y-86784513D01*
X156319510Y-86775628D01*
X156317006Y-86772638D01*
X155984812Y-86440444D01*
X155970868Y-86432830D01*
X155969035Y-86432961D01*
X155962420Y-86437212D01*
X155624201Y-86775431D01*
X155621924Y-86773154D01*
X155611752Y-86783122D01*
X155614131Y-86785501D01*
X155279444Y-87120188D01*
X155271830Y-87134132D01*
X154835934Y-87134132D01*
X154837170Y-87131868D01*
X154837039Y-87130035D01*
X154832788Y-87123420D01*
X154494613Y-86785245D01*
X154495345Y-86784513D01*
X154484510Y-86775628D01*
X154482006Y-86772638D01*
X154149812Y-86440444D01*
X154135868Y-86432830D01*
X154134035Y-86432961D01*
X154127420Y-86437212D01*
X153802013Y-86762619D01*
X153795253Y-86774999D01*
X113792500Y-86774999D01*
X113792500Y-86216109D01*
X153475037Y-86216109D01*
X153490846Y-86359305D01*
X153494292Y-86373994D01*
X153543799Y-86509283D01*
X153550649Y-86522726D01*
X153567470Y-86547759D01*
X153577454Y-86556058D01*
X153591545Y-86548823D01*
X153912056Y-86228312D01*
X153918434Y-86216632D01*
X154354330Y-86216632D01*
X154354461Y-86218465D01*
X154358712Y-86225080D01*
X154697194Y-86563562D01*
X154696510Y-86564246D01*
X154706787Y-86572627D01*
X154709697Y-86576065D01*
X155041688Y-86908056D01*
X155055632Y-86915670D01*
X155057465Y-86915539D01*
X155064080Y-86911288D01*
X155402624Y-86572744D01*
X155404960Y-86575080D01*
X155415035Y-86565257D01*
X155412573Y-86562795D01*
X155747056Y-86228312D01*
X155753434Y-86216632D01*
X156189330Y-86216632D01*
X156189461Y-86218465D01*
X156193712Y-86225080D01*
X156532194Y-86563562D01*
X156531510Y-86564246D01*
X156541787Y-86572627D01*
X156544697Y-86576065D01*
X156876688Y-86908056D01*
X156890632Y-86915670D01*
X156892465Y-86915539D01*
X156899080Y-86911288D01*
X157237624Y-86572744D01*
X157239960Y-86575080D01*
X157250035Y-86565257D01*
X157247573Y-86562795D01*
X157582056Y-86228312D01*
X157588434Y-86216632D01*
X158024330Y-86216632D01*
X158024461Y-86218465D01*
X158028712Y-86225080D01*
X158354382Y-86550750D01*
X158366392Y-86557308D01*
X158378133Y-86548338D01*
X158383413Y-86540990D01*
X158390678Y-86527775D01*
X158444413Y-86394107D01*
X158448319Y-86379528D01*
X158469107Y-86233462D01*
X158469731Y-86225258D01*
X158469790Y-86219621D01*
X158469338Y-86211406D01*
X158451612Y-86064932D01*
X158448016Y-86050289D01*
X158397089Y-85915514D01*
X158390106Y-85902157D01*
X158376892Y-85882931D01*
X158366638Y-85874588D01*
X158352899Y-85881733D01*
X158031944Y-86202688D01*
X158024330Y-86216632D01*
X157588434Y-86216632D01*
X157589670Y-86214368D01*
X157589539Y-86212535D01*
X157585288Y-86205920D01*
X157247113Y-85867745D01*
X157247845Y-85867013D01*
X157237010Y-85858128D01*
X157234506Y-85855138D01*
X156902312Y-85522944D01*
X156888368Y-85515330D01*
X156886535Y-85515461D01*
X156879920Y-85519712D01*
X156541701Y-85857931D01*
X156539424Y-85855654D01*
X156529252Y-85865622D01*
X156531631Y-85868001D01*
X156196944Y-86202688D01*
X156189330Y-86216632D01*
X155753434Y-86216632D01*
X155754670Y-86214368D01*
X155754539Y-86212535D01*
X155750288Y-86205920D01*
X155412113Y-85867745D01*
X155412845Y-85867013D01*
X155402010Y-85858128D01*
X155399506Y-85855138D01*
X155067312Y-85522944D01*
X155053368Y-85515330D01*
X155051535Y-85515461D01*
X155044920Y-85519712D01*
X154706701Y-85857931D01*
X154704424Y-85855654D01*
X154694252Y-85865622D01*
X154696631Y-85868001D01*
X154361944Y-86202688D01*
X154354330Y-86216632D01*
X153918434Y-86216632D01*
X153919670Y-86214368D01*
X153919539Y-86212535D01*
X153915288Y-86205920D01*
X153589925Y-85880557D01*
X153578116Y-85874108D01*
X153566142Y-85883356D01*
X153557212Y-85896062D01*
X153550083Y-85909356D01*
X153497751Y-86043580D01*
X153493999Y-86058194D01*
X153475194Y-86201028D01*
X153475037Y-86216109D01*
X113792500Y-86216109D01*
X113792500Y-85656292D01*
X153794393Y-85656292D01*
X153796764Y-85663132D01*
X154124188Y-85990556D01*
X154138132Y-85998170D01*
X154139965Y-85998039D01*
X154146580Y-85993788D01*
X154485124Y-85655244D01*
X154487460Y-85657580D01*
X154497535Y-85647757D01*
X154495073Y-85645295D01*
X154829556Y-85310812D01*
X154835934Y-85299132D01*
X155271830Y-85299132D01*
X155271961Y-85300965D01*
X155276212Y-85307580D01*
X155614694Y-85646062D01*
X155614010Y-85646746D01*
X155624287Y-85655127D01*
X155627197Y-85658565D01*
X155959188Y-85990556D01*
X155973132Y-85998170D01*
X155974965Y-85998039D01*
X155981580Y-85993788D01*
X156320124Y-85655244D01*
X156322460Y-85657580D01*
X156332535Y-85647757D01*
X156330073Y-85645295D01*
X156664556Y-85310812D01*
X156670934Y-85299132D01*
X157106830Y-85299132D01*
X157106961Y-85300965D01*
X157111212Y-85307580D01*
X157449694Y-85646062D01*
X157449010Y-85646746D01*
X157459287Y-85655127D01*
X157462197Y-85658565D01*
X157794188Y-85990556D01*
X157808132Y-85998170D01*
X157809965Y-85998039D01*
X157816580Y-85993788D01*
X158142312Y-85668056D01*
X158149072Y-85655676D01*
X158144562Y-85649652D01*
X158051249Y-85600245D01*
X158037172Y-85594842D01*
X157897446Y-85559745D01*
X157882474Y-85557854D01*
X157738410Y-85557100D01*
X157723434Y-85558832D01*
X157690021Y-85566854D01*
X157619113Y-85563307D01*
X157561379Y-85521987D01*
X157535149Y-85456013D01*
X157535864Y-85426582D01*
X157551607Y-85315963D01*
X157552231Y-85307758D01*
X157552290Y-85302121D01*
X157551838Y-85293906D01*
X157536611Y-85168082D01*
X157548284Y-85098052D01*
X157595965Y-85045450D01*
X157664516Y-85026977D01*
X157693669Y-85031069D01*
X157709688Y-85035271D01*
X157724644Y-85037319D01*
X157868687Y-85039583D01*
X157883691Y-85038006D01*
X158024125Y-85005842D01*
X158038310Y-85000735D01*
X158139754Y-84949714D01*
X158150060Y-84940083D01*
X158147848Y-84933480D01*
X157819812Y-84605444D01*
X157805868Y-84597830D01*
X157804035Y-84597961D01*
X157797420Y-84602212D01*
X157459201Y-84940431D01*
X157456924Y-84938154D01*
X157446752Y-84948122D01*
X157449131Y-84950501D01*
X157114444Y-85285188D01*
X157106830Y-85299132D01*
X156670934Y-85299132D01*
X156672170Y-85296868D01*
X156672039Y-85295035D01*
X156667788Y-85288420D01*
X156329613Y-84950245D01*
X156330345Y-84949513D01*
X156319510Y-84940628D01*
X156317006Y-84937638D01*
X155984812Y-84605444D01*
X155970868Y-84597830D01*
X155969035Y-84597961D01*
X155962420Y-84602212D01*
X155624201Y-84940431D01*
X155621924Y-84938154D01*
X155611752Y-84948122D01*
X155614131Y-84950501D01*
X155279444Y-85285188D01*
X155271830Y-85299132D01*
X154835934Y-85299132D01*
X154837170Y-85296868D01*
X154837039Y-85295035D01*
X154832788Y-85288420D01*
X154494613Y-84950245D01*
X154495345Y-84949513D01*
X154484510Y-84940628D01*
X154482006Y-84937638D01*
X154149812Y-84605444D01*
X154135868Y-84597830D01*
X154134035Y-84597961D01*
X154127420Y-84602212D01*
X153802013Y-84927619D01*
X153795253Y-84939999D01*
X153799942Y-84946263D01*
X153886318Y-84993162D01*
X153900344Y-84998715D01*
X154039693Y-85035272D01*
X154054644Y-85037319D01*
X154198687Y-85039583D01*
X154213691Y-85038006D01*
X154254874Y-85028574D01*
X154325741Y-85032864D01*
X154383039Y-85074786D01*
X154408576Y-85141031D01*
X154407925Y-85167840D01*
X154392694Y-85283528D01*
X154392537Y-85298609D01*
X154407004Y-85429648D01*
X154394598Y-85499552D01*
X154346369Y-85551652D01*
X154277628Y-85569407D01*
X154251071Y-85565679D01*
X154227449Y-85559746D01*
X154212474Y-85557854D01*
X154068410Y-85557100D01*
X154053434Y-85558832D01*
X153913335Y-85592467D01*
X153899211Y-85597720D01*
X153804595Y-85646555D01*
X153794393Y-85656292D01*
X113792500Y-85656292D01*
X113792500Y-84381109D01*
X153475037Y-84381109D01*
X153490846Y-84524305D01*
X153494292Y-84538994D01*
X153543799Y-84674283D01*
X153550649Y-84687726D01*
X153567470Y-84712759D01*
X153577454Y-84721058D01*
X153591545Y-84713823D01*
X153912056Y-84393312D01*
X153918434Y-84381632D01*
X154354330Y-84381632D01*
X154354461Y-84383465D01*
X154358712Y-84390080D01*
X154697194Y-84728562D01*
X154696510Y-84729246D01*
X154706787Y-84737627D01*
X154709697Y-84741065D01*
X155041688Y-85073056D01*
X155055632Y-85080670D01*
X155057465Y-85080539D01*
X155064080Y-85076288D01*
X155402624Y-84737744D01*
X155404960Y-84740080D01*
X155415035Y-84730257D01*
X155412573Y-84727795D01*
X155747056Y-84393312D01*
X155753434Y-84381632D01*
X156189330Y-84381632D01*
X156189461Y-84383465D01*
X156193712Y-84390080D01*
X156532194Y-84728562D01*
X156531510Y-84729246D01*
X156541787Y-84737627D01*
X156544697Y-84741065D01*
X156876688Y-85073056D01*
X156890632Y-85080670D01*
X156892465Y-85080539D01*
X156899080Y-85076288D01*
X157237624Y-84737744D01*
X157239960Y-84740080D01*
X157250035Y-84730257D01*
X157247573Y-84727795D01*
X157582056Y-84393312D01*
X157588434Y-84381632D01*
X158024330Y-84381632D01*
X158024461Y-84383465D01*
X158028712Y-84390080D01*
X158354382Y-84715750D01*
X158366392Y-84722308D01*
X158378133Y-84713338D01*
X158383413Y-84705990D01*
X158390678Y-84692775D01*
X158444413Y-84559107D01*
X158448319Y-84544528D01*
X158469107Y-84398462D01*
X158469731Y-84390258D01*
X158469790Y-84384621D01*
X158469338Y-84376406D01*
X158451612Y-84229932D01*
X158448016Y-84215289D01*
X158397089Y-84080514D01*
X158390106Y-84067157D01*
X158376892Y-84047931D01*
X158366638Y-84039588D01*
X158352899Y-84046733D01*
X158031944Y-84367688D01*
X158024330Y-84381632D01*
X157588434Y-84381632D01*
X157589670Y-84379368D01*
X157589539Y-84377535D01*
X157585288Y-84370920D01*
X157247113Y-84032745D01*
X157247845Y-84032013D01*
X157237010Y-84023128D01*
X157234506Y-84020138D01*
X156902312Y-83687944D01*
X156888368Y-83680330D01*
X156886535Y-83680461D01*
X156879920Y-83684712D01*
X156541701Y-84022931D01*
X156539424Y-84020654D01*
X156529252Y-84030622D01*
X156531631Y-84033001D01*
X156196944Y-84367688D01*
X156189330Y-84381632D01*
X155753434Y-84381632D01*
X155754670Y-84379368D01*
X155754539Y-84377535D01*
X155750288Y-84370920D01*
X155412113Y-84032745D01*
X155412845Y-84032013D01*
X155402010Y-84023128D01*
X155399506Y-84020138D01*
X155067312Y-83687944D01*
X155053368Y-83680330D01*
X155051535Y-83680461D01*
X155044920Y-83684712D01*
X154706701Y-84022931D01*
X154704424Y-84020654D01*
X154694252Y-84030622D01*
X154696631Y-84033001D01*
X154361944Y-84367688D01*
X154354330Y-84381632D01*
X153918434Y-84381632D01*
X153919670Y-84379368D01*
X153919539Y-84377535D01*
X153915288Y-84370920D01*
X153589925Y-84045557D01*
X153578116Y-84039108D01*
X153566142Y-84048356D01*
X153557212Y-84061062D01*
X153550083Y-84074356D01*
X153497751Y-84208580D01*
X153493999Y-84223194D01*
X153475194Y-84366028D01*
X153475037Y-84381109D01*
X113792500Y-84381109D01*
X113792500Y-83821292D01*
X153794393Y-83821292D01*
X153796764Y-83828132D01*
X154124188Y-84155556D01*
X154138132Y-84163170D01*
X154139965Y-84163039D01*
X154146580Y-84158788D01*
X154485124Y-83820244D01*
X154487460Y-83822580D01*
X154497535Y-83812757D01*
X154495073Y-83810295D01*
X154829556Y-83475812D01*
X154835934Y-83464132D01*
X155271830Y-83464132D01*
X155271961Y-83465965D01*
X155276212Y-83472580D01*
X155614694Y-83811062D01*
X155614010Y-83811746D01*
X155624287Y-83820127D01*
X155627197Y-83823565D01*
X155959188Y-84155556D01*
X155973132Y-84163170D01*
X155974965Y-84163039D01*
X155981580Y-84158788D01*
X156320124Y-83820244D01*
X156322460Y-83822580D01*
X156332535Y-83812757D01*
X156330073Y-83810295D01*
X156664556Y-83475812D01*
X156670934Y-83464132D01*
X157106830Y-83464132D01*
X157106961Y-83465965D01*
X157111212Y-83472580D01*
X157449694Y-83811062D01*
X157449010Y-83811746D01*
X157459287Y-83820127D01*
X157462197Y-83823565D01*
X157794188Y-84155556D01*
X157808132Y-84163170D01*
X157809965Y-84163039D01*
X157816580Y-84158788D01*
X158142312Y-83833056D01*
X158149072Y-83820676D01*
X158144562Y-83814652D01*
X158051249Y-83765245D01*
X158037172Y-83759842D01*
X157897446Y-83724745D01*
X157882474Y-83722854D01*
X157738410Y-83722100D01*
X157723434Y-83723832D01*
X157690021Y-83731854D01*
X157619113Y-83728307D01*
X157561379Y-83686987D01*
X157535149Y-83621013D01*
X157535864Y-83591582D01*
X157551607Y-83480963D01*
X157552231Y-83472758D01*
X157552290Y-83467121D01*
X157551838Y-83458906D01*
X157534112Y-83312432D01*
X157530516Y-83297789D01*
X157479589Y-83163014D01*
X157472606Y-83149657D01*
X157459392Y-83130431D01*
X157449138Y-83122088D01*
X157435399Y-83129233D01*
X157114444Y-83450188D01*
X157106830Y-83464132D01*
X156670934Y-83464132D01*
X156672170Y-83461868D01*
X156672039Y-83460035D01*
X156667788Y-83453420D01*
X156342425Y-83128057D01*
X156330616Y-83121608D01*
X156318642Y-83130856D01*
X156309712Y-83143562D01*
X156302583Y-83156856D01*
X156250251Y-83291080D01*
X156246499Y-83305694D01*
X156227694Y-83448528D01*
X156227537Y-83463609D01*
X156242004Y-83594648D01*
X156229598Y-83664552D01*
X156181369Y-83716652D01*
X156112628Y-83734407D01*
X156086071Y-83730679D01*
X156062449Y-83724746D01*
X156047474Y-83722854D01*
X155903410Y-83722100D01*
X155888434Y-83723832D01*
X155855021Y-83731854D01*
X155784113Y-83728307D01*
X155726379Y-83686987D01*
X155700149Y-83621013D01*
X155700864Y-83591582D01*
X155716607Y-83480963D01*
X155717231Y-83472758D01*
X155717290Y-83467121D01*
X155716838Y-83458906D01*
X155699112Y-83312432D01*
X155695516Y-83297789D01*
X155644589Y-83163014D01*
X155637606Y-83149657D01*
X155624392Y-83130431D01*
X155614138Y-83122088D01*
X155600399Y-83129233D01*
X155279444Y-83450188D01*
X155271830Y-83464132D01*
X154835934Y-83464132D01*
X154837170Y-83461868D01*
X154837039Y-83460035D01*
X154832788Y-83453420D01*
X154507425Y-83128057D01*
X154495616Y-83121608D01*
X154483642Y-83130856D01*
X154474712Y-83143562D01*
X154467583Y-83156856D01*
X154415251Y-83291080D01*
X154411499Y-83305694D01*
X154392694Y-83448528D01*
X154392537Y-83463609D01*
X154407004Y-83594648D01*
X154394598Y-83664552D01*
X154346369Y-83716652D01*
X154277628Y-83734407D01*
X154251071Y-83730679D01*
X154227449Y-83724746D01*
X154212474Y-83722854D01*
X154068410Y-83722100D01*
X154053434Y-83723832D01*
X153913335Y-83757467D01*
X153899211Y-83762720D01*
X153804595Y-83811555D01*
X153794393Y-83821292D01*
X113792500Y-83821292D01*
X113792500Y-64150134D01*
X121927500Y-64150134D01*
X121934255Y-64212316D01*
X121985385Y-64348705D01*
X122072739Y-64465261D01*
X122189295Y-64552615D01*
X122325684Y-64603745D01*
X122387866Y-64610500D01*
X123484134Y-64610500D01*
X123546316Y-64603745D01*
X123682705Y-64552615D01*
X123799261Y-64465261D01*
X123886615Y-64348705D01*
X123937745Y-64212316D01*
X123944500Y-64150134D01*
X123944500Y-63053866D01*
X123937745Y-62991684D01*
X123886615Y-62855295D01*
X123799261Y-62738739D01*
X123682705Y-62651385D01*
X123546316Y-62600255D01*
X123484134Y-62593500D01*
X122387866Y-62593500D01*
X122325684Y-62600255D01*
X122189295Y-62651385D01*
X122072739Y-62738739D01*
X121985385Y-62855295D01*
X121934255Y-62991684D01*
X121927500Y-63053866D01*
X121927500Y-64150134D01*
X113792500Y-64150134D01*
X113792500Y-62937227D01*
X113812502Y-62869106D01*
X113866158Y-62822613D01*
X113936432Y-62812509D01*
X114001578Y-62842495D01*
X114189062Y-63006915D01*
X114189068Y-63006919D01*
X114192162Y-63009633D01*
X114195588Y-63011922D01*
X114195593Y-63011926D01*
X114253277Y-63050469D01*
X114438327Y-63174115D01*
X114442026Y-63175939D01*
X114442031Y-63175942D01*
X114578313Y-63243148D01*
X114703855Y-63305059D01*
X114707760Y-63306384D01*
X114707761Y-63306385D01*
X114980290Y-63398896D01*
X114980294Y-63398897D01*
X114984203Y-63400224D01*
X114988247Y-63401028D01*
X114988253Y-63401030D01*
X115270535Y-63457180D01*
X115270541Y-63457181D01*
X115274574Y-63457983D01*
X115278679Y-63458252D01*
X115278686Y-63458253D01*
X115565881Y-63477076D01*
X115570000Y-63477346D01*
X115574119Y-63477076D01*
X115861314Y-63458253D01*
X115861321Y-63458252D01*
X115865426Y-63457983D01*
X115869459Y-63457181D01*
X115869465Y-63457180D01*
X116151747Y-63401030D01*
X116151753Y-63401028D01*
X116155797Y-63400224D01*
X116159706Y-63398897D01*
X116159710Y-63398896D01*
X116432239Y-63306385D01*
X116432240Y-63306384D01*
X116436145Y-63305059D01*
X116561687Y-63243148D01*
X116697969Y-63175942D01*
X116697974Y-63175939D01*
X116701673Y-63174115D01*
X116886723Y-63050469D01*
X116944407Y-63011926D01*
X116944412Y-63011922D01*
X116947838Y-63009633D01*
X116950932Y-63006919D01*
X116950938Y-63006915D01*
X117167338Y-62817136D01*
X117170427Y-62814427D01*
X117241523Y-62733358D01*
X117362915Y-62594938D01*
X117362919Y-62594932D01*
X117365633Y-62591838D01*
X117530115Y-62345673D01*
X117661059Y-62080145D01*
X117756224Y-61799797D01*
X117813983Y-61509426D01*
X117833346Y-61214000D01*
X117813983Y-60918574D01*
X117756224Y-60628203D01*
X117661059Y-60347855D01*
X117530115Y-60082327D01*
X117399269Y-59886502D01*
X117378054Y-59818749D01*
X117396837Y-59750282D01*
X117449654Y-59702839D01*
X117504034Y-59690500D01*
X132462000Y-59690500D01*
X132530121Y-59710502D01*
G37*
%TD.AperFunction*%
%TD*%
M02*
