%TF.GenerationSoftware,KiCad,Pcbnew,(6.0.7)*%
%TF.CreationDate,2023-10-05T09:54:16+02:00*%
%TF.ProjectId,ESP32-aqs,45535033-322d-4617-9173-2e6b69636164,rev?*%
%TF.SameCoordinates,Original*%
%TF.FileFunction,Legend,Top*%
%TF.FilePolarity,Positive*%
%FSLAX46Y46*%
G04 Gerber Fmt 4.6, Leading zero omitted, Abs format (unit mm)*
G04 Created by KiCad (PCBNEW (6.0.7)) date 2023-10-05 09:54:16*
%MOMM*%
%LPD*%
G01*
G04 APERTURE LIST*
G04 Aperture macros list*
%AMRoundRect*
0 Rectangle with rounded corners*
0 $1 Rounding radius*
0 $2 $3 $4 $5 $6 $7 $8 $9 X,Y pos of 4 corners*
0 Add a 4 corners polygon primitive as box body*
4,1,4,$2,$3,$4,$5,$6,$7,$8,$9,$2,$3,0*
0 Add four circle primitives for the rounded corners*
1,1,$1+$1,$2,$3*
1,1,$1+$1,$4,$5*
1,1,$1+$1,$6,$7*
1,1,$1+$1,$8,$9*
0 Add four rect primitives between the rounded corners*
20,1,$1+$1,$2,$3,$4,$5,0*
20,1,$1+$1,$4,$5,$6,$7,0*
20,1,$1+$1,$6,$7,$8,$9,0*
20,1,$1+$1,$8,$9,$2,$3,0*%
G04 Aperture macros list end*
%ADD10C,0.150000*%
%ADD11C,0.120000*%
%ADD12C,0.127000*%
%ADD13C,0.200000*%
%ADD14C,0.010000*%
%ADD15C,3.500000*%
%ADD16RoundRect,0.250000X0.350000X0.450000X-0.350000X0.450000X-0.350000X-0.450000X0.350000X-0.450000X0*%
%ADD17R,0.550000X0.400000*%
%ADD18RoundRect,0.250000X-0.475000X0.337500X-0.475000X-0.337500X0.475000X-0.337500X0.475000X0.337500X0*%
%ADD19RoundRect,0.250000X-0.450000X0.325000X-0.450000X-0.325000X0.450000X-0.325000X0.450000X0.325000X0*%
%ADD20R,1.000000X1.000000*%
%ADD21R,1.050000X2.200000*%
%ADD22C,2.000000*%
%ADD23RoundRect,0.102000X-1.000000X-0.450000X1.000000X-0.450000X1.000000X0.450000X-1.000000X0.450000X0*%
%ADD24RoundRect,0.102000X-0.450000X-1.000000X0.450000X-1.000000X0.450000X1.000000X-0.450000X1.000000X0*%
%ADD25RoundRect,0.102000X-0.665000X-0.665000X0.665000X-0.665000X0.665000X0.665000X-0.665000X0.665000X0*%
%ADD26C,0.504000*%
%ADD27R,2.540000X1.524000*%
%ADD28R,1.700000X1.700000*%
%ADD29O,1.700000X1.700000*%
%ADD30RoundRect,0.102000X-0.300000X0.850000X-0.300000X-0.850000X0.300000X-0.850000X0.300000X0.850000X0*%
%ADD31RoundRect,0.102000X-0.500000X1.400000X-0.500000X-1.400000X0.500000X-1.400000X0.500000X1.400000X0*%
%ADD32RoundRect,0.250000X-0.337500X-0.475000X0.337500X-0.475000X0.337500X0.475000X-0.337500X0.475000X0*%
%ADD33RoundRect,0.250000X-0.450000X0.350000X-0.450000X-0.350000X0.450000X-0.350000X0.450000X0.350000X0*%
%ADD34R,1.500000X2.000000*%
%ADD35R,3.800000X2.000000*%
G04 APERTURE END LIST*
D10*
%TO.C,R5*%
X168997333Y-79192380D02*
X168664000Y-78716190D01*
X168425904Y-79192380D02*
X168425904Y-78192380D01*
X168806857Y-78192380D01*
X168902095Y-78240000D01*
X168949714Y-78287619D01*
X168997333Y-78382857D01*
X168997333Y-78525714D01*
X168949714Y-78620952D01*
X168902095Y-78668571D01*
X168806857Y-78716190D01*
X168425904Y-78716190D01*
X169902095Y-78192380D02*
X169425904Y-78192380D01*
X169378285Y-78668571D01*
X169425904Y-78620952D01*
X169521142Y-78573333D01*
X169759238Y-78573333D01*
X169854476Y-78620952D01*
X169902095Y-78668571D01*
X169949714Y-78763809D01*
X169949714Y-79001904D01*
X169902095Y-79097142D01*
X169854476Y-79144761D01*
X169759238Y-79192380D01*
X169521142Y-79192380D01*
X169425904Y-79144761D01*
X169378285Y-79097142D01*
%TO.C,U3*%
X175383380Y-93839123D02*
X175383380Y-94357219D01*
X175413857Y-94418171D01*
X175444333Y-94448647D01*
X175505285Y-94479123D01*
X175627190Y-94479123D01*
X175688142Y-94448647D01*
X175718619Y-94418171D01*
X175749095Y-94357219D01*
X175749095Y-93839123D01*
X175992904Y-93839123D02*
X176389095Y-93839123D01*
X176175761Y-94082933D01*
X176267190Y-94082933D01*
X176328142Y-94113409D01*
X176358619Y-94143885D01*
X176389095Y-94204838D01*
X176389095Y-94357219D01*
X176358619Y-94418171D01*
X176328142Y-94448647D01*
X176267190Y-94479123D01*
X176084333Y-94479123D01*
X176023380Y-94448647D01*
X175992904Y-94418171D01*
%TO.C,C8*%
X205491142Y-86294166D02*
X205538761Y-86341785D01*
X205586380Y-86484642D01*
X205586380Y-86579880D01*
X205538761Y-86722738D01*
X205443523Y-86817976D01*
X205348285Y-86865595D01*
X205157809Y-86913214D01*
X205014952Y-86913214D01*
X204824476Y-86865595D01*
X204729238Y-86817976D01*
X204634000Y-86722738D01*
X204586380Y-86579880D01*
X204586380Y-86484642D01*
X204634000Y-86341785D01*
X204681619Y-86294166D01*
X205014952Y-85722738D02*
X204967333Y-85817976D01*
X204919714Y-85865595D01*
X204824476Y-85913214D01*
X204776857Y-85913214D01*
X204681619Y-85865595D01*
X204634000Y-85817976D01*
X204586380Y-85722738D01*
X204586380Y-85532261D01*
X204634000Y-85437023D01*
X204681619Y-85389404D01*
X204776857Y-85341785D01*
X204824476Y-85341785D01*
X204919714Y-85389404D01*
X204967333Y-85437023D01*
X205014952Y-85532261D01*
X205014952Y-85722738D01*
X205062571Y-85817976D01*
X205110190Y-85865595D01*
X205205428Y-85913214D01*
X205395904Y-85913214D01*
X205491142Y-85865595D01*
X205538761Y-85817976D01*
X205586380Y-85722738D01*
X205586380Y-85532261D01*
X205538761Y-85437023D01*
X205491142Y-85389404D01*
X205395904Y-85341785D01*
X205205428Y-85341785D01*
X205110190Y-85389404D01*
X205062571Y-85437023D01*
X205014952Y-85532261D01*
%TO.C,D1*%
X131134380Y-75931095D02*
X130134380Y-75931095D01*
X130134380Y-75693000D01*
X130182000Y-75550142D01*
X130277238Y-75454904D01*
X130372476Y-75407285D01*
X130562952Y-75359666D01*
X130705809Y-75359666D01*
X130896285Y-75407285D01*
X130991523Y-75454904D01*
X131086761Y-75550142D01*
X131134380Y-75693000D01*
X131134380Y-75931095D01*
X131134380Y-74407285D02*
X131134380Y-74978714D01*
X131134380Y-74693000D02*
X130134380Y-74693000D01*
X130277238Y-74788238D01*
X130372476Y-74883476D01*
X130420095Y-74978714D01*
%TO.C,J3*%
X207946666Y-72294380D02*
X207946666Y-73008666D01*
X207899047Y-73151523D01*
X207803809Y-73246761D01*
X207660952Y-73294380D01*
X207565714Y-73294380D01*
X208327619Y-72294380D02*
X208946666Y-72294380D01*
X208613333Y-72675333D01*
X208756190Y-72675333D01*
X208851428Y-72722952D01*
X208899047Y-72770571D01*
X208946666Y-72865809D01*
X208946666Y-73103904D01*
X208899047Y-73199142D01*
X208851428Y-73246761D01*
X208756190Y-73294380D01*
X208470476Y-73294380D01*
X208375238Y-73246761D01*
X208327619Y-73199142D01*
%TO.C,C5*%
X144531142Y-92876666D02*
X144578761Y-92924285D01*
X144626380Y-93067142D01*
X144626380Y-93162380D01*
X144578761Y-93305238D01*
X144483523Y-93400476D01*
X144388285Y-93448095D01*
X144197809Y-93495714D01*
X144054952Y-93495714D01*
X143864476Y-93448095D01*
X143769238Y-93400476D01*
X143674000Y-93305238D01*
X143626380Y-93162380D01*
X143626380Y-93067142D01*
X143674000Y-92924285D01*
X143721619Y-92876666D01*
X143626380Y-91971904D02*
X143626380Y-92448095D01*
X144102571Y-92495714D01*
X144054952Y-92448095D01*
X144007333Y-92352857D01*
X144007333Y-92114761D01*
X144054952Y-92019523D01*
X144102571Y-91971904D01*
X144197809Y-91924285D01*
X144435904Y-91924285D01*
X144531142Y-91971904D01*
X144578761Y-92019523D01*
X144626380Y-92114761D01*
X144626380Y-92352857D01*
X144578761Y-92448095D01*
X144531142Y-92495714D01*
%TO.C,C4*%
X184409142Y-97470166D02*
X184456761Y-97517785D01*
X184504380Y-97660642D01*
X184504380Y-97755880D01*
X184456761Y-97898738D01*
X184361523Y-97993976D01*
X184266285Y-98041595D01*
X184075809Y-98089214D01*
X183932952Y-98089214D01*
X183742476Y-98041595D01*
X183647238Y-97993976D01*
X183552000Y-97898738D01*
X183504380Y-97755880D01*
X183504380Y-97660642D01*
X183552000Y-97517785D01*
X183599619Y-97470166D01*
X183837714Y-96613023D02*
X184504380Y-96613023D01*
X183456761Y-96851119D02*
X184171047Y-97089214D01*
X184171047Y-96470166D01*
%TO.C,R1*%
X125325333Y-79826380D02*
X124992000Y-79350190D01*
X124753904Y-79826380D02*
X124753904Y-78826380D01*
X125134857Y-78826380D01*
X125230095Y-78874000D01*
X125277714Y-78921619D01*
X125325333Y-79016857D01*
X125325333Y-79159714D01*
X125277714Y-79254952D01*
X125230095Y-79302571D01*
X125134857Y-79350190D01*
X124753904Y-79350190D01*
X126277714Y-79826380D02*
X125706285Y-79826380D01*
X125992000Y-79826380D02*
X125992000Y-78826380D01*
X125896761Y-78969238D01*
X125801523Y-79064476D01*
X125706285Y-79112095D01*
%TO.C,SW1*%
X133084666Y-96820761D02*
X133227523Y-96868380D01*
X133465619Y-96868380D01*
X133560857Y-96820761D01*
X133608476Y-96773142D01*
X133656095Y-96677904D01*
X133656095Y-96582666D01*
X133608476Y-96487428D01*
X133560857Y-96439809D01*
X133465619Y-96392190D01*
X133275142Y-96344571D01*
X133179904Y-96296952D01*
X133132285Y-96249333D01*
X133084666Y-96154095D01*
X133084666Y-96058857D01*
X133132285Y-95963619D01*
X133179904Y-95916000D01*
X133275142Y-95868380D01*
X133513238Y-95868380D01*
X133656095Y-95916000D01*
X133989428Y-95868380D02*
X134227523Y-96868380D01*
X134418000Y-96154095D01*
X134608476Y-96868380D01*
X134846571Y-95868380D01*
X135751333Y-96868380D02*
X135179904Y-96868380D01*
X135465619Y-96868380D02*
X135465619Y-95868380D01*
X135370380Y-96011238D01*
X135275142Y-96106476D01*
X135179904Y-96154095D01*
%TO.C,U2*%
X149885095Y-68625380D02*
X149885095Y-69434904D01*
X149932714Y-69530142D01*
X149980333Y-69577761D01*
X150075571Y-69625380D01*
X150266047Y-69625380D01*
X150361285Y-69577761D01*
X150408904Y-69530142D01*
X150456523Y-69434904D01*
X150456523Y-68625380D01*
X150885095Y-68720619D02*
X150932714Y-68673000D01*
X151027952Y-68625380D01*
X151266047Y-68625380D01*
X151361285Y-68673000D01*
X151408904Y-68720619D01*
X151456523Y-68815857D01*
X151456523Y-68911095D01*
X151408904Y-69053952D01*
X150837476Y-69625380D01*
X151456523Y-69625380D01*
%TO.C,C9*%
X208793142Y-86251166D02*
X208840761Y-86298785D01*
X208888380Y-86441642D01*
X208888380Y-86536880D01*
X208840761Y-86679738D01*
X208745523Y-86774976D01*
X208650285Y-86822595D01*
X208459809Y-86870214D01*
X208316952Y-86870214D01*
X208126476Y-86822595D01*
X208031238Y-86774976D01*
X207936000Y-86679738D01*
X207888380Y-86536880D01*
X207888380Y-86441642D01*
X207936000Y-86298785D01*
X207983619Y-86251166D01*
X208888380Y-85774976D02*
X208888380Y-85584500D01*
X208840761Y-85489261D01*
X208793142Y-85441642D01*
X208650285Y-85346404D01*
X208459809Y-85298785D01*
X208078857Y-85298785D01*
X207983619Y-85346404D01*
X207936000Y-85394023D01*
X207888380Y-85489261D01*
X207888380Y-85679738D01*
X207936000Y-85774976D01*
X207983619Y-85822595D01*
X208078857Y-85870214D01*
X208316952Y-85870214D01*
X208412190Y-85822595D01*
X208459809Y-85774976D01*
X208507428Y-85679738D01*
X208507428Y-85489261D01*
X208459809Y-85394023D01*
X208412190Y-85346404D01*
X208316952Y-85298785D01*
%TO.C,C7*%
X144531142Y-83203166D02*
X144578761Y-83250785D01*
X144626380Y-83393642D01*
X144626380Y-83488880D01*
X144578761Y-83631738D01*
X144483523Y-83726976D01*
X144388285Y-83774595D01*
X144197809Y-83822214D01*
X144054952Y-83822214D01*
X143864476Y-83774595D01*
X143769238Y-83726976D01*
X143674000Y-83631738D01*
X143626380Y-83488880D01*
X143626380Y-83393642D01*
X143674000Y-83250785D01*
X143721619Y-83203166D01*
X143626380Y-82869833D02*
X143626380Y-82203166D01*
X144626380Y-82631738D01*
%TO.C,U4*%
X191262095Y-82788380D02*
X191262095Y-83597904D01*
X191309714Y-83693142D01*
X191357333Y-83740761D01*
X191452571Y-83788380D01*
X191643047Y-83788380D01*
X191738285Y-83740761D01*
X191785904Y-83693142D01*
X191833523Y-83597904D01*
X191833523Y-82788380D01*
X192738285Y-83121714D02*
X192738285Y-83788380D01*
X192500190Y-82740761D02*
X192262095Y-83455047D01*
X192881142Y-83455047D01*
%TO.C,TP1*%
X121674095Y-61606380D02*
X122245523Y-61606380D01*
X121959809Y-62606380D02*
X121959809Y-61606380D01*
X122578857Y-62606380D02*
X122578857Y-61606380D01*
X122959809Y-61606380D01*
X123055047Y-61654000D01*
X123102666Y-61701619D01*
X123150285Y-61796857D01*
X123150285Y-61939714D01*
X123102666Y-62034952D01*
X123055047Y-62082571D01*
X122959809Y-62130190D01*
X122578857Y-62130190D01*
X124102666Y-62606380D02*
X123531238Y-62606380D01*
X123816952Y-62606380D02*
X123816952Y-61606380D01*
X123721714Y-61749238D01*
X123626476Y-61844476D01*
X123531238Y-61892095D01*
%TO.C,J1*%
X184574380Y-70183333D02*
X185288666Y-70183333D01*
X185431523Y-70230952D01*
X185526761Y-70326190D01*
X185574380Y-70469047D01*
X185574380Y-70564285D01*
X185574380Y-69183333D02*
X185574380Y-69754761D01*
X185574380Y-69469047D02*
X184574380Y-69469047D01*
X184717238Y-69564285D01*
X184812476Y-69659523D01*
X184860095Y-69754761D01*
%TO.C,J2*%
X187277333Y-96200404D02*
X187277333Y-96771833D01*
X187239238Y-96886119D01*
X187163047Y-96962309D01*
X187048761Y-97000404D01*
X186972571Y-97000404D01*
X187620190Y-96276595D02*
X187658285Y-96238500D01*
X187734476Y-96200404D01*
X187924952Y-96200404D01*
X188001142Y-96238500D01*
X188039238Y-96276595D01*
X188077333Y-96352785D01*
X188077333Y-96428976D01*
X188039238Y-96543261D01*
X187582095Y-97000404D01*
X188077333Y-97000404D01*
%TO.C,C3*%
X181107142Y-97448666D02*
X181154761Y-97496285D01*
X181202380Y-97639142D01*
X181202380Y-97734380D01*
X181154761Y-97877238D01*
X181059523Y-97972476D01*
X180964285Y-98020095D01*
X180773809Y-98067714D01*
X180630952Y-98067714D01*
X180440476Y-98020095D01*
X180345238Y-97972476D01*
X180250000Y-97877238D01*
X180202380Y-97734380D01*
X180202380Y-97639142D01*
X180250000Y-97496285D01*
X180297619Y-97448666D01*
X180202380Y-97115333D02*
X180202380Y-96496285D01*
X180583333Y-96829619D01*
X180583333Y-96686761D01*
X180630952Y-96591523D01*
X180678571Y-96543904D01*
X180773809Y-96496285D01*
X181011904Y-96496285D01*
X181107142Y-96543904D01*
X181154761Y-96591523D01*
X181202380Y-96686761D01*
X181202380Y-96972476D01*
X181154761Y-97067714D01*
X181107142Y-97115333D01*
%TO.C,C1*%
X134081333Y-81227142D02*
X134033714Y-81274761D01*
X133890857Y-81322380D01*
X133795619Y-81322380D01*
X133652761Y-81274761D01*
X133557523Y-81179523D01*
X133509904Y-81084285D01*
X133462285Y-80893809D01*
X133462285Y-80750952D01*
X133509904Y-80560476D01*
X133557523Y-80465238D01*
X133652761Y-80370000D01*
X133795619Y-80322380D01*
X133890857Y-80322380D01*
X134033714Y-80370000D01*
X134081333Y-80417619D01*
X135033714Y-81322380D02*
X134462285Y-81322380D01*
X134748000Y-81322380D02*
X134748000Y-80322380D01*
X134652761Y-80465238D01*
X134557523Y-80560476D01*
X134462285Y-80608095D01*
%TO.C,C6*%
X140975142Y-83203166D02*
X141022761Y-83250785D01*
X141070380Y-83393642D01*
X141070380Y-83488880D01*
X141022761Y-83631738D01*
X140927523Y-83726976D01*
X140832285Y-83774595D01*
X140641809Y-83822214D01*
X140498952Y-83822214D01*
X140308476Y-83774595D01*
X140213238Y-83726976D01*
X140118000Y-83631738D01*
X140070380Y-83488880D01*
X140070380Y-83393642D01*
X140118000Y-83250785D01*
X140165619Y-83203166D01*
X140070380Y-82346023D02*
X140070380Y-82536500D01*
X140118000Y-82631738D01*
X140165619Y-82679357D01*
X140308476Y-82774595D01*
X140498952Y-82822214D01*
X140879904Y-82822214D01*
X140975142Y-82774595D01*
X141022761Y-82726976D01*
X141070380Y-82631738D01*
X141070380Y-82441261D01*
X141022761Y-82346023D01*
X140975142Y-82298404D01*
X140879904Y-82250785D01*
X140641809Y-82250785D01*
X140546571Y-82298404D01*
X140498952Y-82346023D01*
X140451333Y-82441261D01*
X140451333Y-82631738D01*
X140498952Y-82726976D01*
X140546571Y-82774595D01*
X140641809Y-82822214D01*
%TO.C,C2*%
X127611142Y-69805666D02*
X127658761Y-69853285D01*
X127706380Y-69996142D01*
X127706380Y-70091380D01*
X127658761Y-70234238D01*
X127563523Y-70329476D01*
X127468285Y-70377095D01*
X127277809Y-70424714D01*
X127134952Y-70424714D01*
X126944476Y-70377095D01*
X126849238Y-70329476D01*
X126754000Y-70234238D01*
X126706380Y-70091380D01*
X126706380Y-69996142D01*
X126754000Y-69853285D01*
X126801619Y-69805666D01*
X126801619Y-69424714D02*
X126754000Y-69377095D01*
X126706380Y-69281857D01*
X126706380Y-69043761D01*
X126754000Y-68948523D01*
X126801619Y-68900904D01*
X126896857Y-68853285D01*
X126992095Y-68853285D01*
X127134952Y-68900904D01*
X127706380Y-69472333D01*
X127706380Y-68853285D01*
%TO.C,R3*%
X144596380Y-87791166D02*
X144120190Y-88124500D01*
X144596380Y-88362595D02*
X143596380Y-88362595D01*
X143596380Y-87981642D01*
X143644000Y-87886404D01*
X143691619Y-87838785D01*
X143786857Y-87791166D01*
X143929714Y-87791166D01*
X144024952Y-87838785D01*
X144072571Y-87886404D01*
X144120190Y-87981642D01*
X144120190Y-88362595D01*
X143596380Y-87457833D02*
X143596380Y-86838785D01*
X143977333Y-87172119D01*
X143977333Y-87029261D01*
X144024952Y-86934023D01*
X144072571Y-86886404D01*
X144167809Y-86838785D01*
X144405904Y-86838785D01*
X144501142Y-86886404D01*
X144548761Y-86934023D01*
X144596380Y-87029261D01*
X144596380Y-87314976D01*
X144548761Y-87410214D01*
X144501142Y-87457833D01*
%TO.C,R4*%
X168981333Y-86938380D02*
X168648000Y-86462190D01*
X168409904Y-86938380D02*
X168409904Y-85938380D01*
X168790857Y-85938380D01*
X168886095Y-85986000D01*
X168933714Y-86033619D01*
X168981333Y-86128857D01*
X168981333Y-86271714D01*
X168933714Y-86366952D01*
X168886095Y-86414571D01*
X168790857Y-86462190D01*
X168409904Y-86462190D01*
X169838476Y-86271714D02*
X169838476Y-86938380D01*
X169600380Y-85890761D02*
X169362285Y-86605047D01*
X169981333Y-86605047D01*
%TO.C,U1*%
X126634380Y-72491904D02*
X127443904Y-72491904D01*
X127539142Y-72444285D01*
X127586761Y-72396666D01*
X127634380Y-72301428D01*
X127634380Y-72110952D01*
X127586761Y-72015714D01*
X127539142Y-71968095D01*
X127443904Y-71920476D01*
X126634380Y-71920476D01*
X127634380Y-70920476D02*
X127634380Y-71491904D01*
X127634380Y-71206190D02*
X126634380Y-71206190D01*
X126777238Y-71301428D01*
X126872476Y-71396666D01*
X126920095Y-71491904D01*
%TO.C,SW2*%
X170878666Y-99786761D02*
X171021523Y-99834380D01*
X171259619Y-99834380D01*
X171354857Y-99786761D01*
X171402476Y-99739142D01*
X171450095Y-99643904D01*
X171450095Y-99548666D01*
X171402476Y-99453428D01*
X171354857Y-99405809D01*
X171259619Y-99358190D01*
X171069142Y-99310571D01*
X170973904Y-99262952D01*
X170926285Y-99215333D01*
X170878666Y-99120095D01*
X170878666Y-99024857D01*
X170926285Y-98929619D01*
X170973904Y-98882000D01*
X171069142Y-98834380D01*
X171307238Y-98834380D01*
X171450095Y-98882000D01*
X171783428Y-98834380D02*
X172021523Y-99834380D01*
X172212000Y-99120095D01*
X172402476Y-99834380D01*
X172640571Y-98834380D01*
X172973904Y-98929619D02*
X173021523Y-98882000D01*
X173116761Y-98834380D01*
X173354857Y-98834380D01*
X173450095Y-98882000D01*
X173497714Y-98929619D01*
X173545333Y-99024857D01*
X173545333Y-99120095D01*
X173497714Y-99262952D01*
X172926285Y-99834380D01*
X173545333Y-99834380D01*
D11*
%TO.C,R5*%
X169391064Y-79529000D02*
X168936936Y-79529000D01*
X169391064Y-80999000D02*
X168936936Y-80999000D01*
D12*
%TO.C,U3*%
X174294000Y-94946000D02*
X176734000Y-94946000D01*
X176734000Y-97586000D02*
X174294000Y-97586000D01*
D13*
X173564000Y-95466000D02*
G75*
G03*
X173564000Y-95466000I-100000J0D01*
G01*
D11*
%TO.C,C8*%
X202719000Y-85866248D02*
X202719000Y-86388752D01*
X204189000Y-85866248D02*
X204189000Y-86388752D01*
%TO.C,D1*%
X129992000Y-73333000D02*
X128072000Y-73333000D01*
X129992000Y-76193000D02*
X129992000Y-73333000D01*
X128072000Y-73333000D02*
X128072000Y-76193000D01*
%TO.C,J3*%
X209780000Y-70842000D02*
X208980000Y-70842000D01*
X209780000Y-70642000D02*
X209780000Y-70842000D01*
X206980000Y-70842000D02*
X206780000Y-70642000D01*
X206780000Y-67842000D02*
X207580000Y-67842000D01*
X208980000Y-67842000D02*
X209780000Y-67842000D01*
X207580000Y-70842000D02*
X207580000Y-71342000D01*
X209780000Y-67842000D02*
X209780000Y-68042000D01*
X208980000Y-70842000D02*
X208980000Y-71342000D01*
X207580000Y-70842000D02*
X206980000Y-70842000D01*
X206780000Y-68042000D02*
X206780000Y-67842000D01*
%TO.C,C5*%
X141759000Y-92448748D02*
X141759000Y-92971252D01*
X143229000Y-92448748D02*
X143229000Y-92971252D01*
%TO.C,C4*%
X183107000Y-97042248D02*
X183107000Y-97564752D01*
X181637000Y-97042248D02*
X181637000Y-97564752D01*
%TO.C,R1*%
X125719064Y-76989000D02*
X125264936Y-76989000D01*
X125719064Y-78459000D02*
X125264936Y-78459000D01*
%TO.C,SW1*%
X136668000Y-88916000D02*
X132168000Y-88916000D01*
X130918000Y-91416000D02*
X130918000Y-92916000D01*
X137918000Y-92916000D02*
X137918000Y-91416000D01*
X132168000Y-95416000D02*
X136668000Y-95416000D01*
D12*
%TO.C,U2*%
X147972000Y-95808000D02*
X150422000Y-95808000D01*
X165972000Y-95808000D02*
X165972000Y-95158000D01*
X147972000Y-95158000D02*
X147972000Y-95808000D01*
X147972000Y-76808000D02*
X147972000Y-70308000D01*
X147972000Y-70308000D02*
X165972000Y-70308000D01*
X163522000Y-95808000D02*
X165972000Y-95808000D01*
X165972000Y-70308000D02*
X165972000Y-76808000D01*
D13*
X147072000Y-77808000D02*
G75*
G03*
X147072000Y-77808000I-100000J0D01*
G01*
D11*
%TO.C,C9*%
X207491000Y-85823248D02*
X207491000Y-86345752D01*
X206021000Y-85823248D02*
X206021000Y-86345752D01*
%TO.C,C7*%
X143229000Y-82775248D02*
X143229000Y-83297752D01*
X141759000Y-82775248D02*
X141759000Y-83297752D01*
%TO.C,U4*%
X201930000Y-92202000D02*
X182118000Y-92202000D01*
X182118000Y-92202000D02*
X182118000Y-75946000D01*
X182118000Y-75946000D02*
X201930000Y-75946000D01*
X201930000Y-75946000D02*
X201930000Y-92202000D01*
X187003961Y-76962000D02*
G75*
G03*
X187003961Y-76962000I-567961J0D01*
G01*
%TO.C,TP1*%
X122236000Y-64302000D02*
X122236000Y-62902000D01*
X123636000Y-64302000D02*
X122236000Y-64302000D01*
X122236000Y-62902000D02*
X123636000Y-62902000D01*
X123636000Y-62902000D02*
X123636000Y-64302000D01*
%TO.C,J1*%
X201482000Y-71180000D02*
X201482000Y-68520000D01*
X188722000Y-68520000D02*
X201482000Y-68520000D01*
X186122000Y-71180000D02*
X186122000Y-69850000D01*
X187452000Y-71180000D02*
X186122000Y-71180000D01*
X188722000Y-71180000D02*
X201482000Y-71180000D01*
X188722000Y-71180000D02*
X188722000Y-68520000D01*
D12*
%TO.C,J2*%
X185379000Y-99096500D02*
X187004000Y-99096500D01*
X196129000Y-100526500D02*
X196129000Y-99096500D01*
X194504000Y-99096500D02*
X196129000Y-99096500D01*
X185379000Y-100526500D02*
X185379000Y-99096500D01*
X186604000Y-103346500D02*
X194904000Y-103346500D01*
D13*
X193979000Y-97446500D02*
G75*
G03*
X193979000Y-97446500I-100000J0D01*
G01*
D11*
%TO.C,C3*%
X179805000Y-97020748D02*
X179805000Y-97543252D01*
X178335000Y-97020748D02*
X178335000Y-97543252D01*
%TO.C,C1*%
X133986748Y-81815000D02*
X134509252Y-81815000D01*
X133986748Y-83285000D02*
X134509252Y-83285000D01*
%TO.C,C6*%
X138203000Y-82775248D02*
X138203000Y-83297752D01*
X139673000Y-82775248D02*
X139673000Y-83297752D01*
%TO.C,C2*%
X128297000Y-69356248D02*
X128297000Y-69878752D01*
X129767000Y-69356248D02*
X129767000Y-69878752D01*
%TO.C,R3*%
X141759000Y-87397436D02*
X141759000Y-87851564D01*
X143229000Y-87397436D02*
X143229000Y-87851564D01*
%TO.C,R4*%
X169375064Y-84101000D02*
X168920936Y-84101000D01*
X169375064Y-85571000D02*
X168920936Y-85571000D01*
%TO.C,U1*%
X119272000Y-69880000D02*
X119272000Y-73640000D01*
X119272000Y-73640000D02*
X120532000Y-73640000D01*
X126092000Y-73640000D02*
X124832000Y-73640000D01*
X126092000Y-67630000D02*
X126092000Y-73640000D01*
%TO.C,SW2*%
X168712000Y-102882000D02*
X168712000Y-104382000D01*
X174462000Y-100382000D02*
X169962000Y-100382000D01*
X169962000Y-106882000D02*
X174462000Y-106882000D01*
X175712000Y-104382000D02*
X175712000Y-102882000D01*
%TD*%
%LPC*%
%TO.C,U3*%
G36*
X176189000Y-97166000D02*
G01*
X174839000Y-97166000D01*
X174839000Y-95686000D01*
X175159000Y-95366000D01*
X176189000Y-95366000D01*
X176189000Y-97166000D01*
G37*
D14*
X176189000Y-97166000D02*
X174839000Y-97166000D01*
X174839000Y-95686000D01*
X175159000Y-95366000D01*
X176189000Y-95366000D01*
X176189000Y-97166000D01*
%TD*%
D15*
%TO.C,H2*%
X221996000Y-113030000D03*
%TD*%
D16*
%TO.C,R5*%
X170164000Y-80264000D03*
X168164000Y-80264000D03*
%TD*%
D17*
%TO.C,U3*%
X174364000Y-95466000D03*
X174364000Y-96266000D03*
X174364000Y-97066000D03*
X176664000Y-97066000D03*
X176664000Y-96266000D03*
X176664000Y-95466000D03*
%TD*%
D18*
%TO.C,C8*%
X203454000Y-85090000D03*
X203454000Y-87165000D03*
%TD*%
D19*
%TO.C,D1*%
X129032000Y-74168000D03*
X129032000Y-76218000D03*
%TD*%
D20*
%TO.C,J3*%
X208280000Y-70842000D03*
D21*
X209755000Y-69342000D03*
X206805000Y-69342000D03*
D20*
X208280000Y-67842000D03*
%TD*%
D18*
%TO.C,C5*%
X142494000Y-91672500D03*
X142494000Y-93747500D03*
%TD*%
%TO.C,C4*%
X182372000Y-96266000D03*
X182372000Y-98341000D03*
%TD*%
D16*
%TO.C,R1*%
X126492000Y-77724000D03*
X124492000Y-77724000D03*
%TD*%
D22*
%TO.C,SW1*%
X137668000Y-94416000D03*
X131168000Y-94416000D03*
X131168000Y-89916000D03*
X137668000Y-89916000D03*
%TD*%
D23*
%TO.C,U2*%
X148472000Y-77798000D03*
X148472000Y-79068000D03*
X148472000Y-80338000D03*
X148472000Y-81608000D03*
X148472000Y-82878000D03*
X148472000Y-84148000D03*
X148472000Y-85418000D03*
X148472000Y-86688000D03*
X148472000Y-87958000D03*
X148472000Y-89228000D03*
X148472000Y-90498000D03*
X148472000Y-91768000D03*
X148472000Y-93038000D03*
X148472000Y-94308000D03*
D24*
X151257000Y-95308000D03*
X152527000Y-95308000D03*
X153797000Y-95308000D03*
X155067000Y-95308000D03*
X156337000Y-95308000D03*
X157607000Y-95308000D03*
X158877000Y-95308000D03*
X160147000Y-95308000D03*
X161417000Y-95308000D03*
X162687000Y-95308000D03*
D23*
X165472000Y-94308000D03*
X165472000Y-93038000D03*
X165472000Y-91768000D03*
X165472000Y-90498000D03*
X165472000Y-89228000D03*
X165472000Y-87958000D03*
X165472000Y-86688000D03*
X165472000Y-85418000D03*
X165472000Y-84148000D03*
X165472000Y-82878000D03*
X165472000Y-81608000D03*
X165472000Y-80338000D03*
X165472000Y-79068000D03*
X165472000Y-77798000D03*
D25*
X154137000Y-83463000D03*
X155972000Y-83463000D03*
X157807000Y-83463000D03*
X154137000Y-85298000D03*
X155972000Y-85298000D03*
X157807000Y-85298000D03*
X154137000Y-87133000D03*
X155972000Y-87133000D03*
X157807000Y-87133000D03*
D26*
X155054500Y-83463000D03*
X156889500Y-83463000D03*
X154137000Y-84380500D03*
X155972000Y-84380500D03*
X157807000Y-84380500D03*
X155054500Y-85298000D03*
X156889500Y-85298000D03*
X154137000Y-86215500D03*
X155972000Y-86215500D03*
X157807000Y-86215500D03*
X155054500Y-87133000D03*
X156889500Y-87133000D03*
%TD*%
D18*
%TO.C,C9*%
X206756000Y-85047000D03*
X206756000Y-87122000D03*
%TD*%
D15*
%TO.C,H3*%
X115316000Y-113030000D03*
%TD*%
D18*
%TO.C,C7*%
X142494000Y-81999000D03*
X142494000Y-84074000D03*
%TD*%
D27*
%TO.C,U4*%
X183738000Y-77090000D03*
X183738000Y-79090000D03*
X183738000Y-81090000D03*
X183738000Y-83090000D03*
X183738000Y-85090000D03*
X183738000Y-87090000D03*
X183738000Y-89090000D03*
X183738000Y-91170000D03*
X200278000Y-91170000D03*
X200278000Y-89090000D03*
X200278000Y-87090000D03*
X200278000Y-85090000D03*
X200278000Y-83090000D03*
X200278000Y-81090000D03*
X200278000Y-79090000D03*
X200278000Y-77090000D03*
%TD*%
D20*
%TO.C,TP1*%
X122936000Y-63602000D03*
%TD*%
D28*
%TO.C,J1*%
X187452000Y-69850000D03*
D29*
X189992000Y-69850000D03*
X192532000Y-69850000D03*
X195072000Y-69850000D03*
X197612000Y-69850000D03*
X200152000Y-69850000D03*
%TD*%
D15*
%TO.C,H1*%
X221996000Y-61214000D03*
%TD*%
D30*
%TO.C,J2*%
X193879000Y-98896500D03*
X192629000Y-98896500D03*
X191379000Y-98896500D03*
X190129000Y-98896500D03*
X188879000Y-98896500D03*
X187629000Y-98896500D03*
D31*
X185779000Y-102246500D03*
X195729000Y-102246500D03*
%TD*%
D18*
%TO.C,C3*%
X179070000Y-96244500D03*
X179070000Y-98319500D03*
%TD*%
D32*
%TO.C,C1*%
X133210500Y-82550000D03*
X135285500Y-82550000D03*
%TD*%
D18*
%TO.C,C6*%
X138938000Y-81999000D03*
X138938000Y-84074000D03*
%TD*%
%TO.C,C2*%
X129032000Y-68580000D03*
X129032000Y-70655000D03*
%TD*%
D33*
%TO.C,R3*%
X142494000Y-86624500D03*
X142494000Y-88624500D03*
%TD*%
D16*
%TO.C,R4*%
X170148000Y-84836000D03*
X168148000Y-84836000D03*
%TD*%
D34*
%TO.C,U1*%
X124982000Y-68580000D03*
X122682000Y-68580000D03*
D35*
X122682000Y-74880000D03*
D34*
X120382000Y-68580000D03*
%TD*%
D15*
%TO.C,H4*%
X115570000Y-61214000D03*
%TD*%
D22*
%TO.C,SW2*%
X175462000Y-101382000D03*
X168962000Y-101382000D03*
X175462000Y-105882000D03*
X168962000Y-105882000D03*
%TD*%
M02*
