G04 #@! TF.GenerationSoftware,KiCad,Pcbnew,7.0.8*
G04 #@! TF.CreationDate,2023-12-07T14:44:19+01:00*
G04 #@! TF.ProjectId,ESP32-aqs,45535033-322d-4617-9173-2e6b69636164,rev?*
G04 #@! TF.SameCoordinates,Original*
G04 #@! TF.FileFunction,Soldermask,Top*
G04 #@! TF.FilePolarity,Negative*
%FSLAX46Y46*%
G04 Gerber Fmt 4.6, Leading zero omitted, Abs format (unit mm)*
G04 Created by KiCad (PCBNEW 7.0.8) date 2023-12-07 14:44:19*
%MOMM*%
%LPD*%
G01*
G04 APERTURE LIST*
G04 Aperture macros list*
%AMRoundRect*
0 Rectangle with rounded corners*
0 $1 Rounding radius*
0 $2 $3 $4 $5 $6 $7 $8 $9 X,Y pos of 4 corners*
0 Add a 4 corners polygon primitive as box body*
4,1,4,$2,$3,$4,$5,$6,$7,$8,$9,$2,$3,0*
0 Add four circle primitives for the rounded corners*
1,1,$1+$1,$2,$3*
1,1,$1+$1,$4,$5*
1,1,$1+$1,$6,$7*
1,1,$1+$1,$8,$9*
0 Add four rect primitives between the rounded corners*
20,1,$1+$1,$2,$3,$4,$5,0*
20,1,$1+$1,$4,$5,$6,$7,0*
20,1,$1+$1,$6,$7,$8,$9,0*
20,1,$1+$1,$8,$9,$2,$3,0*%
G04 Aperture macros list end*
%ADD10C,0.010000*%
%ADD11RoundRect,0.250000X0.450000X-0.350000X0.450000X0.350000X-0.450000X0.350000X-0.450000X-0.350000X0*%
%ADD12RoundRect,0.250000X0.350000X0.450000X-0.350000X0.450000X-0.350000X-0.450000X0.350000X-0.450000X0*%
%ADD13R,0.510000X0.700000*%
%ADD14RoundRect,0.102000X-0.425000X-0.150000X0.425000X-0.150000X0.425000X0.150000X-0.425000X0.150000X0*%
%ADD15RoundRect,0.102000X0.150000X-0.425000X0.150000X0.425000X-0.150000X0.425000X-0.150000X-0.425000X0*%
%ADD16RoundRect,0.102000X1.275000X-1.275000X1.275000X1.275000X-1.275000X1.275000X-1.275000X-1.275000X0*%
%ADD17R,0.400000X0.550000*%
%ADD18RoundRect,0.250000X-0.475000X0.337500X-0.475000X-0.337500X0.475000X-0.337500X0.475000X0.337500X0*%
%ADD19RoundRect,0.250000X-0.450000X0.350000X-0.450000X-0.350000X0.450000X-0.350000X0.450000X0.350000X0*%
%ADD20RoundRect,0.250000X-0.450000X0.325000X-0.450000X-0.325000X0.450000X-0.325000X0.450000X0.325000X0*%
%ADD21R,1.000000X1.000000*%
%ADD22R,1.050000X2.200000*%
%ADD23C,2.000000*%
%ADD24RoundRect,0.102000X-1.000000X-0.450000X1.000000X-0.450000X1.000000X0.450000X-1.000000X0.450000X0*%
%ADD25RoundRect,0.102000X-0.450000X-1.000000X0.450000X-1.000000X0.450000X1.000000X-0.450000X1.000000X0*%
%ADD26RoundRect,0.102000X-0.665000X-0.665000X0.665000X-0.665000X0.665000X0.665000X-0.665000X0.665000X0*%
%ADD27C,0.504000*%
%ADD28RoundRect,0.250000X0.475000X-0.337500X0.475000X0.337500X-0.475000X0.337500X-0.475000X-0.337500X0*%
%ADD29R,2.540000X1.524000*%
%ADD30C,0.650000*%
%ADD31O,2.216000X1.108000*%
%ADD32C,4.000000*%
%ADD33RoundRect,0.102000X-0.300000X0.850000X-0.300000X-0.850000X0.300000X-0.850000X0.300000X0.850000X0*%
%ADD34RoundRect,0.102000X-0.500000X1.400000X-0.500000X-1.400000X0.500000X-1.400000X0.500000X1.400000X0*%
%ADD35RoundRect,0.250000X0.337500X0.475000X-0.337500X0.475000X-0.337500X-0.475000X0.337500X-0.475000X0*%
%ADD36R,2.200000X2.200000*%
%ADD37C,2.200000*%
%ADD38R,1.219200X0.914400*%
%ADD39RoundRect,0.250000X-0.350000X-0.450000X0.350000X-0.450000X0.350000X0.450000X-0.350000X0.450000X0*%
%ADD40RoundRect,0.102000X-0.400000X-0.300000X0.400000X-0.300000X0.400000X0.300000X-0.400000X0.300000X0*%
%ADD41RoundRect,0.150000X0.150000X-0.587500X0.150000X0.587500X-0.150000X0.587500X-0.150000X-0.587500X0*%
%ADD42R,1.500000X2.000000*%
%ADD43R,3.800000X2.000000*%
G04 APERTURE END LIST*
D10*
X173658000Y-80565000D02*
X172178000Y-80565000D01*
X171858000Y-80245000D01*
X171858000Y-79215000D01*
X173658000Y-79215000D01*
X173658000Y-80565000D01*
G36*
X173658000Y-80565000D02*
G01*
X172178000Y-80565000D01*
X171858000Y-80245000D01*
X171858000Y-79215000D01*
X173658000Y-79215000D01*
X173658000Y-80565000D01*
G37*
D11*
X178054000Y-74612000D03*
X178054000Y-72612000D03*
D12*
X169672000Y-69596000D03*
X167672000Y-69596000D03*
D13*
X177668000Y-68580000D03*
X176718000Y-68580000D03*
X175768000Y-68580000D03*
X175768000Y-70900000D03*
X176718000Y-70900000D03*
X177668000Y-70900000D03*
D14*
X126808000Y-74016000D03*
X126808000Y-74516000D03*
X126808000Y-75016000D03*
X126808000Y-75516000D03*
X126808000Y-76016000D03*
X126808000Y-76516000D03*
D15*
X127508000Y-77216000D03*
X128008000Y-77216000D03*
X128508000Y-77216000D03*
X129008000Y-77216000D03*
X129508000Y-77216000D03*
X130008000Y-77216000D03*
D14*
X130708000Y-76516000D03*
X130708000Y-76016000D03*
X130708000Y-75516000D03*
X130708000Y-75016000D03*
X130708000Y-74516000D03*
X130708000Y-74016000D03*
D15*
X130008000Y-73316000D03*
X129508000Y-73316000D03*
X129008000Y-73316000D03*
X128508000Y-73316000D03*
X128008000Y-73316000D03*
X127508000Y-73316000D03*
D16*
X128758000Y-75266000D03*
D17*
X171958000Y-81040000D03*
X172758000Y-81040000D03*
X173558000Y-81040000D03*
X173558000Y-78740000D03*
X172758000Y-78740000D03*
X171958000Y-78740000D03*
D18*
X145796000Y-99568000D03*
X145796000Y-101643000D03*
D19*
X176022000Y-72644000D03*
X176022000Y-74644000D03*
D20*
X140462000Y-79146000D03*
X140462000Y-81196000D03*
D21*
X173531000Y-98297000D03*
D22*
X175006000Y-99797000D03*
D21*
X173531000Y-101297000D03*
D22*
X172056000Y-99797000D03*
D18*
X143903500Y-77702500D03*
X143903500Y-79777500D03*
X177838000Y-78874000D03*
X177838000Y-80949000D03*
D23*
X143152000Y-103560000D03*
X136652000Y-103560000D03*
X143152000Y-99060000D03*
X136652000Y-99060000D03*
D11*
X129500000Y-95250000D03*
X129500000Y-93250000D03*
D24*
X148145000Y-66865000D03*
X148145000Y-68135000D03*
X148145000Y-69405000D03*
X148145000Y-70675000D03*
X148145000Y-71945000D03*
X148145000Y-73215000D03*
X148145000Y-74485000D03*
X148145000Y-75755000D03*
X148145000Y-77025000D03*
X148145000Y-78295000D03*
X148145000Y-79565000D03*
X148145000Y-80835000D03*
X148145000Y-82105000D03*
X148145000Y-83375000D03*
D25*
X150930000Y-84375000D03*
X152200000Y-84375000D03*
X153470000Y-84375000D03*
X154740000Y-84375000D03*
X156010000Y-84375000D03*
X157280000Y-84375000D03*
X158550000Y-84375000D03*
X159820000Y-84375000D03*
X161090000Y-84375000D03*
X162360000Y-84375000D03*
D24*
X165145000Y-83375000D03*
X165145000Y-82105000D03*
X165145000Y-80835000D03*
X165145000Y-79565000D03*
X165145000Y-78295000D03*
X165145000Y-77025000D03*
X165145000Y-75755000D03*
X165145000Y-74485000D03*
X165145000Y-73215000D03*
X165145000Y-71945000D03*
X165145000Y-70675000D03*
X165145000Y-69405000D03*
X165145000Y-68135000D03*
X165145000Y-66865000D03*
D26*
X153810000Y-72530000D03*
X155645000Y-72530000D03*
X157480000Y-72530000D03*
X153810000Y-74365000D03*
X155645000Y-74365000D03*
X157480000Y-74365000D03*
X153810000Y-76200000D03*
X155645000Y-76200000D03*
X157480000Y-76200000D03*
D27*
X154727500Y-72530000D03*
X156562500Y-72530000D03*
X153810000Y-73447500D03*
X155645000Y-73447500D03*
X157480000Y-73447500D03*
X154727500Y-74365000D03*
X156562500Y-74365000D03*
X153810000Y-75282500D03*
X155645000Y-75282500D03*
X157480000Y-75282500D03*
X154727500Y-76200000D03*
X156562500Y-76200000D03*
D28*
X171294000Y-96030000D03*
X171294000Y-93955000D03*
D18*
X143903500Y-68029000D03*
X143903500Y-70104000D03*
D29*
X165100000Y-103600000D03*
X165100000Y-101600000D03*
X165100000Y-99600000D03*
X165100000Y-97600000D03*
X165100000Y-95600000D03*
X165100000Y-93600000D03*
X165100000Y-91600000D03*
X165100000Y-89520000D03*
X148560000Y-89520000D03*
X148560000Y-91600000D03*
X148560000Y-93600000D03*
X148560000Y-95600000D03*
X148560000Y-97600000D03*
X148560000Y-99600000D03*
X148560000Y-101600000D03*
X148560000Y-103600000D03*
D21*
X140462000Y-72644000D03*
D30*
X133430000Y-83380000D03*
X133430000Y-84230000D03*
X133430000Y-85080000D03*
X133430000Y-85930000D03*
X133430000Y-86780000D03*
X133430000Y-87630000D03*
X133430000Y-88480000D03*
X133430000Y-89330000D03*
X132080000Y-89330000D03*
X132080000Y-88480000D03*
X132080000Y-87630000D03*
X132080000Y-86780000D03*
X132080000Y-85930000D03*
X132080000Y-85080000D03*
X132080000Y-84230000D03*
X132080000Y-83380000D03*
D31*
X132450000Y-82030000D03*
X132450000Y-90680000D03*
X129070000Y-90680000D03*
X129070000Y-82030000D03*
D32*
X173736000Y-105156000D03*
D11*
X127214000Y-95259000D03*
X127214000Y-93259000D03*
D33*
X185420000Y-99012000D03*
X184170000Y-99012000D03*
X182920000Y-99012000D03*
X181670000Y-99012000D03*
X180420000Y-99012000D03*
X179170000Y-99012000D03*
D34*
X177320000Y-102362000D03*
X187270000Y-102362000D03*
D35*
X128537500Y-98500000D03*
X126462500Y-98500000D03*
D36*
X183388000Y-95500000D03*
D37*
X183388000Y-92960000D03*
X183388000Y-90420000D03*
X183388000Y-87880000D03*
X183388000Y-85340000D03*
D18*
X175552000Y-78874000D03*
X175552000Y-80949000D03*
D19*
X173580000Y-94014000D03*
X173580000Y-96014000D03*
D38*
X135890000Y-87630000D03*
X135890000Y-84353400D03*
D36*
X183388000Y-80830000D03*
D37*
X183388000Y-78290000D03*
X183388000Y-75750000D03*
X183388000Y-73210000D03*
X183388000Y-70670000D03*
X183388000Y-68130000D03*
D28*
X133096000Y-74697500D03*
X133096000Y-72622500D03*
X140462000Y-85873500D03*
X140462000Y-83798500D03*
D11*
X135890000Y-79232000D03*
X135890000Y-77232000D03*
D18*
X140347500Y-68029000D03*
X140347500Y-70104000D03*
D28*
X175866000Y-96073000D03*
X175866000Y-93998000D03*
D39*
X126500000Y-104450000D03*
X128500000Y-104450000D03*
D18*
X140462000Y-74930000D03*
X140462000Y-77005000D03*
D40*
X131000000Y-98700000D03*
X131000000Y-100600000D03*
X133020000Y-99650000D03*
X131000000Y-102500000D03*
X131000000Y-104400000D03*
X133020000Y-103450000D03*
D39*
X126500000Y-101500000D03*
X128500000Y-101500000D03*
D41*
X171770000Y-74519000D03*
X173670000Y-74519000D03*
X172720000Y-72644000D03*
D28*
X133096000Y-70252500D03*
X133096000Y-68177500D03*
D20*
X131964000Y-93225000D03*
X131964000Y-95275000D03*
D28*
X135890000Y-74697500D03*
X135890000Y-72622500D03*
D12*
X169672000Y-73152000D03*
X167672000Y-73152000D03*
D11*
X173482000Y-70580000D03*
X173482000Y-68580000D03*
D32*
X127508000Y-68580000D03*
D19*
X133096000Y-77232000D03*
X133096000Y-79232000D03*
D42*
X144032000Y-89154000D03*
X141732000Y-89154000D03*
D43*
X141732000Y-95454000D03*
D42*
X139432000Y-89154000D03*
D19*
X143000000Y-83500000D03*
X143000000Y-85500000D03*
D20*
X134250000Y-93225000D03*
X134250000Y-95275000D03*
D28*
X135890000Y-70252500D03*
X135890000Y-68177500D03*
D23*
X172030000Y-90170000D03*
X172030000Y-83670000D03*
X176530000Y-90170000D03*
X176530000Y-83670000D03*
M02*
