M48
; DRILL file {KiCad 7.0.8} date Thu Oct 19 15:14:02 2023
; FORMAT={-:-/ absolute / metric / decimal}
; #@! TF.CreationDate,2023-10-19T15:14:02+02:00
; #@! TF.GenerationSoftware,Kicad,Pcbnew,7.0.8
; #@! TF.FileFunction,Plated,1,2,PTH
FMAT,2
METRIC
; #@! TA.AperFunction,Plated,PTH,ComponentDrill
T1C0.200
; #@! TA.AperFunction,Plated,PTH,ViaDrill
T2C0.400
; #@! TA.AperFunction,Plated,PTH,ComponentDrill
T3C0.500
; #@! TA.AperFunction,Plated,PTH,ComponentDrill
T4C1.100
; #@! TA.AperFunction,Plated,PTH,ComponentDrill
T5C2.200
%
G90
G05
T1
X153.81Y-73.447
X153.81Y-75.282
X154.727Y-72.53
X154.727Y-74.365
X154.727Y-76.2
X155.645Y-73.447
X155.645Y-75.282
X156.562Y-72.53
X156.562Y-74.365
X156.562Y-76.2
X157.48Y-73.447
X157.48Y-75.282
T2
X139.446Y-89.154
X146.05Y-90.678
X148.336Y-68.072
X148.59Y-89.408
X162.052Y-87.122
X164.592Y-87.122
X165.1Y-89.408
X166.116Y-85.852
X166.878Y-83.312
X169.418Y-71.882
X169.672Y-68.58
X169.672Y-73.66
X171.45Y-100.35
X173.309Y-76.2
X173.687Y-77.749
X173.941Y-74.447
X175.768Y-76.708
X182.324Y-97.85
T3
X140.462Y-72.644
T4
X139.482Y-99.112
X139.482Y-105.612
X143.982Y-99.112
X143.982Y-105.612
X172.824Y-86.106
X172.824Y-90.606
X179.324Y-86.106
X179.324Y-90.606
X183.388Y-68.072
X183.388Y-70.612
X183.388Y-73.152
X183.388Y-75.692
X183.388Y-78.232
X183.388Y-80.772
T5
X135.89Y-68.58
X173.736Y-105.156
T0
M30
