%TF.GenerationSoftware,KiCad,Pcbnew,(6.0.7)*%
%TF.CreationDate,2023-10-05T09:54:16+02:00*%
%TF.ProjectId,ESP32-aqs,45535033-322d-4617-9173-2e6b69636164,rev?*%
%TF.SameCoordinates,Original*%
%TF.FileFunction,Soldermask,Top*%
%TF.FilePolarity,Negative*%
%FSLAX46Y46*%
G04 Gerber Fmt 4.6, Leading zero omitted, Abs format (unit mm)*
G04 Created by KiCad (PCBNEW (6.0.7)) date 2023-10-05 09:54:16*
%MOMM*%
%LPD*%
G01*
G04 APERTURE LIST*
G04 Aperture macros list*
%AMRoundRect*
0 Rectangle with rounded corners*
0 $1 Rounding radius*
0 $2 $3 $4 $5 $6 $7 $8 $9 X,Y pos of 4 corners*
0 Add a 4 corners polygon primitive as box body*
4,1,4,$2,$3,$4,$5,$6,$7,$8,$9,$2,$3,0*
0 Add four circle primitives for the rounded corners*
1,1,$1+$1,$2,$3*
1,1,$1+$1,$4,$5*
1,1,$1+$1,$6,$7*
1,1,$1+$1,$8,$9*
0 Add four rect primitives between the rounded corners*
20,1,$1+$1,$2,$3,$4,$5,0*
20,1,$1+$1,$4,$5,$6,$7,0*
20,1,$1+$1,$6,$7,$8,$9,0*
20,1,$1+$1,$8,$9,$2,$3,0*%
G04 Aperture macros list end*
%ADD10C,0.010000*%
%ADD11C,3.500000*%
%ADD12RoundRect,0.250000X0.350000X0.450000X-0.350000X0.450000X-0.350000X-0.450000X0.350000X-0.450000X0*%
%ADD13R,0.550000X0.400000*%
%ADD14RoundRect,0.250000X-0.475000X0.337500X-0.475000X-0.337500X0.475000X-0.337500X0.475000X0.337500X0*%
%ADD15RoundRect,0.250000X-0.450000X0.325000X-0.450000X-0.325000X0.450000X-0.325000X0.450000X0.325000X0*%
%ADD16R,1.000000X1.000000*%
%ADD17R,1.050000X2.200000*%
%ADD18C,2.000000*%
%ADD19RoundRect,0.102000X-1.000000X-0.450000X1.000000X-0.450000X1.000000X0.450000X-1.000000X0.450000X0*%
%ADD20RoundRect,0.102000X-0.450000X-1.000000X0.450000X-1.000000X0.450000X1.000000X-0.450000X1.000000X0*%
%ADD21RoundRect,0.102000X-0.665000X-0.665000X0.665000X-0.665000X0.665000X0.665000X-0.665000X0.665000X0*%
%ADD22C,0.504000*%
%ADD23R,2.540000X1.524000*%
%ADD24R,1.700000X1.700000*%
%ADD25O,1.700000X1.700000*%
%ADD26RoundRect,0.102000X-0.300000X0.850000X-0.300000X-0.850000X0.300000X-0.850000X0.300000X0.850000X0*%
%ADD27RoundRect,0.102000X-0.500000X1.400000X-0.500000X-1.400000X0.500000X-1.400000X0.500000X1.400000X0*%
%ADD28RoundRect,0.250000X-0.337500X-0.475000X0.337500X-0.475000X0.337500X0.475000X-0.337500X0.475000X0*%
%ADD29RoundRect,0.250000X-0.450000X0.350000X-0.450000X-0.350000X0.450000X-0.350000X0.450000X0.350000X0*%
%ADD30R,1.500000X2.000000*%
%ADD31R,3.800000X2.000000*%
G04 APERTURE END LIST*
%TO.C,U3*%
G36*
X176189000Y-97166000D02*
G01*
X174839000Y-97166000D01*
X174839000Y-95686000D01*
X175159000Y-95366000D01*
X176189000Y-95366000D01*
X176189000Y-97166000D01*
G37*
D10*
X176189000Y-97166000D02*
X174839000Y-97166000D01*
X174839000Y-95686000D01*
X175159000Y-95366000D01*
X176189000Y-95366000D01*
X176189000Y-97166000D01*
%TD*%
D11*
%TO.C,H2*%
X221996000Y-113030000D03*
%TD*%
D12*
%TO.C,R5*%
X170164000Y-80264000D03*
X168164000Y-80264000D03*
%TD*%
D13*
%TO.C,U3*%
X174364000Y-95466000D03*
X174364000Y-96266000D03*
X174364000Y-97066000D03*
X176664000Y-97066000D03*
X176664000Y-96266000D03*
X176664000Y-95466000D03*
%TD*%
D14*
%TO.C,C8*%
X203454000Y-85090000D03*
X203454000Y-87165000D03*
%TD*%
D15*
%TO.C,D1*%
X129032000Y-74168000D03*
X129032000Y-76218000D03*
%TD*%
D16*
%TO.C,J3*%
X208280000Y-70842000D03*
D17*
X209755000Y-69342000D03*
X206805000Y-69342000D03*
D16*
X208280000Y-67842000D03*
%TD*%
D14*
%TO.C,C5*%
X142494000Y-91672500D03*
X142494000Y-93747500D03*
%TD*%
%TO.C,C4*%
X182372000Y-96266000D03*
X182372000Y-98341000D03*
%TD*%
D12*
%TO.C,R1*%
X126492000Y-77724000D03*
X124492000Y-77724000D03*
%TD*%
D18*
%TO.C,SW1*%
X137668000Y-94416000D03*
X131168000Y-94416000D03*
X131168000Y-89916000D03*
X137668000Y-89916000D03*
%TD*%
D19*
%TO.C,U2*%
X148472000Y-77798000D03*
X148472000Y-79068000D03*
X148472000Y-80338000D03*
X148472000Y-81608000D03*
X148472000Y-82878000D03*
X148472000Y-84148000D03*
X148472000Y-85418000D03*
X148472000Y-86688000D03*
X148472000Y-87958000D03*
X148472000Y-89228000D03*
X148472000Y-90498000D03*
X148472000Y-91768000D03*
X148472000Y-93038000D03*
X148472000Y-94308000D03*
D20*
X151257000Y-95308000D03*
X152527000Y-95308000D03*
X153797000Y-95308000D03*
X155067000Y-95308000D03*
X156337000Y-95308000D03*
X157607000Y-95308000D03*
X158877000Y-95308000D03*
X160147000Y-95308000D03*
X161417000Y-95308000D03*
X162687000Y-95308000D03*
D19*
X165472000Y-94308000D03*
X165472000Y-93038000D03*
X165472000Y-91768000D03*
X165472000Y-90498000D03*
X165472000Y-89228000D03*
X165472000Y-87958000D03*
X165472000Y-86688000D03*
X165472000Y-85418000D03*
X165472000Y-84148000D03*
X165472000Y-82878000D03*
X165472000Y-81608000D03*
X165472000Y-80338000D03*
X165472000Y-79068000D03*
X165472000Y-77798000D03*
D21*
X154137000Y-83463000D03*
X155972000Y-83463000D03*
X157807000Y-83463000D03*
X154137000Y-85298000D03*
X155972000Y-85298000D03*
X157807000Y-85298000D03*
X154137000Y-87133000D03*
X155972000Y-87133000D03*
X157807000Y-87133000D03*
D22*
X155054500Y-83463000D03*
X156889500Y-83463000D03*
X154137000Y-84380500D03*
X155972000Y-84380500D03*
X157807000Y-84380500D03*
X155054500Y-85298000D03*
X156889500Y-85298000D03*
X154137000Y-86215500D03*
X155972000Y-86215500D03*
X157807000Y-86215500D03*
X155054500Y-87133000D03*
X156889500Y-87133000D03*
%TD*%
D14*
%TO.C,C9*%
X206756000Y-85047000D03*
X206756000Y-87122000D03*
%TD*%
D11*
%TO.C,H3*%
X115316000Y-113030000D03*
%TD*%
D14*
%TO.C,C7*%
X142494000Y-81999000D03*
X142494000Y-84074000D03*
%TD*%
D23*
%TO.C,U4*%
X183738000Y-77090000D03*
X183738000Y-79090000D03*
X183738000Y-81090000D03*
X183738000Y-83090000D03*
X183738000Y-85090000D03*
X183738000Y-87090000D03*
X183738000Y-89090000D03*
X183738000Y-91170000D03*
X200278000Y-91170000D03*
X200278000Y-89090000D03*
X200278000Y-87090000D03*
X200278000Y-85090000D03*
X200278000Y-83090000D03*
X200278000Y-81090000D03*
X200278000Y-79090000D03*
X200278000Y-77090000D03*
%TD*%
D16*
%TO.C,TP1*%
X122936000Y-63602000D03*
%TD*%
D24*
%TO.C,J1*%
X187452000Y-69850000D03*
D25*
X189992000Y-69850000D03*
X192532000Y-69850000D03*
X195072000Y-69850000D03*
X197612000Y-69850000D03*
X200152000Y-69850000D03*
%TD*%
D11*
%TO.C,H1*%
X221996000Y-61214000D03*
%TD*%
D26*
%TO.C,J2*%
X193879000Y-98896500D03*
X192629000Y-98896500D03*
X191379000Y-98896500D03*
X190129000Y-98896500D03*
X188879000Y-98896500D03*
X187629000Y-98896500D03*
D27*
X185779000Y-102246500D03*
X195729000Y-102246500D03*
%TD*%
D14*
%TO.C,C3*%
X179070000Y-96244500D03*
X179070000Y-98319500D03*
%TD*%
D28*
%TO.C,C1*%
X133210500Y-82550000D03*
X135285500Y-82550000D03*
%TD*%
D14*
%TO.C,C6*%
X138938000Y-81999000D03*
X138938000Y-84074000D03*
%TD*%
%TO.C,C2*%
X129032000Y-68580000D03*
X129032000Y-70655000D03*
%TD*%
D29*
%TO.C,R3*%
X142494000Y-86624500D03*
X142494000Y-88624500D03*
%TD*%
D12*
%TO.C,R4*%
X170148000Y-84836000D03*
X168148000Y-84836000D03*
%TD*%
D30*
%TO.C,U1*%
X124982000Y-68580000D03*
X122682000Y-68580000D03*
D31*
X122682000Y-74880000D03*
D30*
X120382000Y-68580000D03*
%TD*%
D11*
%TO.C,H4*%
X115570000Y-61214000D03*
%TD*%
D18*
%TO.C,SW2*%
X175462000Y-101382000D03*
X168962000Y-101382000D03*
X175462000Y-105882000D03*
X168962000Y-105882000D03*
%TD*%
M02*
