G04 #@! TF.GenerationSoftware,KiCad,Pcbnew,7.0.8*
G04 #@! TF.CreationDate,2023-12-07T14:44:19+01:00*
G04 #@! TF.ProjectId,ESP32-aqs,45535033-322d-4617-9173-2e6b69636164,rev?*
G04 #@! TF.SameCoordinates,Original*
G04 #@! TF.FileFunction,Legend,Top*
G04 #@! TF.FilePolarity,Positive*
%FSLAX46Y46*%
G04 Gerber Fmt 4.6, Leading zero omitted, Abs format (unit mm)*
G04 Created by KiCad (PCBNEW 7.0.8) date 2023-12-07 14:44:19*
%MOMM*%
%LPD*%
G01*
G04 APERTURE LIST*
G04 Aperture macros list*
%AMRoundRect*
0 Rectangle with rounded corners*
0 $1 Rounding radius*
0 $2 $3 $4 $5 $6 $7 $8 $9 X,Y pos of 4 corners*
0 Add a 4 corners polygon primitive as box body*
4,1,4,$2,$3,$4,$5,$6,$7,$8,$9,$2,$3,0*
0 Add four circle primitives for the rounded corners*
1,1,$1+$1,$2,$3*
1,1,$1+$1,$4,$5*
1,1,$1+$1,$6,$7*
1,1,$1+$1,$8,$9*
0 Add four rect primitives between the rounded corners*
20,1,$1+$1,$2,$3,$4,$5,0*
20,1,$1+$1,$4,$5,$6,$7,0*
20,1,$1+$1,$6,$7,$8,$9,0*
20,1,$1+$1,$8,$9,$2,$3,0*%
G04 Aperture macros list end*
%ADD10C,0.150000*%
%ADD11C,0.125000*%
%ADD12C,0.120000*%
%ADD13C,0.127000*%
%ADD14C,0.200000*%
%ADD15C,0.010000*%
%ADD16RoundRect,0.250000X0.450000X-0.350000X0.450000X0.350000X-0.450000X0.350000X-0.450000X-0.350000X0*%
%ADD17RoundRect,0.250000X0.350000X0.450000X-0.350000X0.450000X-0.350000X-0.450000X0.350000X-0.450000X0*%
%ADD18R,0.510000X0.700000*%
%ADD19RoundRect,0.102000X-0.425000X-0.150000X0.425000X-0.150000X0.425000X0.150000X-0.425000X0.150000X0*%
%ADD20RoundRect,0.102000X0.150000X-0.425000X0.150000X0.425000X-0.150000X0.425000X-0.150000X-0.425000X0*%
%ADD21RoundRect,0.102000X1.275000X-1.275000X1.275000X1.275000X-1.275000X1.275000X-1.275000X-1.275000X0*%
%ADD22R,0.400000X0.550000*%
%ADD23RoundRect,0.250000X-0.475000X0.337500X-0.475000X-0.337500X0.475000X-0.337500X0.475000X0.337500X0*%
%ADD24RoundRect,0.250000X-0.450000X0.350000X-0.450000X-0.350000X0.450000X-0.350000X0.450000X0.350000X0*%
%ADD25RoundRect,0.250000X-0.450000X0.325000X-0.450000X-0.325000X0.450000X-0.325000X0.450000X0.325000X0*%
%ADD26R,1.000000X1.000000*%
%ADD27R,1.050000X2.200000*%
%ADD28C,2.000000*%
%ADD29RoundRect,0.102000X-1.000000X-0.450000X1.000000X-0.450000X1.000000X0.450000X-1.000000X0.450000X0*%
%ADD30RoundRect,0.102000X-0.450000X-1.000000X0.450000X-1.000000X0.450000X1.000000X-0.450000X1.000000X0*%
%ADD31RoundRect,0.102000X-0.665000X-0.665000X0.665000X-0.665000X0.665000X0.665000X-0.665000X0.665000X0*%
%ADD32C,0.504000*%
%ADD33RoundRect,0.250000X0.475000X-0.337500X0.475000X0.337500X-0.475000X0.337500X-0.475000X-0.337500X0*%
%ADD34R,2.540000X1.524000*%
%ADD35C,0.650000*%
%ADD36O,2.216000X1.108000*%
%ADD37C,4.000000*%
%ADD38RoundRect,0.102000X-0.300000X0.850000X-0.300000X-0.850000X0.300000X-0.850000X0.300000X0.850000X0*%
%ADD39RoundRect,0.102000X-0.500000X1.400000X-0.500000X-1.400000X0.500000X-1.400000X0.500000X1.400000X0*%
%ADD40RoundRect,0.250000X0.337500X0.475000X-0.337500X0.475000X-0.337500X-0.475000X0.337500X-0.475000X0*%
%ADD41R,2.200000X2.200000*%
%ADD42C,2.200000*%
%ADD43R,1.219200X0.914400*%
%ADD44RoundRect,0.250000X-0.350000X-0.450000X0.350000X-0.450000X0.350000X0.450000X-0.350000X0.450000X0*%
%ADD45RoundRect,0.102000X-0.400000X-0.300000X0.400000X-0.300000X0.400000X0.300000X-0.400000X0.300000X0*%
%ADD46RoundRect,0.150000X0.150000X-0.587500X0.150000X0.587500X-0.150000X0.587500X-0.150000X-0.587500X0*%
%ADD47R,1.500000X2.000000*%
%ADD48R,3.800000X2.000000*%
G04 APERTURE END LIST*
D10*
X187186128Y-85729887D02*
X187150414Y-85801316D01*
X187150414Y-85801316D02*
X187150414Y-85908458D01*
X187150414Y-85908458D02*
X187186128Y-86015601D01*
X187186128Y-86015601D02*
X187257557Y-86087030D01*
X187257557Y-86087030D02*
X187328985Y-86122744D01*
X187328985Y-86122744D02*
X187471842Y-86158458D01*
X187471842Y-86158458D02*
X187578985Y-86158458D01*
X187578985Y-86158458D02*
X187721842Y-86122744D01*
X187721842Y-86122744D02*
X187793271Y-86087030D01*
X187793271Y-86087030D02*
X187864700Y-86015601D01*
X187864700Y-86015601D02*
X187900414Y-85908458D01*
X187900414Y-85908458D02*
X187900414Y-85837030D01*
X187900414Y-85837030D02*
X187864700Y-85729887D01*
X187864700Y-85729887D02*
X187828985Y-85694173D01*
X187828985Y-85694173D02*
X187578985Y-85694173D01*
X187578985Y-85694173D02*
X187578985Y-85837030D01*
X187900414Y-85372744D02*
X187150414Y-85372744D01*
X187150414Y-85372744D02*
X187900414Y-84944173D01*
X187900414Y-84944173D02*
X187150414Y-84944173D01*
X187900414Y-84587030D02*
X187150414Y-84587030D01*
X187150414Y-84587030D02*
X187150414Y-84408459D01*
X187150414Y-84408459D02*
X187186128Y-84301316D01*
X187186128Y-84301316D02*
X187257557Y-84229887D01*
X187257557Y-84229887D02*
X187328985Y-84194173D01*
X187328985Y-84194173D02*
X187471842Y-84158459D01*
X187471842Y-84158459D02*
X187578985Y-84158459D01*
X187578985Y-84158459D02*
X187721842Y-84194173D01*
X187721842Y-84194173D02*
X187793271Y-84229887D01*
X187793271Y-84229887D02*
X187864700Y-84301316D01*
X187864700Y-84301316D02*
X187900414Y-84408459D01*
X187900414Y-84408459D02*
X187900414Y-84587030D01*
X187969819Y-78391792D02*
X187493628Y-78725125D01*
X187969819Y-78963220D02*
X186969819Y-78963220D01*
X186969819Y-78963220D02*
X186969819Y-78582268D01*
X186969819Y-78582268D02*
X187017438Y-78487030D01*
X187017438Y-78487030D02*
X187065057Y-78439411D01*
X187065057Y-78439411D02*
X187160295Y-78391792D01*
X187160295Y-78391792D02*
X187303152Y-78391792D01*
X187303152Y-78391792D02*
X187398390Y-78439411D01*
X187398390Y-78439411D02*
X187446009Y-78487030D01*
X187446009Y-78487030D02*
X187493628Y-78582268D01*
X187493628Y-78582268D02*
X187493628Y-78963220D01*
X186969819Y-78058458D02*
X187969819Y-77391792D01*
X186969819Y-77391792D02*
X187969819Y-78058458D01*
X187864700Y-91258458D02*
X187900414Y-91151316D01*
X187900414Y-91151316D02*
X187900414Y-90972744D01*
X187900414Y-90972744D02*
X187864700Y-90901316D01*
X187864700Y-90901316D02*
X187828985Y-90865601D01*
X187828985Y-90865601D02*
X187757557Y-90829887D01*
X187757557Y-90829887D02*
X187686128Y-90829887D01*
X187686128Y-90829887D02*
X187614700Y-90865601D01*
X187614700Y-90865601D02*
X187578985Y-90901316D01*
X187578985Y-90901316D02*
X187543271Y-90972744D01*
X187543271Y-90972744D02*
X187507557Y-91115601D01*
X187507557Y-91115601D02*
X187471842Y-91187030D01*
X187471842Y-91187030D02*
X187436128Y-91222744D01*
X187436128Y-91222744D02*
X187364700Y-91258458D01*
X187364700Y-91258458D02*
X187293271Y-91258458D01*
X187293271Y-91258458D02*
X187221842Y-91222744D01*
X187221842Y-91222744D02*
X187186128Y-91187030D01*
X187186128Y-91187030D02*
X187150414Y-91115601D01*
X187150414Y-91115601D02*
X187150414Y-90937030D01*
X187150414Y-90937030D02*
X187186128Y-90829887D01*
X187900414Y-90508458D02*
X187150414Y-90508458D01*
X187150414Y-90508458D02*
X187150414Y-90329887D01*
X187150414Y-90329887D02*
X187186128Y-90222744D01*
X187186128Y-90222744D02*
X187257557Y-90151315D01*
X187257557Y-90151315D02*
X187328985Y-90115601D01*
X187328985Y-90115601D02*
X187471842Y-90079887D01*
X187471842Y-90079887D02*
X187578985Y-90079887D01*
X187578985Y-90079887D02*
X187721842Y-90115601D01*
X187721842Y-90115601D02*
X187793271Y-90151315D01*
X187793271Y-90151315D02*
X187864700Y-90222744D01*
X187864700Y-90222744D02*
X187900414Y-90329887D01*
X187900414Y-90329887D02*
X187900414Y-90508458D01*
X187686128Y-89794172D02*
X187686128Y-89437030D01*
X187900414Y-89865601D02*
X187150414Y-89615601D01*
X187150414Y-89615601D02*
X187900414Y-89365601D01*
X186917438Y-68839411D02*
X186869819Y-68934649D01*
X186869819Y-68934649D02*
X186869819Y-69077506D01*
X186869819Y-69077506D02*
X186917438Y-69220363D01*
X186917438Y-69220363D02*
X187012676Y-69315601D01*
X187012676Y-69315601D02*
X187107914Y-69363220D01*
X187107914Y-69363220D02*
X187298390Y-69410839D01*
X187298390Y-69410839D02*
X187441247Y-69410839D01*
X187441247Y-69410839D02*
X187631723Y-69363220D01*
X187631723Y-69363220D02*
X187726961Y-69315601D01*
X187726961Y-69315601D02*
X187822200Y-69220363D01*
X187822200Y-69220363D02*
X187869819Y-69077506D01*
X187869819Y-69077506D02*
X187869819Y-68982268D01*
X187869819Y-68982268D02*
X187822200Y-68839411D01*
X187822200Y-68839411D02*
X187774580Y-68791792D01*
X187774580Y-68791792D02*
X187441247Y-68791792D01*
X187441247Y-68791792D02*
X187441247Y-68982268D01*
X187869819Y-68363220D02*
X186869819Y-68363220D01*
X186869819Y-68363220D02*
X187869819Y-67791792D01*
X187869819Y-67791792D02*
X186869819Y-67791792D01*
X187869819Y-67315601D02*
X186869819Y-67315601D01*
X186869819Y-67315601D02*
X186869819Y-67077506D01*
X186869819Y-67077506D02*
X186917438Y-66934649D01*
X186917438Y-66934649D02*
X187012676Y-66839411D01*
X187012676Y-66839411D02*
X187107914Y-66791792D01*
X187107914Y-66791792D02*
X187298390Y-66744173D01*
X187298390Y-66744173D02*
X187441247Y-66744173D01*
X187441247Y-66744173D02*
X187631723Y-66791792D01*
X187631723Y-66791792D02*
X187726961Y-66839411D01*
X187726961Y-66839411D02*
X187822200Y-66934649D01*
X187822200Y-66934649D02*
X187869819Y-67077506D01*
X187869819Y-67077506D02*
X187869819Y-67315601D01*
X187864700Y-88658458D02*
X187900414Y-88551316D01*
X187900414Y-88551316D02*
X187900414Y-88372744D01*
X187900414Y-88372744D02*
X187864700Y-88301316D01*
X187864700Y-88301316D02*
X187828985Y-88265601D01*
X187828985Y-88265601D02*
X187757557Y-88229887D01*
X187757557Y-88229887D02*
X187686128Y-88229887D01*
X187686128Y-88229887D02*
X187614700Y-88265601D01*
X187614700Y-88265601D02*
X187578985Y-88301316D01*
X187578985Y-88301316D02*
X187543271Y-88372744D01*
X187543271Y-88372744D02*
X187507557Y-88515601D01*
X187507557Y-88515601D02*
X187471842Y-88587030D01*
X187471842Y-88587030D02*
X187436128Y-88622744D01*
X187436128Y-88622744D02*
X187364700Y-88658458D01*
X187364700Y-88658458D02*
X187293271Y-88658458D01*
X187293271Y-88658458D02*
X187221842Y-88622744D01*
X187221842Y-88622744D02*
X187186128Y-88587030D01*
X187186128Y-88587030D02*
X187150414Y-88515601D01*
X187150414Y-88515601D02*
X187150414Y-88337030D01*
X187150414Y-88337030D02*
X187186128Y-88229887D01*
X187828985Y-87479887D02*
X187864700Y-87515601D01*
X187864700Y-87515601D02*
X187900414Y-87622744D01*
X187900414Y-87622744D02*
X187900414Y-87694172D01*
X187900414Y-87694172D02*
X187864700Y-87801315D01*
X187864700Y-87801315D02*
X187793271Y-87872744D01*
X187793271Y-87872744D02*
X187721842Y-87908458D01*
X187721842Y-87908458D02*
X187578985Y-87944172D01*
X187578985Y-87944172D02*
X187471842Y-87944172D01*
X187471842Y-87944172D02*
X187328985Y-87908458D01*
X187328985Y-87908458D02*
X187257557Y-87872744D01*
X187257557Y-87872744D02*
X187186128Y-87801315D01*
X187186128Y-87801315D02*
X187150414Y-87694172D01*
X187150414Y-87694172D02*
X187150414Y-87622744D01*
X187150414Y-87622744D02*
X187186128Y-87515601D01*
X187186128Y-87515601D02*
X187221842Y-87479887D01*
X187900414Y-86801315D02*
X187900414Y-87158458D01*
X187900414Y-87158458D02*
X187150414Y-87158458D01*
X187186128Y-93529887D02*
X187150414Y-93601316D01*
X187150414Y-93601316D02*
X187150414Y-93708458D01*
X187150414Y-93708458D02*
X187186128Y-93815601D01*
X187186128Y-93815601D02*
X187257557Y-93887030D01*
X187257557Y-93887030D02*
X187328985Y-93922744D01*
X187328985Y-93922744D02*
X187471842Y-93958458D01*
X187471842Y-93958458D02*
X187578985Y-93958458D01*
X187578985Y-93958458D02*
X187721842Y-93922744D01*
X187721842Y-93922744D02*
X187793271Y-93887030D01*
X187793271Y-93887030D02*
X187864700Y-93815601D01*
X187864700Y-93815601D02*
X187900414Y-93708458D01*
X187900414Y-93708458D02*
X187900414Y-93637030D01*
X187900414Y-93637030D02*
X187864700Y-93529887D01*
X187864700Y-93529887D02*
X187828985Y-93494173D01*
X187828985Y-93494173D02*
X187578985Y-93494173D01*
X187578985Y-93494173D02*
X187578985Y-93637030D01*
X187900414Y-93172744D02*
X187150414Y-93172744D01*
X187150414Y-93172744D02*
X187900414Y-92744173D01*
X187900414Y-92744173D02*
X187150414Y-92744173D01*
X187900414Y-92387030D02*
X187150414Y-92387030D01*
X187150414Y-92387030D02*
X187150414Y-92208459D01*
X187150414Y-92208459D02*
X187186128Y-92101316D01*
X187186128Y-92101316D02*
X187257557Y-92029887D01*
X187257557Y-92029887D02*
X187328985Y-91994173D01*
X187328985Y-91994173D02*
X187471842Y-91958459D01*
X187471842Y-91958459D02*
X187578985Y-91958459D01*
X187578985Y-91958459D02*
X187721842Y-91994173D01*
X187721842Y-91994173D02*
X187793271Y-92029887D01*
X187793271Y-92029887D02*
X187864700Y-92101316D01*
X187864700Y-92101316D02*
X187900414Y-92208459D01*
X187900414Y-92208459D02*
X187900414Y-92387030D01*
X186969819Y-76506077D02*
X186969819Y-75934649D01*
X187969819Y-76220363D02*
X186969819Y-76220363D01*
X186969819Y-75696553D02*
X187969819Y-75029887D01*
X186969819Y-75029887D02*
X187969819Y-75696553D01*
D11*
X187151714Y-96246335D02*
X187901714Y-95996335D01*
X187901714Y-95996335D02*
X187151714Y-95746335D01*
X187901714Y-95496335D02*
X187151714Y-95496335D01*
X187901714Y-95139192D02*
X187151714Y-95139192D01*
X187151714Y-95139192D02*
X187901714Y-94710621D01*
X187901714Y-94710621D02*
X187151714Y-94710621D01*
D10*
X187446009Y-81729887D02*
X187493628Y-81587030D01*
X187493628Y-81587030D02*
X187541247Y-81539411D01*
X187541247Y-81539411D02*
X187636485Y-81491792D01*
X187636485Y-81491792D02*
X187779342Y-81491792D01*
X187779342Y-81491792D02*
X187874580Y-81539411D01*
X187874580Y-81539411D02*
X187922200Y-81587030D01*
X187922200Y-81587030D02*
X187969819Y-81682268D01*
X187969819Y-81682268D02*
X187969819Y-82063220D01*
X187969819Y-82063220D02*
X186969819Y-82063220D01*
X186969819Y-82063220D02*
X186969819Y-81729887D01*
X186969819Y-81729887D02*
X187017438Y-81634649D01*
X187017438Y-81634649D02*
X187065057Y-81587030D01*
X187065057Y-81587030D02*
X187160295Y-81539411D01*
X187160295Y-81539411D02*
X187255533Y-81539411D01*
X187255533Y-81539411D02*
X187350771Y-81587030D01*
X187350771Y-81587030D02*
X187398390Y-81634649D01*
X187398390Y-81634649D02*
X187446009Y-81729887D01*
X187446009Y-81729887D02*
X187446009Y-82063220D01*
X187684104Y-81110839D02*
X187684104Y-80634649D01*
X187969819Y-81206077D02*
X186969819Y-80872744D01*
X186969819Y-80872744D02*
X187969819Y-80539411D01*
X186969819Y-80348934D02*
X186969819Y-79777506D01*
X187969819Y-80063220D02*
X186969819Y-80063220D01*
X187069819Y-74306077D02*
X188069819Y-73972744D01*
X188069819Y-73972744D02*
X187069819Y-73639411D01*
X188069819Y-73306077D02*
X187069819Y-73306077D01*
X188069819Y-72829887D02*
X187069819Y-72829887D01*
X187069819Y-72829887D02*
X188069819Y-72258459D01*
X188069819Y-72258459D02*
X187069819Y-72258459D01*
X177665142Y-76908819D02*
X177331809Y-76432628D01*
X177093714Y-76908819D02*
X177093714Y-75908819D01*
X177093714Y-75908819D02*
X177474666Y-75908819D01*
X177474666Y-75908819D02*
X177569904Y-75956438D01*
X177569904Y-75956438D02*
X177617523Y-76004057D01*
X177617523Y-76004057D02*
X177665142Y-76099295D01*
X177665142Y-76099295D02*
X177665142Y-76242152D01*
X177665142Y-76242152D02*
X177617523Y-76337390D01*
X177617523Y-76337390D02*
X177569904Y-76385009D01*
X177569904Y-76385009D02*
X177474666Y-76432628D01*
X177474666Y-76432628D02*
X177093714Y-76432628D01*
X178617523Y-76908819D02*
X178046095Y-76908819D01*
X178331809Y-76908819D02*
X178331809Y-75908819D01*
X178331809Y-75908819D02*
X178236571Y-76051676D01*
X178236571Y-76051676D02*
X178141333Y-76146914D01*
X178141333Y-76146914D02*
X178046095Y-76194533D01*
X179569904Y-76908819D02*
X178998476Y-76908819D01*
X179284190Y-76908819D02*
X179284190Y-75908819D01*
X179284190Y-75908819D02*
X179188952Y-76051676D01*
X179188952Y-76051676D02*
X179093714Y-76146914D01*
X179093714Y-76146914D02*
X178998476Y-76194533D01*
X169537333Y-68526819D02*
X169204000Y-68050628D01*
X168965905Y-68526819D02*
X168965905Y-67526819D01*
X168965905Y-67526819D02*
X169346857Y-67526819D01*
X169346857Y-67526819D02*
X169442095Y-67574438D01*
X169442095Y-67574438D02*
X169489714Y-67622057D01*
X169489714Y-67622057D02*
X169537333Y-67717295D01*
X169537333Y-67717295D02*
X169537333Y-67860152D01*
X169537333Y-67860152D02*
X169489714Y-67955390D01*
X169489714Y-67955390D02*
X169442095Y-68003009D01*
X169442095Y-68003009D02*
X169346857Y-68050628D01*
X169346857Y-68050628D02*
X168965905Y-68050628D01*
X170442095Y-67526819D02*
X169965905Y-67526819D01*
X169965905Y-67526819D02*
X169918286Y-68003009D01*
X169918286Y-68003009D02*
X169965905Y-67955390D01*
X169965905Y-67955390D02*
X170061143Y-67907771D01*
X170061143Y-67907771D02*
X170299238Y-67907771D01*
X170299238Y-67907771D02*
X170394476Y-67955390D01*
X170394476Y-67955390D02*
X170442095Y-68003009D01*
X170442095Y-68003009D02*
X170489714Y-68098247D01*
X170489714Y-68098247D02*
X170489714Y-68336342D01*
X170489714Y-68336342D02*
X170442095Y-68431580D01*
X170442095Y-68431580D02*
X170394476Y-68479200D01*
X170394476Y-68479200D02*
X170299238Y-68526819D01*
X170299238Y-68526819D02*
X170061143Y-68526819D01*
X170061143Y-68526819D02*
X169965905Y-68479200D01*
X169965905Y-68479200D02*
X169918286Y-68431580D01*
X176688761Y-67606057D02*
X176593523Y-67558438D01*
X176593523Y-67558438D02*
X176498285Y-67463200D01*
X176498285Y-67463200D02*
X176355428Y-67320342D01*
X176355428Y-67320342D02*
X176260190Y-67272723D01*
X176260190Y-67272723D02*
X176164952Y-67272723D01*
X176212571Y-67510819D02*
X176117333Y-67463200D01*
X176117333Y-67463200D02*
X176022095Y-67367961D01*
X176022095Y-67367961D02*
X175974476Y-67177485D01*
X175974476Y-67177485D02*
X175974476Y-66844152D01*
X175974476Y-66844152D02*
X176022095Y-66653676D01*
X176022095Y-66653676D02*
X176117333Y-66558438D01*
X176117333Y-66558438D02*
X176212571Y-66510819D01*
X176212571Y-66510819D02*
X176403047Y-66510819D01*
X176403047Y-66510819D02*
X176498285Y-66558438D01*
X176498285Y-66558438D02*
X176593523Y-66653676D01*
X176593523Y-66653676D02*
X176641142Y-66844152D01*
X176641142Y-66844152D02*
X176641142Y-67177485D01*
X176641142Y-67177485D02*
X176593523Y-67367961D01*
X176593523Y-67367961D02*
X176498285Y-67463200D01*
X176498285Y-67463200D02*
X176403047Y-67510819D01*
X176403047Y-67510819D02*
X176212571Y-67510819D01*
X177022095Y-66606057D02*
X177069714Y-66558438D01*
X177069714Y-66558438D02*
X177164952Y-66510819D01*
X177164952Y-66510819D02*
X177403047Y-66510819D01*
X177403047Y-66510819D02*
X177498285Y-66558438D01*
X177498285Y-66558438D02*
X177545904Y-66606057D01*
X177545904Y-66606057D02*
X177593523Y-66701295D01*
X177593523Y-66701295D02*
X177593523Y-66796533D01*
X177593523Y-66796533D02*
X177545904Y-66939390D01*
X177545904Y-66939390D02*
X176974476Y-67510819D01*
X176974476Y-67510819D02*
X177593523Y-67510819D01*
X126912810Y-72454819D02*
X126912810Y-71454819D01*
X127960428Y-72359580D02*
X127912809Y-72407200D01*
X127912809Y-72407200D02*
X127769952Y-72454819D01*
X127769952Y-72454819D02*
X127674714Y-72454819D01*
X127674714Y-72454819D02*
X127531857Y-72407200D01*
X127531857Y-72407200D02*
X127436619Y-72311961D01*
X127436619Y-72311961D02*
X127389000Y-72216723D01*
X127389000Y-72216723D02*
X127341381Y-72026247D01*
X127341381Y-72026247D02*
X127341381Y-71883390D01*
X127341381Y-71883390D02*
X127389000Y-71692914D01*
X127389000Y-71692914D02*
X127436619Y-71597676D01*
X127436619Y-71597676D02*
X127531857Y-71502438D01*
X127531857Y-71502438D02*
X127674714Y-71454819D01*
X127674714Y-71454819D02*
X127769952Y-71454819D01*
X127769952Y-71454819D02*
X127912809Y-71502438D01*
X127912809Y-71502438D02*
X127960428Y-71550057D01*
X128912809Y-72454819D02*
X128341381Y-72454819D01*
X128627095Y-72454819D02*
X128627095Y-71454819D01*
X128627095Y-71454819D02*
X128531857Y-71597676D01*
X128531857Y-71597676D02*
X128436619Y-71692914D01*
X128436619Y-71692914D02*
X128341381Y-71740533D01*
X172359380Y-77245276D02*
X172359380Y-77763371D01*
X172359380Y-77763371D02*
X172389857Y-77824323D01*
X172389857Y-77824323D02*
X172420333Y-77854800D01*
X172420333Y-77854800D02*
X172481285Y-77885276D01*
X172481285Y-77885276D02*
X172603190Y-77885276D01*
X172603190Y-77885276D02*
X172664142Y-77854800D01*
X172664142Y-77854800D02*
X172694619Y-77824323D01*
X172694619Y-77824323D02*
X172725095Y-77763371D01*
X172725095Y-77763371D02*
X172725095Y-77245276D01*
X172968904Y-77245276D02*
X173365095Y-77245276D01*
X173365095Y-77245276D02*
X173151761Y-77489085D01*
X173151761Y-77489085D02*
X173243190Y-77489085D01*
X173243190Y-77489085D02*
X173304142Y-77519561D01*
X173304142Y-77519561D02*
X173334618Y-77550038D01*
X173334618Y-77550038D02*
X173365095Y-77610990D01*
X173365095Y-77610990D02*
X173365095Y-77763371D01*
X173365095Y-77763371D02*
X173334618Y-77824323D01*
X173334618Y-77824323D02*
X173304142Y-77854800D01*
X173304142Y-77854800D02*
X173243190Y-77885276D01*
X173243190Y-77885276D02*
X173060333Y-77885276D01*
X173060333Y-77885276D02*
X172999380Y-77854800D01*
X172999380Y-77854800D02*
X172968904Y-77824323D01*
X145629333Y-103737580D02*
X145581714Y-103785200D01*
X145581714Y-103785200D02*
X145438857Y-103832819D01*
X145438857Y-103832819D02*
X145343619Y-103832819D01*
X145343619Y-103832819D02*
X145200762Y-103785200D01*
X145200762Y-103785200D02*
X145105524Y-103689961D01*
X145105524Y-103689961D02*
X145057905Y-103594723D01*
X145057905Y-103594723D02*
X145010286Y-103404247D01*
X145010286Y-103404247D02*
X145010286Y-103261390D01*
X145010286Y-103261390D02*
X145057905Y-103070914D01*
X145057905Y-103070914D02*
X145105524Y-102975676D01*
X145105524Y-102975676D02*
X145200762Y-102880438D01*
X145200762Y-102880438D02*
X145343619Y-102832819D01*
X145343619Y-102832819D02*
X145438857Y-102832819D01*
X145438857Y-102832819D02*
X145581714Y-102880438D01*
X145581714Y-102880438D02*
X145629333Y-102928057D01*
X146200762Y-103261390D02*
X146105524Y-103213771D01*
X146105524Y-103213771D02*
X146057905Y-103166152D01*
X146057905Y-103166152D02*
X146010286Y-103070914D01*
X146010286Y-103070914D02*
X146010286Y-103023295D01*
X146010286Y-103023295D02*
X146057905Y-102928057D01*
X146057905Y-102928057D02*
X146105524Y-102880438D01*
X146105524Y-102880438D02*
X146200762Y-102832819D01*
X146200762Y-102832819D02*
X146391238Y-102832819D01*
X146391238Y-102832819D02*
X146486476Y-102880438D01*
X146486476Y-102880438D02*
X146534095Y-102928057D01*
X146534095Y-102928057D02*
X146581714Y-103023295D01*
X146581714Y-103023295D02*
X146581714Y-103070914D01*
X146581714Y-103070914D02*
X146534095Y-103166152D01*
X146534095Y-103166152D02*
X146486476Y-103213771D01*
X146486476Y-103213771D02*
X146391238Y-103261390D01*
X146391238Y-103261390D02*
X146200762Y-103261390D01*
X146200762Y-103261390D02*
X146105524Y-103309009D01*
X146105524Y-103309009D02*
X146057905Y-103356628D01*
X146057905Y-103356628D02*
X146010286Y-103451866D01*
X146010286Y-103451866D02*
X146010286Y-103642342D01*
X146010286Y-103642342D02*
X146057905Y-103737580D01*
X146057905Y-103737580D02*
X146105524Y-103785200D01*
X146105524Y-103785200D02*
X146200762Y-103832819D01*
X146200762Y-103832819D02*
X146391238Y-103832819D01*
X146391238Y-103832819D02*
X146486476Y-103785200D01*
X146486476Y-103785200D02*
X146534095Y-103737580D01*
X146534095Y-103737580D02*
X146581714Y-103642342D01*
X146581714Y-103642342D02*
X146581714Y-103451866D01*
X146581714Y-103451866D02*
X146534095Y-103356628D01*
X146534095Y-103356628D02*
X146486476Y-103309009D01*
X146486476Y-103309009D02*
X146391238Y-103261390D01*
X174871142Y-76908819D02*
X174537809Y-76432628D01*
X174299714Y-76908819D02*
X174299714Y-75908819D01*
X174299714Y-75908819D02*
X174680666Y-75908819D01*
X174680666Y-75908819D02*
X174775904Y-75956438D01*
X174775904Y-75956438D02*
X174823523Y-76004057D01*
X174823523Y-76004057D02*
X174871142Y-76099295D01*
X174871142Y-76099295D02*
X174871142Y-76242152D01*
X174871142Y-76242152D02*
X174823523Y-76337390D01*
X174823523Y-76337390D02*
X174775904Y-76385009D01*
X174775904Y-76385009D02*
X174680666Y-76432628D01*
X174680666Y-76432628D02*
X174299714Y-76432628D01*
X175823523Y-76908819D02*
X175252095Y-76908819D01*
X175537809Y-76908819D02*
X175537809Y-75908819D01*
X175537809Y-75908819D02*
X175442571Y-76051676D01*
X175442571Y-76051676D02*
X175347333Y-76146914D01*
X175347333Y-76146914D02*
X175252095Y-76194533D01*
X176442571Y-75908819D02*
X176537809Y-75908819D01*
X176537809Y-75908819D02*
X176633047Y-75956438D01*
X176633047Y-75956438D02*
X176680666Y-76004057D01*
X176680666Y-76004057D02*
X176728285Y-76099295D01*
X176728285Y-76099295D02*
X176775904Y-76289771D01*
X176775904Y-76289771D02*
X176775904Y-76527866D01*
X176775904Y-76527866D02*
X176728285Y-76718342D01*
X176728285Y-76718342D02*
X176680666Y-76813580D01*
X176680666Y-76813580D02*
X176633047Y-76861200D01*
X176633047Y-76861200D02*
X176537809Y-76908819D01*
X176537809Y-76908819D02*
X176442571Y-76908819D01*
X176442571Y-76908819D02*
X176347333Y-76861200D01*
X176347333Y-76861200D02*
X176299714Y-76813580D01*
X176299714Y-76813580D02*
X176252095Y-76718342D01*
X176252095Y-76718342D02*
X176204476Y-76527866D01*
X176204476Y-76527866D02*
X176204476Y-76289771D01*
X176204476Y-76289771D02*
X176252095Y-76099295D01*
X176252095Y-76099295D02*
X176299714Y-76004057D01*
X176299714Y-76004057D02*
X176347333Y-75956438D01*
X176347333Y-75956438D02*
X176442571Y-75908819D01*
X138884819Y-81256094D02*
X137884819Y-81256094D01*
X137884819Y-81256094D02*
X137884819Y-81017999D01*
X137884819Y-81017999D02*
X137932438Y-80875142D01*
X137932438Y-80875142D02*
X138027676Y-80779904D01*
X138027676Y-80779904D02*
X138122914Y-80732285D01*
X138122914Y-80732285D02*
X138313390Y-80684666D01*
X138313390Y-80684666D02*
X138456247Y-80684666D01*
X138456247Y-80684666D02*
X138646723Y-80732285D01*
X138646723Y-80732285D02*
X138741961Y-80779904D01*
X138741961Y-80779904D02*
X138837200Y-80875142D01*
X138837200Y-80875142D02*
X138884819Y-81017999D01*
X138884819Y-81017999D02*
X138884819Y-81256094D01*
X138884819Y-79732285D02*
X138884819Y-80303713D01*
X138884819Y-80017999D02*
X137884819Y-80017999D01*
X137884819Y-80017999D02*
X138027676Y-80113237D01*
X138027676Y-80113237D02*
X138122914Y-80208475D01*
X138122914Y-80208475D02*
X138170533Y-80303713D01*
X169732819Y-100151833D02*
X170447104Y-100151833D01*
X170447104Y-100151833D02*
X170589961Y-100199452D01*
X170589961Y-100199452D02*
X170685200Y-100294690D01*
X170685200Y-100294690D02*
X170732819Y-100437547D01*
X170732819Y-100437547D02*
X170732819Y-100532785D01*
X169732819Y-99770880D02*
X169732819Y-99151833D01*
X169732819Y-99151833D02*
X170113771Y-99485166D01*
X170113771Y-99485166D02*
X170113771Y-99342309D01*
X170113771Y-99342309D02*
X170161390Y-99247071D01*
X170161390Y-99247071D02*
X170209009Y-99199452D01*
X170209009Y-99199452D02*
X170304247Y-99151833D01*
X170304247Y-99151833D02*
X170542342Y-99151833D01*
X170542342Y-99151833D02*
X170637580Y-99199452D01*
X170637580Y-99199452D02*
X170685200Y-99247071D01*
X170685200Y-99247071D02*
X170732819Y-99342309D01*
X170732819Y-99342309D02*
X170732819Y-99628023D01*
X170732819Y-99628023D02*
X170685200Y-99723261D01*
X170685200Y-99723261D02*
X170637580Y-99770880D01*
X142599580Y-78906666D02*
X142647200Y-78954285D01*
X142647200Y-78954285D02*
X142694819Y-79097142D01*
X142694819Y-79097142D02*
X142694819Y-79192380D01*
X142694819Y-79192380D02*
X142647200Y-79335237D01*
X142647200Y-79335237D02*
X142551961Y-79430475D01*
X142551961Y-79430475D02*
X142456723Y-79478094D01*
X142456723Y-79478094D02*
X142266247Y-79525713D01*
X142266247Y-79525713D02*
X142123390Y-79525713D01*
X142123390Y-79525713D02*
X141932914Y-79478094D01*
X141932914Y-79478094D02*
X141837676Y-79430475D01*
X141837676Y-79430475D02*
X141742438Y-79335237D01*
X141742438Y-79335237D02*
X141694819Y-79192380D01*
X141694819Y-79192380D02*
X141694819Y-79097142D01*
X141694819Y-79097142D02*
X141742438Y-78954285D01*
X141742438Y-78954285D02*
X141790057Y-78906666D01*
X141694819Y-78001904D02*
X141694819Y-78478094D01*
X141694819Y-78478094D02*
X142171009Y-78525713D01*
X142171009Y-78525713D02*
X142123390Y-78478094D01*
X142123390Y-78478094D02*
X142075771Y-78382856D01*
X142075771Y-78382856D02*
X142075771Y-78144761D01*
X142075771Y-78144761D02*
X142123390Y-78049523D01*
X142123390Y-78049523D02*
X142171009Y-78001904D01*
X142171009Y-78001904D02*
X142266247Y-77954285D01*
X142266247Y-77954285D02*
X142504342Y-77954285D01*
X142504342Y-77954285D02*
X142599580Y-78001904D01*
X142599580Y-78001904D02*
X142647200Y-78049523D01*
X142647200Y-78049523D02*
X142694819Y-78144761D01*
X142694819Y-78144761D02*
X142694819Y-78382856D01*
X142694819Y-78382856D02*
X142647200Y-78478094D01*
X142647200Y-78478094D02*
X142599580Y-78525713D01*
X179877580Y-80078166D02*
X179925200Y-80125785D01*
X179925200Y-80125785D02*
X179972819Y-80268642D01*
X179972819Y-80268642D02*
X179972819Y-80363880D01*
X179972819Y-80363880D02*
X179925200Y-80506737D01*
X179925200Y-80506737D02*
X179829961Y-80601975D01*
X179829961Y-80601975D02*
X179734723Y-80649594D01*
X179734723Y-80649594D02*
X179544247Y-80697213D01*
X179544247Y-80697213D02*
X179401390Y-80697213D01*
X179401390Y-80697213D02*
X179210914Y-80649594D01*
X179210914Y-80649594D02*
X179115676Y-80601975D01*
X179115676Y-80601975D02*
X179020438Y-80506737D01*
X179020438Y-80506737D02*
X178972819Y-80363880D01*
X178972819Y-80363880D02*
X178972819Y-80268642D01*
X178972819Y-80268642D02*
X179020438Y-80125785D01*
X179020438Y-80125785D02*
X179068057Y-80078166D01*
X179306152Y-79221023D02*
X179972819Y-79221023D01*
X178925200Y-79459118D02*
X179639485Y-79697213D01*
X179639485Y-79697213D02*
X179639485Y-79078166D01*
X138620667Y-106071200D02*
X138763524Y-106118819D01*
X138763524Y-106118819D02*
X139001619Y-106118819D01*
X139001619Y-106118819D02*
X139096857Y-106071200D01*
X139096857Y-106071200D02*
X139144476Y-106023580D01*
X139144476Y-106023580D02*
X139192095Y-105928342D01*
X139192095Y-105928342D02*
X139192095Y-105833104D01*
X139192095Y-105833104D02*
X139144476Y-105737866D01*
X139144476Y-105737866D02*
X139096857Y-105690247D01*
X139096857Y-105690247D02*
X139001619Y-105642628D01*
X139001619Y-105642628D02*
X138811143Y-105595009D01*
X138811143Y-105595009D02*
X138715905Y-105547390D01*
X138715905Y-105547390D02*
X138668286Y-105499771D01*
X138668286Y-105499771D02*
X138620667Y-105404533D01*
X138620667Y-105404533D02*
X138620667Y-105309295D01*
X138620667Y-105309295D02*
X138668286Y-105214057D01*
X138668286Y-105214057D02*
X138715905Y-105166438D01*
X138715905Y-105166438D02*
X138811143Y-105118819D01*
X138811143Y-105118819D02*
X139049238Y-105118819D01*
X139049238Y-105118819D02*
X139192095Y-105166438D01*
X139525429Y-105118819D02*
X139763524Y-106118819D01*
X139763524Y-106118819D02*
X139954000Y-105404533D01*
X139954000Y-105404533D02*
X140144476Y-106118819D01*
X140144476Y-106118819D02*
X140382572Y-105118819D01*
X141287333Y-106118819D02*
X140715905Y-106118819D01*
X141001619Y-106118819D02*
X141001619Y-105118819D01*
X141001619Y-105118819D02*
X140906381Y-105261676D01*
X140906381Y-105261676D02*
X140811143Y-105356914D01*
X140811143Y-105356914D02*
X140715905Y-105404533D01*
X130054819Y-96966666D02*
X129578628Y-97299999D01*
X130054819Y-97538094D02*
X129054819Y-97538094D01*
X129054819Y-97538094D02*
X129054819Y-97157142D01*
X129054819Y-97157142D02*
X129102438Y-97061904D01*
X129102438Y-97061904D02*
X129150057Y-97014285D01*
X129150057Y-97014285D02*
X129245295Y-96966666D01*
X129245295Y-96966666D02*
X129388152Y-96966666D01*
X129388152Y-96966666D02*
X129483390Y-97014285D01*
X129483390Y-97014285D02*
X129531009Y-97061904D01*
X129531009Y-97061904D02*
X129578628Y-97157142D01*
X129578628Y-97157142D02*
X129578628Y-97538094D01*
X129483390Y-96395237D02*
X129435771Y-96490475D01*
X129435771Y-96490475D02*
X129388152Y-96538094D01*
X129388152Y-96538094D02*
X129292914Y-96585713D01*
X129292914Y-96585713D02*
X129245295Y-96585713D01*
X129245295Y-96585713D02*
X129150057Y-96538094D01*
X129150057Y-96538094D02*
X129102438Y-96490475D01*
X129102438Y-96490475D02*
X129054819Y-96395237D01*
X129054819Y-96395237D02*
X129054819Y-96204761D01*
X129054819Y-96204761D02*
X129102438Y-96109523D01*
X129102438Y-96109523D02*
X129150057Y-96061904D01*
X129150057Y-96061904D02*
X129245295Y-96014285D01*
X129245295Y-96014285D02*
X129292914Y-96014285D01*
X129292914Y-96014285D02*
X129388152Y-96061904D01*
X129388152Y-96061904D02*
X129435771Y-96109523D01*
X129435771Y-96109523D02*
X129483390Y-96204761D01*
X129483390Y-96204761D02*
X129483390Y-96395237D01*
X129483390Y-96395237D02*
X129531009Y-96490475D01*
X129531009Y-96490475D02*
X129578628Y-96538094D01*
X129578628Y-96538094D02*
X129673866Y-96585713D01*
X129673866Y-96585713D02*
X129864342Y-96585713D01*
X129864342Y-96585713D02*
X129959580Y-96538094D01*
X129959580Y-96538094D02*
X130007200Y-96490475D01*
X130007200Y-96490475D02*
X130054819Y-96395237D01*
X130054819Y-96395237D02*
X130054819Y-96204761D01*
X130054819Y-96204761D02*
X130007200Y-96109523D01*
X130007200Y-96109523D02*
X129959580Y-96061904D01*
X129959580Y-96061904D02*
X129864342Y-96014285D01*
X129864342Y-96014285D02*
X129673866Y-96014285D01*
X129673866Y-96014285D02*
X129578628Y-96061904D01*
X129578628Y-96061904D02*
X129531009Y-96109523D01*
X129531009Y-96109523D02*
X129483390Y-96204761D01*
X154940095Y-85814819D02*
X154940095Y-86624342D01*
X154940095Y-86624342D02*
X154987714Y-86719580D01*
X154987714Y-86719580D02*
X155035333Y-86767200D01*
X155035333Y-86767200D02*
X155130571Y-86814819D01*
X155130571Y-86814819D02*
X155321047Y-86814819D01*
X155321047Y-86814819D02*
X155416285Y-86767200D01*
X155416285Y-86767200D02*
X155463904Y-86719580D01*
X155463904Y-86719580D02*
X155511523Y-86624342D01*
X155511523Y-86624342D02*
X155511523Y-85814819D01*
X155940095Y-85910057D02*
X155987714Y-85862438D01*
X155987714Y-85862438D02*
X156082952Y-85814819D01*
X156082952Y-85814819D02*
X156321047Y-85814819D01*
X156321047Y-85814819D02*
X156416285Y-85862438D01*
X156416285Y-85862438D02*
X156463904Y-85910057D01*
X156463904Y-85910057D02*
X156511523Y-86005295D01*
X156511523Y-86005295D02*
X156511523Y-86100533D01*
X156511523Y-86100533D02*
X156463904Y-86243390D01*
X156463904Y-86243390D02*
X155892476Y-86814819D01*
X155892476Y-86814819D02*
X156511523Y-86814819D01*
X171127333Y-92812080D02*
X171079714Y-92859700D01*
X171079714Y-92859700D02*
X170936857Y-92907319D01*
X170936857Y-92907319D02*
X170841619Y-92907319D01*
X170841619Y-92907319D02*
X170698762Y-92859700D01*
X170698762Y-92859700D02*
X170603524Y-92764461D01*
X170603524Y-92764461D02*
X170555905Y-92669223D01*
X170555905Y-92669223D02*
X170508286Y-92478747D01*
X170508286Y-92478747D02*
X170508286Y-92335890D01*
X170508286Y-92335890D02*
X170555905Y-92145414D01*
X170555905Y-92145414D02*
X170603524Y-92050176D01*
X170603524Y-92050176D02*
X170698762Y-91954938D01*
X170698762Y-91954938D02*
X170841619Y-91907319D01*
X170841619Y-91907319D02*
X170936857Y-91907319D01*
X170936857Y-91907319D02*
X171079714Y-91954938D01*
X171079714Y-91954938D02*
X171127333Y-92002557D01*
X171603524Y-92907319D02*
X171794000Y-92907319D01*
X171794000Y-92907319D02*
X171889238Y-92859700D01*
X171889238Y-92859700D02*
X171936857Y-92812080D01*
X171936857Y-92812080D02*
X172032095Y-92669223D01*
X172032095Y-92669223D02*
X172079714Y-92478747D01*
X172079714Y-92478747D02*
X172079714Y-92097795D01*
X172079714Y-92097795D02*
X172032095Y-92002557D01*
X172032095Y-92002557D02*
X171984476Y-91954938D01*
X171984476Y-91954938D02*
X171889238Y-91907319D01*
X171889238Y-91907319D02*
X171698762Y-91907319D01*
X171698762Y-91907319D02*
X171603524Y-91954938D01*
X171603524Y-91954938D02*
X171555905Y-92002557D01*
X171555905Y-92002557D02*
X171508286Y-92097795D01*
X171508286Y-92097795D02*
X171508286Y-92335890D01*
X171508286Y-92335890D02*
X171555905Y-92431128D01*
X171555905Y-92431128D02*
X171603524Y-92478747D01*
X171603524Y-92478747D02*
X171698762Y-92526366D01*
X171698762Y-92526366D02*
X171889238Y-92526366D01*
X171889238Y-92526366D02*
X171984476Y-92478747D01*
X171984476Y-92478747D02*
X172032095Y-92431128D01*
X172032095Y-92431128D02*
X172079714Y-92335890D01*
X142599580Y-69254666D02*
X142647200Y-69302285D01*
X142647200Y-69302285D02*
X142694819Y-69445142D01*
X142694819Y-69445142D02*
X142694819Y-69540380D01*
X142694819Y-69540380D02*
X142647200Y-69683237D01*
X142647200Y-69683237D02*
X142551961Y-69778475D01*
X142551961Y-69778475D02*
X142456723Y-69826094D01*
X142456723Y-69826094D02*
X142266247Y-69873713D01*
X142266247Y-69873713D02*
X142123390Y-69873713D01*
X142123390Y-69873713D02*
X141932914Y-69826094D01*
X141932914Y-69826094D02*
X141837676Y-69778475D01*
X141837676Y-69778475D02*
X141742438Y-69683237D01*
X141742438Y-69683237D02*
X141694819Y-69540380D01*
X141694819Y-69540380D02*
X141694819Y-69445142D01*
X141694819Y-69445142D02*
X141742438Y-69302285D01*
X141742438Y-69302285D02*
X141790057Y-69254666D01*
X141694819Y-68921332D02*
X141694819Y-68254666D01*
X141694819Y-68254666D02*
X142694819Y-68683237D01*
X155956095Y-105118819D02*
X155956095Y-105928342D01*
X155956095Y-105928342D02*
X156003714Y-106023580D01*
X156003714Y-106023580D02*
X156051333Y-106071200D01*
X156051333Y-106071200D02*
X156146571Y-106118819D01*
X156146571Y-106118819D02*
X156337047Y-106118819D01*
X156337047Y-106118819D02*
X156432285Y-106071200D01*
X156432285Y-106071200D02*
X156479904Y-106023580D01*
X156479904Y-106023580D02*
X156527523Y-105928342D01*
X156527523Y-105928342D02*
X156527523Y-105118819D01*
X157432285Y-105452152D02*
X157432285Y-106118819D01*
X157194190Y-105071200D02*
X156956095Y-105785485D01*
X156956095Y-105785485D02*
X157575142Y-105785485D01*
X141694819Y-73905904D02*
X141694819Y-73334476D01*
X142694819Y-73620190D02*
X141694819Y-73620190D01*
X142694819Y-73001142D02*
X141694819Y-73001142D01*
X141694819Y-73001142D02*
X141694819Y-72620190D01*
X141694819Y-72620190D02*
X141742438Y-72524952D01*
X141742438Y-72524952D02*
X141790057Y-72477333D01*
X141790057Y-72477333D02*
X141885295Y-72429714D01*
X141885295Y-72429714D02*
X142028152Y-72429714D01*
X142028152Y-72429714D02*
X142123390Y-72477333D01*
X142123390Y-72477333D02*
X142171009Y-72524952D01*
X142171009Y-72524952D02*
X142218628Y-72620190D01*
X142218628Y-72620190D02*
X142218628Y-73001142D01*
X142694819Y-71477333D02*
X142694819Y-72048761D01*
X142694819Y-71763047D02*
X141694819Y-71763047D01*
X141694819Y-71763047D02*
X141837676Y-71858285D01*
X141837676Y-71858285D02*
X141932914Y-71953523D01*
X141932914Y-71953523D02*
X141980533Y-72048761D01*
X134582739Y-90757382D02*
X135297132Y-90757382D01*
X135297132Y-90757382D02*
X135440010Y-90805009D01*
X135440010Y-90805009D02*
X135535263Y-90900261D01*
X135535263Y-90900261D02*
X135582889Y-91043140D01*
X135582889Y-91043140D02*
X135582889Y-91138392D01*
X135582889Y-89757232D02*
X135582889Y-90328747D01*
X135582889Y-90042990D02*
X134582739Y-90042990D01*
X134582739Y-90042990D02*
X134725617Y-90138242D01*
X134725617Y-90138242D02*
X134820870Y-90233494D01*
X134820870Y-90233494D02*
X134868496Y-90328747D01*
X126154819Y-94128666D02*
X125678628Y-94461999D01*
X126154819Y-94700094D02*
X125154819Y-94700094D01*
X125154819Y-94700094D02*
X125154819Y-94319142D01*
X125154819Y-94319142D02*
X125202438Y-94223904D01*
X125202438Y-94223904D02*
X125250057Y-94176285D01*
X125250057Y-94176285D02*
X125345295Y-94128666D01*
X125345295Y-94128666D02*
X125488152Y-94128666D01*
X125488152Y-94128666D02*
X125583390Y-94176285D01*
X125583390Y-94176285D02*
X125631009Y-94223904D01*
X125631009Y-94223904D02*
X125678628Y-94319142D01*
X125678628Y-94319142D02*
X125678628Y-94700094D01*
X126154819Y-93652475D02*
X126154819Y-93461999D01*
X126154819Y-93461999D02*
X126107200Y-93366761D01*
X126107200Y-93366761D02*
X126059580Y-93319142D01*
X126059580Y-93319142D02*
X125916723Y-93223904D01*
X125916723Y-93223904D02*
X125726247Y-93176285D01*
X125726247Y-93176285D02*
X125345295Y-93176285D01*
X125345295Y-93176285D02*
X125250057Y-93223904D01*
X125250057Y-93223904D02*
X125202438Y-93271523D01*
X125202438Y-93271523D02*
X125154819Y-93366761D01*
X125154819Y-93366761D02*
X125154819Y-93557237D01*
X125154819Y-93557237D02*
X125202438Y-93652475D01*
X125202438Y-93652475D02*
X125250057Y-93700094D01*
X125250057Y-93700094D02*
X125345295Y-93747713D01*
X125345295Y-93747713D02*
X125583390Y-93747713D01*
X125583390Y-93747713D02*
X125678628Y-93700094D01*
X125678628Y-93700094D02*
X125726247Y-93652475D01*
X125726247Y-93652475D02*
X125773866Y-93557237D01*
X125773866Y-93557237D02*
X125773866Y-93366761D01*
X125773866Y-93366761D02*
X125726247Y-93271523D01*
X125726247Y-93271523D02*
X125678628Y-93223904D01*
X125678628Y-93223904D02*
X125583390Y-93176285D01*
X178818333Y-96316295D02*
X178818333Y-96887723D01*
X178818333Y-96887723D02*
X178780238Y-97002009D01*
X178780238Y-97002009D02*
X178704047Y-97078200D01*
X178704047Y-97078200D02*
X178589762Y-97116295D01*
X178589762Y-97116295D02*
X178513571Y-97116295D01*
X179161190Y-96392485D02*
X179199286Y-96354390D01*
X179199286Y-96354390D02*
X179275476Y-96316295D01*
X179275476Y-96316295D02*
X179465952Y-96316295D01*
X179465952Y-96316295D02*
X179542143Y-96354390D01*
X179542143Y-96354390D02*
X179580238Y-96392485D01*
X179580238Y-96392485D02*
X179618333Y-96468676D01*
X179618333Y-96468676D02*
X179618333Y-96544866D01*
X179618333Y-96544866D02*
X179580238Y-96659152D01*
X179580238Y-96659152D02*
X179123095Y-97116295D01*
X179123095Y-97116295D02*
X179618333Y-97116295D01*
X126357142Y-97359580D02*
X126309523Y-97407200D01*
X126309523Y-97407200D02*
X126166666Y-97454819D01*
X126166666Y-97454819D02*
X126071428Y-97454819D01*
X126071428Y-97454819D02*
X125928571Y-97407200D01*
X125928571Y-97407200D02*
X125833333Y-97311961D01*
X125833333Y-97311961D02*
X125785714Y-97216723D01*
X125785714Y-97216723D02*
X125738095Y-97026247D01*
X125738095Y-97026247D02*
X125738095Y-96883390D01*
X125738095Y-96883390D02*
X125785714Y-96692914D01*
X125785714Y-96692914D02*
X125833333Y-96597676D01*
X125833333Y-96597676D02*
X125928571Y-96502438D01*
X125928571Y-96502438D02*
X126071428Y-96454819D01*
X126071428Y-96454819D02*
X126166666Y-96454819D01*
X126166666Y-96454819D02*
X126309523Y-96502438D01*
X126309523Y-96502438D02*
X126357142Y-96550057D01*
X127309523Y-97454819D02*
X126738095Y-97454819D01*
X127023809Y-97454819D02*
X127023809Y-96454819D01*
X127023809Y-96454819D02*
X126928571Y-96597676D01*
X126928571Y-96597676D02*
X126833333Y-96692914D01*
X126833333Y-96692914D02*
X126738095Y-96740533D01*
X128214285Y-96454819D02*
X127738095Y-96454819D01*
X127738095Y-96454819D02*
X127690476Y-96931009D01*
X127690476Y-96931009D02*
X127738095Y-96883390D01*
X127738095Y-96883390D02*
X127833333Y-96835771D01*
X127833333Y-96835771D02*
X128071428Y-96835771D01*
X128071428Y-96835771D02*
X128166666Y-96883390D01*
X128166666Y-96883390D02*
X128214285Y-96931009D01*
X128214285Y-96931009D02*
X128261904Y-97026247D01*
X128261904Y-97026247D02*
X128261904Y-97264342D01*
X128261904Y-97264342D02*
X128214285Y-97359580D01*
X128214285Y-97359580D02*
X128166666Y-97407200D01*
X128166666Y-97407200D02*
X128071428Y-97454819D01*
X128071428Y-97454819D02*
X127833333Y-97454819D01*
X127833333Y-97454819D02*
X127738095Y-97407200D01*
X127738095Y-97407200D02*
X127690476Y-97359580D01*
X178682819Y-90753333D02*
X179397104Y-90753333D01*
X179397104Y-90753333D02*
X179539961Y-90800952D01*
X179539961Y-90800952D02*
X179635200Y-90896190D01*
X179635200Y-90896190D02*
X179682819Y-91039047D01*
X179682819Y-91039047D02*
X179682819Y-91134285D01*
X178682819Y-89848571D02*
X178682819Y-90039047D01*
X178682819Y-90039047D02*
X178730438Y-90134285D01*
X178730438Y-90134285D02*
X178778057Y-90181904D01*
X178778057Y-90181904D02*
X178920914Y-90277142D01*
X178920914Y-90277142D02*
X179111390Y-90324761D01*
X179111390Y-90324761D02*
X179492342Y-90324761D01*
X179492342Y-90324761D02*
X179587580Y-90277142D01*
X179587580Y-90277142D02*
X179635200Y-90229523D01*
X179635200Y-90229523D02*
X179682819Y-90134285D01*
X179682819Y-90134285D02*
X179682819Y-89943809D01*
X179682819Y-89943809D02*
X179635200Y-89848571D01*
X179635200Y-89848571D02*
X179587580Y-89800952D01*
X179587580Y-89800952D02*
X179492342Y-89753333D01*
X179492342Y-89753333D02*
X179254247Y-89753333D01*
X179254247Y-89753333D02*
X179159009Y-89800952D01*
X179159009Y-89800952D02*
X179111390Y-89848571D01*
X179111390Y-89848571D02*
X179063771Y-89943809D01*
X179063771Y-89943809D02*
X179063771Y-90134285D01*
X179063771Y-90134285D02*
X179111390Y-90229523D01*
X179111390Y-90229523D02*
X179159009Y-90277142D01*
X179159009Y-90277142D02*
X179254247Y-90324761D01*
X173413333Y-92928819D02*
X173080000Y-92452628D01*
X172841905Y-92928819D02*
X172841905Y-91928819D01*
X172841905Y-91928819D02*
X173222857Y-91928819D01*
X173222857Y-91928819D02*
X173318095Y-91976438D01*
X173318095Y-91976438D02*
X173365714Y-92024057D01*
X173365714Y-92024057D02*
X173413333Y-92119295D01*
X173413333Y-92119295D02*
X173413333Y-92262152D01*
X173413333Y-92262152D02*
X173365714Y-92357390D01*
X173365714Y-92357390D02*
X173318095Y-92405009D01*
X173318095Y-92405009D02*
X173222857Y-92452628D01*
X173222857Y-92452628D02*
X172841905Y-92452628D01*
X173794286Y-92024057D02*
X173841905Y-91976438D01*
X173841905Y-91976438D02*
X173937143Y-91928819D01*
X173937143Y-91928819D02*
X174175238Y-91928819D01*
X174175238Y-91928819D02*
X174270476Y-91976438D01*
X174270476Y-91976438D02*
X174318095Y-92024057D01*
X174318095Y-92024057D02*
X174365714Y-92119295D01*
X174365714Y-92119295D02*
X174365714Y-92214533D01*
X174365714Y-92214533D02*
X174318095Y-92357390D01*
X174318095Y-92357390D02*
X173746667Y-92928819D01*
X173746667Y-92928819D02*
X174365714Y-92928819D01*
X138122819Y-87352094D02*
X137122819Y-87352094D01*
X137122819Y-87352094D02*
X137122819Y-87113999D01*
X137122819Y-87113999D02*
X137170438Y-86971142D01*
X137170438Y-86971142D02*
X137265676Y-86875904D01*
X137265676Y-86875904D02*
X137360914Y-86828285D01*
X137360914Y-86828285D02*
X137551390Y-86780666D01*
X137551390Y-86780666D02*
X137694247Y-86780666D01*
X137694247Y-86780666D02*
X137884723Y-86828285D01*
X137884723Y-86828285D02*
X137979961Y-86875904D01*
X137979961Y-86875904D02*
X138075200Y-86971142D01*
X138075200Y-86971142D02*
X138122819Y-87113999D01*
X138122819Y-87113999D02*
X138122819Y-87352094D01*
X137456152Y-85923523D02*
X138122819Y-85923523D01*
X137075200Y-86161618D02*
X137789485Y-86399713D01*
X137789485Y-86399713D02*
X137789485Y-85780666D01*
X178954819Y-67733333D02*
X179669104Y-67733333D01*
X179669104Y-67733333D02*
X179811961Y-67780952D01*
X179811961Y-67780952D02*
X179907200Y-67876190D01*
X179907200Y-67876190D02*
X179954819Y-68019047D01*
X179954819Y-68019047D02*
X179954819Y-68114285D01*
X179288152Y-66828571D02*
X179954819Y-66828571D01*
X178907200Y-67066666D02*
X179621485Y-67304761D01*
X179621485Y-67304761D02*
X179621485Y-66685714D01*
X134869366Y-73856000D02*
X134902700Y-73889333D01*
X134902700Y-73889333D02*
X134936033Y-73989333D01*
X134936033Y-73989333D02*
X134936033Y-74056000D01*
X134936033Y-74056000D02*
X134902700Y-74156000D01*
X134902700Y-74156000D02*
X134836033Y-74222667D01*
X134836033Y-74222667D02*
X134769366Y-74256000D01*
X134769366Y-74256000D02*
X134636033Y-74289333D01*
X134636033Y-74289333D02*
X134536033Y-74289333D01*
X134536033Y-74289333D02*
X134402700Y-74256000D01*
X134402700Y-74256000D02*
X134336033Y-74222667D01*
X134336033Y-74222667D02*
X134269366Y-74156000D01*
X134269366Y-74156000D02*
X134236033Y-74056000D01*
X134236033Y-74056000D02*
X134236033Y-73989333D01*
X134236033Y-73989333D02*
X134269366Y-73889333D01*
X134269366Y-73889333D02*
X134302700Y-73856000D01*
X134936033Y-73189333D02*
X134936033Y-73589333D01*
X134936033Y-73389333D02*
X134236033Y-73389333D01*
X134236033Y-73389333D02*
X134336033Y-73456000D01*
X134336033Y-73456000D02*
X134402700Y-73522667D01*
X134402700Y-73522667D02*
X134436033Y-73589333D01*
X134469366Y-72589333D02*
X134936033Y-72589333D01*
X134202700Y-72756000D02*
X134702700Y-72922666D01*
X134702700Y-72922666D02*
X134702700Y-72489333D01*
X139141580Y-85002666D02*
X139189200Y-85050285D01*
X139189200Y-85050285D02*
X139236819Y-85193142D01*
X139236819Y-85193142D02*
X139236819Y-85288380D01*
X139236819Y-85288380D02*
X139189200Y-85431237D01*
X139189200Y-85431237D02*
X139093961Y-85526475D01*
X139093961Y-85526475D02*
X138998723Y-85574094D01*
X138998723Y-85574094D02*
X138808247Y-85621713D01*
X138808247Y-85621713D02*
X138665390Y-85621713D01*
X138665390Y-85621713D02*
X138474914Y-85574094D01*
X138474914Y-85574094D02*
X138379676Y-85526475D01*
X138379676Y-85526475D02*
X138284438Y-85431237D01*
X138284438Y-85431237D02*
X138236819Y-85288380D01*
X138236819Y-85288380D02*
X138236819Y-85193142D01*
X138236819Y-85193142D02*
X138284438Y-85050285D01*
X138284438Y-85050285D02*
X138332057Y-85002666D01*
X139236819Y-84050285D02*
X139236819Y-84621713D01*
X139236819Y-84335999D02*
X138236819Y-84335999D01*
X138236819Y-84335999D02*
X138379676Y-84431237D01*
X138379676Y-84431237D02*
X138474914Y-84526475D01*
X138474914Y-84526475D02*
X138522533Y-84621713D01*
X134910633Y-78348666D02*
X134577300Y-78581999D01*
X134910633Y-78748666D02*
X134210633Y-78748666D01*
X134210633Y-78748666D02*
X134210633Y-78481999D01*
X134210633Y-78481999D02*
X134243966Y-78415333D01*
X134243966Y-78415333D02*
X134277300Y-78381999D01*
X134277300Y-78381999D02*
X134343966Y-78348666D01*
X134343966Y-78348666D02*
X134443966Y-78348666D01*
X134443966Y-78348666D02*
X134510633Y-78381999D01*
X134510633Y-78381999D02*
X134543966Y-78415333D01*
X134543966Y-78415333D02*
X134577300Y-78481999D01*
X134577300Y-78481999D02*
X134577300Y-78748666D01*
X134210633Y-78115333D02*
X134210633Y-77648666D01*
X134210633Y-77648666D02*
X134910633Y-77948666D01*
X139043580Y-70270666D02*
X139091200Y-70318285D01*
X139091200Y-70318285D02*
X139138819Y-70461142D01*
X139138819Y-70461142D02*
X139138819Y-70556380D01*
X139138819Y-70556380D02*
X139091200Y-70699237D01*
X139091200Y-70699237D02*
X138995961Y-70794475D01*
X138995961Y-70794475D02*
X138900723Y-70842094D01*
X138900723Y-70842094D02*
X138710247Y-70889713D01*
X138710247Y-70889713D02*
X138567390Y-70889713D01*
X138567390Y-70889713D02*
X138376914Y-70842094D01*
X138376914Y-70842094D02*
X138281676Y-70794475D01*
X138281676Y-70794475D02*
X138186438Y-70699237D01*
X138186438Y-70699237D02*
X138138819Y-70556380D01*
X138138819Y-70556380D02*
X138138819Y-70461142D01*
X138138819Y-70461142D02*
X138186438Y-70318285D01*
X138186438Y-70318285D02*
X138234057Y-70270666D01*
X138138819Y-69413523D02*
X138138819Y-69603999D01*
X138138819Y-69603999D02*
X138186438Y-69699237D01*
X138186438Y-69699237D02*
X138234057Y-69746856D01*
X138234057Y-69746856D02*
X138376914Y-69842094D01*
X138376914Y-69842094D02*
X138567390Y-69889713D01*
X138567390Y-69889713D02*
X138948342Y-69889713D01*
X138948342Y-69889713D02*
X139043580Y-69842094D01*
X139043580Y-69842094D02*
X139091200Y-69794475D01*
X139091200Y-69794475D02*
X139138819Y-69699237D01*
X139138819Y-69699237D02*
X139138819Y-69508761D01*
X139138819Y-69508761D02*
X139091200Y-69413523D01*
X139091200Y-69413523D02*
X139043580Y-69365904D01*
X139043580Y-69365904D02*
X138948342Y-69318285D01*
X138948342Y-69318285D02*
X138710247Y-69318285D01*
X138710247Y-69318285D02*
X138615009Y-69365904D01*
X138615009Y-69365904D02*
X138567390Y-69413523D01*
X138567390Y-69413523D02*
X138519771Y-69508761D01*
X138519771Y-69508761D02*
X138519771Y-69699237D01*
X138519771Y-69699237D02*
X138567390Y-69794475D01*
X138567390Y-69794475D02*
X138615009Y-69842094D01*
X138615009Y-69842094D02*
X138710247Y-69889713D01*
X175223142Y-92812080D02*
X175175523Y-92859700D01*
X175175523Y-92859700D02*
X175032666Y-92907319D01*
X175032666Y-92907319D02*
X174937428Y-92907319D01*
X174937428Y-92907319D02*
X174794571Y-92859700D01*
X174794571Y-92859700D02*
X174699333Y-92764461D01*
X174699333Y-92764461D02*
X174651714Y-92669223D01*
X174651714Y-92669223D02*
X174604095Y-92478747D01*
X174604095Y-92478747D02*
X174604095Y-92335890D01*
X174604095Y-92335890D02*
X174651714Y-92145414D01*
X174651714Y-92145414D02*
X174699333Y-92050176D01*
X174699333Y-92050176D02*
X174794571Y-91954938D01*
X174794571Y-91954938D02*
X174937428Y-91907319D01*
X174937428Y-91907319D02*
X175032666Y-91907319D01*
X175032666Y-91907319D02*
X175175523Y-91954938D01*
X175175523Y-91954938D02*
X175223142Y-92002557D01*
X176175523Y-92907319D02*
X175604095Y-92907319D01*
X175889809Y-92907319D02*
X175889809Y-91907319D01*
X175889809Y-91907319D02*
X175794571Y-92050176D01*
X175794571Y-92050176D02*
X175699333Y-92145414D01*
X175699333Y-92145414D02*
X175604095Y-92193033D01*
X176794571Y-91907319D02*
X176889809Y-91907319D01*
X176889809Y-91907319D02*
X176985047Y-91954938D01*
X176985047Y-91954938D02*
X177032666Y-92002557D01*
X177032666Y-92002557D02*
X177080285Y-92097795D01*
X177080285Y-92097795D02*
X177127904Y-92288271D01*
X177127904Y-92288271D02*
X177127904Y-92526366D01*
X177127904Y-92526366D02*
X177080285Y-92716842D01*
X177080285Y-92716842D02*
X177032666Y-92812080D01*
X177032666Y-92812080D02*
X176985047Y-92859700D01*
X176985047Y-92859700D02*
X176889809Y-92907319D01*
X176889809Y-92907319D02*
X176794571Y-92907319D01*
X176794571Y-92907319D02*
X176699333Y-92859700D01*
X176699333Y-92859700D02*
X176651714Y-92812080D01*
X176651714Y-92812080D02*
X176604095Y-92716842D01*
X176604095Y-92716842D02*
X176556476Y-92526366D01*
X176556476Y-92526366D02*
X176556476Y-92288271D01*
X176556476Y-92288271D02*
X176604095Y-92097795D01*
X176604095Y-92097795D02*
X176651714Y-92002557D01*
X176651714Y-92002557D02*
X176699333Y-91954938D01*
X176699333Y-91954938D02*
X176794571Y-91907319D01*
X126357142Y-103454819D02*
X126023809Y-102978628D01*
X125785714Y-103454819D02*
X125785714Y-102454819D01*
X125785714Y-102454819D02*
X126166666Y-102454819D01*
X126166666Y-102454819D02*
X126261904Y-102502438D01*
X126261904Y-102502438D02*
X126309523Y-102550057D01*
X126309523Y-102550057D02*
X126357142Y-102645295D01*
X126357142Y-102645295D02*
X126357142Y-102788152D01*
X126357142Y-102788152D02*
X126309523Y-102883390D01*
X126309523Y-102883390D02*
X126261904Y-102931009D01*
X126261904Y-102931009D02*
X126166666Y-102978628D01*
X126166666Y-102978628D02*
X125785714Y-102978628D01*
X127309523Y-103454819D02*
X126738095Y-103454819D01*
X127023809Y-103454819D02*
X127023809Y-102454819D01*
X127023809Y-102454819D02*
X126928571Y-102597676D01*
X126928571Y-102597676D02*
X126833333Y-102692914D01*
X126833333Y-102692914D02*
X126738095Y-102740533D01*
X128166666Y-102788152D02*
X128166666Y-103454819D01*
X127928571Y-102407200D02*
X127690476Y-103121485D01*
X127690476Y-103121485D02*
X128309523Y-103121485D01*
X139297580Y-75096666D02*
X139345200Y-75144285D01*
X139345200Y-75144285D02*
X139392819Y-75287142D01*
X139392819Y-75287142D02*
X139392819Y-75382380D01*
X139392819Y-75382380D02*
X139345200Y-75525237D01*
X139345200Y-75525237D02*
X139249961Y-75620475D01*
X139249961Y-75620475D02*
X139154723Y-75668094D01*
X139154723Y-75668094D02*
X138964247Y-75715713D01*
X138964247Y-75715713D02*
X138821390Y-75715713D01*
X138821390Y-75715713D02*
X138630914Y-75668094D01*
X138630914Y-75668094D02*
X138535676Y-75620475D01*
X138535676Y-75620475D02*
X138440438Y-75525237D01*
X138440438Y-75525237D02*
X138392819Y-75382380D01*
X138392819Y-75382380D02*
X138392819Y-75287142D01*
X138392819Y-75287142D02*
X138440438Y-75144285D01*
X138440438Y-75144285D02*
X138488057Y-75096666D01*
X138488057Y-74715713D02*
X138440438Y-74668094D01*
X138440438Y-74668094D02*
X138392819Y-74572856D01*
X138392819Y-74572856D02*
X138392819Y-74334761D01*
X138392819Y-74334761D02*
X138440438Y-74239523D01*
X138440438Y-74239523D02*
X138488057Y-74191904D01*
X138488057Y-74191904D02*
X138583295Y-74144285D01*
X138583295Y-74144285D02*
X138678533Y-74144285D01*
X138678533Y-74144285D02*
X138821390Y-74191904D01*
X138821390Y-74191904D02*
X139392819Y-74763332D01*
X139392819Y-74763332D02*
X139392819Y-74144285D01*
X134204761Y-101750057D02*
X134109523Y-101702438D01*
X134109523Y-101702438D02*
X134014285Y-101607200D01*
X134014285Y-101607200D02*
X133871428Y-101464342D01*
X133871428Y-101464342D02*
X133776190Y-101416723D01*
X133776190Y-101416723D02*
X133680952Y-101416723D01*
X133728571Y-101654819D02*
X133633333Y-101607200D01*
X133633333Y-101607200D02*
X133538095Y-101511961D01*
X133538095Y-101511961D02*
X133490476Y-101321485D01*
X133490476Y-101321485D02*
X133490476Y-100988152D01*
X133490476Y-100988152D02*
X133538095Y-100797676D01*
X133538095Y-100797676D02*
X133633333Y-100702438D01*
X133633333Y-100702438D02*
X133728571Y-100654819D01*
X133728571Y-100654819D02*
X133919047Y-100654819D01*
X133919047Y-100654819D02*
X134014285Y-100702438D01*
X134014285Y-100702438D02*
X134109523Y-100797676D01*
X134109523Y-100797676D02*
X134157142Y-100988152D01*
X134157142Y-100988152D02*
X134157142Y-101321485D01*
X134157142Y-101321485D02*
X134109523Y-101511961D01*
X134109523Y-101511961D02*
X134014285Y-101607200D01*
X134014285Y-101607200D02*
X133919047Y-101654819D01*
X133919047Y-101654819D02*
X133728571Y-101654819D01*
X135014285Y-100988152D02*
X135014285Y-101654819D01*
X134776190Y-100607200D02*
X134538095Y-101321485D01*
X134538095Y-101321485D02*
X135157142Y-101321485D01*
X133904761Y-105650057D02*
X133809523Y-105602438D01*
X133809523Y-105602438D02*
X133714285Y-105507200D01*
X133714285Y-105507200D02*
X133571428Y-105364342D01*
X133571428Y-105364342D02*
X133476190Y-105316723D01*
X133476190Y-105316723D02*
X133380952Y-105316723D01*
X133428571Y-105554819D02*
X133333333Y-105507200D01*
X133333333Y-105507200D02*
X133238095Y-105411961D01*
X133238095Y-105411961D02*
X133190476Y-105221485D01*
X133190476Y-105221485D02*
X133190476Y-104888152D01*
X133190476Y-104888152D02*
X133238095Y-104697676D01*
X133238095Y-104697676D02*
X133333333Y-104602438D01*
X133333333Y-104602438D02*
X133428571Y-104554819D01*
X133428571Y-104554819D02*
X133619047Y-104554819D01*
X133619047Y-104554819D02*
X133714285Y-104602438D01*
X133714285Y-104602438D02*
X133809523Y-104697676D01*
X133809523Y-104697676D02*
X133857142Y-104888152D01*
X133857142Y-104888152D02*
X133857142Y-105221485D01*
X133857142Y-105221485D02*
X133809523Y-105411961D01*
X133809523Y-105411961D02*
X133714285Y-105507200D01*
X133714285Y-105507200D02*
X133619047Y-105554819D01*
X133619047Y-105554819D02*
X133428571Y-105554819D01*
X134190476Y-104554819D02*
X134809523Y-104554819D01*
X134809523Y-104554819D02*
X134476190Y-104935771D01*
X134476190Y-104935771D02*
X134619047Y-104935771D01*
X134619047Y-104935771D02*
X134714285Y-104983390D01*
X134714285Y-104983390D02*
X134761904Y-105031009D01*
X134761904Y-105031009D02*
X134809523Y-105126247D01*
X134809523Y-105126247D02*
X134809523Y-105364342D01*
X134809523Y-105364342D02*
X134761904Y-105459580D01*
X134761904Y-105459580D02*
X134714285Y-105507200D01*
X134714285Y-105507200D02*
X134619047Y-105554819D01*
X134619047Y-105554819D02*
X134333333Y-105554819D01*
X134333333Y-105554819D02*
X134238095Y-105507200D01*
X134238095Y-105507200D02*
X134190476Y-105459580D01*
X126357142Y-100454819D02*
X126023809Y-99978628D01*
X125785714Y-100454819D02*
X125785714Y-99454819D01*
X125785714Y-99454819D02*
X126166666Y-99454819D01*
X126166666Y-99454819D02*
X126261904Y-99502438D01*
X126261904Y-99502438D02*
X126309523Y-99550057D01*
X126309523Y-99550057D02*
X126357142Y-99645295D01*
X126357142Y-99645295D02*
X126357142Y-99788152D01*
X126357142Y-99788152D02*
X126309523Y-99883390D01*
X126309523Y-99883390D02*
X126261904Y-99931009D01*
X126261904Y-99931009D02*
X126166666Y-99978628D01*
X126166666Y-99978628D02*
X125785714Y-99978628D01*
X127309523Y-100454819D02*
X126738095Y-100454819D01*
X127023809Y-100454819D02*
X127023809Y-99454819D01*
X127023809Y-99454819D02*
X126928571Y-99597676D01*
X126928571Y-99597676D02*
X126833333Y-99692914D01*
X126833333Y-99692914D02*
X126738095Y-99740533D01*
X127642857Y-99454819D02*
X128261904Y-99454819D01*
X128261904Y-99454819D02*
X127928571Y-99835771D01*
X127928571Y-99835771D02*
X128071428Y-99835771D01*
X128071428Y-99835771D02*
X128166666Y-99883390D01*
X128166666Y-99883390D02*
X128214285Y-99931009D01*
X128214285Y-99931009D02*
X128261904Y-100026247D01*
X128261904Y-100026247D02*
X128261904Y-100264342D01*
X128261904Y-100264342D02*
X128214285Y-100359580D01*
X128214285Y-100359580D02*
X128166666Y-100407200D01*
X128166666Y-100407200D02*
X128071428Y-100454819D01*
X128071428Y-100454819D02*
X127785714Y-100454819D01*
X127785714Y-100454819D02*
X127690476Y-100407200D01*
X127690476Y-100407200D02*
X127642857Y-100359580D01*
X173132761Y-77004057D02*
X173037523Y-76956438D01*
X173037523Y-76956438D02*
X172942285Y-76861200D01*
X172942285Y-76861200D02*
X172799428Y-76718342D01*
X172799428Y-76718342D02*
X172704190Y-76670723D01*
X172704190Y-76670723D02*
X172608952Y-76670723D01*
X172656571Y-76908819D02*
X172561333Y-76861200D01*
X172561333Y-76861200D02*
X172466095Y-76765961D01*
X172466095Y-76765961D02*
X172418476Y-76575485D01*
X172418476Y-76575485D02*
X172418476Y-76242152D01*
X172418476Y-76242152D02*
X172466095Y-76051676D01*
X172466095Y-76051676D02*
X172561333Y-75956438D01*
X172561333Y-75956438D02*
X172656571Y-75908819D01*
X172656571Y-75908819D02*
X172847047Y-75908819D01*
X172847047Y-75908819D02*
X172942285Y-75956438D01*
X172942285Y-75956438D02*
X173037523Y-76051676D01*
X173037523Y-76051676D02*
X173085142Y-76242152D01*
X173085142Y-76242152D02*
X173085142Y-76575485D01*
X173085142Y-76575485D02*
X173037523Y-76765961D01*
X173037523Y-76765961D02*
X172942285Y-76861200D01*
X172942285Y-76861200D02*
X172847047Y-76908819D01*
X172847047Y-76908819D02*
X172656571Y-76908819D01*
X174037523Y-76908819D02*
X173466095Y-76908819D01*
X173751809Y-76908819D02*
X173751809Y-75908819D01*
X173751809Y-75908819D02*
X173656571Y-76051676D01*
X173656571Y-76051676D02*
X173561333Y-76146914D01*
X173561333Y-76146914D02*
X173466095Y-76194533D01*
X131677580Y-69222857D02*
X131725200Y-69270476D01*
X131725200Y-69270476D02*
X131772819Y-69413333D01*
X131772819Y-69413333D02*
X131772819Y-69508571D01*
X131772819Y-69508571D02*
X131725200Y-69651428D01*
X131725200Y-69651428D02*
X131629961Y-69746666D01*
X131629961Y-69746666D02*
X131534723Y-69794285D01*
X131534723Y-69794285D02*
X131344247Y-69841904D01*
X131344247Y-69841904D02*
X131201390Y-69841904D01*
X131201390Y-69841904D02*
X131010914Y-69794285D01*
X131010914Y-69794285D02*
X130915676Y-69746666D01*
X130915676Y-69746666D02*
X130820438Y-69651428D01*
X130820438Y-69651428D02*
X130772819Y-69508571D01*
X130772819Y-69508571D02*
X130772819Y-69413333D01*
X130772819Y-69413333D02*
X130820438Y-69270476D01*
X130820438Y-69270476D02*
X130868057Y-69222857D01*
X131772819Y-68270476D02*
X131772819Y-68841904D01*
X131772819Y-68556190D02*
X130772819Y-68556190D01*
X130772819Y-68556190D02*
X130915676Y-68651428D01*
X130915676Y-68651428D02*
X131010914Y-68746666D01*
X131010914Y-68746666D02*
X131058533Y-68841904D01*
X130868057Y-67889523D02*
X130820438Y-67841904D01*
X130820438Y-67841904D02*
X130772819Y-67746666D01*
X130772819Y-67746666D02*
X130772819Y-67508571D01*
X130772819Y-67508571D02*
X130820438Y-67413333D01*
X130820438Y-67413333D02*
X130868057Y-67365714D01*
X130868057Y-67365714D02*
X130963295Y-67318095D01*
X130963295Y-67318095D02*
X131058533Y-67318095D01*
X131058533Y-67318095D02*
X131201390Y-67365714D01*
X131201390Y-67365714D02*
X131772819Y-67937142D01*
X131772819Y-67937142D02*
X131772819Y-67318095D01*
X132454819Y-97638094D02*
X131454819Y-97638094D01*
X131454819Y-97638094D02*
X131454819Y-97399999D01*
X131454819Y-97399999D02*
X131502438Y-97257142D01*
X131502438Y-97257142D02*
X131597676Y-97161904D01*
X131597676Y-97161904D02*
X131692914Y-97114285D01*
X131692914Y-97114285D02*
X131883390Y-97066666D01*
X131883390Y-97066666D02*
X132026247Y-97066666D01*
X132026247Y-97066666D02*
X132216723Y-97114285D01*
X132216723Y-97114285D02*
X132311961Y-97161904D01*
X132311961Y-97161904D02*
X132407200Y-97257142D01*
X132407200Y-97257142D02*
X132454819Y-97399999D01*
X132454819Y-97399999D02*
X132454819Y-97638094D01*
X131550057Y-96685713D02*
X131502438Y-96638094D01*
X131502438Y-96638094D02*
X131454819Y-96542856D01*
X131454819Y-96542856D02*
X131454819Y-96304761D01*
X131454819Y-96304761D02*
X131502438Y-96209523D01*
X131502438Y-96209523D02*
X131550057Y-96161904D01*
X131550057Y-96161904D02*
X131645295Y-96114285D01*
X131645295Y-96114285D02*
X131740533Y-96114285D01*
X131740533Y-96114285D02*
X131883390Y-96161904D01*
X131883390Y-96161904D02*
X132454819Y-96733332D01*
X132454819Y-96733332D02*
X132454819Y-96114285D01*
X137773580Y-74556857D02*
X137821200Y-74604476D01*
X137821200Y-74604476D02*
X137868819Y-74747333D01*
X137868819Y-74747333D02*
X137868819Y-74842571D01*
X137868819Y-74842571D02*
X137821200Y-74985428D01*
X137821200Y-74985428D02*
X137725961Y-75080666D01*
X137725961Y-75080666D02*
X137630723Y-75128285D01*
X137630723Y-75128285D02*
X137440247Y-75175904D01*
X137440247Y-75175904D02*
X137297390Y-75175904D01*
X137297390Y-75175904D02*
X137106914Y-75128285D01*
X137106914Y-75128285D02*
X137011676Y-75080666D01*
X137011676Y-75080666D02*
X136916438Y-74985428D01*
X136916438Y-74985428D02*
X136868819Y-74842571D01*
X136868819Y-74842571D02*
X136868819Y-74747333D01*
X136868819Y-74747333D02*
X136916438Y-74604476D01*
X136916438Y-74604476D02*
X136964057Y-74556857D01*
X137868819Y-73604476D02*
X137868819Y-74175904D01*
X137868819Y-73890190D02*
X136868819Y-73890190D01*
X136868819Y-73890190D02*
X137011676Y-73985428D01*
X137011676Y-73985428D02*
X137106914Y-74080666D01*
X137106914Y-74080666D02*
X137154533Y-74175904D01*
X136868819Y-73271142D02*
X136868819Y-72652095D01*
X136868819Y-72652095D02*
X137249771Y-72985428D01*
X137249771Y-72985428D02*
X137249771Y-72842571D01*
X137249771Y-72842571D02*
X137297390Y-72747333D01*
X137297390Y-72747333D02*
X137345009Y-72699714D01*
X137345009Y-72699714D02*
X137440247Y-72652095D01*
X137440247Y-72652095D02*
X137678342Y-72652095D01*
X137678342Y-72652095D02*
X137773580Y-72699714D01*
X137773580Y-72699714D02*
X137821200Y-72747333D01*
X137821200Y-72747333D02*
X137868819Y-72842571D01*
X137868819Y-72842571D02*
X137868819Y-73128285D01*
X137868819Y-73128285D02*
X137821200Y-73223523D01*
X137821200Y-73223523D02*
X137773580Y-73271142D01*
X168505333Y-75256819D02*
X168172000Y-74780628D01*
X167933905Y-75256819D02*
X167933905Y-74256819D01*
X167933905Y-74256819D02*
X168314857Y-74256819D01*
X168314857Y-74256819D02*
X168410095Y-74304438D01*
X168410095Y-74304438D02*
X168457714Y-74352057D01*
X168457714Y-74352057D02*
X168505333Y-74447295D01*
X168505333Y-74447295D02*
X168505333Y-74590152D01*
X168505333Y-74590152D02*
X168457714Y-74685390D01*
X168457714Y-74685390D02*
X168410095Y-74733009D01*
X168410095Y-74733009D02*
X168314857Y-74780628D01*
X168314857Y-74780628D02*
X167933905Y-74780628D01*
X169362476Y-74590152D02*
X169362476Y-75256819D01*
X169124381Y-74209200D02*
X168886286Y-74923485D01*
X168886286Y-74923485D02*
X169505333Y-74923485D01*
X172839142Y-67510819D02*
X172505809Y-67034628D01*
X172267714Y-67510819D02*
X172267714Y-66510819D01*
X172267714Y-66510819D02*
X172648666Y-66510819D01*
X172648666Y-66510819D02*
X172743904Y-66558438D01*
X172743904Y-66558438D02*
X172791523Y-66606057D01*
X172791523Y-66606057D02*
X172839142Y-66701295D01*
X172839142Y-66701295D02*
X172839142Y-66844152D01*
X172839142Y-66844152D02*
X172791523Y-66939390D01*
X172791523Y-66939390D02*
X172743904Y-66987009D01*
X172743904Y-66987009D02*
X172648666Y-67034628D01*
X172648666Y-67034628D02*
X172267714Y-67034628D01*
X173791523Y-67510819D02*
X173220095Y-67510819D01*
X173505809Y-67510819D02*
X173505809Y-66510819D01*
X173505809Y-66510819D02*
X173410571Y-66653676D01*
X173410571Y-66653676D02*
X173315333Y-66748914D01*
X173315333Y-66748914D02*
X173220095Y-66796533D01*
X174172476Y-66606057D02*
X174220095Y-66558438D01*
X174220095Y-66558438D02*
X174315333Y-66510819D01*
X174315333Y-66510819D02*
X174553428Y-66510819D01*
X174553428Y-66510819D02*
X174648666Y-66558438D01*
X174648666Y-66558438D02*
X174696285Y-66606057D01*
X174696285Y-66606057D02*
X174743904Y-66701295D01*
X174743904Y-66701295D02*
X174743904Y-66796533D01*
X174743904Y-66796533D02*
X174696285Y-66939390D01*
X174696285Y-66939390D02*
X174124857Y-67510819D01*
X174124857Y-67510819D02*
X174743904Y-67510819D01*
X138376819Y-78322466D02*
X137900628Y-78655799D01*
X138376819Y-78893894D02*
X137376819Y-78893894D01*
X137376819Y-78893894D02*
X137376819Y-78512942D01*
X137376819Y-78512942D02*
X137424438Y-78417704D01*
X137424438Y-78417704D02*
X137472057Y-78370085D01*
X137472057Y-78370085D02*
X137567295Y-78322466D01*
X137567295Y-78322466D02*
X137710152Y-78322466D01*
X137710152Y-78322466D02*
X137805390Y-78370085D01*
X137805390Y-78370085D02*
X137853009Y-78417704D01*
X137853009Y-78417704D02*
X137900628Y-78512942D01*
X137900628Y-78512942D02*
X137900628Y-78893894D01*
X137376819Y-77465323D02*
X137376819Y-77655799D01*
X137376819Y-77655799D02*
X137424438Y-77751037D01*
X137424438Y-77751037D02*
X137472057Y-77798656D01*
X137472057Y-77798656D02*
X137614914Y-77893894D01*
X137614914Y-77893894D02*
X137805390Y-77941513D01*
X137805390Y-77941513D02*
X138186342Y-77941513D01*
X138186342Y-77941513D02*
X138281580Y-77893894D01*
X138281580Y-77893894D02*
X138329200Y-77846275D01*
X138329200Y-77846275D02*
X138376819Y-77751037D01*
X138376819Y-77751037D02*
X138376819Y-77560561D01*
X138376819Y-77560561D02*
X138329200Y-77465323D01*
X138329200Y-77465323D02*
X138281580Y-77417704D01*
X138281580Y-77417704D02*
X138186342Y-77370085D01*
X138186342Y-77370085D02*
X137948247Y-77370085D01*
X137948247Y-77370085D02*
X137853009Y-77417704D01*
X137853009Y-77417704D02*
X137805390Y-77465323D01*
X137805390Y-77465323D02*
X137757771Y-77560561D01*
X137757771Y-77560561D02*
X137757771Y-77751037D01*
X137757771Y-77751037D02*
X137805390Y-77846275D01*
X137805390Y-77846275D02*
X137853009Y-77893894D01*
X137853009Y-77893894D02*
X137948247Y-77941513D01*
X136868819Y-93065904D02*
X137678342Y-93065904D01*
X137678342Y-93065904D02*
X137773580Y-93018285D01*
X137773580Y-93018285D02*
X137821200Y-92970666D01*
X137821200Y-92970666D02*
X137868819Y-92875428D01*
X137868819Y-92875428D02*
X137868819Y-92684952D01*
X137868819Y-92684952D02*
X137821200Y-92589714D01*
X137821200Y-92589714D02*
X137773580Y-92542095D01*
X137773580Y-92542095D02*
X137678342Y-92494476D01*
X137678342Y-92494476D02*
X136868819Y-92494476D01*
X137868819Y-91494476D02*
X137868819Y-92065904D01*
X137868819Y-91780190D02*
X136868819Y-91780190D01*
X136868819Y-91780190D02*
X137011676Y-91875428D01*
X137011676Y-91875428D02*
X137106914Y-91970666D01*
X137106914Y-91970666D02*
X137154533Y-92065904D01*
X145104819Y-84666666D02*
X144628628Y-84999999D01*
X145104819Y-85238094D02*
X144104819Y-85238094D01*
X144104819Y-85238094D02*
X144104819Y-84857142D01*
X144104819Y-84857142D02*
X144152438Y-84761904D01*
X144152438Y-84761904D02*
X144200057Y-84714285D01*
X144200057Y-84714285D02*
X144295295Y-84666666D01*
X144295295Y-84666666D02*
X144438152Y-84666666D01*
X144438152Y-84666666D02*
X144533390Y-84714285D01*
X144533390Y-84714285D02*
X144581009Y-84761904D01*
X144581009Y-84761904D02*
X144628628Y-84857142D01*
X144628628Y-84857142D02*
X144628628Y-85238094D01*
X145104819Y-83714285D02*
X145104819Y-84285713D01*
X145104819Y-83999999D02*
X144104819Y-83999999D01*
X144104819Y-83999999D02*
X144247676Y-84095237D01*
X144247676Y-84095237D02*
X144342914Y-84190475D01*
X144342914Y-84190475D02*
X144390533Y-84285713D01*
X136482819Y-94725094D02*
X135482819Y-94725094D01*
X135482819Y-94725094D02*
X135482819Y-94486999D01*
X135482819Y-94486999D02*
X135530438Y-94344142D01*
X135530438Y-94344142D02*
X135625676Y-94248904D01*
X135625676Y-94248904D02*
X135720914Y-94201285D01*
X135720914Y-94201285D02*
X135911390Y-94153666D01*
X135911390Y-94153666D02*
X136054247Y-94153666D01*
X136054247Y-94153666D02*
X136244723Y-94201285D01*
X136244723Y-94201285D02*
X136339961Y-94248904D01*
X136339961Y-94248904D02*
X136435200Y-94344142D01*
X136435200Y-94344142D02*
X136482819Y-94486999D01*
X136482819Y-94486999D02*
X136482819Y-94725094D01*
X135482819Y-93820332D02*
X135482819Y-93201285D01*
X135482819Y-93201285D02*
X135863771Y-93534618D01*
X135863771Y-93534618D02*
X135863771Y-93391761D01*
X135863771Y-93391761D02*
X135911390Y-93296523D01*
X135911390Y-93296523D02*
X135959009Y-93248904D01*
X135959009Y-93248904D02*
X136054247Y-93201285D01*
X136054247Y-93201285D02*
X136292342Y-93201285D01*
X136292342Y-93201285D02*
X136387580Y-93248904D01*
X136387580Y-93248904D02*
X136435200Y-93296523D01*
X136435200Y-93296523D02*
X136482819Y-93391761D01*
X136482819Y-93391761D02*
X136482819Y-93677475D01*
X136482819Y-93677475D02*
X136435200Y-93772713D01*
X136435200Y-93772713D02*
X136387580Y-93820332D01*
X137925980Y-68968857D02*
X137973600Y-69016476D01*
X137973600Y-69016476D02*
X138021219Y-69159333D01*
X138021219Y-69159333D02*
X138021219Y-69254571D01*
X138021219Y-69254571D02*
X137973600Y-69397428D01*
X137973600Y-69397428D02*
X137878361Y-69492666D01*
X137878361Y-69492666D02*
X137783123Y-69540285D01*
X137783123Y-69540285D02*
X137592647Y-69587904D01*
X137592647Y-69587904D02*
X137449790Y-69587904D01*
X137449790Y-69587904D02*
X137259314Y-69540285D01*
X137259314Y-69540285D02*
X137164076Y-69492666D01*
X137164076Y-69492666D02*
X137068838Y-69397428D01*
X137068838Y-69397428D02*
X137021219Y-69254571D01*
X137021219Y-69254571D02*
X137021219Y-69159333D01*
X137021219Y-69159333D02*
X137068838Y-69016476D01*
X137068838Y-69016476D02*
X137116457Y-68968857D01*
X138021219Y-68016476D02*
X138021219Y-68587904D01*
X138021219Y-68302190D02*
X137021219Y-68302190D01*
X137021219Y-68302190D02*
X137164076Y-68397428D01*
X137164076Y-68397428D02*
X137259314Y-68492666D01*
X137259314Y-68492666D02*
X137306933Y-68587904D01*
X138021219Y-67064095D02*
X138021219Y-67635523D01*
X138021219Y-67349809D02*
X137021219Y-67349809D01*
X137021219Y-67349809D02*
X137164076Y-67445047D01*
X137164076Y-67445047D02*
X137259314Y-67540285D01*
X137259314Y-67540285D02*
X137306933Y-67635523D01*
X170437200Y-88253332D02*
X170484819Y-88110475D01*
X170484819Y-88110475D02*
X170484819Y-87872380D01*
X170484819Y-87872380D02*
X170437200Y-87777142D01*
X170437200Y-87777142D02*
X170389580Y-87729523D01*
X170389580Y-87729523D02*
X170294342Y-87681904D01*
X170294342Y-87681904D02*
X170199104Y-87681904D01*
X170199104Y-87681904D02*
X170103866Y-87729523D01*
X170103866Y-87729523D02*
X170056247Y-87777142D01*
X170056247Y-87777142D02*
X170008628Y-87872380D01*
X170008628Y-87872380D02*
X169961009Y-88062856D01*
X169961009Y-88062856D02*
X169913390Y-88158094D01*
X169913390Y-88158094D02*
X169865771Y-88205713D01*
X169865771Y-88205713D02*
X169770533Y-88253332D01*
X169770533Y-88253332D02*
X169675295Y-88253332D01*
X169675295Y-88253332D02*
X169580057Y-88205713D01*
X169580057Y-88205713D02*
X169532438Y-88158094D01*
X169532438Y-88158094D02*
X169484819Y-88062856D01*
X169484819Y-88062856D02*
X169484819Y-87824761D01*
X169484819Y-87824761D02*
X169532438Y-87681904D01*
X169484819Y-87348570D02*
X170484819Y-87110475D01*
X170484819Y-87110475D02*
X169770533Y-86919999D01*
X169770533Y-86919999D02*
X170484819Y-86729523D01*
X170484819Y-86729523D02*
X169484819Y-86491428D01*
X169580057Y-86158094D02*
X169532438Y-86110475D01*
X169532438Y-86110475D02*
X169484819Y-86015237D01*
X169484819Y-86015237D02*
X169484819Y-85777142D01*
X169484819Y-85777142D02*
X169532438Y-85681904D01*
X169532438Y-85681904D02*
X169580057Y-85634285D01*
X169580057Y-85634285D02*
X169675295Y-85586666D01*
X169675295Y-85586666D02*
X169770533Y-85586666D01*
X169770533Y-85586666D02*
X169913390Y-85634285D01*
X169913390Y-85634285D02*
X170484819Y-86205713D01*
X170484819Y-86205713D02*
X170484819Y-85586666D01*
D12*
X177319000Y-73839064D02*
X177319000Y-73384936D01*
X178789000Y-73839064D02*
X178789000Y-73384936D01*
X168899064Y-70331000D02*
X168444936Y-70331000D01*
X168899064Y-68861000D02*
X168444936Y-68861000D01*
X175118000Y-68940000D02*
X175118000Y-70540000D01*
X178318000Y-70540000D02*
X178318000Y-68240000D01*
D13*
X171438000Y-81110000D02*
X171438000Y-78670000D01*
X174078000Y-78670000D02*
X174078000Y-81110000D01*
D14*
X172058000Y-81940000D02*
G75*
G03*
X172058000Y-81940000I-100000J0D01*
G01*
D12*
X146531000Y-100344248D02*
X146531000Y-100866752D01*
X145061000Y-100344248D02*
X145061000Y-100866752D01*
X176757000Y-73416936D02*
X176757000Y-73871064D01*
X175287000Y-73416936D02*
X175287000Y-73871064D01*
X141422000Y-78311000D02*
X139502000Y-78311000D01*
X139502000Y-78311000D02*
X139502000Y-81171000D01*
X141422000Y-81171000D02*
X141422000Y-78311000D01*
X175031000Y-101297000D02*
X174231000Y-101297000D01*
X175031000Y-101097000D02*
X175031000Y-101297000D01*
X174831000Y-98297000D02*
X175031000Y-98497000D01*
X174231000Y-98297000D02*
X174831000Y-98297000D01*
X174231000Y-98297000D02*
X174231000Y-97797000D01*
X172831000Y-101297000D02*
X172031000Y-101297000D01*
X172831000Y-98297000D02*
X172831000Y-97797000D01*
X172031000Y-101297000D02*
X172031000Y-101097000D01*
X172031000Y-98497000D02*
X172031000Y-98297000D01*
X172031000Y-98297000D02*
X172831000Y-98297000D01*
X144638500Y-78478748D02*
X144638500Y-79001252D01*
X143168500Y-78478748D02*
X143168500Y-79001252D01*
X178573000Y-79650248D02*
X178573000Y-80172752D01*
X177103000Y-79650248D02*
X177103000Y-80172752D01*
X143402000Y-102060000D02*
X143402000Y-100560000D01*
X142152000Y-98060000D02*
X137652000Y-98060000D01*
X137652000Y-104560000D02*
X142152000Y-104560000D01*
X136402000Y-100560000D02*
X136402000Y-102060000D01*
X128765000Y-94477064D02*
X128765000Y-94022936D01*
X130235000Y-94477064D02*
X130235000Y-94022936D01*
D13*
X147645000Y-59375000D02*
X165645000Y-59375000D01*
X147645000Y-65875000D02*
X147645000Y-59375000D01*
X147645000Y-84225000D02*
X147645000Y-84875000D01*
X147645000Y-84875000D02*
X150095000Y-84875000D01*
X163195000Y-84875000D02*
X165645000Y-84875000D01*
X165645000Y-59375000D02*
X165645000Y-65875000D01*
X165645000Y-84875000D02*
X165645000Y-84225000D01*
D14*
X146745000Y-66875000D02*
G75*
G03*
X146745000Y-66875000I-100000J0D01*
G01*
D12*
X170559000Y-95253752D02*
X170559000Y-94731248D01*
X172029000Y-95253752D02*
X172029000Y-94731248D01*
X144638500Y-68805248D02*
X144638500Y-69327752D01*
X143168500Y-68805248D02*
X143168500Y-69327752D01*
X146908000Y-88488000D02*
X166720000Y-88488000D01*
X166720000Y-88488000D02*
X166720000Y-104744000D01*
X166720000Y-104744000D02*
X146908000Y-104744000D01*
X146908000Y-104744000D02*
X146908000Y-88488000D01*
X162969961Y-103728000D02*
G75*
G03*
X162969961Y-103728000I-567961J0D01*
G01*
X139762000Y-71944000D02*
X141162000Y-71944000D01*
X139762000Y-73344000D02*
X139762000Y-71944000D01*
X141162000Y-71944000D02*
X141162000Y-73344000D01*
X141162000Y-73344000D02*
X139762000Y-73344000D01*
D14*
X133990000Y-81880000D02*
X133990000Y-90830000D01*
X127680000Y-81880000D02*
X127330000Y-81880000D01*
X127330000Y-81880000D02*
X127330000Y-90830000D01*
X127330000Y-90830000D02*
X127680000Y-90830000D01*
D12*
X126479000Y-94486064D02*
X126479000Y-94031936D01*
X127949000Y-94486064D02*
X127949000Y-94031936D01*
D13*
X176920000Y-99212000D02*
X178545000Y-99212000D01*
X176920000Y-100642000D02*
X176920000Y-99212000D01*
X178145000Y-103462000D02*
X186445000Y-103462000D01*
X186045000Y-99212000D02*
X187670000Y-99212000D01*
X187670000Y-100642000D02*
X187670000Y-99212000D01*
D14*
X185520000Y-97562000D02*
G75*
G03*
X185520000Y-97562000I-100000J0D01*
G01*
D12*
X127761252Y-99235000D02*
X127238748Y-99235000D01*
X127761252Y-97765000D02*
X127238748Y-97765000D01*
X186048000Y-97300000D02*
X186788000Y-97300000D01*
X186788000Y-97300000D02*
X186788000Y-96800000D01*
X180228000Y-97060000D02*
X186548000Y-97060000D01*
X180228000Y-97060000D02*
X180228000Y-83780000D01*
X180688000Y-97060000D02*
X180688000Y-83780000D01*
X185988000Y-97060000D02*
X185988000Y-83780000D01*
X186548000Y-97060000D02*
X186548000Y-83780000D01*
X180228000Y-83780000D02*
X186548000Y-83780000D01*
X176287000Y-79650248D02*
X176287000Y-80172752D01*
X174817000Y-79650248D02*
X174817000Y-80172752D01*
X174315000Y-94786936D02*
X174315000Y-95241064D01*
X172845000Y-94786936D02*
X172845000Y-95241064D01*
X186048000Y-82630000D02*
X186788000Y-82630000D01*
X186788000Y-82630000D02*
X186788000Y-82130000D01*
X180228000Y-82390000D02*
X186548000Y-82390000D01*
X180228000Y-82390000D02*
X180228000Y-66570000D01*
X180688000Y-82390000D02*
X180688000Y-66570000D01*
X185988000Y-82390000D02*
X185988000Y-66570000D01*
X186548000Y-82390000D02*
X186548000Y-66570000D01*
X180228000Y-66570000D02*
X186548000Y-66570000D01*
X132361000Y-73921252D02*
X132361000Y-73398748D01*
X133831000Y-73921252D02*
X133831000Y-73398748D01*
X139727000Y-85097252D02*
X139727000Y-84574748D01*
X141197000Y-85097252D02*
X141197000Y-84574748D01*
X135155000Y-78459064D02*
X135155000Y-78004936D01*
X136625000Y-78459064D02*
X136625000Y-78004936D01*
X141082500Y-68805248D02*
X141082500Y-69327752D01*
X139612500Y-68805248D02*
X139612500Y-69327752D01*
X175131000Y-95296752D02*
X175131000Y-94774248D01*
X176601000Y-95296752D02*
X176601000Y-94774248D01*
X127272936Y-103715000D02*
X127727064Y-103715000D01*
X127272936Y-105185000D02*
X127727064Y-105185000D01*
X141197000Y-75706248D02*
X141197000Y-76228752D01*
X139727000Y-75706248D02*
X139727000Y-76228752D01*
D13*
X131720000Y-98200000D02*
X132660000Y-98200000D01*
X132660000Y-99030000D02*
X132660000Y-98200000D01*
X132660000Y-101100000D02*
X131720000Y-101100000D01*
X132660000Y-101100000D02*
X132660000Y-100270000D01*
D14*
X131100000Y-97400000D02*
G75*
G03*
X131100000Y-97400000I-100000J0D01*
G01*
D13*
X131720000Y-102000000D02*
X132660000Y-102000000D01*
X132660000Y-102830000D02*
X132660000Y-102000000D01*
X132660000Y-104900000D02*
X131720000Y-104900000D01*
X132660000Y-104900000D02*
X132660000Y-104070000D01*
D14*
X131100000Y-101200000D02*
G75*
G03*
X131100000Y-101200000I-100000J0D01*
G01*
D12*
X127272936Y-100765000D02*
X127727064Y-100765000D01*
X127272936Y-102235000D02*
X127727064Y-102235000D01*
X171160000Y-73581500D02*
X171160000Y-75256500D01*
X171160000Y-73581500D02*
X171160000Y-72931500D01*
X174280000Y-73581500D02*
X174280000Y-74231500D01*
X174280000Y-73581500D02*
X174280000Y-72931500D01*
X132361000Y-69476252D02*
X132361000Y-68953748D01*
X133831000Y-69476252D02*
X133831000Y-68953748D01*
X132924000Y-92390000D02*
X131004000Y-92390000D01*
X131004000Y-92390000D02*
X131004000Y-95250000D01*
X132924000Y-95250000D02*
X132924000Y-92390000D01*
X135155000Y-73921252D02*
X135155000Y-73398748D01*
X136625000Y-73921252D02*
X136625000Y-73398748D01*
X168899064Y-73887000D02*
X168444936Y-73887000D01*
X168899064Y-72417000D02*
X168444936Y-72417000D01*
X172747000Y-69807064D02*
X172747000Y-69352936D01*
X174217000Y-69807064D02*
X174217000Y-69352936D01*
X133831000Y-78004936D02*
X133831000Y-78459064D01*
X132361000Y-78004936D02*
X132361000Y-78459064D01*
X145142000Y-88204000D02*
X145142000Y-94214000D01*
X138322000Y-90454000D02*
X138322000Y-94214000D01*
X145142000Y-94214000D02*
X143882000Y-94214000D01*
X138322000Y-94214000D02*
X139582000Y-94214000D01*
X143735000Y-84272936D02*
X143735000Y-84727064D01*
X142265000Y-84272936D02*
X142265000Y-84727064D01*
X135210000Y-92390000D02*
X133290000Y-92390000D01*
X133290000Y-92390000D02*
X133290000Y-95250000D01*
X135210000Y-95250000D02*
X135210000Y-92390000D01*
X135155000Y-69476252D02*
X135155000Y-68953748D01*
X136625000Y-69476252D02*
X136625000Y-68953748D01*
X173530000Y-90420000D02*
X175030000Y-90420000D01*
X177530000Y-89170000D02*
X177530000Y-84670000D01*
X171030000Y-84670000D02*
X171030000Y-89170000D01*
X175030000Y-83420000D02*
X173530000Y-83420000D01*
%LPC*%
D15*
X173658000Y-80565000D02*
X172178000Y-80565000D01*
X171858000Y-80245000D01*
X171858000Y-79215000D01*
X173658000Y-79215000D01*
X173658000Y-80565000D01*
G36*
X173658000Y-80565000D02*
G01*
X172178000Y-80565000D01*
X171858000Y-80245000D01*
X171858000Y-79215000D01*
X173658000Y-79215000D01*
X173658000Y-80565000D01*
G37*
D16*
X178054000Y-74612000D03*
X178054000Y-72612000D03*
D17*
X169672000Y-69596000D03*
X167672000Y-69596000D03*
D18*
X177668000Y-68580000D03*
X176718000Y-68580000D03*
X175768000Y-68580000D03*
X175768000Y-70900000D03*
X176718000Y-70900000D03*
X177668000Y-70900000D03*
D19*
X126808000Y-74016000D03*
X126808000Y-74516000D03*
X126808000Y-75016000D03*
X126808000Y-75516000D03*
X126808000Y-76016000D03*
X126808000Y-76516000D03*
D20*
X127508000Y-77216000D03*
X128008000Y-77216000D03*
X128508000Y-77216000D03*
X129008000Y-77216000D03*
X129508000Y-77216000D03*
X130008000Y-77216000D03*
D19*
X130708000Y-76516000D03*
X130708000Y-76016000D03*
X130708000Y-75516000D03*
X130708000Y-75016000D03*
X130708000Y-74516000D03*
X130708000Y-74016000D03*
D20*
X130008000Y-73316000D03*
X129508000Y-73316000D03*
X129008000Y-73316000D03*
X128508000Y-73316000D03*
X128008000Y-73316000D03*
X127508000Y-73316000D03*
D21*
X128758000Y-75266000D03*
D22*
X171958000Y-81040000D03*
X172758000Y-81040000D03*
X173558000Y-81040000D03*
X173558000Y-78740000D03*
X172758000Y-78740000D03*
X171958000Y-78740000D03*
D23*
X145796000Y-99568000D03*
X145796000Y-101643000D03*
D24*
X176022000Y-72644000D03*
X176022000Y-74644000D03*
D25*
X140462000Y-79146000D03*
X140462000Y-81196000D03*
D26*
X173531000Y-98297000D03*
D27*
X175006000Y-99797000D03*
D26*
X173531000Y-101297000D03*
D27*
X172056000Y-99797000D03*
D23*
X143903500Y-77702500D03*
X143903500Y-79777500D03*
X177838000Y-78874000D03*
X177838000Y-80949000D03*
D28*
X143152000Y-103560000D03*
X136652000Y-103560000D03*
X143152000Y-99060000D03*
X136652000Y-99060000D03*
D16*
X129500000Y-95250000D03*
X129500000Y-93250000D03*
D29*
X148145000Y-66865000D03*
X148145000Y-68135000D03*
X148145000Y-69405000D03*
X148145000Y-70675000D03*
X148145000Y-71945000D03*
X148145000Y-73215000D03*
X148145000Y-74485000D03*
X148145000Y-75755000D03*
X148145000Y-77025000D03*
X148145000Y-78295000D03*
X148145000Y-79565000D03*
X148145000Y-80835000D03*
X148145000Y-82105000D03*
X148145000Y-83375000D03*
D30*
X150930000Y-84375000D03*
X152200000Y-84375000D03*
X153470000Y-84375000D03*
X154740000Y-84375000D03*
X156010000Y-84375000D03*
X157280000Y-84375000D03*
X158550000Y-84375000D03*
X159820000Y-84375000D03*
X161090000Y-84375000D03*
X162360000Y-84375000D03*
D29*
X165145000Y-83375000D03*
X165145000Y-82105000D03*
X165145000Y-80835000D03*
X165145000Y-79565000D03*
X165145000Y-78295000D03*
X165145000Y-77025000D03*
X165145000Y-75755000D03*
X165145000Y-74485000D03*
X165145000Y-73215000D03*
X165145000Y-71945000D03*
X165145000Y-70675000D03*
X165145000Y-69405000D03*
X165145000Y-68135000D03*
X165145000Y-66865000D03*
D31*
X153810000Y-72530000D03*
X155645000Y-72530000D03*
X157480000Y-72530000D03*
X153810000Y-74365000D03*
X155645000Y-74365000D03*
X157480000Y-74365000D03*
X153810000Y-76200000D03*
X155645000Y-76200000D03*
X157480000Y-76200000D03*
D32*
X154727500Y-72530000D03*
X156562500Y-72530000D03*
X153810000Y-73447500D03*
X155645000Y-73447500D03*
X157480000Y-73447500D03*
X154727500Y-74365000D03*
X156562500Y-74365000D03*
X153810000Y-75282500D03*
X155645000Y-75282500D03*
X157480000Y-75282500D03*
X154727500Y-76200000D03*
X156562500Y-76200000D03*
D33*
X171294000Y-96030000D03*
X171294000Y-93955000D03*
D23*
X143903500Y-68029000D03*
X143903500Y-70104000D03*
D34*
X165100000Y-103600000D03*
X165100000Y-101600000D03*
X165100000Y-99600000D03*
X165100000Y-97600000D03*
X165100000Y-95600000D03*
X165100000Y-93600000D03*
X165100000Y-91600000D03*
X165100000Y-89520000D03*
X148560000Y-89520000D03*
X148560000Y-91600000D03*
X148560000Y-93600000D03*
X148560000Y-95600000D03*
X148560000Y-97600000D03*
X148560000Y-99600000D03*
X148560000Y-101600000D03*
X148560000Y-103600000D03*
D26*
X140462000Y-72644000D03*
D35*
X133430000Y-83380000D03*
X133430000Y-84230000D03*
X133430000Y-85080000D03*
X133430000Y-85930000D03*
X133430000Y-86780000D03*
X133430000Y-87630000D03*
X133430000Y-88480000D03*
X133430000Y-89330000D03*
X132080000Y-89330000D03*
X132080000Y-88480000D03*
X132080000Y-87630000D03*
X132080000Y-86780000D03*
X132080000Y-85930000D03*
X132080000Y-85080000D03*
X132080000Y-84230000D03*
X132080000Y-83380000D03*
D36*
X132450000Y-82030000D03*
X132450000Y-90680000D03*
X129070000Y-90680000D03*
X129070000Y-82030000D03*
D37*
X173736000Y-105156000D03*
D16*
X127214000Y-95259000D03*
X127214000Y-93259000D03*
D38*
X185420000Y-99012000D03*
X184170000Y-99012000D03*
X182920000Y-99012000D03*
X181670000Y-99012000D03*
X180420000Y-99012000D03*
X179170000Y-99012000D03*
D39*
X177320000Y-102362000D03*
X187270000Y-102362000D03*
D40*
X128537500Y-98500000D03*
X126462500Y-98500000D03*
D41*
X183388000Y-95500000D03*
D42*
X183388000Y-92960000D03*
X183388000Y-90420000D03*
X183388000Y-87880000D03*
X183388000Y-85340000D03*
D23*
X175552000Y-78874000D03*
X175552000Y-80949000D03*
D24*
X173580000Y-94014000D03*
X173580000Y-96014000D03*
D43*
X135890000Y-87630000D03*
X135890000Y-84353400D03*
D41*
X183388000Y-80830000D03*
D42*
X183388000Y-78290000D03*
X183388000Y-75750000D03*
X183388000Y-73210000D03*
X183388000Y-70670000D03*
X183388000Y-68130000D03*
D33*
X133096000Y-74697500D03*
X133096000Y-72622500D03*
X140462000Y-85873500D03*
X140462000Y-83798500D03*
D16*
X135890000Y-79232000D03*
X135890000Y-77232000D03*
D23*
X140347500Y-68029000D03*
X140347500Y-70104000D03*
D33*
X175866000Y-96073000D03*
X175866000Y-93998000D03*
D44*
X126500000Y-104450000D03*
X128500000Y-104450000D03*
D23*
X140462000Y-74930000D03*
X140462000Y-77005000D03*
D45*
X131000000Y-98700000D03*
X131000000Y-100600000D03*
X133020000Y-99650000D03*
X131000000Y-102500000D03*
X131000000Y-104400000D03*
X133020000Y-103450000D03*
D44*
X126500000Y-101500000D03*
X128500000Y-101500000D03*
D46*
X171770000Y-74519000D03*
X173670000Y-74519000D03*
X172720000Y-72644000D03*
D33*
X133096000Y-70252500D03*
X133096000Y-68177500D03*
D25*
X131964000Y-93225000D03*
X131964000Y-95275000D03*
D33*
X135890000Y-74697500D03*
X135890000Y-72622500D03*
D17*
X169672000Y-73152000D03*
X167672000Y-73152000D03*
D16*
X173482000Y-70580000D03*
X173482000Y-68580000D03*
D37*
X127508000Y-68580000D03*
D24*
X133096000Y-77232000D03*
X133096000Y-79232000D03*
D47*
X144032000Y-89154000D03*
X141732000Y-89154000D03*
D48*
X141732000Y-95454000D03*
D47*
X139432000Y-89154000D03*
D24*
X143000000Y-83500000D03*
X143000000Y-85500000D03*
D25*
X134250000Y-93225000D03*
X134250000Y-95275000D03*
D33*
X135890000Y-70252500D03*
X135890000Y-68177500D03*
D28*
X172030000Y-90170000D03*
X172030000Y-83670000D03*
X176530000Y-90170000D03*
X176530000Y-83670000D03*
%LPD*%
M02*
