G04 #@! TF.GenerationSoftware,KiCad,Pcbnew,7.0.8*
G04 #@! TF.CreationDate,2023-12-07T14:44:19+01:00*
G04 #@! TF.ProjectId,ESP32-aqs,45535033-322d-4617-9173-2e6b69636164,rev?*
G04 #@! TF.SameCoordinates,Original*
G04 #@! TF.FileFunction,Copper,L1,Top*
G04 #@! TF.FilePolarity,Positive*
%FSLAX46Y46*%
G04 Gerber Fmt 4.6, Leading zero omitted, Abs format (unit mm)*
G04 Created by KiCad (PCBNEW 7.0.8) date 2023-12-07 14:44:19*
%MOMM*%
%LPD*%
G01*
G04 APERTURE LIST*
G04 Aperture macros list*
%AMRoundRect*
0 Rectangle with rounded corners*
0 $1 Rounding radius*
0 $2 $3 $4 $5 $6 $7 $8 $9 X,Y pos of 4 corners*
0 Add a 4 corners polygon primitive as box body*
4,1,4,$2,$3,$4,$5,$6,$7,$8,$9,$2,$3,0*
0 Add four circle primitives for the rounded corners*
1,1,$1+$1,$2,$3*
1,1,$1+$1,$4,$5*
1,1,$1+$1,$6,$7*
1,1,$1+$1,$8,$9*
0 Add four rect primitives between the rounded corners*
20,1,$1+$1,$2,$3,$4,$5,0*
20,1,$1+$1,$4,$5,$6,$7,0*
20,1,$1+$1,$6,$7,$8,$9,0*
20,1,$1+$1,$8,$9,$2,$3,0*%
%AMFreePoly0*
4,1,15,-0.324998,0.855000,0.625000,0.855000,0.628536,0.853536,0.630000,0.850000,0.630000,-0.850000,0.628536,-0.853536,0.625000,-0.855000,-0.625000,-0.855000,-0.628536,-0.853536,-0.630000,-0.850000,-0.630001,0.550000,-0.628536,0.553536,-0.328536,0.853536,-0.325000,0.855001,-0.324998,0.855000,-0.324998,0.855000,$1*%
G04 Aperture macros list end*
G04 #@! TA.AperFunction,SMDPad,CuDef*
%ADD10RoundRect,0.250000X0.450000X-0.350000X0.450000X0.350000X-0.450000X0.350000X-0.450000X-0.350000X0*%
G04 #@! TD*
G04 #@! TA.AperFunction,SMDPad,CuDef*
%ADD11RoundRect,0.250000X0.350000X0.450000X-0.350000X0.450000X-0.350000X-0.450000X0.350000X-0.450000X0*%
G04 #@! TD*
G04 #@! TA.AperFunction,SMDPad,CuDef*
%ADD12R,0.510000X0.700000*%
G04 #@! TD*
G04 #@! TA.AperFunction,SMDPad,CuDef*
%ADD13R,0.850000X0.300000*%
G04 #@! TD*
G04 #@! TA.AperFunction,SMDPad,CuDef*
%ADD14R,0.300000X0.850000*%
G04 #@! TD*
G04 #@! TA.AperFunction,SMDPad,CuDef*
%ADD15R,2.550000X2.550000*%
G04 #@! TD*
G04 #@! TA.AperFunction,SMDPad,CuDef*
%ADD16R,0.400000X0.550000*%
G04 #@! TD*
G04 #@! TA.AperFunction,SMDPad,CuDef*
%ADD17FreePoly0,90.000000*%
G04 #@! TD*
G04 #@! TA.AperFunction,SMDPad,CuDef*
%ADD18RoundRect,0.250000X-0.475000X0.337500X-0.475000X-0.337500X0.475000X-0.337500X0.475000X0.337500X0*%
G04 #@! TD*
G04 #@! TA.AperFunction,SMDPad,CuDef*
%ADD19RoundRect,0.250000X-0.450000X0.350000X-0.450000X-0.350000X0.450000X-0.350000X0.450000X0.350000X0*%
G04 #@! TD*
G04 #@! TA.AperFunction,SMDPad,CuDef*
%ADD20RoundRect,0.250000X-0.450000X0.325000X-0.450000X-0.325000X0.450000X-0.325000X0.450000X0.325000X0*%
G04 #@! TD*
G04 #@! TA.AperFunction,SMDPad,CuDef*
%ADD21R,1.000000X1.000000*%
G04 #@! TD*
G04 #@! TA.AperFunction,SMDPad,CuDef*
%ADD22R,1.050000X2.200000*%
G04 #@! TD*
G04 #@! TA.AperFunction,ComponentPad*
%ADD23C,2.000000*%
G04 #@! TD*
G04 #@! TA.AperFunction,SMDPad,CuDef*
%ADD24R,2.000000X0.900000*%
G04 #@! TD*
G04 #@! TA.AperFunction,SMDPad,CuDef*
%ADD25R,0.900000X2.000000*%
G04 #@! TD*
G04 #@! TA.AperFunction,SMDPad,CuDef*
%ADD26R,1.330000X1.330000*%
G04 #@! TD*
G04 #@! TA.AperFunction,ComponentPad*
%ADD27C,0.300000*%
G04 #@! TD*
G04 #@! TA.AperFunction,SMDPad,CuDef*
%ADD28RoundRect,0.250000X0.475000X-0.337500X0.475000X0.337500X-0.475000X0.337500X-0.475000X-0.337500X0*%
G04 #@! TD*
G04 #@! TA.AperFunction,SMDPad,CuDef*
%ADD29R,2.540000X1.524000*%
G04 #@! TD*
G04 #@! TA.AperFunction,ComponentPad*
%ADD30R,1.000000X1.000000*%
G04 #@! TD*
G04 #@! TA.AperFunction,ComponentPad*
%ADD31C,0.650000*%
G04 #@! TD*
G04 #@! TA.AperFunction,ComponentPad*
%ADD32O,2.216000X1.108000*%
G04 #@! TD*
G04 #@! TA.AperFunction,ComponentPad*
%ADD33C,4.000000*%
G04 #@! TD*
G04 #@! TA.AperFunction,SMDPad,CuDef*
%ADD34R,0.600000X1.700000*%
G04 #@! TD*
G04 #@! TA.AperFunction,SMDPad,CuDef*
%ADD35R,1.000000X2.800000*%
G04 #@! TD*
G04 #@! TA.AperFunction,SMDPad,CuDef*
%ADD36RoundRect,0.250000X0.337500X0.475000X-0.337500X0.475000X-0.337500X-0.475000X0.337500X-0.475000X0*%
G04 #@! TD*
G04 #@! TA.AperFunction,ComponentPad*
%ADD37R,2.200000X2.200000*%
G04 #@! TD*
G04 #@! TA.AperFunction,ComponentPad*
%ADD38C,2.200000*%
G04 #@! TD*
G04 #@! TA.AperFunction,SMDPad,CuDef*
%ADD39R,1.219200X0.914400*%
G04 #@! TD*
G04 #@! TA.AperFunction,SMDPad,CuDef*
%ADD40RoundRect,0.250000X-0.350000X-0.450000X0.350000X-0.450000X0.350000X0.450000X-0.350000X0.450000X0*%
G04 #@! TD*
G04 #@! TA.AperFunction,SMDPad,CuDef*
%ADD41R,0.800000X0.600000*%
G04 #@! TD*
G04 #@! TA.AperFunction,SMDPad,CuDef*
%ADD42RoundRect,0.150000X0.150000X-0.587500X0.150000X0.587500X-0.150000X0.587500X-0.150000X-0.587500X0*%
G04 #@! TD*
G04 #@! TA.AperFunction,SMDPad,CuDef*
%ADD43R,1.500000X2.000000*%
G04 #@! TD*
G04 #@! TA.AperFunction,SMDPad,CuDef*
%ADD44R,3.800000X2.000000*%
G04 #@! TD*
G04 #@! TA.AperFunction,ViaPad*
%ADD45C,0.800000*%
G04 #@! TD*
G04 #@! TA.AperFunction,Conductor*
%ADD46C,0.250000*%
G04 #@! TD*
G04 #@! TA.AperFunction,Conductor*
%ADD47C,0.200000*%
G04 #@! TD*
G04 APERTURE END LIST*
D10*
X178054000Y-74612000D03*
X178054000Y-72612000D03*
D11*
X169672000Y-69596000D03*
X167672000Y-69596000D03*
D12*
X177668000Y-68580000D03*
X176718000Y-68580000D03*
X175768000Y-68580000D03*
X175768000Y-70900000D03*
X176718000Y-70900000D03*
X177668000Y-70900000D03*
D13*
X126808000Y-74016000D03*
X126808000Y-74516000D03*
X126808000Y-75016000D03*
X126808000Y-75516000D03*
X126808000Y-76016000D03*
X126808000Y-76516000D03*
D14*
X127508000Y-77216000D03*
X128008000Y-77216000D03*
X128508000Y-77216000D03*
X129008000Y-77216000D03*
X129508000Y-77216000D03*
X130008000Y-77216000D03*
D13*
X130708000Y-76516000D03*
X130708000Y-76016000D03*
X130708000Y-75516000D03*
X130708000Y-75016000D03*
X130708000Y-74516000D03*
X130708000Y-74016000D03*
D14*
X130008000Y-73316000D03*
X129508000Y-73316000D03*
X129008000Y-73316000D03*
X128508000Y-73316000D03*
X128008000Y-73316000D03*
X127508000Y-73316000D03*
D15*
X128758000Y-75266000D03*
D16*
X171958000Y-81040000D03*
X172758000Y-81040000D03*
X173558000Y-81040000D03*
X173558000Y-78740000D03*
X172758000Y-78740000D03*
X171958000Y-78740000D03*
D17*
X172758000Y-79890000D03*
D18*
X145796000Y-99568000D03*
X145796000Y-101643000D03*
D19*
X176022000Y-72644000D03*
X176022000Y-74644000D03*
D20*
X140462000Y-79146000D03*
X140462000Y-81196000D03*
D21*
X173531000Y-98297000D03*
D22*
X175006000Y-99797000D03*
D21*
X173531000Y-101297000D03*
D22*
X172056000Y-99797000D03*
D18*
X143903500Y-77702500D03*
X143903500Y-79777500D03*
X177838000Y-78874000D03*
X177838000Y-80949000D03*
D23*
X143152000Y-103560000D03*
X136652000Y-103560000D03*
X143152000Y-99060000D03*
X136652000Y-99060000D03*
D10*
X129500000Y-95250000D03*
X129500000Y-93250000D03*
D24*
X148145000Y-66865000D03*
X148145000Y-68135000D03*
X148145000Y-69405000D03*
X148145000Y-70675000D03*
X148145000Y-71945000D03*
X148145000Y-73215000D03*
X148145000Y-74485000D03*
X148145000Y-75755000D03*
X148145000Y-77025000D03*
X148145000Y-78295000D03*
X148145000Y-79565000D03*
X148145000Y-80835000D03*
X148145000Y-82105000D03*
X148145000Y-83375000D03*
D25*
X150930000Y-84375000D03*
X152200000Y-84375000D03*
X153470000Y-84375000D03*
X154740000Y-84375000D03*
X156010000Y-84375000D03*
X157280000Y-84375000D03*
X158550000Y-84375000D03*
X159820000Y-84375000D03*
X161090000Y-84375000D03*
X162360000Y-84375000D03*
D24*
X165145000Y-83375000D03*
X165145000Y-82105000D03*
X165145000Y-80835000D03*
X165145000Y-79565000D03*
X165145000Y-78295000D03*
X165145000Y-77025000D03*
X165145000Y-75755000D03*
X165145000Y-74485000D03*
X165145000Y-73215000D03*
X165145000Y-71945000D03*
X165145000Y-70675000D03*
X165145000Y-69405000D03*
X165145000Y-68135000D03*
X165145000Y-66865000D03*
D26*
X153810000Y-72530000D03*
X155645000Y-72530000D03*
X157480000Y-72530000D03*
X153810000Y-74365000D03*
X155645000Y-74365000D03*
X157480000Y-74365000D03*
X153810000Y-76200000D03*
X155645000Y-76200000D03*
X157480000Y-76200000D03*
D27*
X154727500Y-72530000D03*
X156562500Y-72530000D03*
X153810000Y-73447500D03*
X155645000Y-73447500D03*
X157480000Y-73447500D03*
X154727500Y-74365000D03*
X156562500Y-74365000D03*
X153810000Y-75282500D03*
X155645000Y-75282500D03*
X157480000Y-75282500D03*
X154727500Y-76200000D03*
X156562500Y-76200000D03*
D28*
X171294000Y-96030000D03*
X171294000Y-93955000D03*
D18*
X143903500Y-68029000D03*
X143903500Y-70104000D03*
D29*
X165100000Y-103600000D03*
X165100000Y-101600000D03*
X165100000Y-99600000D03*
X165100000Y-97600000D03*
X165100000Y-95600000D03*
X165100000Y-93600000D03*
X165100000Y-91600000D03*
X165100000Y-89520000D03*
X148560000Y-89520000D03*
X148560000Y-91600000D03*
X148560000Y-93600000D03*
X148560000Y-95600000D03*
X148560000Y-97600000D03*
X148560000Y-99600000D03*
X148560000Y-101600000D03*
X148560000Y-103600000D03*
D30*
X140462000Y-72644000D03*
D31*
X133430000Y-83380000D03*
X133430000Y-84230000D03*
X133430000Y-85080000D03*
X133430000Y-85930000D03*
X133430000Y-86780000D03*
X133430000Y-87630000D03*
X133430000Y-88480000D03*
X133430000Y-89330000D03*
X132080000Y-89330000D03*
X132080000Y-88480000D03*
X132080000Y-87630000D03*
X132080000Y-86780000D03*
X132080000Y-85930000D03*
X132080000Y-85080000D03*
X132080000Y-84230000D03*
X132080000Y-83380000D03*
D32*
X132450000Y-82030000D03*
X132450000Y-90680000D03*
X129070000Y-90680000D03*
X129070000Y-82030000D03*
D33*
X173736000Y-105156000D03*
D10*
X127214000Y-95259000D03*
X127214000Y-93259000D03*
D34*
X185420000Y-99012000D03*
X184170000Y-99012000D03*
X182920000Y-99012000D03*
X181670000Y-99012000D03*
X180420000Y-99012000D03*
X179170000Y-99012000D03*
D35*
X177320000Y-102362000D03*
X187270000Y-102362000D03*
D36*
X128537500Y-98500000D03*
X126462500Y-98500000D03*
D37*
X183388000Y-95500000D03*
D38*
X183388000Y-92960000D03*
X183388000Y-90420000D03*
X183388000Y-87880000D03*
X183388000Y-85340000D03*
D18*
X175552000Y-78874000D03*
X175552000Y-80949000D03*
D19*
X173580000Y-94014000D03*
X173580000Y-96014000D03*
D39*
X135890000Y-87630000D03*
X135890000Y-84353400D03*
D37*
X183388000Y-80830000D03*
D38*
X183388000Y-78290000D03*
X183388000Y-75750000D03*
X183388000Y-73210000D03*
X183388000Y-70670000D03*
X183388000Y-68130000D03*
D28*
X133096000Y-74697500D03*
X133096000Y-72622500D03*
X140462000Y-85873500D03*
X140462000Y-83798500D03*
D10*
X135890000Y-79232000D03*
X135890000Y-77232000D03*
D18*
X140347500Y-68029000D03*
X140347500Y-70104000D03*
D28*
X175866000Y-96073000D03*
X175866000Y-93998000D03*
D40*
X126500000Y-104450000D03*
X128500000Y-104450000D03*
D18*
X140462000Y-74930000D03*
X140462000Y-77005000D03*
D41*
X131000000Y-98700000D03*
X131000000Y-100600000D03*
X133020000Y-99650000D03*
X131000000Y-102500000D03*
X131000000Y-104400000D03*
X133020000Y-103450000D03*
D40*
X126500000Y-101500000D03*
X128500000Y-101500000D03*
D42*
X171770000Y-74519000D03*
X173670000Y-74519000D03*
X172720000Y-72644000D03*
D28*
X133096000Y-70252500D03*
X133096000Y-68177500D03*
D20*
X131964000Y-93225000D03*
X131964000Y-95275000D03*
D28*
X135890000Y-74697500D03*
X135890000Y-72622500D03*
D11*
X169672000Y-73152000D03*
X167672000Y-73152000D03*
D10*
X173482000Y-70580000D03*
X173482000Y-68580000D03*
D33*
X127508000Y-68580000D03*
D19*
X133096000Y-77232000D03*
X133096000Y-79232000D03*
D43*
X144032000Y-89154000D03*
X141732000Y-89154000D03*
D44*
X141732000Y-95454000D03*
D43*
X139432000Y-89154000D03*
D19*
X143000000Y-83500000D03*
X143000000Y-85500000D03*
D20*
X134250000Y-93225000D03*
X134250000Y-95275000D03*
D28*
X135890000Y-70252500D03*
X135890000Y-68177500D03*
D23*
X172030000Y-90170000D03*
X172030000Y-83670000D03*
X176530000Y-90170000D03*
X176530000Y-83670000D03*
D45*
X139446000Y-89154000D03*
X178200000Y-72500000D03*
X165100000Y-89408000D03*
X135750000Y-76000000D03*
X148590000Y-91694000D03*
X184150000Y-98806000D03*
X175514000Y-78740000D03*
X148336000Y-68072000D03*
X127000000Y-78740000D03*
X170942000Y-80264000D03*
X167132000Y-67564000D03*
X146050000Y-90678000D03*
X165354000Y-70612000D03*
X130810000Y-70612000D03*
X171000000Y-72000000D03*
X129392898Y-71734898D03*
X165354000Y-71882000D03*
X181750000Y-99000000D03*
X166116000Y-85852000D03*
X148590000Y-89408000D03*
X171196000Y-93980000D03*
X159366250Y-87159500D03*
X130800000Y-72500000D03*
X164084000Y-86868000D03*
X148082000Y-80772000D03*
X171704000Y-76670500D03*
X132500000Y-98500000D03*
X165100000Y-83312000D03*
X131964000Y-93225000D03*
X131500000Y-77500000D03*
X134250000Y-93225000D03*
X130750000Y-78250000D03*
X128500000Y-87000000D03*
X129000000Y-85500000D03*
X132500000Y-101000000D03*
X126873000Y-72263000D03*
X148082000Y-78232000D03*
X176022000Y-74676000D03*
D46*
X137414000Y-89154000D02*
X139432000Y-89154000D01*
X184210000Y-73210000D02*
X183388000Y-73210000D01*
X183388000Y-95500000D02*
X185420000Y-97532000D01*
X186000000Y-75000000D02*
X184210000Y-73210000D01*
X139432000Y-86903500D02*
X140462000Y-85873500D01*
X183388000Y-95500000D02*
X186000000Y-92888000D01*
X186000000Y-92888000D02*
X186000000Y-75000000D01*
X139432000Y-89154000D02*
X139446000Y-89154000D01*
X139446000Y-89154000D02*
X139432000Y-86903500D01*
X135890000Y-87630000D02*
X137414000Y-89154000D01*
X185420000Y-97532000D02*
X185420000Y-99012000D01*
X175006000Y-99797000D02*
X175006000Y-99822000D01*
X178997000Y-80949000D02*
X183388000Y-85340000D01*
X172056000Y-99797000D02*
X172056000Y-99822000D01*
X135890000Y-67818000D02*
X137160000Y-66548000D01*
X128008000Y-74516000D02*
X126273380Y-74516000D01*
X155645000Y-75282500D02*
X155645000Y-74365000D01*
X143903500Y-79777500D02*
X143903500Y-80403500D01*
X135890000Y-72622500D02*
X135890000Y-72136000D01*
X133096000Y-72622500D02*
X133328500Y-72390000D01*
X136906000Y-71120000D02*
X139331500Y-71120000D01*
X173558000Y-78740000D02*
X173558000Y-79090000D01*
X174493000Y-79890000D02*
X175552000Y-80949000D01*
X126000000Y-98037500D02*
X126000000Y-92000000D01*
X176530000Y-90170000D02*
X176530000Y-83670000D01*
X173531000Y-104951000D02*
X173736000Y-105156000D01*
X175006000Y-96933000D02*
X175866000Y-96073000D01*
X145034000Y-87630000D02*
X144032000Y-88632000D01*
X168253000Y-103600000D02*
X172056000Y-99797000D01*
X174529000Y-73660000D02*
X177006000Y-73660000D01*
X173558000Y-79090000D02*
X172758000Y-79890000D01*
X172056000Y-99797000D02*
X172056000Y-96792000D01*
X157480000Y-75282500D02*
X157480000Y-76200000D01*
X147828000Y-66548000D02*
X139700000Y-66548000D01*
X170900000Y-92100000D02*
X174600000Y-92100000D01*
X148590000Y-91694000D02*
X148560000Y-91600000D01*
X154727500Y-74365000D02*
X155645000Y-74365000D01*
X174600000Y-92100000D02*
X176530000Y-90170000D01*
X175006000Y-99797000D02*
X175006000Y-96933000D01*
X126273380Y-74516000D02*
X125476000Y-73718620D01*
X165100000Y-103600000D02*
X168253000Y-103600000D01*
X143903500Y-79777500D02*
X141093500Y-79777500D01*
X156562500Y-74365000D02*
X155645000Y-74365000D01*
X154727500Y-72530000D02*
X155645000Y-72530000D01*
X143152000Y-103560000D02*
X145069000Y-101643000D01*
X139331500Y-71120000D02*
X140347500Y-70104000D01*
X150930000Y-84375000D02*
X150930000Y-79080000D01*
X164145000Y-66865000D02*
X158480000Y-72530000D01*
X135750000Y-76000000D02*
X135750000Y-76250000D01*
X153810000Y-75282500D02*
X153810000Y-74365000D01*
X169800000Y-95200000D02*
X169800000Y-93200000D01*
X156562500Y-72530000D02*
X157480000Y-72530000D01*
X180420000Y-99012000D02*
X180420000Y-98162000D01*
X177838000Y-80949000D02*
X178997000Y-80949000D01*
X153810000Y-73447500D02*
X153810000Y-72530000D01*
X128758000Y-75266000D02*
X128008000Y-74516000D01*
X127910500Y-68177500D02*
X127508000Y-68580000D01*
X178331000Y-96073000D02*
X175866000Y-96073000D01*
X126462500Y-98500000D02*
X126000000Y-98037500D01*
X156562500Y-76200000D02*
X155645000Y-76200000D01*
X145069000Y-101643000D02*
X145796000Y-101643000D01*
X143903500Y-80403500D02*
X145034000Y-81534000D01*
X157480000Y-75282500D02*
X157480000Y-74365000D01*
X148145000Y-66865000D02*
X149145000Y-66865000D01*
X127320000Y-90680000D02*
X129070000Y-90680000D01*
X165145000Y-66865000D02*
X164145000Y-66865000D01*
X130420000Y-89330000D02*
X132080000Y-89330000D01*
X125476000Y-73718620D02*
X125476000Y-70612000D01*
X156562500Y-76200000D02*
X157480000Y-76200000D01*
X141093500Y-79777500D02*
X140462000Y-79146000D01*
X144032000Y-88632000D02*
X144032000Y-89154000D01*
X154727500Y-76200000D02*
X153810000Y-76200000D01*
X140462000Y-77005000D02*
X140462000Y-79146000D01*
X172056000Y-99822000D02*
X173531000Y-101297000D01*
X133328500Y-72390000D02*
X135657500Y-72390000D01*
X172758000Y-81040000D02*
X172758000Y-79890000D01*
X155645000Y-73447500D02*
X155645000Y-72530000D01*
X175552000Y-80949000D02*
X177838000Y-80949000D01*
X175006000Y-99822000D02*
X173531000Y-101297000D01*
X145034000Y-81534000D02*
X145034000Y-87630000D01*
X135890000Y-68177500D02*
X138421000Y-68177500D01*
X137160000Y-66548000D02*
X139700000Y-66548000D01*
X149145000Y-66865000D02*
X153810000Y-71530000D01*
X135890000Y-68177500D02*
X135890000Y-67818000D01*
X133096000Y-68177500D02*
X127910500Y-68177500D01*
X144032000Y-90184000D02*
X145448000Y-91600000D01*
X135657500Y-72390000D02*
X135890000Y-72622500D01*
X170630000Y-96030000D02*
X169800000Y-95200000D01*
X173670000Y-74519000D02*
X174529000Y-73660000D01*
X126000000Y-92000000D02*
X127320000Y-90680000D01*
X173531000Y-101297000D02*
X173531000Y-104951000D01*
X135890000Y-76390000D02*
X135890000Y-77232000D01*
X171294000Y-96030000D02*
X170630000Y-96030000D01*
X153810000Y-71530000D02*
X153810000Y-72530000D01*
X153810000Y-73447500D02*
X153810000Y-74365000D01*
X172056000Y-96792000D02*
X171294000Y-96030000D01*
X157480000Y-73447500D02*
X157480000Y-72530000D01*
X138693500Y-82030000D02*
X140462000Y-83798500D01*
X125476000Y-70612000D02*
X127508000Y-68580000D01*
X155645000Y-75282500D02*
X155645000Y-76200000D01*
X169800000Y-93200000D02*
X170900000Y-92100000D01*
X153810000Y-75282500D02*
X153810000Y-76200000D01*
X154727500Y-74365000D02*
X153810000Y-74365000D01*
X148145000Y-66865000D02*
X147828000Y-66548000D01*
X135890000Y-72136000D02*
X136906000Y-71120000D01*
X135750000Y-76250000D02*
X135890000Y-76390000D01*
X172758000Y-79890000D02*
X174493000Y-79890000D01*
X155645000Y-73447500D02*
X155645000Y-74365000D01*
X150930000Y-79080000D02*
X153810000Y-76200000D01*
X156562500Y-72530000D02*
X155645000Y-72530000D01*
X154727500Y-76200000D02*
X155645000Y-76200000D01*
X178200000Y-72500000D02*
X178054000Y-72612000D01*
X133096000Y-68177500D02*
X135890000Y-68177500D01*
X144032000Y-89154000D02*
X144032000Y-90184000D01*
X154727500Y-72530000D02*
X153810000Y-72530000D01*
X145448000Y-91600000D02*
X148590000Y-91694000D01*
X180420000Y-98162000D02*
X178331000Y-96073000D01*
X177006000Y-73660000D02*
X178200000Y-72500000D01*
X132450000Y-82030000D02*
X138693500Y-82030000D01*
X140347500Y-70104000D02*
X143903500Y-70104000D01*
X156562500Y-74365000D02*
X157480000Y-74365000D01*
X138421000Y-68177500D02*
X140347500Y-70104000D01*
X129070000Y-90680000D02*
X130420000Y-89330000D01*
X157480000Y-73447500D02*
X157480000Y-74365000D01*
X158480000Y-72530000D02*
X157480000Y-72530000D01*
X141050000Y-82550000D02*
X141800000Y-83300000D01*
X169672000Y-69596000D02*
X169672000Y-73152000D01*
X172758000Y-78465000D02*
X173245000Y-77978000D01*
X148208000Y-68135000D02*
X144009500Y-68135000D01*
X139192000Y-76200000D02*
X139192000Y-81778087D01*
X132046000Y-71302500D02*
X132046000Y-73647500D01*
X139192000Y-81778087D02*
X139963913Y-82550000D01*
X135301826Y-73660000D02*
X139446000Y-73660000D01*
X167132000Y-67564000D02*
X167640000Y-67564000D01*
X133096000Y-70252500D02*
X132046000Y-71302500D01*
X169672000Y-75946000D02*
X171450000Y-77724000D01*
X141732000Y-95454000D02*
X143306000Y-97028000D01*
X145542000Y-70098380D02*
X145542000Y-71000000D01*
X172758000Y-78740000D02*
X172758000Y-78465000D01*
X171450000Y-77724000D02*
X171958000Y-77724000D01*
X134840000Y-74121826D02*
X135301826Y-73660000D01*
X144009500Y-68135000D02*
X143903500Y-68029000D01*
X134344500Y-74697500D02*
X134840000Y-74202000D01*
X142600000Y-71300000D02*
X142100000Y-71800000D01*
X145242000Y-71300000D02*
X142600000Y-71300000D01*
X142100000Y-71800000D02*
X142100000Y-73292000D01*
X127223000Y-95250000D02*
X127214000Y-95259000D01*
X170942000Y-80264000D02*
X171718000Y-81040000D01*
X143306000Y-97028000D02*
X147988000Y-97028000D01*
X139963913Y-82550000D02*
X141050000Y-82550000D01*
X141732000Y-89154000D02*
X141732000Y-95454000D01*
X148145000Y-68135000D02*
X148082000Y-68135000D01*
X148082000Y-68135000D02*
X148336000Y-68072000D01*
X140347500Y-68029000D02*
X143903500Y-68029000D01*
X174656000Y-77978000D02*
X175552000Y-78874000D01*
X140462000Y-74930000D02*
X139192000Y-76200000D01*
X145796000Y-99568000D02*
X147764000Y-97600000D01*
X140462000Y-74930000D02*
X140462000Y-72644000D01*
X177838000Y-78874000D02*
X175552000Y-78874000D01*
X129500000Y-95250000D02*
X131250000Y-97000000D01*
X141800000Y-84618000D02*
X143002000Y-85820000D01*
X133096000Y-74697500D02*
X134344500Y-74697500D01*
X126750000Y-78490000D02*
X126750000Y-76574000D01*
X148336000Y-68072000D02*
X148208000Y-68135000D01*
X139446000Y-73660000D02*
X140462000Y-72644000D01*
X131250000Y-97000000D02*
X140186000Y-97000000D01*
X143002000Y-86582000D02*
X141732000Y-87852000D01*
X147988000Y-97028000D02*
X148560000Y-97600000D01*
X171718000Y-81040000D02*
X171958000Y-81040000D01*
X129500000Y-95250000D02*
X127223000Y-95250000D01*
X147764000Y-97600000D02*
X148560000Y-97600000D01*
X145542000Y-71000000D02*
X145242000Y-71300000D01*
X140186000Y-97000000D02*
X141732000Y-95454000D01*
X142100000Y-73292000D02*
X140462000Y-74930000D01*
X167640000Y-67564000D02*
X169672000Y-69596000D01*
X127000000Y-78740000D02*
X126750000Y-78490000D01*
X126750000Y-76574000D02*
X126808000Y-76516000D01*
X143002000Y-85820000D02*
X143002000Y-86582000D01*
X132046000Y-73647500D02*
X133096000Y-74697500D01*
X148145000Y-68135000D02*
X147505380Y-68135000D01*
X141800000Y-83300000D02*
X141800000Y-84618000D01*
X134840000Y-74202000D02*
X134840000Y-74121826D01*
X147505380Y-68135000D02*
X145542000Y-70098380D01*
X171958000Y-77724000D02*
X172758000Y-78524000D01*
X169672000Y-73152000D02*
X169672000Y-75946000D01*
X141732000Y-87852000D02*
X141732000Y-89154000D01*
X172758000Y-78524000D02*
X172758000Y-78740000D01*
X173245000Y-77978000D02*
X174656000Y-77978000D01*
X126808000Y-76516000D02*
X126808000Y-76016000D01*
X133020000Y-102692000D02*
X136652000Y-99060000D01*
X146050000Y-90678000D02*
X145542000Y-90170000D01*
X146050000Y-75450000D02*
X143903500Y-77596500D01*
X147145000Y-69405000D02*
X146050000Y-70500000D01*
X144758500Y-77702500D02*
X143903500Y-77702500D01*
X145542000Y-90170000D02*
X145542000Y-78486000D01*
X145542000Y-78486000D02*
X144758500Y-77702500D01*
X146050000Y-70500000D02*
X146050000Y-75450000D01*
X148145000Y-69405000D02*
X147145000Y-69405000D01*
X133020000Y-103450000D02*
X133020000Y-102692000D01*
X143903500Y-77596500D02*
X143903500Y-77702500D01*
X136652000Y-99060000D02*
X143152000Y-99060000D01*
X173850000Y-96014000D02*
X173580000Y-96014000D01*
X173531000Y-98297000D02*
X173531000Y-96063000D01*
X173531000Y-96063000D02*
X173580000Y-96014000D01*
X175866000Y-93998000D02*
X173850000Y-96014000D01*
X130810000Y-71342396D02*
X129508000Y-72644396D01*
X129508000Y-72644396D02*
X129508000Y-73316000D01*
X130810000Y-70612000D02*
X130810000Y-71342396D01*
X129392898Y-71734898D02*
X129392898Y-72123102D01*
X171000000Y-68974413D02*
X171000000Y-72000000D01*
X179000000Y-68500000D02*
X178000000Y-67500000D01*
X178000000Y-67500000D02*
X172474413Y-67500000D01*
X129392898Y-72123102D02*
X129008000Y-72508000D01*
X179000000Y-71362000D02*
X179000000Y-68500000D01*
X183388000Y-75750000D02*
X179000000Y-71362000D01*
X172474413Y-67500000D02*
X171000000Y-68974413D01*
X129008000Y-72508000D02*
X129008000Y-73316000D01*
X169672000Y-80518000D02*
X169672000Y-77978000D01*
X173558000Y-81204000D02*
X172974000Y-81788000D01*
X183388000Y-90420000D02*
X178500000Y-85532000D01*
X167672000Y-75978000D02*
X167672000Y-73152000D01*
X178500000Y-85532000D02*
X178500000Y-82500000D01*
X174379500Y-81861500D02*
X173558000Y-81040000D01*
X165208000Y-73152000D02*
X165145000Y-73215000D01*
X181250000Y-92558000D02*
X183388000Y-90420000D01*
X167672000Y-73152000D02*
X165208000Y-73152000D01*
X182920000Y-98420000D02*
X181250000Y-96750000D01*
X170942000Y-81788000D02*
X169672000Y-80518000D01*
X177861500Y-81861500D02*
X174379500Y-81861500D01*
X181250000Y-96750000D02*
X181250000Y-92558000D01*
X173558000Y-81040000D02*
X173558000Y-81204000D01*
X172974000Y-81788000D02*
X170942000Y-81788000D01*
X182920000Y-99012000D02*
X182920000Y-98420000D01*
X178500000Y-82500000D02*
X177861500Y-81861500D01*
X169672000Y-77978000D02*
X167672000Y-75978000D01*
X171450000Y-78740000D02*
X171958000Y-78740000D01*
X163820000Y-84826000D02*
X164846000Y-85852000D01*
X167672000Y-69596000D02*
X168747000Y-70671000D01*
X164145000Y-69405000D02*
X163820000Y-69730000D01*
X168747000Y-70671000D02*
X168747000Y-76037000D01*
X165145000Y-69405000D02*
X164145000Y-69405000D01*
X168747000Y-76037000D02*
X171450000Y-78740000D01*
X167481000Y-69405000D02*
X167672000Y-69596000D01*
X165202000Y-69462000D02*
X165145000Y-69405000D01*
X163820000Y-69730000D02*
X163820000Y-84826000D01*
X164846000Y-85852000D02*
X166116000Y-85852000D01*
X165145000Y-69405000D02*
X167481000Y-69405000D01*
X140462000Y-81196000D02*
X141162000Y-81196000D01*
X141162000Y-81196000D02*
X143002000Y-83036000D01*
X143002000Y-83036000D02*
X143002000Y-83820000D01*
X177320000Y-102362000D02*
X187270000Y-102362000D01*
X171353000Y-93781500D02*
X171294000Y-93722500D01*
X171294000Y-93722500D02*
X171196000Y-93980000D01*
X173580000Y-93781500D02*
X171353000Y-93781500D01*
X171196000Y-93980000D02*
X171294000Y-93765500D01*
X159366250Y-87267750D02*
X162052000Y-89953500D01*
X146939000Y-86487000D02*
X146558000Y-86106000D01*
X159366250Y-87159500D02*
X158693750Y-86487000D01*
X158693750Y-86487000D02*
X146939000Y-86487000D01*
X159366250Y-87159500D02*
X159366250Y-87267750D01*
X165988000Y-93600000D02*
X165100000Y-93600000D01*
X164084000Y-86868000D02*
X164973000Y-87757000D01*
X130008000Y-73292000D02*
X130800000Y-72500000D01*
X164973000Y-87757000D02*
X166243000Y-87757000D01*
X130008000Y-73316000D02*
X130008000Y-73292000D01*
X166243000Y-87757000D02*
X167132000Y-88646000D01*
X125911826Y-105475000D02*
X129925000Y-105475000D01*
X167132000Y-88646000D02*
X167132000Y-92456000D01*
X125575000Y-102425000D02*
X125575000Y-105138174D01*
X147257000Y-82105000D02*
X148145000Y-82105000D01*
X132600000Y-106000000D02*
X131000000Y-104400000D01*
X126500000Y-101500000D02*
X125575000Y-102425000D01*
X162052000Y-93948000D02*
X150000000Y-106000000D01*
X162052000Y-89953500D02*
X162052000Y-93948000D01*
X129925000Y-105475000D02*
X131000000Y-104400000D01*
X150000000Y-106000000D02*
X132600000Y-106000000D01*
X167132000Y-92456000D02*
X165988000Y-93600000D01*
X146558000Y-82804000D02*
X147257000Y-82105000D01*
X146558000Y-86106000D02*
X146558000Y-82804000D01*
X125575000Y-105138174D02*
X125911826Y-105475000D01*
X173045000Y-75303252D02*
X173045000Y-73734748D01*
X173045000Y-73734748D02*
X175768000Y-71011748D01*
X175768000Y-71011748D02*
X175768000Y-70900000D01*
X183388000Y-80264000D02*
X183388000Y-80772000D01*
X175448000Y-70580000D02*
X175768000Y-70900000D01*
X179079000Y-76521000D02*
X174262748Y-76521000D01*
X174262748Y-76521000D02*
X173045000Y-75303252D01*
X183388000Y-80830000D02*
X179079000Y-76521000D01*
X173482000Y-70580000D02*
X175448000Y-70580000D01*
X151384000Y-89662000D02*
X149860000Y-88138000D01*
X150082000Y-99600000D02*
X151384000Y-98298000D01*
X147828000Y-88138000D02*
X146050000Y-86360000D01*
X149860000Y-88138000D02*
X147828000Y-88138000D01*
X151384000Y-98298000D02*
X151384000Y-89662000D01*
X148560000Y-99600000D02*
X150082000Y-99600000D01*
X146050000Y-86360000D02*
X146050000Y-80660000D01*
X146050000Y-80660000D02*
X147145000Y-79565000D01*
X147145000Y-79565000D02*
X148145000Y-79565000D01*
X171704000Y-76670500D02*
X171770000Y-76604500D01*
X171770000Y-76604500D02*
X171770000Y-74519000D01*
X172030000Y-83670000D02*
X172030000Y-90170000D01*
X132075000Y-98075000D02*
X128962500Y-98075000D01*
X132500000Y-98500000D02*
X132075000Y-98075000D01*
X133020000Y-99020000D02*
X133020000Y-99650000D01*
X132500000Y-98500000D02*
X133020000Y-99020000D01*
X128962500Y-98075000D02*
X128537500Y-98500000D01*
X165100000Y-95600000D02*
X166370000Y-95600000D01*
X166370000Y-95600000D02*
X167894000Y-94076000D01*
X166145000Y-78295000D02*
X165145000Y-78295000D01*
X167894000Y-94076000D02*
X167894000Y-80044000D01*
X167894000Y-80044000D02*
X166145000Y-78295000D01*
X166145000Y-77025000D02*
X165145000Y-77025000D01*
X168402000Y-79282000D02*
X166145000Y-77025000D01*
X166370000Y-97600000D02*
X168402000Y-95568000D01*
X165100000Y-97600000D02*
X166370000Y-97600000D01*
X168402000Y-95568000D02*
X168402000Y-79282000D01*
X166370000Y-101600000D02*
X168910000Y-99060000D01*
X165100000Y-101600000D02*
X166370000Y-101600000D01*
X168910000Y-99060000D02*
X168910000Y-78486000D01*
X168910000Y-78486000D02*
X166179000Y-75755000D01*
X166179000Y-75755000D02*
X165145000Y-75755000D01*
X163322000Y-99092000D02*
X163830000Y-99600000D01*
X164145000Y-68135000D02*
X163322000Y-68958000D01*
X163830000Y-99600000D02*
X165100000Y-99600000D01*
X165145000Y-68135000D02*
X164145000Y-68135000D01*
X163322000Y-68958000D02*
X163322000Y-99092000D01*
X175768000Y-68580000D02*
X173482000Y-68580000D01*
X171958000Y-71882000D02*
X171958000Y-70104000D01*
X172720000Y-72644000D02*
X171958000Y-71882000D01*
X171958000Y-70104000D02*
X173482000Y-68580000D01*
X133096000Y-77232000D02*
X133355500Y-77232000D01*
X131755000Y-84230000D02*
X130750000Y-83225000D01*
X132080000Y-88480000D02*
X131152000Y-88480000D01*
X130000000Y-80264000D02*
X136906000Y-80264000D01*
X133430000Y-84230000D02*
X132080000Y-84230000D01*
X136906000Y-80264000D02*
X137160000Y-80010000D01*
X130750000Y-81014000D02*
X130000000Y-80264000D01*
X131596000Y-75732000D02*
X131596000Y-70080000D01*
X130556000Y-85344000D02*
X131670000Y-84230000D01*
X131596000Y-70080000D02*
X132336000Y-69340000D01*
X127508000Y-78222695D02*
X129549305Y-80264000D01*
X134977500Y-69340000D02*
X135890000Y-70252500D01*
X132080000Y-88480000D02*
X133430000Y-88480000D01*
X130750000Y-83225000D02*
X130750000Y-81014000D01*
X133096000Y-77232000D02*
X131596000Y-75732000D01*
X137160000Y-80010000D02*
X137160000Y-75967500D01*
X129549305Y-80264000D02*
X130000000Y-80264000D01*
X131670000Y-84230000D02*
X132080000Y-84230000D01*
X135766600Y-84230000D02*
X135890000Y-84353400D01*
X133355500Y-77232000D02*
X135890000Y-74697500D01*
X130556000Y-87884000D02*
X130556000Y-85344000D01*
X132080000Y-84230000D02*
X131755000Y-84230000D01*
X133430000Y-84230000D02*
X135766600Y-84230000D01*
X131152000Y-88480000D02*
X130556000Y-87884000D01*
X127508000Y-77216000D02*
X127508000Y-78222695D01*
X132336000Y-69340000D02*
X134977500Y-69340000D01*
X137160000Y-75967500D02*
X135890000Y-74697500D01*
X131242620Y-76016000D02*
X131500000Y-76273380D01*
X131500000Y-76273380D02*
X131500000Y-77500000D01*
X130708000Y-76016000D02*
X131242620Y-76016000D01*
X128148000Y-92325000D02*
X134938174Y-92325000D01*
X127214000Y-93259000D02*
X128148000Y-92325000D01*
X135275000Y-95838174D02*
X134938174Y-96175000D01*
X134938174Y-92325000D02*
X135275000Y-92661826D01*
X132864000Y-96175000D02*
X131964000Y-95275000D01*
X135275000Y-92661826D02*
X135275000Y-95838174D01*
X134938174Y-96175000D02*
X132864000Y-96175000D01*
X130708000Y-76516000D02*
X130708000Y-78208000D01*
X130708000Y-78208000D02*
X130750000Y-78250000D01*
X129500000Y-93250000D02*
X130375000Y-94125000D01*
X133100000Y-94125000D02*
X134250000Y-95275000D01*
X130375000Y-94125000D02*
X133100000Y-94125000D01*
D47*
X125976368Y-75016000D02*
X125500000Y-75492368D01*
X133070000Y-85930000D02*
X133430000Y-85930000D01*
X125500000Y-75492368D02*
X125500000Y-83844000D01*
X132220000Y-86780000D02*
X133070000Y-85930000D01*
X132080000Y-86780000D02*
X132220000Y-86780000D01*
X128500000Y-87000000D02*
X128524000Y-86868000D01*
X126808000Y-75016000D02*
X125976368Y-75016000D01*
X125500000Y-83844000D02*
X128500000Y-87000000D01*
X126308736Y-75516000D02*
X126000000Y-75824736D01*
X126000000Y-75824736D02*
X126000000Y-82500000D01*
X126000000Y-82500000D02*
X129000000Y-85500000D01*
X126808000Y-75516000D02*
X126308736Y-75516000D01*
D46*
X128008000Y-77750620D02*
X129489380Y-79232000D01*
X128008000Y-77216000D02*
X128008000Y-77750620D01*
X135890000Y-79232000D02*
X133096000Y-79232000D01*
X129489380Y-79232000D02*
X133096000Y-79232000D01*
X127489620Y-72263000D02*
X128008000Y-72781380D01*
X131000000Y-100600000D02*
X131000000Y-100648000D01*
X131000000Y-100600000D02*
X132100000Y-100600000D01*
X127950000Y-103000000D02*
X126500000Y-104450000D01*
X132100000Y-100600000D02*
X132500000Y-101000000D01*
X128008000Y-72781380D02*
X128008000Y-73316000D01*
X128648000Y-103000000D02*
X127950000Y-103000000D01*
X126873000Y-72263000D02*
X127489620Y-72263000D01*
X131000000Y-100648000D02*
X128648000Y-103000000D01*
X130450000Y-102500000D02*
X131000000Y-102500000D01*
X128500000Y-104450000D02*
X130450000Y-102500000D01*
X176718000Y-70900000D02*
X176718000Y-68580000D01*
X177668000Y-68580000D02*
X177668000Y-70900000D01*
X176718000Y-70900000D02*
X177668000Y-70900000D01*
X176718000Y-70900000D02*
X176718000Y-71948000D01*
X176718000Y-71948000D02*
X176022000Y-72644000D01*
X175990000Y-74676000D02*
X176022000Y-74644000D01*
X176022000Y-74644000D02*
X176022000Y-74676000D01*
X178054000Y-74612000D02*
X176054000Y-74612000D01*
X176054000Y-74612000D02*
X176022000Y-74644000D01*
X176022000Y-74676000D02*
X175990000Y-74676000D01*
X131000000Y-99000000D02*
X128500000Y-101500000D01*
X131000000Y-98700000D02*
X131000000Y-99000000D01*
M02*
